<svg width="22" height="23" viewBox="0 0 22 23" fill="none" xmlns="http://www.w3.org/2000/svg">
<g clip-path="url(#clip0)">
<path d="M15.5777 11.049H15.5719C14.7717 11.049 14.123 11.672 14.123 12.4405V12.4461C14.123 13.2147 14.7717 13.8377 15.5719 13.8377H15.5777C16.3779 13.8377 17.0266 13.2147 17.0266 12.4461V12.4405C17.0266 11.672 16.3779 11.049 15.5777 11.049Z" fill="white"/>
<path d="M17.4727 15.2795C17.3244 15.1536 17.161 15.0452 16.9859 14.9566C16.9433 14.934 16.8954 14.9225 16.8468 14.9232C16.7929 14.9229 16.7398 14.9354 16.6923 14.9597C16.6447 14.984 16.6042 15.0193 16.5744 15.0624L15.3863 16.6989L14.743 15.8083C14.7109 15.7661 14.6691 15.7316 14.6209 15.7074C14.5726 15.6833 14.5192 15.6702 14.4648 15.6691C14.4165 15.6703 14.369 15.6817 14.3257 15.7025C14.1532 15.7972 13.9902 15.9071 13.8389 16.0309C13.7824 16.0827 13.7472 16.1522 13.7398 16.2268C13.7323 16.3015 13.7531 16.3762 13.7984 16.4373L14.9575 17.968C15.0097 18.0367 15.0775 18.093 15.1559 18.1325C15.2343 18.1721 15.321 18.1939 15.4095 18.1962C15.499 18.1947 15.5869 18.1733 15.6663 18.1337C15.7457 18.0941 15.8146 18.0374 15.8673 17.968C15.9948 17.801 17.5364 15.6858 17.5364 15.6858C17.5802 15.6226 17.5979 15.5459 17.5861 15.4709C17.5743 15.3958 17.5339 15.3276 17.4727 15.2795Z" fill="white"/>
<path d="M6.06209 11.049H6.0563C5.2561 11.049 4.60742 11.672 4.60742 12.4405V12.4461C4.60742 13.2147 5.2561 13.8377 6.0563 13.8377H6.06209C6.86228 13.8377 7.51096 13.2147 7.51096 12.4461V12.4405C7.51096 11.672 6.86228 11.049 6.06209 11.049Z" fill="white"/>
<path d="M10.8199 11.049H10.8141C10.0139 11.049 9.36523 11.672 9.36523 12.4405V12.4461C9.36523 13.2147 10.0139 13.8377 10.8141 13.8377H10.8199C11.6201 13.8377 12.2688 13.2147 12.2688 12.4461V12.4405C12.2688 11.672 11.6201 11.049 10.8199 11.049Z" fill="white"/>
<path d="M6.06209 15.1681H6.0563C5.2561 15.1681 4.60742 15.7911 4.60742 16.5597V16.5652C4.60742 17.3338 5.2561 17.9568 6.0563 17.9568H6.06209C6.86228 17.9568 7.51096 17.3338 7.51096 16.5652V16.5597C7.51096 15.7911 6.86228 15.1681 6.06209 15.1681Z" fill="white"/>
<path d="M10.8199 15.1681H10.8141C10.0139 15.1681 9.36523 15.7911 9.36523 16.5597V16.5652C9.36523 17.3338 10.0139 17.9568 10.8141 17.9568H10.8199C11.6201 17.9568 12.2688 17.3338 12.2688 16.5652V16.5597C12.2688 15.7911 11.6201 15.1681 10.8199 15.1681Z" fill="white"/>
<path d="M21.8373 8.23804C21.8373 8.08775 21.8373 7.93746 21.7968 7.78717L21.762 7.36413C21.6924 6.61825 21.6113 5.87236 21.5128 5.13761C21.3949 4.61378 21.1318 4.13031 20.7512 3.73836C20.3707 3.34641 19.8869 3.06057 19.351 2.91108C18.928 2.81646 18.5049 2.73853 18.0818 2.65503V1.39148C18.0494 1.04389 17.8827 0.720537 17.6146 0.485032C17.3465 0.249527 16.9963 0.118927 16.6329 0.118927C16.2696 0.118927 15.9194 0.249527 15.6512 0.485032C15.3831 0.720537 15.2164 1.04389 15.184 1.39148V5.56621C14.7371 5.54616 14.3154 5.36141 14.0067 5.05039C13.698 4.73938 13.526 4.32603 13.5265 3.89632V2.00934C11.5963 1.8714 9.65744 1.89188 7.73091 2.07057V1.39148C7.69851 1.04389 7.53184 0.720537 7.2637 0.485032C6.99556 0.249527 6.64537 0.118927 6.28201 0.118927C5.91866 0.118927 5.56847 0.249527 5.30033 0.485032C5.03219 0.720537 4.86552 1.04389 4.83312 1.39148V5.56621C4.38314 5.55036 3.9571 5.36745 3.6447 5.05598C3.3323 4.74452 3.1579 4.3288 3.1582 3.89632V2.78306C2.99013 2.81646 2.81626 2.84429 2.64819 2.88325C2.11234 3.03274 1.62854 3.31858 1.248 3.71053C0.867451 4.10248 0.604315 4.58595 0.48644 5.10978C0.387915 5.86123 0.306777 6.60711 0.23723 7.3363L0.196661 7.79274C0.196661 7.94303 0.167684 8.09332 0.156092 8.24361C-0.139978 12.2453 0.00182308 16.2658 0.579169 20.239C0.666427 20.6308 0.862161 20.9928 1.14573 21.2867C1.4293 21.5806 1.79019 21.7956 2.19034 21.9089C7.9869 23.3506 14.0703 23.3506 19.8668 21.9089C20.267 21.7956 20.6279 21.5806 20.9114 21.2867C21.195 20.9928 21.3908 20.6308 21.478 20.239C22.0345 16.2618 22.1549 12.2394 21.8373 8.23804ZM19.5655 20.1388C13.9077 21.1742 8.0973 21.1742 2.43955 20.1388C2.03581 16.4414 1.92344 12.7199 2.10341 9.00619C8.02422 8.53863 13.975 8.53863 19.8958 9.00619C20.0747 12.7198 19.9643 16.441 19.5655 20.1388Z" fill="white"/>
</g>
<defs>
<clipPath id="clip0">
<rect width="22" height="23" fill="white"/>
</clipPath>
</defs>
</svg>
