<svg xmlns="http://www.w3.org/2000/svg" width="42" height="41" fill="none"><path d="M13.454 40.09a1.41 1.41 0 0 0 1-.409l8.682-8.41L33 30.727c3.273-.364 7-3.364 7.5-6.682.41-2.545.59-5.182.59-7.818s-.182-5.318-.59-7.91C40 5 36.272 1.818 33 1.455c-4.09-.41-8.182-.636-12.273-.636s-8.182.227-12.273.636C5.18 1.818 1.454 5 .91 8.318.545 10.91.363 13.59.363 16.273c0 2.59.182 5.227.545 7.773.545 3.318 4.273 6.5 7.545 6.864 1.182.136 2.364.182 3.545.273v7.454c0 .59.318 1.136.864 1.364.182.045.364.09.59.09z" fill="#fff"/></svg>