<svg width="15" height="15" viewBox="0 0 15 15" fill="none" xmlns="http://www.w3.org/2000/svg">
<path fill-rule="evenodd" clip-rule="evenodd" d="M0.438749 0.438675C-0.14625 1.02369 -0.14625 1.97217 0.438749 2.55707L5.38176 7.50023L0.439211 12.4429C-0.145787 13.0278 -0.145787 13.9763 0.439211 14.5613C1.02421 15.1462 1.97255 15.1462 2.55755 14.5613L7.5001 9.61863L12.4425 14.5612C13.0275 15.1462 13.9759 15.1462 14.5609 14.5612C15.1459 13.9763 15.1459 13.0278 14.5609 12.4428L9.61832 7.50023L14.5613 2.55719C15.1462 1.97217 15.1462 1.02369 14.5613 0.43879C13.9763 -0.146225 13.028 -0.146225 12.443 0.43879L7.5001 5.38183L2.55709 0.438675C1.97209 -0.146225 1.02375 -0.146225 0.438749 0.438675Z" fill="#38417C"/>
</svg>
