<svg width="23" height="23" viewBox="0 0 23 23" fill="none" xmlns="http://www.w3.org/2000/svg">
<path d="M21 11.4001V14.9C21 18.2138 18.3137 20.9 15 20.9H8C4.68629 20.9 2 18.2138 2 14.9V7.90009C2 4.58638 4.68629 1.90009 8 1.90009H11.5" stroke="white" stroke-width="3" stroke-linecap="round" stroke-linejoin="round"/>
<path d="M21.6761 3.71909L10.7564 14.6388C10.5003 14.8949 10.1692 15.0629 9.81124 15.1182C8.67132 15.2946 7.68876 14.312 7.86512 13.1721C7.9205 12.8141 8.08843 12.4831 8.34457 12.227L19.2643 1.30725C19.9303 0.641243 21.0101 0.641243 21.6761 1.30725C22.3421 1.97326 22.3421 3.05308 21.6761 3.71909Z" fill="white"/>
</svg>
