<svg width="60" height="60" viewBox="0 0 60 60" fill="none" xmlns="http://www.w3.org/2000/svg">
<circle cx="30" cy="30" r="30" fill="#FF7259"/>
<path d="M11 31.1813V33.0117C11 33.8042 11.3125 34.5643 11.8687 35.1247C12.4249 35.6852 13.1793 36 13.966 36H19.4712C20.2512 35.9909 20.9961 35.6718 21.5438 35.1122C22.0915 34.5525 22.3977 33.7976 22.3959 33.0117V30.4879C22.3959 27.4927 37.5972 27.4927 37.5972 30.4879V33.0117C37.6063 33.8031 37.9266 34.5585 38.4878 35.1122C39.049 35.6659 39.8053 35.9727 40.5907 35.9653H46.0616C46.8375 35.9581 47.5797 35.6448 48.129 35.0927C48.6783 34.5405 48.991 33.7934 49 33.0117V31.1813C49 21.6062 11 21.6062 11 31.1813Z" fill="white"/>
</svg>
