<svg width="25" height="26" viewBox="0 0 25 26" fill="none" xmlns="http://www.w3.org/2000/svg">
<g opacity="0.6">
<rect x="4.94824" y="1" width="15.1053" height="24" rx="1" stroke="#38417C" stroke-width="2"/>
<path d="M19.0004 10.5791C21.0933 10.5791 22.7899 12.2758 22.7899 14.3686H24.7899C24.7899 11.1712 22.1979 8.5791 19.0004 8.5791V10.5791ZM22.7899 14.3686V14.6252H24.7899V14.3686H22.7899ZM22.7899 14.6252C22.7899 16.5763 21.2082 18.1581 19.257 18.1581V20.1581C22.3127 20.1581 24.7899 17.6809 24.7899 14.6252H22.7899ZM19.257 18.1581H19.0004V20.1581H19.257V18.1581ZM19.0004 18.1581H10.1057V20.1581H19.0004V18.1581ZM14.2109 8.5791H6.00044V10.5791H14.2109V8.5791ZM6.00044 8.5791C2.80305 8.5791 0.210938 11.1712 0.210938 14.3686H2.21094C2.21094 12.2758 3.90762 10.5791 6.00044 10.5791V8.5791ZM0.210938 14.3686V14.7107H2.21094V14.3686H0.210938ZM0.210938 14.7107C0.210938 17.7192 2.64985 20.1581 5.65834 20.1581V18.1581C3.75442 18.1581 2.21094 16.6146 2.21094 14.7107H0.210938Z" fill="#38417C"/>
<path d="M12.1582 6.1582L15.5793 9.5793L12.1582 13.0003" stroke="#38417C" stroke-width="2"/>
<path d="M12.843 22.5784L9.42188 19.1574L12.843 15.7363" stroke="#38417C" stroke-width="2"/>
</g>
</svg>
