<svg width="122" height="302" fill="none" xmlns="http://www.w3.org/2000/svg">
  <path fill-rule="evenodd" clip-rule="evenodd" d="M105.825 2.315c2.457 1.512 4.329 3.838 5.726 6.362 7.239 13.084 1.881 29.439-5.042 42.692-7.59 14.529-16.928 28.094-24.423 42.672-7.495 14.577-13.185 30.578-12.662 46.959-6.962-11.825-13.973-23.758-18.342-36.765-7.443-22.16-6.684-46.971 2.1-68.636C60.624 17.249 76.483-.14 96.296.002c3.31.023 6.711.578 9.53 2.313zM141.859 98.523c5.556-1.372 11.256-1.97 16.893-1.15 9.015 1.31 17.828 6.861 21.003 15.418 4.392 11.839-3.421 25.411-14.311 31.767-13.257 7.737-29.977 7.463-44.666 10.193C110.133 156.73 99.21 160.63 92.319 169c-1.13-18.61.125-37.592 14.025-51.447 7.193-7.169 16.277-12.191 25.733-15.872 3.18-1.238 6.456-2.337 9.782-3.158zM4.83 98.646c2.28-3.163 5.754-5.332 9.455-6.565 2.553-.85 5.274-1.289 7.948-.984 8.149.926 14.004 8.356 17.293 15.865a59.39 59.39 0 014.91 20.943c.777 16.301-4.87 34.12 3.564 48.095-15.268-2.441-29.384-11.387-38.102-24.149-8.72-12.761-11.918-29.158-8.634-44.258.687-3.16 1.674-6.324 3.565-8.947z" fill="#85E5CC"/>
  <path fill-rule="evenodd" clip-rule="evenodd" d="M85.91 34.504C73.628 63.27 71.78 94.534 70.83 125.418c-.067 2.117-.127 4.234-.188 6.345-.501 17.734-2.176 35.511-1.85 53.257.158 8.371.883 16.657 1.681 24.98h-6.655c-1.372-4.464-3.216-8.716-5.373-12.944-4.274-8.371-9.792-15.303-15.637-22.276-1.76-2.105-3.554-4.216-5.35-6.375-12.844-15.442-22.176-34.616-25.447-54.485-.145-.871 1.149-1.27 1.348-.369 5.326 23.668 17.874 42.848 33.716 60.709.024.03.048.054.072.084 6.988 7.9 12.494 16.355 17.022 25.9.32.671.592 1.355.888 2.032-.629-7.742-.943-15.478-.731-23.256.393-14.323 1.33-28.646 2.115-42.962.181-3.212.351-6.418.502-9.624 1.517-31.621 4.116-63.702 17.28-92.922.527-1.155 2.177-.151 1.687.992zM157.492 121.777c-23.25 11.208-47.208 20.248-61.443 43.209-.097.158-.194.309-.284.467C87.01 179.682 81.022 194.475 77.074 210H72c4.105-16.579 11.698-32.867 20.308-46.328a115.43 115.43 0 011.72-2.646c15.009-22.476 38.652-30.857 62.477-40.938 1.126-.479 2.138 1.132.987 1.689z" fill="#55D3B9"/>
  <path fill-rule="evenodd" clip-rule="evenodd" d="M22.026 216.406l.21 3.481.656 11.443 1.551 27.032 1.015 17.738 2.178 37.66.552 9.702 2.028 35.254 1.045 18.144 2.192 38.068.433 7.517c.194 3.185 1.283 5.555 2.58 5.555h64.759c1.312 0 2.431-2.407 2.58-5.666l1.119-22.625h.015l.239-5.037.775-15.812.508-10.109.045-1 3.296-66.915.015-.333.209-4.222.94-18.922.388-7.925.164-3.184 1.119-22.922.403-7.999.94-19.071c.193-3.851-1.015-7.258-2.581-7.258H24.607c-1.581 0-2.804 3.481-2.58 7.406z" fill="#fff"/>
  <path fill-rule="evenodd" clip-rule="evenodd" d="M97.852 283h.006l.29-6h-.005l-.29 6z" fill="#ECEDF2"/>
  <path fill-rule="evenodd" clip-rule="evenodd" d="M22.237 219.919l.66 11.441 1.561 27.028 1.021 17.735 2.192 37.655.556 9.701 2.04 35.248 1.052 18.141 2.206 38.062.436 7.516c.195 3.184 1.29 5.554 2.597 5.554h65.164c1.321 0 2.447-2.406 2.597-5.665 0 0 1.126-22.622 1.141-22.622l.24-5.036.781-15.809.51-10.108c.432-12.67-14.84-26.138-23.128-34.037-10.274-9.792-21.037-18.882-28.504-31.129-8.17-13.402-11.967-29.286-13.869-44.751-.609-4.954-2.93-49.825-.357-49.843-5.503.038-11.006.034-16.51.034-1.59 0-2.822 3.48-2.596 7.405l.21 3.48z" fill="#ECEDF4"/>
</svg>
