<svg width="20" height="20" viewBox="0 0 20 20" fill="none" xmlns="http://www.w3.org/2000/svg">
<circle cx="10" cy="10" r="10" fill="#FF7259"/>
<path d="M9.83 12.03C10.22 12.03 10.535 11.745 10.55 11.355L10.76 5.865C10.775 5.325 10.355 4.905 9.83 4.905C9.305 4.905 8.885 5.355 8.9 5.865L9.125 11.355C9.14 11.745 9.455 12.03 9.83 12.03ZM8.795 14.115C8.795 14.67 9.26 15.15 9.83 15.15C10.4 15.15 10.88 14.67 10.88 14.115C10.88 13.545 10.4 13.065 9.83 13.065C9.26 13.065 8.795 13.545 8.795 14.115Z" fill="white"/>
</svg>
