<svg xmlns="http://www.w3.org/2000/svg" width="299" height="269" fill="none" opacity=".3" fill-rule="evenodd"><path d="M222.752 21.543c1.98-.808 4.193-.9 6.32-.64 11.028 1.398 18.553 11.76 23.53 21.702 5.456 10.897 9.57 22.42 15.098 33.282s12.694 21.27 22.8 28.126c-10.15-1.013-20.384-2.043-30.118-5.124-16.585-5.25-31.202-16.563-40.438-31.3-7.823-12.48-11.4-29.576-2.716-41.36 1.452-1.97 3.264-3.76 5.534-4.686zM295.55 42.46c1.62-3.916 3.755-7.6 6.692-10.623 4.695-4.852 11.78-7.783 18.163-6.055 8.832 2.4 13.356 12.84 12.323 22.07-1.258 11.238-8.706 21.153-13.513 31.125-3.484 7.226-5.967 15.435-4.08 23.122-11.366-7.222-21.9-16.033-23.946-30.254-1.054-7.36-.03-14.94 1.942-22.177.663-2.434 1.45-4.865 2.42-7.2zm-58.947 80.842c-.92-2.724-.73-5.718.116-8.44.584-1.876 1.488-3.672 2.816-5.117 4.048-4.403 11.013-4.62 16.925-3.3a44.63 44.63 0 0 1 14.662 6.228c10.108 6.643 18.373 17.737 30.367 18.85-8.007 7.943-19.422 12.373-30.8 11.957s-22.592-5.673-30.24-14.188c-1.6-1.782-3.074-3.743-3.836-6z" fill="#85e5cc"/><g fill="#55d3b9"><path d="M233.63 46.89c11.858 19.9 29.77 34.612 47.847 48.618l3.718 2.873c10.4 8.017 20.31 16.756 31.08 24.28 5.08 3.548 10.36 6.716 15.69 9.857l-2.907 4.002c-3.272-1.117-6.624-1.86-10.098-2.4-6.88-1.072-13.44-.77-20.17-.29l-6.155.443c-14.857 1.006-30.414-1.723-43.74-8.4-.585-.29-.26-1.243.368-.97 16.498 7.094 33.464 7.893 51.08 6.137.03-.001.054-.005.083-.007 7.782-.765 15.25-.397 22.943 1.033.542.1 1.07.233 1.605.35-4.9-2.99-9.68-6.167-14.244-9.678-8.404-6.467-16.57-13.26-24.8-19.962l-5.543-4.488c-18.27-14.668-36.345-30.187-48.09-50.815-.462-.82.86-1.374 1.33-.582z"/><path d="M316.243 43.632c-3.52 18.83-8.637 37.15-1.24 55.617l.152.372c4.613 11.405 10.77 21.386 18.253 30.455l-2.22 3.055c-8.04-9.618-14.383-21.2-18.602-32.196-.286-.725-.555-1.45-.818-2.176-6.77-18.725-1.4-36.572 3.04-55.262.21-.884 1.607-.8 1.434.134z"/></g></svg>