<svg width="125" height="32" viewBox="0 0 125 32" fill="none" xmlns="http://www.w3.org/2000/svg">
<path fill-rule="evenodd" clip-rule="evenodd" d="M66.7818 15.757C67.081 14.6927 67.2307 13.5879 67.2307 12.4425C67.2307 11.2972 67.081 10.1981 66.7818 9.14534C66.494 8.08098 66.0797 7.09183 65.5387 6.17787C64.9977 5.25235 64.3531 4.41359 63.605 3.6616C62.8568 2.89805 62.0223 2.2444 61.1015 1.70065C60.1807 1.15691 59.1908 0.74042 58.1319 0.451192C57.0845 0.150398 55.991 0 54.8515 0H47.393V24.885H54.8515C55.991 24.885 57.0845 24.7404 58.1319 24.4512C59.1908 24.1504 60.1807 23.7281 61.1015 23.1844C62.0223 22.6406 62.8568 21.9928 63.605 21.2408C64.3531 20.4772 64.9977 19.6385 65.5387 18.7245C66.0797 17.799 66.494 16.8098 66.7818 15.757ZM61.6885 9.54447C62.0799 10.4469 62.2756 11.4129 62.2756 12.4425C62.2756 13.4722 62.0799 14.444 61.6885 15.3579C61.3087 16.2603 60.7792 17.0528 60.1001 17.7354C59.4325 18.4064 58.6441 18.9385 57.7348 19.3319C56.837 19.7137 55.8759 19.9046 54.8515 19.9046H52.3826V4.98048H54.8515C55.8759 4.98048 56.837 5.17715 57.7348 5.5705C58.6441 5.96385 59.4325 6.50181 60.1001 7.18438C60.7792 7.85539 61.3087 8.64208 61.6885 9.54447ZM18.8191 24.885H23.5152V13.0846C23.5152 12.1012 23.331 11.1757 22.9627 10.308C22.5944 9.44035 22.0879 8.68836 21.4434 8.05206C20.8103 7.40419 20.0622 6.89515 19.1989 6.52495C18.3471 6.15474 17.4321 5.96963 16.4537 5.96963C16.0279 5.96963 15.5962 6.01012 15.1588 6.09111C14.7215 6.16052 14.2956 6.282 13.8812 6.45553C13.4784 6.62907 13.0928 6.85466 12.7244 7.13232C12.3561 7.40998 12.0281 7.74548 11.7403 8.13883C11.1188 7.34056 10.3936 6.77946 9.56492 6.45553C8.7477 6.1316 7.90746 5.96963 7.0442 5.96963C6.19245 5.96963 5.36948 6.12581 4.57528 6.43818C3.79259 6.73897 3.0732 7.16703 2.41713 7.72234L1.1395 6.29935H0V24.885H4.7134V13.0846C4.7134 12.7607 4.77095 12.4541 4.88605 12.1649C5.01266 11.8756 5.17956 11.6211 5.38674 11.4013C5.60543 11.1815 5.8529 11.0137 6.12914 10.898C6.4169 10.7708 6.72192 10.7072 7.0442 10.7072C7.36648 10.7072 7.6715 10.7708 7.95925 10.898C8.24701 11.0137 8.50023 11.1815 8.71892 11.4013C8.93761 11.6211 9.10451 11.8756 9.21961 12.1649C9.34622 12.4541 9.40953 12.7607 9.40953 13.0846V24.885H14.1229V13.0846C14.1229 12.7607 14.1805 12.4541 14.2956 12.1649C14.4222 11.8756 14.5891 11.6211 14.7963 11.4013C15.015 11.1815 15.2624 11.0137 15.5387 10.898C15.8264 10.7708 16.1314 10.7072 16.4537 10.7072C16.776 10.7072 17.081 10.7708 17.3688 10.898C17.6565 11.0137 17.9098 11.1815 18.1285 11.4013C18.3471 11.6211 18.514 11.8756 18.6291 12.1649C18.7558 12.4541 18.8191 12.7607 18.8191 13.0846V24.885ZM31.4227 27.1931V31.9653L33.8398 32C35.1404 32 36.3605 31.7513 37.5 31.2538C38.6395 30.7563 39.6351 30.0795 40.4869 29.2234C41.3501 28.3673 42.0292 27.3666 42.5242 26.2213C43.0191 25.0759 43.2723 23.8496 43.2838 22.5423V6.29935H38.5359V16.5727C38.5359 17.0701 38.4438 17.556 38.2597 18.0304C38.0755 18.4931 37.8223 18.9096 37.5 19.2798C37.1777 19.65 36.7979 19.9508 36.3605 20.1822C35.9346 20.402 35.48 20.5119 34.9965 20.5119C34.5016 20.5119 34.0354 20.4309 33.5981 20.269C33.1722 20.107 32.7981 19.8641 32.4758 19.5401C32.1535 19.2046 31.8946 18.7939 31.6989 18.308C31.5147 17.8106 31.4227 17.2321 31.4227 16.5727V6.29935H26.7265V16.5727C26.7265 17.9031 26.9395 19.1063 27.3653 20.1822C27.8027 21.2466 28.3955 22.1547 29.1436 22.9067C29.9033 23.6471 30.7838 24.2198 31.7852 24.6247C32.7866 25.0296 33.857 25.2321 34.9965 25.2321C35.5375 25.2321 36.0727 25.1222 36.6022 24.9024C37.1432 24.6826 37.6726 24.4628 38.1906 24.243C38.018 24.671 37.7935 25.0644 37.5173 25.423C37.241 25.7932 36.9187 26.1114 36.5504 26.3774C36.1936 26.6435 35.8023 26.8518 35.3764 27.0022C34.9505 27.1526 34.5074 27.2278 34.047 27.2278L31.4227 27.1931ZM87.8971 15.4273C87.8971 16.8156 87.6496 18.1114 87.1547 19.3145C86.6598 20.5061 85.9864 21.5416 85.1347 22.4208C84.2829 23.2885 83.2815 23.9769 82.1305 24.4859C80.991 24.9834 79.7652 25.2321 78.453 25.2321C77.1524 25.2321 75.9266 24.9834 74.7756 24.4859C73.636 23.9769 72.6347 23.2885 71.7714 22.4208C70.9197 21.5416 70.2463 20.5061 69.7514 19.3145C69.2564 18.1114 69.009 16.8156 69.009 15.4273C69.009 14.0159 69.2564 12.7086 69.7514 11.5054C70.2463 10.3022 70.9197 9.26681 71.7714 8.39913C72.6347 7.51988 73.636 6.83152 74.7756 6.33406C75.9266 5.83659 77.1524 5.58785 78.453 5.58785C79.7652 5.58785 80.991 5.82502 82.1305 6.29935C83.2815 6.76211 84.2829 7.42733 85.1347 8.29501C85.9864 9.15112 86.6598 10.1866 87.1547 11.4013C87.6496 12.6045 87.8971 13.9465 87.8971 15.4273ZM83.1492 15.4273C83.1492 14.6638 83.0226 13.9754 82.7693 13.3623C82.5276 12.7375 82.1938 12.2053 81.768 11.7657C81.3421 11.3145 80.8414 10.9732 80.2659 10.7419C79.7019 10.4989 79.0976 10.3774 78.453 10.3774C77.8085 10.3774 77.1984 10.4989 76.6229 10.7419C76.0589 10.9732 75.564 11.3145 75.1381 11.7657C74.7238 12.2053 74.3957 12.7375 74.154 13.3623C73.9123 13.9754 73.7914 14.6638 73.7914 15.4273C73.7914 16.1446 73.9123 16.8098 74.154 17.423C74.3957 18.0362 74.7238 18.5683 75.1381 19.0195C75.564 19.4707 76.0589 19.8294 76.6229 20.0954C77.1984 20.35 77.8085 20.4772 78.453 20.4772C79.0976 20.4772 79.7019 20.3557 80.2659 20.1128C80.8414 19.8698 81.3421 19.5286 81.768 19.0889C82.1938 18.6493 82.5276 18.1171 82.7693 17.4924C83.0226 16.8677 83.1492 16.1793 83.1492 15.4273ZM106.664 9.99566L103.211 13.4837C103.039 12.9978 102.803 12.564 102.503 12.1822C102.204 11.7889 101.865 11.4591 101.485 11.1931C101.116 10.927 100.714 10.7245 100.276 10.5857C99.8389 10.4469 99.39 10.3774 98.9296 10.3774C98.285 10.3774 97.675 10.5105 97.0994 10.7766C96.5355 11.0427 96.0405 11.4187 95.6146 11.9046C95.2003 12.3789 94.8722 12.9458 94.6305 13.6052C94.3888 14.2646 94.268 14.9935 94.268 15.7918C94.268 16.4396 94.3888 17.047 94.6305 17.6139C94.8722 18.1808 95.2003 18.6782 95.6146 19.1063C96.0405 19.5343 96.5355 19.8698 97.0994 20.1128C97.675 20.3557 98.285 20.4772 98.9296 20.4772C99.39 20.4772 99.8331 20.4136 100.259 20.2863C100.685 20.1591 101.082 19.9798 101.45 19.7484C101.83 19.5054 102.164 19.2162 102.452 18.8807C102.751 18.5336 102.993 18.1518 103.177 17.7354L106.63 21.2234C106.192 21.8482 105.686 22.4093 105.11 22.9067C104.547 23.4042 103.931 23.8265 103.263 24.1735C102.607 24.5206 101.911 24.7809 101.174 24.9544C100.449 25.1396 99.7007 25.2321 98.9296 25.2321C97.6289 25.2321 96.4031 24.9892 95.2521 24.5033C94.1126 24.0058 93.1112 23.329 92.2479 22.4729C91.3962 21.6168 90.7228 20.6161 90.2279 19.4707C89.733 18.3254 89.4855 17.0991 89.4855 15.7918C89.4855 14.3688 89.733 13.0383 90.2279 11.8004C90.7228 10.5625 91.3962 9.48662 92.2479 8.57267C93.1112 7.64714 94.1126 6.91829 95.2521 6.38612C96.4031 5.85394 97.6289 5.58785 98.9296 5.58785C99.7007 5.58785 100.455 5.68619 101.191 5.88286C101.939 6.07954 102.647 6.36876 103.315 6.75054C103.994 7.12075 104.616 7.57773 105.18 8.12147C105.755 8.66522 106.25 9.28995 106.664 9.99566ZM108.356 24.885H119.13C119.936 24.885 120.695 24.7346 121.409 24.4338C122.122 24.1215 122.744 23.6992 123.273 23.167C123.803 22.6233 124.223 21.9986 124.534 21.2928C124.845 20.5756 125 19.8062 125 18.9848C125 18.175 124.845 17.4288 124.534 16.7462C124.223 16.0636 123.803 15.4794 123.273 14.9935C122.744 14.5076 122.122 14.1316 121.409 13.8655C120.695 13.5879 119.936 13.449 119.13 13.449H114.227C113.904 13.449 113.628 13.3333 113.398 13.102C113.168 12.859 113.052 12.5698 113.052 12.2343C113.052 11.9103 113.168 11.6327 113.398 11.4013C113.628 11.1699 113.904 11.0542 114.227 11.0542H123.774V6.33406H114.227C113.409 6.33406 112.644 6.49024 111.93 6.8026C111.217 7.1034 110.595 7.51988 110.066 8.05206C109.536 8.58424 109.116 9.20897 108.805 9.92625C108.506 10.6435 108.356 11.4129 108.356 12.2343C108.356 13.0557 108.506 13.825 108.805 14.5423C109.116 15.2596 109.536 15.8901 110.066 16.4338C110.595 16.966 111.217 17.3883 111.93 17.7007C112.644 18.013 113.409 18.1692 114.227 18.1692H119.13C119.452 18.1692 119.728 18.2213 119.959 18.3254C120.189 18.4295 120.304 18.6493 120.304 18.9848C120.304 19.3088 120.189 19.5864 119.959 19.8178C119.728 20.0492 119.452 20.1649 119.13 20.1649H108.356V24.885Z" fill="#38417C"/>
</svg>
