<svg xmlns="http://www.w3.org/2000/svg" width="626" height="533" fill="none"><style><![CDATA[.B{fill:#fff}.C{fill:#54667f}.D{fill-rule:evenodd}.E{fill:#213949}.F{fill:#e4e7e9}.G{fill:#ffbd9a}]]></style><g class="D"><path d="M532.255 220.554h8.155c2.718 0 4.922-2.242 4.922-5.008v-4.387c0-2.766-2.204-5-4.922-5h-8.155c-2.718 0-4.92 2.243-4.92 5v4.387c0 2.766 2.203 5.008 4.92 5.008zm34.207 74.683l5.426-.652a4.59 4.59 0 0 0 4.017-5.016l-8.777-86.498a4.6 4.6 0 0 0-5.11-4.1l-5.446.654a4.59 4.59 0 0 0-4.016 5.018l8.796 86.494a4.59 4.59 0 0 0 5.111 4.09z" class="E"/><path d="M557.943 206.22c-.14-1.36.848-2.583 2.224-2.752l.008-.001c1.422-.175 2.712.838 2.856 2.243l8.384 81.386c.14 1.367-.857 2.593-2.242 2.754-1.416.165-2.695-.846-2.84-2.245" class="C"/><path d="M524.668 296.17h54.827c1.012 0 1.833-.806 1.833-1.8s-.82-1.8-1.833-1.8h-54.827c-1.012 0-1.833.806-1.833 1.8s.82 1.8 1.833 1.8zm40.266-143.175l-44.338 102.242c-.73 1.683-1.965 3.097-3.534 4.044l-5.926 3.582 53.962-123.33.826 6.515a13.17 13.17 0 0 1-1 6.947z" class="E"/><path d="M571.032 128.37l-61.268 141.65a3.05 3.05 0 0 1-4.087 1.56l-4.44-2.07L565.5 120.63l3.16 1.473a4.81 4.81 0 0 1 2.371 6.268z" class="C"/><path d="M561.367 118.194l4.662 2.18-64.46 148.79-5.152-2.408a2.57 2.57 0 0 1-1.267-3.348l62.425-143.776a2.83 2.83 0 0 1 3.792-1.438z" class="B"/><path d="M95.23 161.422c2.2 1.36 3.895 3.455 5.152 5.727 6.515 11.778 1.693 26.5-4.537 38.432-6.83 13.08-15.233 25.3-21.977 38.414s-11.866 27.527-11.394 42.273C56.2 275.623 49.9 264.88 45.968 253.172c-6.698-19.95-6.014-42.284 1.9-61.787 6.695-16.52 20.967-32.173 38.796-32.046 2.98.022 6.04.52 8.576 2.083zm32.428 86.608c5-1.235 10.128-1.773 15.202-1.035 8.1 1.18 16.043 6.177 18.9 13.88 3.952 10.657-3.08 22.874-12.88 28.596-11.93 6.966-26.975 6.72-40.194 9.177-9.58 1.78-19.408 5.292-25.6 12.827-1.018-16.753.112-33.84 12.62-46.314 6.473-6.453 14.648-10.974 23.157-14.288 2.862-1.115 5.8-2.104 8.803-2.843zm-123.312.1c2.053-2.848 5.18-4.8 8.5-5.9 2.297-.766 4.746-1.16 7.152-.886 7.333.834 12.602 7.523 15.562 14.282a53.48 53.48 0 0 1 4.418 18.853c.7 14.674-4.382 30.716 3.207 43.296-13.74-2.197-26.442-10.25-34.288-21.74s-10.725-26.25-7.77-39.842c.618-2.844 1.506-5.693 3.2-8.054z" fill="#85e5cc"/><path d="M77.3 190.4c-11.053 25.896-12.717 54.04-13.57 81.842l-.17 5.712c-.452 15.965-1.958 31.967-1.664 47.943.14 7.535.794 14.995 1.512 22.487h-6c-1.235-4.02-2.894-7.846-4.836-11.652-3.846-7.536-8.812-13.776-14.07-20.054l-4.814-5.74c-11.56-13.9-19.957-31.16-22.9-49.048-.13-.784 1.034-1.143 1.213-.332 4.792 21.306 16.084 38.572 30.34 54.65.022.027.044.05.065.076 6.288 7.1 11.243 14.723 15.317 23.315.288.605.533 1.22.8 1.83-.566-6.97-.848-13.934-.658-20.936.354-12.893 1.197-25.787 1.904-38.675l.45-8.663c1.365-28.466 3.704-57.346 15.55-83.65.473-1.04 1.958-.136 1.517.893zm64.425 78.563c-20.922 10.1-42.482 18.228-55.3 38.898l-.256.42c-7.88 12.8-13.267 26.127-16.82 40.103h-4.566c3.694-14.925 10.527-29.588 18.275-41.705a103.15 103.15 0 0 1 1.547-2.382c13.507-20.234 34.783-27.778 56.223-36.854 1.014-.43 1.924 1.02.888 1.52z" fill="#55d3b9"/><path d="M19.822 354.15l.188 3.134.59 10.3 1.396 24.335.913 15.968 7.585 131.742c.174 2.867 1.155 5 2.322 5H91.09c1.18 0 2.188-2.166 2.323-5.1L98.8 430.155l.013-.3 3.745-75.84c.175-3.467-.913-6.534-2.322-6.534H22.144c-1.423 0-2.524 3.134-2.322 6.667z" class="B"/><path d="M88.055 414.1h.005l.26-5.402h-.005l-.26 5.402zm-2.635 37.808l.14-2.7h-.005l-.136 2.7zm.84-15.304h.005l.256-5.4-.26 5.4z" fill="#ecedf2"/><path d="M20.01 357.312L30.56 539.63c.176 2.866 1.162 5 2.337 5h58.64c1.19 0 2.202-2.166 2.337-5.1l1.027-20.365.216-4.533 1.16-23.33c.39-11.406-13.355-23.53-20.813-30.64-9.245-8.814-18.93-16.997-25.65-28.023-7.353-12.064-10.77-26.363-12.48-40.285-.548-4.46-2.637-44.853-.32-44.87l-14.857.03c-1.432 0-2.54 3.133-2.337 6.666l.19 3.133z" fill="#ecedf4"/><path d="M780.127 561.734H180.953c-7.994 0-14.474-6.45-14.474-14.404s6.48-14.403 14.474-14.403h599.174c7.993 0 14.474 6.448 14.474 14.403s-6.48 14.404-14.474 14.404z" class="E"/><path d="M786.502 310.614l-.208 1.648-9.256 72.644L757.6 537.67c-2.98.77-6.1 1.295-9.297 1.558H204.268l-.367-2.875-6.647-52.193-4.13-32.394-19.446-152.895h467.137l-2.822 11.743h148.51z" class="B"/><path d="M796.246 382.102l-10.808 60.32c-.78 4.4-4.365 7.952-9.153 9.512-1.702.57-3.556.874-5.494.874H190.3c-1.916 0-3.77-.3-5.46-.867l-.062-.02c-4.76-1.56-8.344-5.11-9.146-9.498l-1.9-10.62-8.877-49.7c-.878-4.963 2.007-9.595 6.774-12.042 2.255-1.178 4.967-1.872 7.873-1.872H781.57c2.913 0 5.618.68 7.88 1.872 4.78 2.447 7.666 7.08 6.795 12.042z" fill="#ecedf4"/><path d="M800 304.723c0 4.226-3.468 7.652-7.746 7.652H170.626a7.75 7.75 0 0 1-5.476-2.243 7.56 7.56 0 0 1-2.27-5.409c0-4.226 3.468-7.652 7.746-7.652h621.628a7.75 7.75 0 0 1 5.476 2.243 7.56 7.56 0 0 1 2.27 5.409z" fill="#b3b6cf"/></g><mask id="A" mask-type="alpha" maskUnits="userSpaceOnUse" x="184" y="297" width="616" height="243"><path d="M184.546 297.244H799.838V539.157H184.546V297.244Z" class="B D"/></mask><g mask="url(#A)" class="D"><path d="M786.925 312.713l-7.117 55.68h1.904c2.915 0 5.622.677 7.886 1.866 4.784 2.44 7.67 7.057 6.8 12.006l-10.815 60.14c-.782 4.396-4.37 7.928-9.16 9.483-1.703.567-3.56.87-5.497.87h-1.877l-10.842 84.843a55.82 55.82 0 0 1-9.305 1.555H204.396l-11.043-86.398h-3.345c-1.917 0-3.773-.297-5.462-.864h286.216c52.163 0 98.285-33.813 113.895-83.5h0l22.357-71.15H792.09c2.14 0 4.077.864 5.476 2.267a7.69 7.69 0 0 1 2.251 6.03c-.29 4.085-3.86 7.172-7.962 7.172h-4.93z" fill="#38417c"/></g><g class="D"><path d="M627.64 136.832H643c1.143 0 2.076-.786 2.218-1.8h-19.797c.14 1.014 1.075 1.8 2.217 1.8z" fill="#2ec4a9"/><path d="M627.64 136.832H643c1.143 0 2.076-.786 2.218-1.8H625.42c.14 1.014 1.075 1.8 2.217 1.8zM469.304 292.656c-.968 1.353-5.795 2.513-13.388 3.515h-196.7l.865-6.346.636-4.682c-7.033-6.366-12.06-17.815-13.064-27.206-.2-1.76-.242-3.452-.138-5.02 1.397-20.66 6.432-49.1 10.56-69.968 3.4-17.215 15.228-31.577 31.472-38.275l26.265-10.834c8.6-3.404 16.6-5.772 24.094-7.306 33.132-6.8 55.552 2.77 68.256 11.594 8.582 5.966 12.724 11.594 12.724 11.594l15.18 13.257a70.51 70.51 0 0 1 22.835 39.684c6.072 31.404 15.172 83.3 10.394 89.993z" class="B"/><path d="M444.542 280.7c.076 2.114-1.61 3.98-3.568 4.8-1.963.822-4.155.836-6.27.884-15.052.297-30.402 2.687-43.65 9.796H275.35c-3.56-.574-6.935-1.734-10.02-3.392a7.53 7.53 0 0 1-3.9-7.641c-3.52-3.184-6.534-7.64-8.788-12.475-2.268-4.836-3.775-10.044-4.273-14.742 1.556-20.49 6.417-47.866 10.42-68.113l39.363-5.264 1.784 56.535c.173 5.43 3.796 10.148 9 11.716l71.487 21.553-3.824 13.195a8.26 8.26 0 0 1-.118.38c2.123.414 5.013.932 6.88.932 2.095 0 4.33-.532 6.603-1.41 2.863-1.092 5.788-2.736 8.56-4.532.235-.1.463-.255.678-.442 7.17-4.732 13.192-10.314 14.34-9.934.947.31 7.17 1.527 13.393 2.7l10.724 2.01c1.515.276 3.077.034 4.377-.69 1.362 1.105 2.44 2.424 2.496 4.13z" class="F"/><g class="G"><path d="M443.916 275.085c-.493.638-1.105 1.145-1.793 1.527-1.306.73-2.876.972-4.398.694l-10.776-2.02-13.458-2.714c-1.153-.382-7.205 5.227-14.4 9.982l-.68.444c-2.786 1.805-5.725 3.457-8.6 4.554-2.286.88-4.53 1.416-6.636 1.416-2.536 0-6.968-.958-8.81-1.312l4.01-13.82-.098-.028.278-.583s19.614-10.322 28.083-13.272c.59-.202 1.12-.375 1.592-.5 7.253-1.964 35.607 11.808 36.26 13.772.202.597-.076 1.243-.562 1.86z"/><path d="M383.352 288.968c-2.8 0-4.866-.12-6.4-.305-1.13-.138-1.97-.31-2.6-.5v-.005l.042-.1 8.956.9z"/><path d="M377.953 273.695l-3.774 14.374c-2.025-.97-1.585-2.178-1.585-2.178l5.268-12.225.09.03z"/></g><path d="M377.953 273.83l-3.997 13.76-.04.145c-.457 1.576-1.37 2.923-2.577 3.904a7.1 7.1 0 0 1-1.53.996c-1.17.587-2.5.89-3.886.83l-87.66-3.78c-14.836-.636-27.303-11.39-30.04-25.956-.353-1.866-.603-3.67-.755-5.377 1.53-20.538 6.435-48.153 10.473-68.54l39.43-5.266 1.787 56.556c.173 5.432 3.802 10.152 9.025 11.72l69.768 21.008z" class="B"/><path d="M410.145 198.97c1.492 3.314 1.423 7.118-.18 10.376l-17.89 36.34.035.973-.2-.635-.145.3.02-.683-24.158-75.607c-.566-1.767-2.936-2.064-3.924-.497l-1.14 1.83c-1.202 1.912-4.008 1.974-5.23.075-5.535-8.6-21.628-20.793-32.47-28.435 3.773-8.477 12.826-15.67 22.064-18.446 2.806-.842 5.632-1.277 8.334-1.215 15.783.36 31.56 4.756 44.66 13.662.1.07.214.138.324.214 2.923 2.01 5.756 4.273 7.664 7.262 4.802 7.56 2.508 17.432 4.242 26.234l-5.797 9.043c-1.776 2.77-2.032 6.234-.684 9.23l4.478 9.99z" fill="#737aa3"/><path d="M405.85 151.85l-15.833 2.086-8.012-.257c-7.8-.34-20.066-1.1-31.066-2.74-18.848-2.802-33.992-8.212-16.68-18.558.88-.53 1.734-1.057 2.553-1.6 9.823-6.425 15.49-13.566 18.655-20.304 6.72-14.29 2.196-26.77 2.196-26.77s33.042-6.953 31.665 18.08a60.8 60.8 0 0 0-.069 5.334c.303 9.748 2.94 17.028 5.707 22.063 3.283 5.96 6.753 8.76 6.753 8.76l4.13 13.907z" class="G"/><g class="C"><path d="M421.102 31.054c-1.035 15.938-4.36 18.505-15.973 16.79-4.02-.595-9.03-1.702-15.28-2.948-22.162-4.415-32.197 26.257-34.33 29.087-.18-.16-.354-.332-.514-.512-.368-1.315-1.112-2.512-1.862-3.474l-.006-.007c-1.084-1.377-2.18-2.256-2.18-2.256l5.327 21.287s-1.16 4.32-8.105 3.627-18.752-11.765-25.002-22.146-3.473-18.685 0-35.987 15.28-17.993 29.863-18.685c12.133-.574 13.2-4.505 20.433-10.194 1.458-1.15 3.166-2.367 5.264-3.647 12.5-7.613 43.753 7.613 42.364 29.066z"/><path d="M356.355 73.56c-.352.34-.583.356-.693-.026l-.206-.617c.28.226.584.443.9.642z"/></g><path d="M373.453 5.4c-2.59 5.024-4.207 10.652-5.963 16.07-2.597 8.022-6.033 16.37-12.955 21.192-5.262 3.678-12.427 5.246-15.655 10.797-2.97 5.12-1.312 11.74 1.715 16.827 1.555 2.616 7.303 5.03 12.87 7.48L356.27 89s-1.16 4.33-8.102 3.636-18.745-11.796-24.993-22.205-3.47-18.736 0-36.084 15.274-18.04 29.853-18.735c12.128-.576 13.204-4.518 20.424-10.222z" class="E"/><path d="M417.248 84.628c-.74.66-1.677.875-2.692 1.37-2.043 1.005-3.844 2.837-5.294 4.717-4.01 5.22-9.338 10.357-14.95 13.538-.987.565-1.988 1.068-2.988 1.495-6.15 2.63-10.726 3.174-16.33.606-6.384-2.927-9.766-8.064-14.604-13.043a22.94 22.94 0 0 1-1.029-1.136c-2.595-3.037-4.858-6.824-8.523-8.71-.194-.096-.36-.137-.54-.22-.938-.427-1.863-.723-2.72-1.336-2.45-1.763-3.9-3.787-4.7-6.77-.007-.02-.014-.055-.014-.076-.007-1.102-.076-2.004.3-3.1.787-2.376 2.153-4.104 4.458-4.972.56-.207 1.277-.055 1.65-.062.124-.007.18-.007.2-.007l-.04.007c.338.062.635.117.987.2.007 0-.118.04.076 0 .2-.04.04.255.766-.262.393-.778.842-1.563 1.34-2.355 7.322-11.74 24.805-24.563 35.44-27.352 20.857-5.467 15.446 9.655 17.772 21.14l.124.578c2.63 11.55 4.5 14.792 11.823 22.43 1.235 1.28.676 2.252-.504 3.32z" class="G"/><path d="M421.148 30.607c-1.386 21.492-6.93 18.72-31.178 13.866s-33.95 32.584-34.642 29.118-4.157-6.24-4.157-6.24l-8.314-13.866 38.106-22.878h40.185z" class="C"/><path d="M386.95 254.76l-.215-.67-.132-.415-25.57-79.72c-.598-1.866-3.105-2.177-4.153-.525l-1.21 1.928c-1.27 2.02-4.236 2.08-5.534.076-5.855-9.068-22.89-21.923-34.368-29.982l-4.98-3.45c-1.715-1.168-2.388-3.138-2.042-4.95l6.834-2.813c8.625-3.407 16.68-5.778 24.195-7.312 9.986 13.947 28.993 30.245 38.368 37.896 3.514 2.868 5.61 7.105 5.79 11.625l3.014 78.31z" class="F"/><path d="M391.45 246.658l-.324-1.033-24.1-75.96c-.565-1.776-2.93-2.074-3.915-.5l-1.138 1.838c-1.2 1.922-3.998 1.984-5.218.077-5.522-8.642-21.577-20.89-32.393-28.568l-4.695-3.288a4.66 4.66 0 0 1 .111-7.733l15.104-9.516c4.37-2.62 7.74-4.445 7.968-3.974.82 1.72 1.875 3.523 3.116 5.375.13.2.27.402.407.604 6.673 9.737 18.192 20.827 27.478 29.046a369.05 369.05 0 0 0 9.299 7.941c3.316 2.733 5.294 6.77 5.46 11.077l2.84 74.613z" class="B"/><path d="M431.946 160.055c-.516 2.16-1.474 4.252-2.885 6.135l-15.674 20.826c-2.3 3.053-2.906 7.048-1.625 10.64l4.256 11.992c1.418 3.974.99 8.377-1.15 12.012l-24.316 41.202.1-.79.537-5.276c1.563-15.432 5.53-56.378 5.812-76.373.22-15.717 6.15-31.302 10.51-40.676.186-.395.4-.77.64-1.115 8.547 5.982 12.672 11.625 12.672 11.625l11.135 9.796z" class="F"/><path d="M418.024 160.64l-6.263 9.934-5.743 9.1a9.9 9.9 0 0 0-.677 9.288l4.435 10.053a12.43 12.43 0 0 1-.178 10.441l-18.03 37.202.02-.688.1-4.585c.308-13.422.965-49.012-.13-66.282-.862-13.575 3.17-27.42 6.263-35.806.397-1.07 1.034-1.966 1.814-2.647 2.204-1.945 5.578-2.244 8.138-.312l6.77 5.106c5.948 4.48 7.46 12.866 3.47 19.195z" class="B"/><path d="M405.85 58.353c-1.57.344-3.157.488-4.666.413-6.577-.33-12.9-3.996-19.4-3.033-6.28.922-11.146 5.977-14.42 11.377-1.128 1.85-2.146 3.797-3.676 5.33-1.53 1.527-3.724 2.607-5.857 2.187-.92-.18-1.7-.598-2.374-1.176 2.125-2.813 12.13-33.297 34.22-28.9l15.23 2.93c.242 3.5.228 7.366.94 10.88zm-9.9 70.8c-.635.27-1.304.436-1.988.47-3.1.152-5.627-2.312-7.817-4.506-2.6-2.6-5.348-5.116-8.542-6.978-2.622-1.53-5.522-2.617-7.907-4.5-3.898-3.088-5.92-7.926-7.336-12.675-.823-2.74-1.485-5.53-2.406-8.244a23.49 23.49 0 0 0 1.039 1.142c4.888 5.005 8.305 10.168 14.755 13.1 5.014 2.285 9.212 2.12 14.42.215.307 9.705 2.977 16.952 5.78 21.964zm-13.498 24.782l-8.177-.438c-9.264-8.242-20.755-19.363-27.413-29.127l-.405-.605c4.456-4.312 7.475-8.756 9.483-13.04.722.528 1.273 1.25 1.486 2.176.488 2.087-1.156 3.255-2.146 4.87-3.638 5.918-.144 11.753 4.965 15.23 3.432 2.337 7.36 4.04 10.22 7.066 2.235 2.358 3.672 5.4 5.804 7.845 1.892 2.177 4.292 3.867 6.183 6.023z" fill="#ffab8b"/><path d="M378.533 274.565L309 253.503c-5.21-1.575-8.834-6.313-9.006-11.766l-1.23-39.19c.512.25 1.065.652 1.687 1.235 2.765 2.594 5.28 6.958 6.926 10.35 1.68 3.447 2.606 7.214 4.085 10.745 2.31 5.523 5.93 10.372 9.574 15.1 5.17 6.722 10.666 13.514 18.07 17.62 4.34 2.407 9.166 3.78 13.936 5.14 9.594 2.726 19.54 5.487 29.42 4.093 8.28-1.166 15.99-5.19 24.29-6.126-8.427 2.95-27.94 13.264-27.94 13.264l-.276.583z" class="F"/><path d="M388.032 285.595l71.517-13.642c2.95-.563 5.693 1.652 5.693 4.597v17.82h-84.6c0-4.28 3.094-7.96 7.38-8.776z" fill="#c3c9ce"/><path d="M465.242 282.067v14.103h-84.6v-.958c0-1.464 1.082-2.72 2.573-2.97l78.405-13.132c1.885-.317 3.612 1.093 3.612 2.956z" class="C"/></g></svg>