<svg width="29" height="33" viewBox="0 0 29 33" fill="none" xmlns="http://www.w3.org/2000/svg">
<path d="M16.9017 0.000413633C12.4476 -0.0305292 8.15674 1.67567 4.94011 4.75681C3.41145 6.23629 2.18543 7.99921 1.33047 9.94721C0.456165 11.9505 0.00488281 14.1127 0.00488281 16.2985C0.00488281 18.4842 0.456165 20.6465 1.33047 22.6498C3.06602 26.6246 6.28404 29.7654 10.2999 31.4039C12.3945 32.2597 14.6391 32.688 16.9017 32.6636C19.2063 32.6797 21.4892 32.2171 23.6058 31.3051C25.3141 30.5509 26.8995 29.5447 28.3093 28.32L21.958 21.9688C20.5316 23.162 18.7365 23.8252 16.877 23.8459C15.8332 23.8549 14.7985 23.652 13.8354 23.2496C12.9219 22.8681 12.085 22.3241 11.3655 21.6441C10.6553 20.9682 10.0909 20.154 9.7071 19.2518C9.30624 18.3167 9.10321 17.3088 9.11078 16.2914C9.11713 15.2984 9.3273 14.3172 9.72827 13.4087C10.117 12.5009 10.6805 11.6784 11.3867 10.9881C12.1005 10.2947 12.9384 9.74173 13.8566 9.35796C14.82 8.95143 15.856 8.74495 16.9017 8.75106C18.7727 8.77059 20.5765 9.45184 21.9933 10.6741L28.3446 4.32281C26.9565 3.1101 25.3889 2.11979 23.6975 1.38711C21.5522 0.461021 19.2384 -0.0111086 16.9017 0.000413633Z" fill="#2A348A"/>
<path d="M10.2996 1.31663C8.31026 2.12931 6.49194 3.3096 4.93978 4.79572C4.50124 5.22177 4.0866 5.67175 3.69775 6.1436C3.9407 6.91756 4.34055 7.63315 4.87236 8.2457C5.40417 8.85826 6.05652 9.35463 6.78871 9.70384L10.8288 11.6445C11.0034 11.4299 11.1895 11.2249 11.3863 11.0306C12.1002 10.3372 12.9381 9.78417 13.8563 9.40039C15.1067 8.87527 16.4731 8.68785 17.8188 8.85691C19.1644 9.02596 20.442 9.54556 21.5237 10.3637C21.5484 10.3143 21.5766 10.2719 21.5978 10.2261C22.9833 7.34346 23.3033 4.06335 22.5011 0.967311C20.7005 0.347978 18.809 0.0343163 16.9049 0.0393191C14.6401 0.021959 12.3946 0.456189 10.2996 1.31663Z" fill="url(#paint0_linear)"/>
<path d="M9.73172 31.1778C10.4907 30.114 10.8742 28.828 10.822 27.5223L10.5539 20.7405C10.2269 20.2935 9.95002 19.8119 9.72819 19.3044C9.32784 18.3679 9.12484 17.359 9.13188 16.3405C9.13188 16.3405 9.13188 16.3087 9.13188 16.2911C8.55238 15.5968 7.82122 15.0449 6.99473 14.6779C6.16825 14.3108 5.26852 14.1384 4.36489 14.174L0.130712 14.3398C0.0458631 15.0046 0.00226162 15.6739 0.000157839 16.344C-0.00971459 18.5313 0.44364 20.6958 1.3304 22.6953C2.98355 26.4624 5.97786 29.4806 9.73172 31.1637V31.1778Z" fill="url(#paint1_linear)"/>
<path d="M23.6162 31.3481C25.325 30.5947 26.9106 29.5884 28.3197 28.363L21.9684 22.0117C20.5447 23.2075 18.7501 23.8722 16.891 23.8924C16.6934 23.8924 16.5028 23.8924 16.3123 23.8642C16.0523 26.9576 16.8619 30.0466 18.6058 32.6148C20.3326 32.4612 22.0239 32.0336 23.6162 31.3481Z" fill="url(#paint2_linear)"/>
<defs>
<linearGradient id="paint0_linear" x1="3.70481" y1="5.83662" x2="22.9351" y2="5.83662" gradientUnits="userSpaceOnUse">
<stop offset="0.21" stop-color="#2A348A"/>
<stop offset="1" stop-color="#7E89C1"/>
</linearGradient>
<linearGradient id="paint1_linear" x1="10.8855" y1="19.3256" x2="2.17371" y2="24.3537" gradientUnits="userSpaceOnUse">
<stop stop-color="#2A348A"/>
<stop offset="0.22" stop-color="#2E388B"/>
<stop offset="1" stop-color="#7E89C1"/>
</linearGradient>
<linearGradient id="paint2_linear" x1="24.83" y1="31.8527" x2="16.5875" y2="23.6101" gradientUnits="userSpaceOnUse">
<stop offset="0.1" stop-color="#2A348A"/>
<stop offset="1" stop-color="#7E89C1"/>
</linearGradient>
</defs>
</svg>
