<svg width="30" height="30" viewBox="0 0 30 30" fill="none" xmlns="http://www.w3.org/2000/svg">
<path d="M10.4376 28.0688C10.6661 28.0688 10.8947 27.9799 11.0661 27.8021L16.5233 22.3206C18.5804 22.291 20.6376 22.1725 22.7233 21.965C24.7804 21.728 27.1233 19.7725 27.4376 17.6095C27.6947 15.9502 27.809 14.2317 27.809 12.5132C27.809 10.7947 27.6947 9.04653 27.4376 7.35764C27.1233 5.19468 24.7804 3.1206 22.7233 2.88356C20.1518 2.6169 17.5804 2.46875 15.009 2.46875C12.4376 2.46875 9.86613 2.6169 7.2947 2.88356C5.23756 3.1206 2.8947 5.19468 2.55184 7.35764C2.32327 9.04653 2.20898 10.7947 2.20898 12.5428C2.20898 14.2317 2.32327 15.9502 2.55184 17.6095C2.8947 19.7725 5.23756 21.8465 7.2947 22.0836C8.03756 22.1725 8.78041 22.2021 9.52327 22.2613V27.1206C9.52327 27.5058 9.72327 27.8613 10.0661 28.0095C10.1804 28.0391 10.2947 28.0688 10.4376 28.0688Z" stroke="#38417C" stroke-width="3"/>
</svg>
