<svg width="60" height="60" viewBox="0 0 60 60" fill="none" xmlns="http://www.w3.org/2000/svg">
<circle cx="30" cy="30" r="30" fill="#FF7259"/>
<path fill-rule="evenodd" clip-rule="evenodd" d="M25.4812 30.2592V29.2775L30.2515 34.0478C29.9683 34.1134 29.6733 34.1481 29.3701 34.1481C27.2223 34.1481 25.4812 32.407 25.4812 30.2592ZM33.259 19.8889V26.0558L25.7274 18.5242C26.2801 17.0496 27.7025 16 29.3701 16C31.5179 16 33.259 17.7411 33.259 19.8889ZM30.6669 43.2219L30.6669 39.2414C31.9377 39.0596 33.1236 38.6146 34.1675 37.9632L32.2646 36.0604C31.3935 36.4957 30.4107 36.7407 29.3706 36.7407C25.791 36.7407 22.8891 33.8389 22.8891 30.2592V28.9629C22.8891 28.247 22.3088 27.6667 21.5928 27.6667C20.8769 27.6667 20.2965 28.247 20.2965 28.9629V30.2592C20.2965 34.8306 23.6769 38.6124 28.0743 39.2414V43.2219C28.0743 43.9379 28.6547 44.5182 29.3706 44.5182C30.0865 44.5182 30.6669 43.9379 30.6669 43.2219ZM38.3972 31.1935C38.4286 30.8864 38.4447 30.5747 38.4447 30.2592V28.9629C38.4447 28.247 37.8643 27.6667 37.1484 27.6667C36.5298 27.6667 36.0125 28.0999 35.8832 28.6795L38.3972 31.1935ZM21.2129 17.6762C20.7067 17.17 19.8859 17.17 19.3797 17.6762C18.8734 18.1825 18.8734 19.0032 19.3797 19.5095L38.8241 38.9539C39.3303 39.4601 40.1511 39.4601 40.6573 38.9539C41.1636 38.4477 41.1636 37.6269 40.6573 37.1206L21.2129 17.6762Z" fill="white"/>
</svg>
