<svg width="30" height="23" viewBox="0 0 30 23" fill="none" xmlns="http://www.w3.org/2000/svg">
<path fill-rule="evenodd" clip-rule="evenodd" d="M4.4415 -0.00012207L25.2113 21.2069L25.6169 20.7927L25.9039 21.0857L24.5188 22.4999L20.2018 18.0919C18.5648 18.8203 16.7866 19.2927 14.9278 19.2927C6.81432 19.2927 0.237061 10.2927 0.237061 10.2927C0.237061 10.2927 2.75998 6.84046 6.60822 4.2122L3.46213 0.999873L4.4415 -0.00012207ZM9.65377 2.49345L12.1257 5.01745C12.9586 4.55525 13.9132 4.29269 14.9278 4.29269C18.1731 4.29269 20.804 6.97898 20.804 10.2927C20.804 11.3287 20.5469 12.3033 20.0942 13.1537L23.2473 16.3732C27.0956 13.7449 29.6185 10.2927 29.6185 10.2927C29.6185 10.2927 23.0412 1.29269 14.9278 1.29269C13.0689 1.29269 11.2907 1.7651 9.65377 2.49345ZM18.5881 11.6159C18.7278 11.2037 18.804 10.7589 18.804 10.2927C18.804 8.04406 17.0295 6.29269 14.9278 6.29269C14.4673 6.29269 14.0226 6.37675 13.6087 6.53169L18.5881 11.6159ZM17.7298 15.5679L16.2468 14.0537C15.833 14.2086 15.3882 14.2927 14.9278 14.2927C12.826 14.2927 11.0515 12.5413 11.0515 10.2927C11.0515 9.82652 11.1278 9.38172 11.2674 8.96946L9.76129 7.43166C9.30862 8.28207 9.05148 9.25672 9.05148 10.2927C9.05148 13.6064 11.6824 16.2927 14.9278 16.2927C15.9424 16.2927 16.8969 16.0301 17.7298 15.5679Z" fill="#73799F"/>
</svg>
