<svg width="30" height="18" viewBox="0 0 30 18" fill="none" xmlns="http://www.w3.org/2000/svg">
<path fill-rule="evenodd" clip-rule="evenodd" d="M14.928 18C23.0415 18 29.6187 9 29.6187 9C29.6187 9 23.0415 0 14.928 0C6.81456 0 0.237305 9 0.237305 9C0.237305 9 6.81456 18 14.928 18ZM18.8043 9C18.8043 11.2486 17.0297 13 14.928 13C12.8263 13 11.0517 11.2486 11.0517 9C11.0517 6.75137 12.8263 5 14.928 5C17.0297 5 18.8043 6.75137 18.8043 9ZM20.8043 9C20.8043 12.3137 18.1734 15 14.928 15C11.6826 15 9.05173 12.3137 9.05173 9C9.05173 5.68629 11.6826 3 14.928 3C18.1734 3 20.8043 5.68629 20.8043 9Z" fill="#73799F"/>
</svg>
