<svg width="24" height="23" viewBox="0 0 24 23" fill="none" xmlns="http://www.w3.org/2000/svg">
<circle cx="12.1273" cy="11.4294" r="11.237" fill="#38417C"/>
<path d="M12.379 13.6347C12.5649 13.6347 12.7079 13.4917 12.7079 13.3058V12.9482C12.7079 11.3179 15.1535 11.1319 15.1535 8.95808C15.1535 7.45641 14.0952 6.38379 12.05 6.38379C9.74747 6.38379 9.00379 8.01418 8.90368 9.17261C8.88938 9.32993 9.01809 9.43004 9.16111 9.43004H10.0192C10.1622 9.43004 10.2623 9.34423 10.2909 9.18691C10.4197 8.52904 10.6771 7.75675 12.0643 7.75675C12.808 7.75675 13.6518 8.02848 13.6518 8.95808C13.6518 10.5456 11.2062 10.5456 11.2062 12.9482V13.3058C11.2062 13.4917 11.3493 13.6347 11.5352 13.6347H12.379ZM11.9785 16.6524C12.5792 16.6524 12.9939 16.2519 12.9939 15.6513C12.9939 15.0506 12.5792 14.6358 11.9785 14.6358C11.3779 14.6358 10.9631 15.0506 10.9631 15.6513C10.9631 16.2519 11.3779 16.6524 11.9785 16.6524Z" fill="white"/>
</svg>
