<svg width="27" height="24" viewBox="0 0 27 24" fill="none" xmlns="http://www.w3.org/2000/svg">
<path d="M2.1676 20.6251L12.4068 3.07223C13.1928 1.72486 15.15 1.75585 15.8929 3.12741L25.4008 20.6803C26.1226 22.0129 25.1577 23.6329 23.6422 23.6329H14.1989H3.89516C2.35158 23.6329 1.38984 21.9584 2.1676 20.6251Z" fill="#38417C"/>
<path d="M14.5926 16.7492C14.7966 16.7492 14.9734 16.5917 14.9734 16.3821V10.1785C14.9734 9.97169 14.7994 9.79766 14.5926 9.79766H13.7516C13.5421 9.79766 13.3846 9.9745 13.3846 10.1785V16.3821C13.3846 16.589 13.5448 16.7492 13.7516 16.7492H14.5926ZM14.1928 19.658C14.4936 19.658 14.7514 19.5576 14.9343 19.3784C15.1173 19.199 15.2216 18.9444 15.2216 18.643C15.2216 18.3417 15.1173 18.0838 14.9347 17.9011C14.752 17.7185 14.4941 17.6142 14.1928 17.6142C13.8915 17.6142 13.6336 17.7185 13.4509 17.9011C13.2682 18.0838 13.164 18.3417 13.164 18.643C13.164 18.9444 13.2683 19.199 13.4513 19.3784C13.6341 19.5576 13.892 19.658 14.1928 19.658Z" fill="white" stroke="white" stroke-width="0.1"/>
</svg>
