<svg width="830" height="550" viewBox="0 0 830 550" fill="none" xmlns="http://www.w3.org/2000/svg">
<path fill-rule="evenodd" clip-rule="evenodd" d="M591.469 245.5H600.531C603.552 245.5 606 243.009 606 239.937V235.063C606 231.991 603.552 229.5 600.531 229.5H591.469C588.448 229.5 586 231.991 586 235.063V239.937C586 243.009 588.448 245.5 591.469 245.5Z" fill="#213949"/>
<path fill-rule="evenodd" clip-rule="evenodd" d="M629.48 328.463L635.51 327.739C638.269 327.408 640.254 324.929 639.974 322.166L630.221 226.081C629.933 223.245 627.372 221.197 624.541 221.537L618.489 222.264C615.73 222.596 613.745 225.075 614.027 227.838L623.801 323.92C624.089 326.755 626.649 328.803 629.48 328.463Z" fill="#213949"/>
<path fill-rule="evenodd" clip-rule="evenodd" d="M620.015 229.58C619.859 228.069 620.957 226.711 622.487 226.523L622.495 226.522C624.076 226.328 625.508 227.453 625.669 229.014L634.985 319.421C635.142 320.94 634.033 322.302 632.495 322.48C630.921 322.664 629.499 321.54 629.339 319.986" fill="#54667F"/>
<path fill-rule="evenodd" clip-rule="evenodd" d="M583.037 329.5H643.963C645.088 329.5 646 328.604 646 327.5C646 326.395 645.088 325.5 643.963 325.5H583.037C581.912 325.5 581 326.395 581 327.5C581 328.604 581.912 329.5 583.037 329.5Z" fill="#213949"/>
<path fill-rule="evenodd" clip-rule="evenodd" d="M627.783 170.454L578.512 284.03C577.701 285.899 576.329 287.469 574.586 288.522L568 292.5L627.965 155.5L628.883 162.737C629.216 165.362 628.836 168.028 627.783 170.454Z" fill="#213949"/>
<path fill-rule="evenodd" clip-rule="evenodd" d="M634.559 143.099L566.474 300.449C565.714 302.206 563.662 302.989 561.932 302.182L557 299.882L628.412 134.5L631.923 136.136C634.538 137.354 635.708 140.444 634.559 143.099Z" fill="#54667F"/>
<path fill-rule="evenodd" clip-rule="evenodd" d="M623.82 131.796L629 134.217L557.369 299.5L551.644 296.825C550.246 296.172 549.622 294.523 550.237 293.106L619.605 133.393C620.311 131.769 622.216 131.047 623.82 131.796Z" fill="white"/>
<path fill-rule="evenodd" clip-rule="evenodd" d="M105.825 179.815C108.282 181.327 110.154 183.653 111.551 186.177C118.79 199.261 113.432 215.616 106.509 228.869C98.9199 243.398 89.5813 256.963 82.0864 271.541C74.5912 286.118 68.9006 302.119 69.4244 318.5C62.4621 306.675 55.4506 294.742 51.082 281.735C43.6393 259.574 44.3984 234.764 53.1828 213.099C60.6233 194.748 76.4821 177.36 96.2947 177.502C99.605 177.525 103.006 178.08 105.825 179.815Z" fill="#85E5CC"/>
<path fill-rule="evenodd" clip-rule="evenodd" d="M141.859 276.023C147.415 274.651 153.115 274.053 158.752 274.873C167.767 276.184 176.58 281.734 179.755 290.291C184.147 302.13 176.334 315.702 165.444 322.058C152.187 329.795 135.467 329.521 120.778 332.251C110.133 334.23 99.2104 338.13 92.3195 346.5C91.1887 327.89 92.444 308.908 106.344 295.053C113.537 287.884 122.621 282.862 132.077 279.181C135.257 277.943 138.533 276.844 141.859 276.023Z" fill="#85E5CC"/>
<path fill-rule="evenodd" clip-rule="evenodd" d="M4.8292 276.146C7.11012 272.983 10.5841 270.814 14.2852 269.581C16.8381 268.731 19.5595 268.292 22.2331 268.597C30.3818 269.523 36.2369 276.953 39.5262 284.462C42.4192 291.066 44.0923 298.203 44.4358 305.405C45.2132 321.706 39.5665 339.525 48 353.5C32.7323 351.059 18.6164 342.113 9.89754 329.351C1.17868 316.59 -2.02011 300.193 1.26365 285.093C1.95058 281.933 2.93768 278.769 4.8292 276.146Z" fill="#85E5CC"/>
<path fill-rule="evenodd" clip-rule="evenodd" d="M85.9103 212.004C73.6279 240.77 71.7786 272.035 70.8294 302.918C70.7631 305.035 70.7026 307.152 70.6422 309.263C70.1405 326.997 68.4663 344.774 68.7925 362.52C68.9496 370.891 69.675 379.177 70.473 387.5H63.8181C62.4458 383.036 60.6024 378.784 58.4446 374.556C54.1713 366.185 48.6525 359.253 42.8078 352.28C41.0488 350.175 39.2537 348.064 37.4585 345.905C24.614 330.463 15.2816 311.289 12.0113 291.42C11.8664 290.549 13.1599 290.15 13.3593 291.051C18.6846 314.719 31.2327 333.899 47.0752 351.76C47.0992 351.79 47.1235 351.814 47.1474 351.844C54.1348 359.744 59.6414 368.199 64.1687 377.744C64.489 378.415 64.761 379.099 65.057 379.776C64.4285 372.034 64.1141 364.298 64.3257 356.52C64.7186 342.197 65.6556 327.874 66.4412 313.558C66.6225 310.346 66.792 307.14 66.9428 303.934C68.46 272.313 71.0591 240.232 84.2239 211.012C84.7499 209.857 86.3999 210.861 85.9103 212.004Z" fill="#55D3B9"/>
<path fill-rule="evenodd" clip-rule="evenodd" d="M157.492 299.277C134.242 310.485 110.284 319.525 96.0491 342.486C95.9524 342.644 95.8553 342.795 95.7648 342.953C87.0095 357.182 81.0215 371.975 77.0737 387.5H72C76.1052 370.921 83.6978 354.633 92.3076 341.172C92.8704 340.276 93.4456 339.398 94.0271 338.526C109.037 316.05 132.68 307.669 156.505 297.588C157.631 297.109 158.643 298.72 157.492 299.277Z" fill="#55D3B9"/>
<path fill-rule="evenodd" clip-rule="evenodd" d="M22.0265 393.906L22.2355 397.387L22.8919 408.83L24.4431 435.862L25.4576 453.6L27.6355 491.26L28.1876 500.962L30.2164 536.216L31.2607 554.36L33.4533 592.428L33.886 599.945C34.0799 603.13 35.169 605.5 36.4668 605.5H101.225C102.537 605.5 103.656 603.093 103.805 599.834L104.924 577.209H104.939L105.178 572.172L105.953 556.36L106.461 546.251L106.506 545.251L109.802 478.336L109.817 478.003L110.026 473.781L110.966 454.859L111.354 446.934L111.518 443.75L112.637 420.828L113.04 412.829L113.98 393.758C114.173 389.907 112.965 386.5 111.399 386.5H24.6073C23.026 386.5 21.8028 389.981 22.0265 393.906Z" fill="white"/>
<path fill-rule="evenodd" clip-rule="evenodd" d="M97.8522 460.5H97.8581L98.1484 454.5H98.1425L97.8522 460.5Z" fill="#ECEDF2"/>
<path fill-rule="evenodd" clip-rule="evenodd" d="M94.9217 502.5L95.0789 499.5H95.073L94.9217 502.5Z" fill="#ECEDF2"/>
<path fill-rule="evenodd" clip-rule="evenodd" d="M95.8552 485.5H95.8611L96.1455 479.5L95.8552 485.5Z" fill="#ECEDF2"/>
<path fill-rule="evenodd" clip-rule="evenodd" d="M22.2369 397.419L22.8975 408.86L24.4584 435.888L25.4794 453.623L27.6709 491.278L28.2265 500.979L30.2679 536.227L31.3188 554.368L33.5252 592.43L33.9606 599.946C34.1558 603.13 35.2517 605.5 36.5576 605.5H101.722C103.043 605.5 104.169 603.094 104.319 599.835C104.319 599.835 105.445 577.213 105.46 577.213L105.7 572.177L106.481 556.368C106.481 556.368 106.991 546.263 106.991 546.26C107.423 533.59 92.1507 520.122 83.863 512.223C73.5894 502.431 62.8261 493.341 55.3592 481.094C47.1883 467.692 43.392 451.808 41.4904 436.343C40.8812 431.389 38.5596 386.518 41.1333 386.5C35.6299 386.538 30.1271 386.534 24.6237 386.534C23.0324 386.534 21.8015 390.014 22.0266 393.939L22.2369 397.419Z" fill="#ECEDF4"/>
<path fill-rule="evenodd" clip-rule="evenodd" d="M696 296.379V317.621C696 324.734 701.756 330.5 708.856 330.5H867.144C874.244 330.5 880 324.734 880 317.621V296.379C880 289.266 874.244 283.5 867.144 283.5H708.856C701.756 283.5 696 289.266 696 296.379Z" fill="#FFC700"/>
<path fill-rule="evenodd" clip-rule="evenodd" d="M867 289.5H790V323.5H867L856.607 306.501L867 289.5Z" fill="#FFD640"/>
<path fill-rule="evenodd" clip-rule="evenodd" d="M748 306.502C748 300.979 743.522 296.5 738 296.5C732.476 296.5 728 300.979 728 306.502C728 312.025 732.476 316.5 738 316.5C743.522 316.5 748 312.025 748 306.502Z" fill="#FFD640"/>
<path fill-rule="evenodd" clip-rule="evenodd" d="M715 252.722V273.278C715 278.924 719.582 283.5 725.234 283.5H865.766C871.418 283.5 876 278.924 876 273.278V252.722C876 247.076 871.418 242.5 865.766 242.5H725.234C719.582 242.5 715 247.076 715 252.722Z" fill="#FFE68B"/>
<path fill-rule="evenodd" clip-rule="evenodd" d="M865 248.5H797V277.5H865L855.822 262.999L865 248.5Z" fill="#FFD84D"/>
<path fill-rule="evenodd" clip-rule="evenodd" d="M763 262.498C763 256.424 758.078 251.5 752.001 251.5C745.926 251.5 741 256.424 741 262.498C741 268.573 745.926 273.5 752.001 273.5C758.078 273.5 763 268.573 763 262.498Z" fill="#FFD84D"/>
<path fill-rule="evenodd" clip-rule="evenodd" d="M723 224.64V237.36C723 240.198 725.27 242.5 728.071 242.5H879.929C882.73 242.5 885 240.198 885 237.36V224.64C885 221.802 882.73 219.5 879.929 219.5H728.071C725.27 219.5 723 221.802 723 224.64Z" fill="#FFC700"/>
<path fill-rule="evenodd" clip-rule="evenodd" d="M753 231.5C753 234.261 755.328 236.5 758.199 236.5H861.801C864.672 236.5 867 234.261 867 231.5C867 228.739 864.672 226.5 861.801 226.5H758.199C755.328 226.5 753 228.739 753 231.5Z" fill="#FFD640"/>
<path fill-rule="evenodd" clip-rule="evenodd" d="M735 206.629V215.371C735 217.651 736.885 219.5 739.21 219.5H867.79C870.115 219.5 872 217.651 872 215.371V206.629C872 204.349 870.115 202.5 867.79 202.5H739.21C736.885 202.5 735 204.349 735 206.629Z" fill="#FFE68B"/>
<path fill-rule="evenodd" clip-rule="evenodd" d="M874 345.544L873.769 347.376L865.867 409.372L863.484 428.072L853.921 503.305L849.462 538.351L841.882 597.768C838.569 598.623 835.102 599.208 831.551 599.5H226.993L226.585 596.306L219.198 538.327L215.8 511.716L214.732 503.305L214.609 502.343L205.176 428.072L202.793 409.372L194.875 347.376L194.645 345.544L193 332.5H712.106L708.969 345.544H874Z" fill="white"/>
<path fill-rule="evenodd" clip-rule="evenodd" d="M884.828 424.956L872.819 491.963C871.95 496.862 867.967 500.797 862.647 502.529C860.755 503.161 858.695 503.5 856.542 503.5H211.46C209.33 503.5 207.27 503.169 205.394 502.537C205.371 502.529 205.348 502.522 205.325 502.514C200.035 500.782 196.052 496.839 195.161 491.963L193.039 480.165L183.174 424.956C182.198 419.442 185.404 414.298 190.701 411.579C193.208 410.27 196.222 409.5 199.451 409.5H868.521C871.758 409.5 874.764 410.255 877.278 411.579C882.591 414.298 885.797 419.442 884.828 424.956Z" fill="#ECEDF4"/>
<path fill-rule="evenodd" clip-rule="evenodd" d="M889 339C889 343.694 885.146 347.5 880.392 347.5H189.608C187.231 347.5 185.077 346.55 183.523 345.008C181.962 343.474 181 341.347 181 339C181 334.306 184.854 330.5 189.608 330.5H880.392C882.769 330.5 884.923 331.449 886.477 332.991C888.038 334.526 889 336.653 889 339Z" fill="#B3B6CF"/>
<mask id="mask0" mask-type="alpha" maskUnits="userSpaceOnUse" x="205" y="330" width="684" height="270">
<path fill-rule="evenodd" clip-rule="evenodd" d="M205.078 330.692H888.821V599.42H205.078V330.692Z" fill="white"/>
</mask>
<g mask="url(#mask0)">
<path fill-rule="evenodd" clip-rule="evenodd" d="M874.472 347.876L866.563 409.729H868.679C871.918 409.729 874.926 410.481 877.442 411.802C882.759 414.512 885.967 419.641 884.997 425.138L872.979 491.944C872.11 496.827 868.125 500.751 862.8 502.478C860.908 503.108 858.846 503.446 856.691 503.446H854.606L850.144 538.411L842.558 597.692C839.242 598.545 835.772 599.128 832.217 599.42H227.137L226.729 596.233L219.335 538.388L215.934 511.838L214.865 503.446H211.148C209.017 503.446 206.955 503.116 205.078 502.486H523.135C581.102 502.486 632.355 464.924 649.702 409.729V409.729L669.144 347.876L673.815 333.034L674.546 330.692H880.212C882.589 330.692 884.744 331.652 886.298 333.211C887.995 334.897 888.984 337.29 888.799 339.909C888.478 344.447 884.51 347.876 879.951 347.876H874.472Z" fill="#38417C"/>
</g>
<path fill-rule="evenodd" clip-rule="evenodd" d="M697.464 152.5H714.535C715.805 152.5 716.842 151.626 717 150.5H695C695.157 151.626 696.195 152.5 697.464 152.5Z" fill="#f9faff"/>
<path fill-rule="evenodd" clip-rule="evenodd" d="M697.464 152.5H714.535C715.805 152.5 716.842 151.626 717 150.5H695C695.157 151.626 696.195 152.5 697.464 152.5Z" fill="#f9faff"/>
<path fill-rule="evenodd" clip-rule="evenodd" d="M521.514 325.596C520.438 327.099 515.074 328.388 506.636 329.5H288.064L289.024 322.451L289.732 317.25C281.916 310.178 276.329 297.461 275.215 287.029C274.992 285.073 274.946 283.194 275.061 281.452C276.613 258.502 282.208 226.908 286.796 203.728C290.584 184.606 303.718 168.651 321.769 161.211L343.395 152.298L350.956 149.176C360.501 145.394 369.415 142.763 377.73 141.06C414.548 133.505 439.463 144.136 453.58 153.939C463.116 160.566 467.72 166.818 467.72 166.818L480.146 177.671L484.588 181.545C497.722 193.02 506.651 208.53 509.963 225.627C516.711 260.512 526.824 318.171 521.514 325.596Z" fill="white"/>
<path fill-rule="evenodd" clip-rule="evenodd" d="M493.997 312.303C494.082 314.651 492.207 316.724 490.033 317.637C487.85 318.549 485.415 318.565 483.064 318.619C466.337 318.949 449.279 321.604 434.558 329.5H305.981C302.024 328.863 298.275 327.574 294.848 325.732C291.775 324.082 290.046 320.698 290.514 317.245C286.603 313.707 283.253 308.758 280.748 303.386C278.228 298.015 276.553 292.229 276 287.011C277.729 264.25 283.131 233.839 287.579 211.347L331.321 205.5L333.304 268.302C333.496 274.334 337.522 279.575 343.316 281.317L420.712 304.645L422.755 305.259L418.507 319.916C418.468 320.054 418.422 320.2 418.376 320.338C420.735 320.798 423.946 321.374 426.021 321.374C428.349 321.374 430.831 320.783 433.359 319.808C436.54 318.596 439.79 316.769 442.871 314.774C443.132 314.651 443.386 314.49 443.624 314.283C451.592 309.026 458.284 302.826 459.56 303.248C460.612 303.594 467.527 304.944 474.443 306.249C478.96 307.108 483.479 307.945 486.36 308.482C488.043 308.789 489.779 308.52 491.223 307.714C492.737 308.942 493.936 310.408 493.997 312.303Z" fill="#E4E7E9"/>
<path fill-rule="evenodd" clip-rule="evenodd" d="M493.301 306.078C492.753 306.787 492.073 307.35 491.309 307.774C489.857 308.584 488.113 308.854 486.422 308.545C483.527 308.006 478.986 307.165 474.447 306.301C467.498 304.99 460.549 303.633 459.491 303.286C458.21 302.862 451.485 309.093 443.479 314.375C443.224 314.537 442.977 314.707 442.722 314.868C439.626 316.873 436.36 318.709 433.163 319.927C430.623 320.906 428.13 321.5 425.79 321.5C422.972 321.5 418.046 320.436 416 320.042L420.455 304.69L420.347 304.659L420.656 304.011C420.656 304.011 442.452 292.545 451.863 289.268C452.52 289.044 453.107 288.851 453.631 288.712C461.692 286.53 493.201 301.829 493.926 304.011C494.15 304.674 493.841 305.391 493.301 306.078Z" fill="#FFBD9A"/>
<path fill-rule="evenodd" clip-rule="evenodd" d="M426 321.5C422.9 321.5 420.592 321.368 418.889 321.161C417.633 321.008 416.699 320.817 416 320.616V320.611L416.047 320.5C418.127 320.77 423.135 321.5 426 321.5Z" fill="#FFBD9A"/>
<path fill-rule="evenodd" clip-rule="evenodd" d="M420 304.532L415.807 320.492V320.5C413.556 319.421 414.045 318.081 414.045 318.081L419.899 304.5L420 304.532Z" fill="#FFBD9A"/>
<path fill-rule="evenodd" clip-rule="evenodd" d="M420 304.682L415.559 319.966L415.513 320.127C415.005 321.878 413.989 323.375 412.65 324.464C412.65 324.472 412.65 324.472 412.642 324.48C412.126 324.91 411.557 325.278 410.949 325.57C409.648 326.222 408.17 326.56 406.631 326.491L383.54 325.493L380.677 325.37L309.22 322.292C292.733 321.586 278.879 309.641 275.839 293.459C275.446 291.386 275.169 289.382 275 287.486C276.701 264.671 282.15 233.996 286.637 211.349L330.455 205.5L331.071 224.96L332.441 268.325C332.634 274.359 336.667 279.602 342.47 281.345L420 304.682Z" fill="white"/>
<path fill-rule="evenodd" clip-rule="evenodd" d="M455.773 221.525C457.432 225.206 457.355 229.431 455.574 233.051L435.693 273.419L435.731 274.5L435.509 273.794L435.347 274.117C435.347 274.117 435.355 273.856 435.37 273.358L408.525 189.37C407.895 187.407 405.261 187.077 404.163 188.818L402.896 190.85C401.56 192.974 398.443 193.043 397.083 190.934C390.932 181.379 373.048 167.836 361 159.347C365.193 149.93 375.252 141.939 385.519 138.856C388.637 137.921 391.777 137.438 394.78 137.506C412.318 137.905 429.849 142.79 444.408 152.683C444.531 152.76 444.647 152.836 444.769 152.921C448.017 155.152 451.166 157.668 453.285 160.988C458.622 169.385 456.073 180.351 458 190.129L451.557 200.175C449.584 203.25 449.3 207.1 450.797 210.428L455.773 221.525Z" fill="#737AA3"/>
<path fill-rule="evenodd" clip-rule="evenodd" d="M451 169.183L433.406 171.5C433.406 171.5 429.926 171.446 424.502 171.214C415.835 170.836 402.204 169.994 389.98 168.171C369.036 165.058 352.207 159.048 371.445 147.555C372.425 146.968 373.373 146.381 374.283 145.778C385.199 138.641 391.495 130.708 395.013 123.224C402.479 107.35 397.454 93.4852 397.454 93.4852C397.454 93.4852 434.171 85.761 432.641 113.568C432.527 115.631 432.504 117.6 432.565 119.493C432.901 130.322 435.831 138.409 438.906 144.002C442.555 150.621 446.41 153.734 446.41 153.734L451 169.183Z" fill="#FFBD9A"/>
<path fill-rule="evenodd" clip-rule="evenodd" d="M467.95 34.9965C466.8 52.7011 463.104 55.5531 450.2 53.6466C445.731 52.9856 440.167 51.7556 433.221 50.3718C408.594 45.4671 397.442 79.5389 395.073 82.6829C394.872 82.5062 394.679 82.314 394.501 82.1139C394.092 80.6536 393.266 79.3234 392.433 78.2546L392.425 78.2471C391.221 76.7174 390.002 75.741 390.002 75.741L392.803 86.9341L395.921 99.3881C395.921 99.3881 394.633 104.185 386.915 103.417C379.197 102.648 366.077 90.3476 359.131 78.8161C352.185 67.2846 355.273 58.0595 359.131 38.8403C362.99 19.6212 376.11 18.8524 392.317 18.0837C405.8 17.4457 406.996 13.0792 415.023 6.75951C416.643 5.4835 418.542 4.1306 420.873 2.70839C434.764 -5.74803 469.494 11.1648 467.95 34.9965Z" fill="#54667F"/>
<path fill-rule="evenodd" clip-rule="evenodd" d="M396 82.214C395.609 82.5906 395.352 82.6096 395.23 82.1852C395.162 81.9533 395.095 81.7314 395 81.5C395.311 81.7508 395.649 81.9921 396 82.214Z" fill="#54667F"/>
<path fill-rule="evenodd" clip-rule="evenodd" d="M415 6.5C412.122 12.0809 410.325 18.3322 408.373 24.3526C405.488 33.2633 401.669 42.5363 393.977 47.8936C388.13 51.9789 380.168 53.7212 376.581 59.8879C373.279 65.5765 375.122 72.9304 378.486 78.5801C380.214 81.4866 386.602 84.169 392.789 86.89L395.906 99.3774C395.906 99.3774 394.618 104.187 386.903 103.416C379.188 102.646 366.073 90.3126 359.13 78.7501C352.187 67.1877 355.272 57.9374 359.13 38.6667C362.987 19.3959 376.102 18.6254 392.303 17.8546C405.781 17.2145 406.977 12.8363 415 6.5Z" fill="#213949"/>
<path fill-rule="evenodd" clip-rule="evenodd" d="M463.666 94.51C462.846 95.2446 461.803 95.4816 460.675 96.0324C458.405 97.1491 456.403 99.1838 454.792 101.272C450.337 107.071 444.416 112.777 438.18 116.311C437.083 116.939 435.971 117.497 434.859 117.971C428.025 120.894 422.941 121.498 416.713 118.644C409.618 115.393 405.86 109.687 400.484 104.156C400.093 103.751 399.709 103.33 399.341 102.894C396.457 99.5205 393.942 95.3132 389.869 93.2171C389.654 93.1102 389.47 93.0644 389.271 92.9726C388.228 92.4982 387.2 92.1693 386.249 91.4884C383.526 89.5302 381.916 87.2811 381.026 83.9689C381.018 83.946 381.011 83.9078 381.011 83.8849C381.003 82.6606 380.926 81.6587 381.333 80.4423C382.207 77.8035 383.726 75.8832 386.287 74.9195C386.909 74.69 387.706 74.8581 388.12 74.8505C388.258 74.843 388.32 74.843 388.343 74.843L388.297 74.8505C388.673 74.9195 389.002 74.9806 389.393 75.0725C389.401 75.0725 389.263 75.1183 389.478 75.0725C389.7 75.0264 389.524 75.3553 390.329 74.7816C390.766 73.9172 391.265 73.0454 391.817 72.1653C399.955 59.1228 419.382 44.8795 431.201 41.7814C454.379 35.7078 448.365 52.5062 450.95 65.2657C450.996 65.4798 451.042 65.6942 451.088 65.908C454.01 78.7368 456.089 82.3396 464.226 90.8228C465.599 92.2458 464.978 93.3243 463.666 94.51Z" fill="#FFBD9A"/>
<path fill-rule="evenodd" clip-rule="evenodd" d="M468 34.5C466.46 58.3739 460.301 55.2934 433.354 49.9025C406.407 44.5116 395.628 86.0984 394.858 82.2477C394.088 78.3971 390.239 75.3166 390.239 75.3166L381 59.9141L423.345 34.5H468Z" fill="#54667F"/>
<path fill-rule="evenodd" clip-rule="evenodd" d="M430 283.5L429.761 282.755L429.614 282.295L401.2 193.74C400.536 191.667 397.75 191.321 396.585 193.156L395.242 195.298C393.83 197.54 390.535 197.609 389.092 195.382C382.586 185.309 363.657 171.028 350.9 162.076C348.878 160.648 347.011 159.366 345.367 158.245C343.461 156.948 342.713 154.76 343.098 152.748L350.692 149.623C360.277 145.838 369.228 143.205 377.578 141.5C388.675 156.994 409.797 175.098 420.215 183.597C424.12 186.783 426.45 191.49 426.651 196.511L429.745 276.958V276.966L429.954 282.356L430 283.5Z" fill="#E4E7E9"/>
<path fill-rule="evenodd" clip-rule="evenodd" d="M435 274.5L434.778 273.791L434.64 273.352L407.859 188.973C407.231 187.001 404.603 186.669 403.508 188.418L402.244 190.46C400.911 192.594 397.801 192.663 396.445 190.545C390.309 180.945 372.468 167.339 360.448 158.81C358.541 157.446 356.779 156.221 355.232 155.158C352.206 153.078 352.267 148.571 355.354 146.568C360.188 143.432 366.822 139.187 372.138 135.997C376.995 133.085 380.741 131.059 380.994 131.583C381.905 133.493 383.077 135.496 384.456 137.554C384.602 137.777 384.755 138 384.908 138.224C392.324 149.041 405.124 161.36 415.443 170.49C419.403 173.988 422.996 177.016 425.777 179.312C429.462 182.347 431.66 186.831 431.844 191.616L434.763 268.267V268.275L434.962 273.414L435 274.5Z" fill="white"/>
<path fill-rule="evenodd" clip-rule="evenodd" d="M480 178.296C479.426 180.696 478.362 183.019 476.793 185.11L467.702 197.185L459.376 208.245C456.82 211.637 456.147 216.074 457.57 220.066L462.299 233.387C463.876 237.801 463.401 242.693 461.021 246.731L434.467 291.723L434.214 292.138L434 292.5C434 292.5 434.03 292.2 434.099 291.623C434.206 290.546 434.421 288.524 434.696 285.77V285.762C436.433 268.619 440.841 223.135 441.155 200.923C441.4 183.465 447.989 166.152 452.833 155.738C453.04 155.3 453.277 154.885 453.545 154.5C463.042 161.145 467.626 167.413 467.626 167.413L480 178.296Z" fill="#E4E7E9"/>
<path fill-rule="evenodd" clip-rule="evenodd" d="M464.529 178.946L457.569 189.981L451.188 200.091C449.233 203.186 448.952 207.059 450.435 210.409L455.363 221.576C457.006 225.28 456.93 229.532 455.166 233.174L435.474 273.798L435.291 274.176L435.131 274.5C435.131 274.5 435.139 274.237 435.154 273.736C435.177 272.802 435.223 271.042 435.276 268.65V268.643C435.618 253.733 436.348 214.198 435.131 195.013C434.173 179.934 438.653 164.553 442.091 155.239C442.532 154.05 443.239 153.055 444.107 152.298C446.556 150.138 450.305 149.806 453.15 151.951L460.672 157.623C467.282 162.601 468.963 171.916 464.529 178.946Z" fill="white"/>
<path fill-rule="evenodd" clip-rule="evenodd" d="M451 65.3212C449.254 65.7033 447.492 65.8636 445.815 65.7797C438.506 65.413 431.489 61.3406 424.258 62.41C417.28 63.434 411.872 69.0498 408.233 75.0476C406.979 77.103 405.848 79.2652 404.148 80.969C402.447 82.6653 400.009 83.8649 397.639 83.3987C396.616 83.2001 395.739 82.7342 395 82.0923C397.362 78.9671 408.479 45.1041 433.028 49.9791C439.952 51.3544 445.499 52.5769 449.954 53.2338C450.223 57.123 450.208 61.4167 451 65.3212Z" fill="#FFAB8B"/>
<path fill-rule="evenodd" clip-rule="evenodd" d="M440 143.97C439.295 144.27 438.551 144.454 437.792 144.493C434.336 144.662 431.538 141.924 429.105 139.487C426.215 136.588 423.162 133.804 419.613 131.736C416.699 130.036 413.476 128.829 410.825 126.738C406.494 123.308 404.246 117.933 402.673 112.658C401.759 109.613 401.023 106.514 400 103.5C400.372 103.938 400.759 104.361 401.155 104.769C406.587 110.328 410.384 116.064 417.551 119.332C423.123 121.87 427.788 121.686 433.576 119.571C433.917 130.352 436.885 138.402 440 143.97Z" fill="#FFAB8B"/>
<path fill-rule="evenodd" clip-rule="evenodd" d="M425 171.5C422.371 171.384 419.284 171.222 415.913 171.013C405.619 161.858 392.849 149.505 385.451 138.658C385.298 138.434 385.145 138.21 385 137.986C389.952 133.196 393.307 128.259 395.539 123.5C396.341 124.087 396.953 124.891 397.189 125.918C397.732 128.236 395.906 129.534 394.805 131.326C390.762 137.901 394.645 144.383 400.323 148.246C404.136 150.842 408.5 152.734 411.68 156.095C414.163 158.714 415.76 162.083 418.129 164.81C420.231 167.228 422.898 169.105 425 171.5Z" fill="#FFAB8B"/>
<path fill-rule="evenodd" clip-rule="evenodd" d="M420.644 305.5L343.376 282.104C337.584 280.354 333.559 275.091 333.367 269.033L332 225.5C332.569 225.778 333.183 226.225 333.874 226.872C336.947 229.754 339.743 234.601 341.571 238.37C343.438 242.2 344.467 246.385 346.111 250.307C348.676 256.441 352.702 261.828 356.75 267.092C362.495 274.559 368.602 282.104 376.829 286.666C381.653 289.34 387.015 290.865 392.315 292.376C402.977 295.405 414.031 298.472 425.007 296.923C434.21 295.628 442.775 291.159 452 290.118C442.636 293.393 420.951 304.853 420.951 304.853L420.644 305.5Z" fill="#E4E7E9"/>
<path fill-rule="evenodd" clip-rule="evenodd" d="M431.201 317.751L510.674 302.598C513.953 301.972 517 304.432 517 307.704V327.5H423C423 322.746 426.438 318.659 431.201 317.751Z" fill="#C3C9CE"/>
<path fill-rule="evenodd" clip-rule="evenodd" d="M517 313.833V329.5H423V328.435C423 326.809 424.202 325.415 425.858 325.137L512.986 310.55C515.081 310.197 517 311.764 517 313.833Z" fill="#54667F"/>
</svg>
