<svg width="19" height="19" viewBox="0 0 19 19" fill="none" xmlns="http://www.w3.org/2000/svg">
    <path d="M11.6203 7.38545C9.50589 8.30423 5.74241 11.1902 5.74241 11.1902C5.74241 11.1902 1.93769 9.31725 0 7.38545C5.47737 3.73386 11.3199 2.16722 18.1166 0.0292763C18.2353 -0.00727465 18.3617 -0.0107746 18.4822 0.0191527C18.6028 0.04908 18.7129 0.111302 18.8007 0.199128C18.8885 0.286953 18.9507 0.397059 18.9807 0.517604C19.0106 0.638148 19.0071 0.764571 18.9706 0.883275C16.8326 7.65637 15.2719 13.546 11.6203 18.9998C9.68258 17.0621 7.81556 13.2633 7.81556 13.2633C7.81556 13.2633 10.6956 9.49983 11.6203 7.38545Z" fill="#38417C" />
</svg>