<svg width="58" height="57" viewBox="0 0 58 57" fill="none" xmlns="http://www.w3.org/2000/svg">
<circle cx="29.2252" cy="28.3243" r="28.3243" fill="white"/>
<path d="M29.2272 38.7058C29.5515 38.7058 29.8975 38.6842 30.2218 38.6626C30.6975 38.5977 31.0867 38.2301 31.1515 37.7544L31.3678 36.0247C31.4759 35.4841 31.9299 35.0733 32.4921 35.0733C32.7299 35.0733 32.9678 35.1382 33.1408 35.2679L34.5462 36.349C34.7192 36.5004 34.957 36.5652 35.1732 36.5652C35.4111 36.5652 35.6273 36.5004 35.8219 36.3274C36.3408 35.9166 36.8165 35.4409 37.2273 34.922C37.53 34.5544 37.5516 34.0138 37.2489 33.6463C36.8813 33.1706 36.1678 32.2408 36.1678 32.2192C36.0381 32.0463 35.9732 31.83 35.9732 31.5922C35.9732 31.0516 36.3624 30.576 36.8813 30.4679C36.8813 30.4679 38.0705 30.3165 38.6543 30.2516C39.13 30.1868 39.4976 29.7976 39.5625 29.3219C39.6273 28.6516 39.6273 27.9813 39.5625 27.3327C39.4976 26.857 39.13 26.4678 38.6543 26.4029C38.0705 26.3381 36.8813 26.1867 36.8813 26.1867C36.3624 26.057 35.9732 25.6029 35.9732 25.0408C35.9732 24.8245 36.0381 24.6083 36.1678 24.4353C36.1678 24.4137 37.2489 23.0083 37.2489 23.0083C37.5516 22.6407 37.53 22.1002 37.2273 21.7326C36.8165 21.2137 36.3408 20.738 35.8219 20.3272C35.4543 20.0245 34.9137 20.0028 34.5462 20.3056C34.0705 20.6731 33.1408 21.3866 33.1408 21.3866C32.9462 21.4948 32.7299 21.5812 32.4921 21.5812C31.9299 21.5812 31.4759 21.1704 31.3678 20.6299L31.1515 18.9001C31.0867 18.4244 30.6975 18.0569 30.2218 17.992C29.5515 17.9271 28.8812 17.9271 28.2326 17.992C27.7569 18.0569 27.3677 18.4244 27.3028 18.9001L27.0866 20.6299C27.0001 21.1704 26.5244 21.5812 25.9623 21.5812C25.7028 21.5812 25.465 21.4948 25.2704 21.365L23.9082 20.3056C23.5406 20.0028 23.0001 20.0245 22.6325 20.3272C22.1136 20.738 21.6379 21.2137 21.2271 21.7326C20.9027 22.1002 20.9027 22.6407 21.2055 23.0083C21.5514 23.4624 22.2433 24.3705 22.2433 24.3705C22.3947 24.5651 22.4811 24.8029 22.4811 25.0408C22.4811 25.6245 22.0487 26.1002 21.4865 26.1867L19.8 26.4029C19.3243 26.4678 18.9352 26.857 18.8919 27.3327C18.827 28.003 18.827 28.6732 18.8919 29.3219C18.9568 29.7976 19.3243 30.1868 19.8 30.2516L21.4865 30.4679C22.0487 30.5327 22.4811 31.0084 22.4811 31.5922C22.4811 31.8517 22.3947 32.0895 22.2433 32.2841L21.2055 33.6463C20.9027 34.0138 20.9244 34.5544 21.2271 34.922C21.6379 35.4409 22.1136 35.9166 22.6325 36.3274C22.8271 36.4787 23.0433 36.5652 23.2812 36.5652C23.4974 36.5652 23.7352 36.5004 23.9082 36.349L25.2704 35.2895C25.465 35.1598 25.7028 35.0733 25.9623 35.0733C26.5244 35.0733 27.0001 35.4841 27.0866 36.0247C27.0866 36.0463 27.3028 37.7544 27.3028 37.7544C27.3677 38.2301 27.7569 38.5977 28.2326 38.6626C28.5569 38.6842 28.9029 38.7058 29.2272 38.7058Z" stroke="#343642" stroke-width="2"/>
<path fill-rule="evenodd" clip-rule="evenodd" d="M29.2223 30.917C30.6553 30.917 31.8169 29.7554 31.8169 28.3224C31.8169 26.8894 30.6553 25.7278 29.2223 25.7278C27.7893 25.7278 26.6277 26.8894 26.6277 28.3224C26.6277 29.7554 27.7893 30.917 29.2223 30.917Z" stroke="#343642" stroke-width="2"/>
</svg>
