<svg width="34" height="34" viewBox="0 0 34 34" fill="none" xmlns="http://www.w3.org/2000/svg">
<path d="M17.0087 32.3687C17.4887 32.3687 18.0007 32.3367 18.4807 32.3047C19.1847 32.2087 19.7607 31.6647 19.8567 30.9607L20.1767 28.4007C20.3367 27.6007 21.0087 26.9927 21.8407 26.9927C22.1927 26.9927 22.5447 27.0887 22.8007 27.2807L24.8807 28.8807C25.1367 29.1047 25.4887 29.2007 25.8087 29.2007C26.1607 29.2007 26.4807 29.1047 26.7687 28.8487C27.5367 28.2407 28.2407 27.5367 28.8487 26.7687C29.2967 26.2247 29.3287 25.4247 28.8807 24.8807C28.3367 24.1767 27.2807 22.8007 27.2807 22.7687C27.0887 22.5127 26.9927 22.1927 26.9927 21.8407C26.9927 21.0407 27.5687 20.3367 28.3367 20.1767C28.3367 20.1767 30.0967 19.9527 30.9607 19.8567C31.6647 19.7607 32.2087 19.1847 32.3047 18.4807C32.4007 17.4887 32.4007 16.4967 32.3047 15.5367C32.2087 14.8327 31.6647 14.2567 30.9607 14.1607C30.0967 14.0647 28.3367 13.8407 28.3367 13.8407C27.5687 13.6487 26.9927 12.9767 26.9927 12.1447C26.9927 11.8247 27.0887 11.5047 27.2807 11.2487C27.2807 11.2167 28.8807 9.13665 28.8807 9.13665C29.3287 8.59265 29.2967 7.79265 28.8487 7.24864C28.2407 6.48064 27.5367 5.77664 26.7687 5.16864C26.2247 4.72064 25.4247 4.68864 24.8807 5.13664C24.1767 5.68064 22.8007 6.73664 22.8007 6.73664C22.5127 6.89664 22.1927 7.02464 21.8407 7.02464C21.0087 7.02464 20.3367 6.41664 20.1767 5.61664L19.8567 3.05663C19.7607 2.35263 19.1847 1.80863 18.4807 1.71263C17.4887 1.61662 16.4967 1.61662 15.5367 1.71263C14.8327 1.80863 14.2567 2.35263 14.1607 3.05663L13.8407 5.61664C13.7127 6.41664 13.0087 7.02464 12.1767 7.02464C11.7927 7.02464 11.4407 6.89664 11.1527 6.70464L9.13665 5.13664C8.59265 4.68864 7.79265 4.72064 7.24864 5.16864C6.48064 5.77664 5.77664 6.48064 5.16864 7.24864C4.68864 7.79265 4.68864 8.59265 5.13664 9.13665C5.64864 9.80865 6.67264 11.1527 6.67264 11.1527C6.89664 11.4407 7.02464 11.7927 7.02464 12.1447C7.02464 13.0087 6.38464 13.7127 5.55264 13.8407L3.05663 14.1607C2.35263 14.2567 1.77663 14.8327 1.71263 15.5367C1.61662 16.5287 1.61662 17.5207 1.71263 18.4807C1.80863 19.1847 2.35263 19.7607 3.05663 19.8567L5.55264 20.1767C6.38464 20.2727 7.02464 20.9767 7.02464 21.8407C7.02464 22.2247 6.89664 22.5767 6.67264 22.8647L5.13664 24.8807C4.68864 25.4247 4.72064 26.2247 5.16864 26.7687C5.77664 27.5367 6.48064 28.2407 7.24864 28.8487C7.53665 29.0727 7.85665 29.2007 8.20865 29.2007C8.52865 29.2007 8.88065 29.1047 9.13665 28.8807L11.1527 27.3127C11.4407 27.1207 11.7927 26.9927 12.1767 26.9927C13.0087 26.9927 13.7127 27.6007 13.8407 28.4007C13.8407 28.4327 14.1607 30.9607 14.1607 30.9607C14.2567 31.6647 14.8327 32.2087 15.5367 32.3047C16.0167 32.3367 16.5287 32.3687 17.0087 32.3687Z" stroke="#38417C" stroke-width="3"/>
<path fill-rule="evenodd" clip-rule="evenodd" d="M17.0002 20.84C19.1209 20.84 20.8402 19.1208 20.8402 17C20.8402 14.8793 19.1209 13.16 17.0002 13.16C14.8794 13.16 13.1602 14.8793 13.1602 17C13.1602 19.1208 14.8794 20.84 17.0002 20.84Z" stroke="#38417C" stroke-width="3"/>
</svg>
