<svg width="84" height="84" viewBox="0 0 84 84" fill="none" xmlns="http://www.w3.org/2000/svg">
<g filter="url(#filter0_d)">
<circle cx="42" cy="38" r="30" fill="white"/>
<path d="M42.0021 48.9956C42.3457 48.9956 42.7121 48.9727 43.0556 48.9498C43.5594 48.8811 43.9716 48.4918 44.0403 47.988L44.2694 46.1559C44.3839 45.5834 44.8648 45.1483 45.4602 45.1483C45.7121 45.1483 45.964 45.217 46.1472 45.3544L47.6358 46.4994C47.819 46.6597 48.0709 46.7284 48.2999 46.7284C48.5519 46.7284 48.7809 46.6597 48.987 46.4765C49.5366 46.0414 50.0404 45.5376 50.4755 44.988C50.7962 44.5986 50.8191 44.0261 50.4984 43.6368C50.1091 43.133 49.3534 42.1482 49.3534 42.1253C49.216 41.9421 49.1473 41.7131 49.1473 41.4612C49.1473 40.8887 49.5595 40.3848 50.1091 40.2703C50.1091 40.2703 51.3687 40.11 51.987 40.0413C52.4908 39.9726 52.8802 39.5604 52.9489 39.0566C53.0176 38.3466 53.0176 37.6367 52.9489 36.9497C52.8802 36.4459 52.4908 36.0336 51.987 35.9649C51.3687 35.8962 50.1091 35.7359 50.1091 35.7359C49.5595 35.5985 49.1473 35.1176 49.1473 34.5222C49.1473 34.2931 49.216 34.0641 49.3534 33.8809C49.3534 33.858 50.4984 32.3695 50.4984 32.3695C50.8191 31.9801 50.7962 31.4076 50.4755 31.0183C50.0404 30.4687 49.5366 29.9648 48.987 29.5297C48.5977 29.2091 48.0251 29.1862 47.6358 29.5068C47.132 29.8961 46.1472 30.6519 46.1472 30.6519C45.9411 30.7664 45.7121 30.858 45.4602 30.858C44.8648 30.858 44.3839 30.4229 44.2694 29.8503L44.0403 28.0183C43.9716 27.5144 43.5594 27.1251 43.0556 27.0564C42.3457 26.9877 41.6357 26.9877 40.9487 27.0564C40.4449 27.1251 40.0327 27.5144 39.964 28.0183L39.7349 29.8503C39.6433 30.4229 39.1395 30.858 38.5441 30.858C38.2693 30.858 38.0174 30.7664 37.8113 30.629L36.3685 29.5068C35.9792 29.1862 35.4066 29.2091 35.0173 29.5297C34.4677 29.9648 33.9639 30.4687 33.5287 31.0183C33.1852 31.4076 33.1852 31.9801 33.5058 32.3695C33.8723 32.8504 34.6051 33.8122 34.6051 33.8122C34.7654 34.0183 34.857 34.2702 34.857 34.5222C34.857 35.1405 34.399 35.6443 33.8036 35.7359L32.0173 35.9649C31.5135 36.0336 31.1012 36.4459 31.0554 36.9497C30.9867 37.6596 30.9867 38.3695 31.0554 39.0566C31.1241 39.5604 31.5135 39.9726 32.0173 40.0413L33.8036 40.2703C34.399 40.339 34.857 40.8429 34.857 41.4612C34.857 41.736 34.7654 41.9879 34.6051 42.194L33.5058 43.6368C33.1852 44.0261 33.2081 44.5986 33.5287 44.988C33.9639 45.5376 34.4677 46.0414 35.0173 46.4765C35.2234 46.6368 35.4524 46.7284 35.7044 46.7284C35.9334 46.7284 36.1853 46.6597 36.3685 46.4994L37.8113 45.3773C38.0174 45.2399 38.2693 45.1483 38.5441 45.1483C39.1395 45.1483 39.6433 45.5834 39.7349 46.1559C39.7349 46.1788 39.964 47.988 39.964 47.988C40.0327 48.4918 40.4449 48.8811 40.9487 48.9498C41.2922 48.9727 41.6586 48.9956 42.0021 48.9956Z" stroke="#343642" stroke-width="2"/>
<path fill-rule="evenodd" clip-rule="evenodd" d="M41.9969 40.746C43.5146 40.746 44.745 39.5156 44.745 37.9979C44.745 36.4801 43.5146 35.2498 41.9969 35.2498C40.4792 35.2498 39.2488 36.4801 39.2488 37.9979C39.2488 39.5156 40.4792 40.746 41.9969 40.746Z" stroke="#343642" stroke-width="2"/>
</g>
<defs>
<filter id="filter0_d" x="0" y="0" width="84" height="84" filterUnits="userSpaceOnUse" color-interpolation-filters="sRGB">
<feFlood flood-opacity="0" result="BackgroundImageFix"/>
<feColorMatrix in="SourceAlpha" type="matrix" values="0 0 0 0 0 0 0 0 0 0 0 0 0 0 0 0 0 0 127 0"/>
<feOffset dy="4"/>
<feGaussianBlur stdDeviation="6"/>
<feColorMatrix type="matrix" values="0 0 0 0 0.219608 0 0 0 0 0.254902 0 0 0 0 0.486275 0 0 0 0.17 0"/>
<feBlend mode="normal" in2="BackgroundImageFix" result="effect1_dropShadow"/>
<feBlend mode="normal" in="SourceGraphic" in2="effect1_dropShadow" result="shape"/>
</filter>
</defs>
</svg>
