<svg width="6" height="10" viewBox="0 0 6 10" fill="none" xmlns="http://www.w3.org/2000/svg">
<path opacity="0.6" d="M5.371 0.0269291C4.996 -0.0640709 4.607 0.078929 4.406 0.404929L3.308 2.17493C2.665 2.30493 1.902 2.44893 0.964 2.60493C0.656 2.65693 0.402 2.86493 0.295 3.16493C0.094 3.76393 0 4.38893 0 4.99993C0 5.62493 0.094 6.23693 0.295 6.83593C0.402 7.13593 0.656 7.34393 0.964 7.39593C1.902 7.55193 2.665 7.69593 3.308 7.82593L4.406 9.59593C4.567 9.85693 4.848 9.99993 5.143 9.99993C5.223 9.99993 5.29 9.98693 5.371 9.97393C5.746 9.86993 6 9.54393 6 9.16693V0.833929C6 0.456929 5.746 0.130929 5.371 0.0269291Z" fill="white"/>
</svg>
