<svg width="57" height="57" viewBox="0 0 57 57" fill="none" xmlns="http://www.w3.org/2000/svg">
<path d="M56.8042 28.3243C56.8042 43.9674 44.1229 56.6486 28.4798 56.6486C12.8367 56.6486 0.155518 43.9674 0.155518 28.3243C0.155518 12.6812 12.8367 0 28.4798 0C44.1229 0 56.8042 12.6812 56.8042 28.3243Z" fill="white"/>
<path fill-rule="evenodd" clip-rule="evenodd" d="M25.0116 19.7716C25.0116 17.7908 26.5644 16.1851 28.4799 16.1851C30.3953 16.1851 31.9481 17.7908 31.9481 19.7716V29.3358C31.9481 31.3166 30.3953 32.9223 28.4799 32.9223C26.5644 32.9223 25.0116 31.3166 25.0116 29.3358V19.7716ZM29.6357 37.6196V41.2907C29.6357 41.951 29.1181 42.4862 28.4796 42.4862C27.8411 42.4862 27.3235 41.951 27.3235 41.2907V37.6196C23.4017 37.0395 20.387 33.5517 20.387 29.3358V28.1402C20.387 27.48 20.9046 26.9447 21.5431 26.9447C22.1816 26.9447 22.6992 27.48 22.6992 28.1402V29.3358C22.6992 32.6371 25.2872 35.3133 28.4796 35.3133C31.6721 35.3133 34.2601 32.6371 34.2601 29.3358V28.1402C34.2601 27.48 34.7777 26.9447 35.4162 26.9447C36.0547 26.9447 36.5723 27.48 36.5723 28.1402V29.3358C36.5723 33.5517 33.5575 37.0395 29.6357 37.6196Z" fill="#343642"/>
</svg>
