<svg width="60" height="60" viewBox="0 0 60 60" fill="none" xmlns="http://www.w3.org/2000/svg">
<circle cx="30" cy="30" r="30" fill="#FF7259"/>
<path fill-rule="evenodd" clip-rule="evenodd" d="M40.7649 35.2651L42.7487 36.0444C43.5991 36.3785 44.519 35.7515 44.519 34.8379V24.3826C44.519 23.469 43.5991 22.842 42.7487 23.1761L36.7412 25.5362V31.2414L40.7649 35.2651Z" fill="white"/>
<path fill-rule="evenodd" clip-rule="evenodd" d="M16.6091 22.1084C16.229 22.5595 16 23.142 16 23.778V35.4447C16 36.8765 17.1607 38.0373 18.5926 38.0373H31.5555C31.8505 38.0373 32.1339 37.988 32.398 37.8973L16.6091 22.1084ZM34.1481 28.648V23.778C34.1481 22.3462 32.9874 21.1854 31.5555 21.1854H26.6856L34.1481 28.648Z" fill="white"/>
<path fill-rule="evenodd" clip-rule="evenodd" d="M16.3797 16.3797C16.8859 15.8734 17.7067 15.8734 18.2129 16.3797L42.8425 41.0093C43.3488 41.5155 43.3488 42.3363 42.8425 42.8425C42.3363 43.3488 41.5155 43.3488 41.0093 42.8425L16.3797 18.2129C15.8734 17.7067 15.8734 16.8859 16.3797 16.3797Z" fill="white"/>
</svg>
