<?xml version="1.0" standalone="no"?>
<!DOCTYPE svg PUBLIC "-//W3C//DTD SVG 1.1//EN" "http://www.w3.org/Graphics/SVG/1.1/DTD/svg11.dtd" >
<svg>
<metadata>
Created by FontForge 20090622 at Sun Mar 29 06:23:48 2020
 By deploy user
Copyright (c) 2016 Swiss Typefaces Sarl. All rights reserved.
</metadata>
<defs>
<font id="EuclidFlexMedium" horiz-adv-x="802" >
  <font-face 
    font-family="Euclid Flex Medium"
    font-weight="500"
    font-stretch="normal"
    units-per-em="1000"
    panose-1="2 11 6 0 3 0 0 0 0 0"
    ascent="800"
    descent="-200"
    x-height="500"
    cap-height="710"
    bbox="-205 -243 1606 958"
    underline-thickness="90"
    underline-position="0"
    unicode-range="U+0020-U+FB02"
  />
<missing-glyph horiz-adv-x="500" 
d="M0 0v710h500v-710h-500zM239 355l-220 327v-654zM260 355l221 -327v654zM250 339l-216 -320h432zM34 691l216 -321l216 321h-432z" />
    <glyph glyph-name="uni0407_uni0407" unicode="&#x407;&#x407;" horiz-adv-x="572" 
d="M40 904q26 0 44 -17.5t18 -42.5q0 -26 -18 -44t-44 -18q-24 0 -42.5 18t-18.5 44q0 24 18.5 42t42.5 18zM531 904q26 0 44 -17.5t18 -42.5q0 -26 -18 -44t-44 -18q-25 0 -43 18t-18 44q0 25 18 42.5t43 17.5zM286 904q26 0 44 -17.5t18 -42.5q0 -26 -18 -44t-44 -18
q-25 0 -43 18t-18 44q0 25 18 42.5t43 17.5zM85 0v710h116v-710h-116zM371 0v710h116v-710h-116z" />
    <glyph glyph-name="uni0457_uni0457" unicode="&#x457;&#x457;" horiz-adv-x="500" 
d="M27 690q26 0 43.5 -17t17.5 -42q0 -26 -17.5 -43t-43.5 -17q-25 0 -42.5 17t-17.5 43q0 24 18 41.5t42 17.5zM473 690q26 0 43 -17t17 -42q0 -26 -17 -43t-43 -17q-25 0 -42.5 17t-17.5 43q0 25 17.5 42t42.5 17zM250 690q26 0 43 -17t17 -42q0 -26 -17 -43t-43 -17
q-25 0 -42.5 17t-17.5 43q0 25 17.5 42t42.5 17zM70 0v500h110v-500h-110zM320 0v500h110v-500h-110z" />
    <glyph glyph-name="f_t" unicode="ft" horiz-adv-x="654" 
d="M20 402v98h79q-34 37 -34 86q0 54 39 89t102 35h105v-98h-75q-31 0 -48.5 -14t-17.5 -40q0 -25 15.5 -40.5t37.5 -17.5h140v96l110 54v-150h152l-24 -98h-128v-227q0 -40 15 -57t56 -17h69v-101h-97q-72 0 -112.5 40t-40.5 112v250h-155v-402h-110v402h-78z" />
    <glyph glyph-name="t_f" unicode="tf" horiz-adv-x="634" 
d="M204 402v-227q0 -40 15 -57t56 -17h39v-101h-67q-72 0 -112.5 40t-40.5 112v250h-77l-20 98h97v96l110 58v-154h170q-34 37 -34 86q0 54 39 89t102 35h132v-98h-102q-31 0 -48.5 -14t-17.5 -40q0 -25 15.5 -40.5t37.5 -17.5h115v-98h-130v-402h-110v402h-169z" />
    <glyph glyph-name="t_t" unicode="tt" horiz-adv-x="664" 
d="M21 402l-24 98h97v96l110 54v-150h169v96l110 54v-150h152l-24 -98h-128v-227q0 -40 15 -57t56 -17h69v-101h-97q-72 0 -112.5 40t-40.5 112v250h-169v-227q0 -40 15 -57t56 -17h55v-101h-83q-72 0 -112.5 40t-40.5 112v250h-73z" />
    <glyph glyph-name=".notdef" horiz-adv-x="500" 
d="M0 0v710h500v-710h-500zM239 355l-220 327v-654zM260 355l221 -327v654zM250 339l-216 -320h432zM34 691l216 -321l216 321h-432z" />
    <glyph glyph-name=".null" horiz-adv-x="0" 
 />
    <glyph glyph-name="nonmarkingreturn" horiz-adv-x="333" 
 />
    <glyph glyph-name="space" unicode=" " horiz-adv-x="230" 
 />
    <glyph glyph-name="exclam" unicode="!" horiz-adv-x="298" 
d="M116 233l-22 192v285h111v-285l-21 -192h-68zM149 -8q-35 0 -60.5 25.5t-25.5 61.5q0 45 36 70h101q36 -27 36 -70q0 -36 -25.5 -61.5t-61.5 -25.5z" />
    <glyph glyph-name="quotedbl" unicode="&#x22;" horiz-adv-x="428" 
d="M65 446v264h96v-264h-96zM267 446v264h96v-264h-96z" />
    <glyph glyph-name="numbersign" unicode="#" horiz-adv-x="740" 
d="M339 0l60 193h-162l-60 -193h-97l60 193h-103v88h130l48 152h-106v88h133l59 189h97l-59 -189h163l59 189h97l-59 -189h104v-88h-132l-47 -152h107v-88h-135l-60 -193h-97zM312 433l-48 -152h163l47 152h-162z" />
    <glyph glyph-name="dollar" unicode="$" horiz-adv-x="527" 
d="M217 -88v83q-130 16 -189 118l80 66q58 -85 152 -85q53 0 83 25.5t30 64.5q0 37 -24.5 60t-82.5 51l-56 28q-80 38 -117 88t-37 119q0 71 46 121t115 62v85h94v-84q82 -16 145 -86l-73 -72q-28 32 -54.5 46t-63.5 14q-44 0 -72 -23.5t-28 -59.5q0 -35 24 -58.5t81 -49.5
l55 -27q158 -75 158 -204q0 -79 -45.5 -132t-126.5 -66v-84h-94z" />
    <glyph glyph-name="percent" unicode="%" horiz-adv-x="430" 
d="M212 69q27 0 44.5 18t17.5 44q0 27 -17.5 45.5t-44.5 18.5t-44.5 -18.5t-17.5 -45.5q0 -26 17.5 -44t44.5 -18zM212 -5q-58 0 -99 39.5t-41 96.5q0 59 41 99t99 40t99 -40t41 -99q0 -57 -41 -96.5t-99 -39.5zM67 310v88h296v-88h-296zM212 515q27 0 44.5 18t17.5 45
q0 26 -17.5 44t-44.5 18t-44.5 -18t-17.5 -44q0 -27 17.5 -45t44.5 -18zM212 440q-58 0 -99 40t-41 98q0 57 41 97t99 40t99 -40t41 -97q0 -58 -41 -98t-99 -40z" />
    <glyph glyph-name="ampersand" unicode="&#x26;" horiz-adv-x="612" 
d="M250 -8q-96 0 -161 65.5t-65 159.5t65 159.5t161 65.5q4 0 9 -0.5t8 -0.5l-136 269h376v-98h-207l312 -612h-121l-55 107q-54 -115 -186 -115zM250 95q50 0 84 35t34 87t-34 87t-84 35q-51 0 -85 -35t-34 -87t34 -87t85 -35z" />
    <glyph glyph-name="quotesingle" unicode="'" horiz-adv-x="226" 
d="M65 446v264h96v-264h-96z" />
    <glyph glyph-name="parenleft" unicode="(" horiz-adv-x="257" 
d="M163 -151q-56 112 -82.5 217t-26.5 234t26.5 234t82.5 217l84 -37q-97 -211 -97 -414t97 -414z" />
    <glyph glyph-name="parenright" unicode=")" horiz-adv-x="257" 
d="M94 -151l-84 37q97 211 97 414t-97 414l84 37q56 -112 82.5 -217t26.5 -234t-26.5 -234t-82.5 -217z" />
    <glyph glyph-name="asterisk" unicode="*" horiz-adv-x="462" 
d="M313 341l-81 111l-82 -110l-65 45l81 111l-131 44l24 77l133 -44v135h79v-135l132 43l24 -75l-130 -44l81 -112z" />
    <glyph glyph-name="plus" unicode="+" horiz-adv-x="615" 
d="M89 233v88h174v170h89v-170h174v-88h-174v-174h-89v174h-174z" />
    <glyph glyph-name="comma" unicode="," horiz-adv-x="268" 
d="M78 -146l44 146h-58v141h141v-141l-59 -146h-68z" />
    <glyph glyph-name="hyphen" unicode="-" horiz-adv-x="345" 
d="M44 222v109h258v-109h-258z" />
    <glyph glyph-name="period" unicode="." horiz-adv-x="283" 
d="M142 -8q-36 0 -61.5 25.5t-25.5 61.5q0 35 25.5 60.5t61.5 25.5t61 -25.5t25 -60.5q0 -36 -25 -61.5t-61 -25.5z" />
    <glyph glyph-name="slash" unicode="/" horiz-adv-x="440" 
d="M0 0l339 710h101l-339 -710h-101z" />
    <glyph glyph-name="zero" unicode="0" horiz-adv-x="815" 
d="M407 94q110 0 182 75t72 186q0 110 -72.5 185.5t-181.5 75.5t-181 -75.5t-72 -185.5q0 -111 72 -186t181 -75zM407 -8q-151 0 -257.5 105.5t-106.5 257.5t106.5 257.5t257.5 105.5q153 0 259 -105t106 -258t-106 -258t-259 -105z" />
    <glyph glyph-name="one" unicode="1" horiz-adv-x="288" 
d="M89 0v608l110 110v-718h-110z" />
    <glyph glyph-name="two" unicode="2" horiz-adv-x="564" 
d="M21 0l252 287q-93 0 -153 62.5t-60 149.5q0 93 64.5 156t160.5 63q95 0 160 -63.5t65 -155.5q0 -109 -89 -207l-166 -189h254v-103h-488zM285 382q51 0 83 33t32 84t-32 84t-83 33q-52 0 -83.5 -33t-31.5 -84q0 -52 31 -84.5t84 -32.5z" />
    <glyph glyph-name="three" unicode="3" horiz-adv-x="517" 
d="M233 -8q-64 0 -119.5 27t-88.5 75l81 68q42 -68 123 -68q60 0 99 36.5t39 98.5q-1 62 -39 100t-103 38h-67l130 239h-233v104h400l-140 -258q77 -23 120 -81.5t43 -141.5q0 -106 -67.5 -171.5t-177.5 -65.5z" />
    <glyph glyph-name="four" unicode="4" horiz-adv-x="588" 
d="M376 0v183h-396l505 535v-432h83v-103h-83v-183h-109zM214 286h162v171z" />
    <glyph glyph-name="five" unicode="5" horiz-adv-x="543" 
d="M259 -8q-65 0 -122.5 27.5t-89.5 74.5l82 70q18 -31 51.5 -50.5t74.5 -19.5q59 0 95.5 37t36.5 94q0 58 -36.5 96t-97.5 38q-68 0 -105 -56l-72 32v375h369v-103h-259v-162q33 16 72 16q110 0 175.5 -66t65.5 -170q0 -103 -66.5 -168t-173.5 -65z" />
    <glyph glyph-name="six" unicode="6" horiz-adv-x="531" 
d="M265 -8q-102 0 -170.5 67t-68.5 165q0 58 43 133l204 353h122l-150 -258q15 3 30 3q90 0 159.5 -66t69.5 -165q0 -98 -68.5 -165t-170.5 -67zM265 94q57 0 92.5 37.5t35.5 92.5q0 54 -35.5 92t-92.5 38q-56 0 -92 -38.5t-36 -91.5q0 -55 35.5 -92.5t92.5 -37.5z" />
    <glyph glyph-name="seven" unicode="7" horiz-adv-x="510" 
d="M54 0l286 607h-309v103h474l-333 -710h-118z" />
    <glyph glyph-name="eight" unicode="8" horiz-adv-x="573" 
d="M286 -8q-102 0 -171.5 66t-69.5 163q0 125 108 188q-52 49 -52 124q0 78 53.5 131.5t131.5 53.5q79 0 133 -53.5t54 -131.5q0 -75 -53 -125q108 -63 108 -187q0 -97 -69.5 -163t-172.5 -66zM286 94q58 0 94.5 36.5t36.5 90.5t-36.5 91t-94.5 37q-56 0 -92.5 -37
t-36.5 -91q0 -53 36.5 -90t92.5 -37zM286 450q36 0 59 23.5t23 59.5t-23 59.5t-59 23.5t-58 -23.5t-22 -59.5t22 -59.5t58 -23.5z" />
    <glyph glyph-name="nine" unicode="9" horiz-adv-x="531" 
d="M135 0l150 258q-15 -3 -30 -3q-90 0 -159.5 66t-69.5 165q0 98 68.5 165t170.5 67t170.5 -67t68.5 -165q0 -58 -43 -133l-204 -353h-122zM265 356q56 0 92 38.5t36 91.5q0 55 -35.5 92.5t-92.5 37.5t-92.5 -37.5t-35.5 -92.5q0 -54 35.5 -92t92.5 -38z" />
    <glyph glyph-name="colon" unicode=":" horiz-adv-x="283" 
d="M142 335q-36 0 -61.5 25.5t-25.5 61.5q0 35 25.5 60.5t61.5 25.5t61 -25.5t25 -60.5q0 -36 -25 -61.5t-61 -25.5zM142 -8q-36 0 -61.5 25.5t-25.5 61.5q0 35 25.5 60.5t61.5 25.5t61 -25.5t25 -60.5q0 -36 -25 -61.5t-61 -25.5z" />
    <glyph glyph-name="semicolon" unicode=";" horiz-adv-x="283" 
d="M86 -146l44 146h-58v141h141v-141l-59 -146h-68zM142 335q-36 0 -61.5 25.5t-25.5 61.5q0 35 25.5 60.5t61.5 25.5t61 -25.5t25 -60.5q0 -36 -25 -61.5t-61 -25.5z" />
    <glyph glyph-name="less" unicode="&#x3c;" horiz-adv-x="463" 
d="M336 -8l-289 282l289 282l64 -65l-224 -217l224 -218z" />
    <glyph glyph-name="equal" unicode="=" horiz-adv-x="620" 
d="M89 127v88h442v-88h-442zM89 339v88h442v-88h-442z" />
    <glyph glyph-name="greater" unicode="&#x3e;" horiz-adv-x="463" 
d="M127 -8l-64 64l224 218l-224 217l64 65l289 -282z" />
    <glyph glyph-name="question" unicode="?" horiz-adv-x="480" 
d="M182 280v102h57q51 0 83 33t32 84t-32 84t-83 33q-52 0 -83.5 -33t-31.5 -84h-110q0 93 64.5 156t160.5 63q95 0 160 -63.5t65 -155.5t-65 -155.5t-160 -63.5h-57zM234 -8q-35 0 -60.5 25.5t-25.5 61.5q0 45 36 70h101q36 -27 36 -70q0 -36 -25.5 -61.5t-61.5 -25.5z" />
    <glyph glyph-name="at" unicode="@" horiz-adv-x="807" 
d="M364 165q-77 0 -121.5 49t-44.5 123q0 92 61 155.5t156 63.5q60 0 103 -38l6 28h80l-49 -229q-16 -79 44 -79q42 0 69 43t27 127q0 113 -77.5 176t-193.5 63q-128 0 -218 -85t-90 -225q0 -121 73 -196t198 -75q103 0 184 41l25 -71q-99 -44 -209 -44q-158 0 -253.5 98.5
t-95.5 246.5q0 167 114 274t273 107q150 0 247 -85.5t97 -226.5q0 -122 -53.5 -182.5t-130.5 -60.5q-33 0 -59.5 14t-38.5 37q-49 -49 -123 -49zM378 241q55 0 90 43l33 153q-28 43 -84 43q-55 0 -94 -38.5t-39 -97.5q0 -49 25 -76t69 -27z" />
    <glyph glyph-name="A" unicode="A" horiz-adv-x="714" 
d="M10 0l347 718l347 -718h-125l-74 158h-297l-74 -158h-124zM357 474l-99 -210h197z" />
    <glyph glyph-name="B" unicode="B" horiz-adv-x="620" 
d="M79 0v710h251q94 0 151.5 -56.5t57.5 -137.5q0 -90 -66 -138q114 -48 114 -174q0 -92 -66 -148t-170 -56h-272zM195 108h156q58 0 88.5 27.5t30.5 73.5t-30.5 74.5t-88.5 28.5h-156v-204zM195 411h120q52 0 79.5 26.5t27.5 69.5q0 41 -27.5 68.5t-79.5 27.5h-120v-192z
" />
    <glyph glyph-name="C" unicode="C" horiz-adv-x="681" 
d="M401 -8q-151 0 -257 105t-106 258t106 258t257 105q153 0 251 -103l-75 -82q-70 75 -176 75q-105 0 -175 -73t-70 -180t70 -180t175 -73q106 0 176 75l75 -82q-98 -103 -251 -103z" />
    <glyph glyph-name="D" unicode="D" horiz-adv-x="714" 
d="M195 108h109q113 0 183.5 70t70.5 177t-70.5 177t-183.5 70h-109v-494zM79 0v710h225q159 0 265.5 -102t106.5 -253t-106.5 -253t-265.5 -102h-225z" />
    <glyph glyph-name="E" unicode="E" horiz-adv-x="544" 
d="M79 0v710h421v-114h-305v-180h245v-112h-245v-190h305v-114h-421z" />
    <glyph glyph-name="F" unicode="F" horiz-adv-x="514" 
d="M79 0v710h412v-114h-296v-180h231v-112h-231v-304h-116z" />
    <glyph glyph-name="G" unicode="G" horiz-adv-x="730" 
d="M401 -8q-151 0 -257 105t-106 258t106 258t257 105q161 0 259 -103l-75 -82q-70 75 -184 75q-105 0 -175 -73t-70 -180t70 -180t175 -73q84 0 145 38v164h-195l51 112h260v-333q-107 -91 -261 -91z" />
    <glyph glyph-name="H" unicode="H" horiz-adv-x="742" 
d="M79 0v710h116v-294h352v294h116v-710h-116v304h-352v-304h-116z" />
    <glyph glyph-name="I" unicode="I" horiz-adv-x="274" 
d="M79 0v710h116v-710h-116z" />
    <glyph glyph-name="J" unicode="J" horiz-adv-x="530" 
d="M234 -8q-92 0 -155 56.5t-63 160.5h117q0 -52 28.5 -79t72.5 -28q44 0 73 27.5t29 79.5v501h116v-503q0 -103 -63 -159t-155 -56z" />
    <glyph glyph-name="K" unicode="K" horiz-adv-x="662" 
d="M79 0v710h116v-357l299 357h138l-301 -359l331 -351h-150l-317 335v-335h-116z" />
    <glyph glyph-name="L" unicode="L" horiz-adv-x="505" 
d="M79 0v710h116v-595h299v-115h-415z" />
    <glyph glyph-name="M" unicode="M" horiz-adv-x="856" 
d="M79 0v718l349 -372l349 372v-718h-116v436l-233 -252l-233 252v-436h-116z" />
    <glyph glyph-name="N" unicode="N" horiz-adv-x="759" 
d="M680 -8l-485 461v-453h-116v718l485 -461v453h116v-718z" />
    <glyph glyph-name="O" unicode="O" 
d="M401 102q105 0 175 73t70 180t-70 180t-175 73t-175 -73t-70 -180t70 -180t175 -73zM401 -8q-151 0 -257 105t-106 258t106 258t257 105q152 0 257.5 -105t105.5 -258t-105.5 -258t-257.5 -105z" />
    <glyph glyph-name="P" unicode="P" horiz-adv-x="559" 
d="M79 0v710h212q110 0 179 -63t69 -163t-69 -163t-179 -63h-96v-258h-116zM195 366h91q63 0 99 32t36 86t-36 86t-99 32h-91v-236z" />
    <glyph glyph-name="Q" unicode="Q" 
d="M752 -8l-110 89q-102 -89 -241 -89q-151 0 -257 105t-106 258t106 258t257 105q152 0 257.5 -105t105.5 -258q0 -101 -53 -191l110 -90zM401 102q87 0 152 52l-101 83l69 82l99 -81q26 57 26 117q0 107 -70 180t-175 73t-175 -73t-70 -180t70 -180t175 -73z" />
    <glyph glyph-name="R" unicode="R" horiz-adv-x="622" 
d="M476 0l-214 302h-67v-302h-116v710h230q99 0 162.5 -57t63.5 -147q0 -69 -39 -120.5t-107 -72.5l226 -313h-139zM195 403h103q59 0 89 26.5t30 72.5q0 47 -30 74t-89 27h-103v-200z" />
    <glyph glyph-name="S" unicode="S" horiz-adv-x="518" 
d="M259 -8q-79 0 -142 32.5t-97 88.5l88 74q27 -37 66.5 -61t83.5 -24q52 0 80.5 22t28.5 60q0 39 -24 65t-79 50l-56 24q-160 70 -160 207q0 83 63 135.5t148 52.5q125 0 199 -90l-80 -83q-28 34 -55.5 48.5t-64.5 14.5q-38 0 -66 -21t-28 -56t24 -60.5t79 -48.5l55 -25
q163 -72 163 -203q0 -90 -62 -146t-164 -56z" />
    <glyph glyph-name="T" unicode="T" horiz-adv-x="523" 
d="M203 0v596h-183v114h483v-114h-184v-596h-116z" />
    <glyph glyph-name="U" unicode="U" horiz-adv-x="711" 
d="M356 -8q-127 0 -206.5 77t-79.5 207v434h116v-437q0 -82 46.5 -126.5t123.5 -44.5t123 44.5t46 126.5v437h116v-434q0 -130 -79 -207t-206 -77z" />
    <glyph glyph-name="V" unicode="V" horiz-adv-x="662" 
d="M331 -8l-329 718h128l201 -454l202 454h127z" />
    <glyph glyph-name="W" unicode="W" horiz-adv-x="893" 
d="M255 -8l-244 718h119l140 -409l176 417l176 -417l140 409h120l-245 -718l-191 460z" />
    <glyph glyph-name="X" unicode="X" horiz-adv-x="672" 
d="M14 0l244 360l-230 350h134l174 -263l174 263h134l-229 -350l243 -360h-133l-188 276l-188 -276h-135z" />
    <glyph glyph-name="Y" unicode="Y" horiz-adv-x="641" 
d="M262 0v299l-261 411h136l183 -293l183 293h137l-262 -411v-299h-116z" />
    <glyph glyph-name="Z" unicode="Z" horiz-adv-x="613" 
d="M17 0l371 596h-329v114h528l-371 -596h364v-114h-563z" />
    <glyph glyph-name="bracketleft" unicode="[" horiz-adv-x="281" 
d="M65 -148v896h204v-85h-107v-726h107v-85h-204z" />
    <glyph glyph-name="backslash" unicode="\" horiz-adv-x="440" 
d="M339 0l-339 710h101l339 -710h-101z" />
    <glyph glyph-name="bracketright" unicode="]" horiz-adv-x="281" 
d="M216 748v-896h-204v85h107v726h-107v85h204z" />
    <glyph glyph-name="asciicircum" unicode="^" horiz-adv-x="598" 
d="M25 311l274 403l274 -403h-105l-169 247l-170 -247h-104z" />
    <glyph glyph-name="underscore" unicode="_" horiz-adv-x="428" 
d="M0 -88v88h428v-88h-428z" />
    <glyph glyph-name="grave" unicode="`" horiz-adv-x="328" 
d="M186 545l-132 165h133l84 -165h-85z" />
    <glyph glyph-name="a" unicode="a" horiz-adv-x="611" 
d="M431 0v36q-55 -44 -134 -44q-111 0 -184 74t-73 184t73 184t184 74q78 0 134 -45v37h110v-500h-110zM298 97q41 0 76.5 18.5t56.5 49.5v170q-21 31 -56.5 49.5t-76.5 18.5q-63 0 -104 -43.5t-41 -109.5t41 -109.5t104 -43.5z" />
    <glyph glyph-name="b" unicode="b" horiz-adv-x="611" 
d="M70 0v710h110v-247q56 45 134 45q111 0 184 -74t73 -184t-73 -184t-184 -74q-81 0 -134 44v-36h-110zM313 403q-41 0 -76.5 -18.5t-56.5 -49.5v-170q21 -31 56.5 -49.5t76.5 -18.5q63 0 104 43.5t41 109.5t-41 109.5t-104 43.5z" />
    <glyph glyph-name="c" unicode="c" horiz-adv-x="524" 
d="M298 -8q-111 0 -184.5 74t-73.5 184t73.5 184t184.5 74q115 0 191 -83l-75 -77q-46 53 -116 53q-63 0 -104 -42.5t-41 -108.5t41 -108.5t104 -42.5q70 0 116 53l75 -77q-76 -83 -191 -83z" />
    <glyph glyph-name="d" unicode="d" horiz-adv-x="611" 
d="M431 0v36q-55 -44 -134 -44q-111 0 -184 74t-73 184t73 184t184 74q78 0 134 -45v247h110v-710h-110zM298 97q41 0 76.5 18.5t56.5 49.5v170q-21 31 -56.5 49.5t-76.5 18.5q-63 0 -104 -43.5t-41 -109.5t41 -109.5t104 -43.5z" />
    <glyph glyph-name="e" unicode="e" horiz-adv-x="574" 
d="M298 -8q-111 0 -184.5 74t-73.5 184t73.5 184t182.5 74q105 0 169 -69t70 -189v-30h-381q8 -54 47.5 -86.5t96.5 -32.5q77 0 130 57l74 -79q-33 -40 -86.5 -63.5t-117.5 -23.5zM288 407q-46 0 -81.5 -27.5t-49.5 -74.5h257q-20 102 -126 102z" />
    <glyph glyph-name="f" unicode="f" horiz-adv-x="359" 
d="M20 402v98h79q-34 37 -34 86q0 54 39 89t102 35h132v-98h-102q-31 0 -48.5 -14t-17.5 -40q0 -25 15.5 -40.5t37.5 -17.5h115v-98h-130v-402h-110v402h-78z" />
    <glyph glyph-name="g" unicode="g" horiz-adv-x="603" 
d="M289 -194q-124 0 -215 60l58 96q71 -51 157 -51q64 0 106 24.5t42 80.5q0 29 -11 51q-59 -47 -137 -47q-110 0 -179.5 69t-69.5 175t69.5 175t179.5 69q77 0 133 -45v37h110v-399q20 -47 20 -99q0 -99 -77 -147.5t-186 -48.5zM290 125q88 0 132 67v144q-44 67 -132 67
q-59 0 -98 -39t-39 -100t39 -100t98 -39z" />
    <glyph glyph-name="h" unicode="h" horiz-adv-x="583" 
d="M70 0v710h110v-257q49 55 140 55q93 0 148 -59t55 -156v-293h-110v291q0 43 -31 77.5t-83 34.5q-90 0 -119 -88v-315h-110z" />
    <glyph glyph-name="i" unicode="i" horiz-adv-x="250" 
d="M180 597h-110q-18 21 -18 48q0 30 21.5 51.5t51.5 21.5t51.5 -21.5t21.5 -51.5q0 -27 -18 -48zM70 0v500h110v-500h-110z" />
    <glyph glyph-name="j" unicode="j" horiz-adv-x="250" 
d="M-35 -184v104h30q39 0 57 15.5t18 52.5v512h110v-518q0 -88 -44.5 -127t-135.5 -39h-35zM180 597h-110q-18 21 -18 48q0 30 21.5 51.5t51.5 21.5t51.5 -21.5t21.5 -51.5q0 -27 -18 -48z" />
    <glyph glyph-name="k" unicode="k" horiz-adv-x="535" 
d="M70 0v710h110v-436l200 226h130l-208 -237l233 -263h-135l-220 249v-249h-110z" />
    <glyph glyph-name="l" unicode="l" horiz-adv-x="250" 
d="M70 0v710h110v-710h-110z" />
    <glyph glyph-name="m" unicode="m" horiz-adv-x="883" 
d="M713 0v291q0 45 -26.5 78.5t-76.5 33.5q-78 0 -109 -87q1 -8 1 -23v-293h-110v291q0 44 -27 78t-77 34q-78 0 -108 -85v-318h-110v500h110v-47q49 55 129 55q103 0 156 -77q61 77 165 77q92 0 142.5 -58.5t50.5 -156.5v-293h-110z" />
    <glyph glyph-name="n" unicode="n" horiz-adv-x="583" 
d="M70 0v500h110v-47q49 55 140 55q93 0 148 -59t55 -156v-293h-110v291q0 43 -31 77.5t-83 34.5q-90 0 -119 -88v-315h-110z" />
    <glyph glyph-name="o" unicode="o" horiz-adv-x="598" 
d="M299 97q63 0 104.5 43.5t41.5 109.5t-41.5 109.5t-104.5 43.5q-64 0 -105 -43.5t-41 -109.5t41 -109.5t105 -43.5zM299 -8q-111 0 -185 74t-74 184t74 184t185 74t185 -74t74 -184t-74 -184t-185 -74z" />
    <glyph glyph-name="p" unicode="p" horiz-adv-x="611" 
d="M70 -184v684h110v-37q56 45 134 45q111 0 184 -74t73 -184t-73 -184t-184 -74q-81 0 -134 44v-220h-110zM313 403q-41 0 -76.5 -18.5t-56.5 -49.5v-170q21 -31 56.5 -49.5t76.5 -18.5q63 0 104 43.5t41 109.5t-41 109.5t-104 43.5z" />
    <glyph glyph-name="q" unicode="q" horiz-adv-x="611" 
d="M431 -184v220q-55 -44 -134 -44q-111 0 -184 74t-73 184t73 184t184 74q78 0 134 -45v37h110v-684h-110zM298 97q41 0 76.5 18.5t56.5 49.5v170q-21 31 -56.5 49.5t-76.5 18.5q-63 0 -104 -43.5t-41 -109.5t41 -109.5t104 -43.5z" />
    <glyph glyph-name="r" unicode="r" horiz-adv-x="367" 
d="M70 0v500h110v-49q47 56 129 56q19 0 36 -3v-115q-20 7 -55 7q-78 0 -110 -60v-336h-110z" />
    <glyph glyph-name="s" unicode="s" horiz-adv-x="416" 
d="M205 -8q-127 0 -186 102l84 60q37 -64 102 -64q29 0 46.5 13t17.5 33q0 21 -15.5 35.5t-51.5 27.5l-35 14q-122 47 -122 154q0 61 45.5 101t115.5 40q105 0 156 -87l-81 -56q-26 45 -73 45q-23 0 -39 -11t-16 -29q0 -20 14 -33.5t50 -27.5l36 -13q66 -26 98.5 -62
t32.5 -93q0 -66 -49.5 -107.5t-129.5 -41.5z" />
    <glyph glyph-name="t" unicode="t" horiz-adv-x="385" 
d="M21 402l-24 98h97v96l110 54v-150h152l-24 -98h-128v-227q0 -40 15 -57t56 -17h69v-101h-97q-72 0 -112.5 40t-40.5 112v250h-73z" />
    <glyph glyph-name="u" unicode="u" horiz-adv-x="580" 
d="M400 0v46q-48 -54 -140 -54q-93 0 -148 59t-55 156v293h110v-291q0 -43 31 -77.5t83 -34.5q88 0 119 85v318h110v-500h-110z" />
    <glyph glyph-name="v" unicode="v" horiz-adv-x="548" 
d="M274 -8l-274 508h124l150 -294l148 294h126z" />
    <glyph glyph-name="w" unicode="w" horiz-adv-x="723" 
d="M171 0l-158 500h115l99 -327l135 335l134 -335l99 327h115l-158 -500h-86l-104 260l-105 -260h-86z" />
    <glyph glyph-name="x" unicode="x" horiz-adv-x="543" 
d="M13 0l189 253l-179 247h127l121 -166l121 166h127l-179 -247l189 -253h-128l-130 178l-130 -178h-128z" />
    <glyph glyph-name="y" unicode="y" horiz-adv-x="510" 
d="M107 -184l90 210l-197 474h118l136 -345l137 345h118l-286 -684h-116z" />
    <glyph glyph-name="z" unicode="z" horiz-adv-x="507" 
d="M19 0l272 402h-240v98h430l-272 -402h258v-98h-448z" />
    <glyph glyph-name="braceleft" unicode="{" horiz-adv-x="303" 
d="M229 -148q-135 0 -135 143v198q0 33 -12 49t-45 16h-13v84h13q33 0 45 16t12 49v198q0 143 132 143h64v-85h-42q-34 0 -46 -15t-12 -52v-190q0 -83 -56 -106q30 -11 43 -36t13 -70v-190q0 -37 12 -52t46 -15h42v-85h-61z" />
    <glyph glyph-name="bar" unicode="|" horiz-adv-x="245" 
d="M74 -184v894h97v-894h-97z" />
    <glyph glyph-name="braceright" unicode="}" horiz-adv-x="303" 
d="M74 -148h-61v85h42q34 0 46 15t12 52v190q0 45 13 70t43 36q-56 23 -56 106v190q0 37 -12 52t-46 15h-42v85h64q132 0 132 -143v-198q0 -33 12 -49t45 -16h13v-84h-13q-33 0 -45 -16t-12 -49v-198q0 -143 -135 -143z" />
    <glyph glyph-name="asciitilde" unicode="~" horiz-adv-x="597" 
d="M89 199v108l108 73l198 -76l113 74v-103l-109 -76l-198 76z" />
    <glyph glyph-name="uni00A0" unicode="&#xa0;" horiz-adv-x="230" 
 />
    <glyph glyph-name="exclamdown" unicode="&#xa1;" horiz-adv-x="299" 
d="M94 -184v259l22 192h68l21 -192v-259h-111zM200 351h-101q-36 23 -36 70q0 36 25.5 61.5t60.5 25.5q36 0 61.5 -25.5t25.5 -61.5q0 -44 -36 -70z" />
    <glyph glyph-name="cent" unicode="&#xa2;" horiz-adv-x="539" 
d="M261 -88v84q-93 14 -153.5 85.5t-60.5 168.5t60 167.5t154 86.5v84h89v-84q88 -16 146 -79l-75 -77q-46 53 -116 53q-63 0 -104 -42.5t-41 -108.5t41 -108.5t104 -42.5q70 0 116 53l75 -77q-58 -63 -146 -79v-84h-89z" />
    <glyph glyph-name="sterling" unicode="&#xa3;" horiz-adv-x="618" 
d="M72 301v90h81q-39 48 -39 114q0 87 63 150t157 63q92 0 155.5 -62.5t65.5 -152.5h-112q0 48 -30.5 80.5t-78.5 32.5t-79 -31.5t-31 -79.5t31.5 -81t78.5 -33h81v-90h-147v-198h303v-103h-499v103h85v198h-85z" />
    <glyph glyph-name="currency" unicode="&#xa4;" horiz-adv-x="652" 
d="M106 94l-39 39l69 69q-49 63 -49 144q0 83 48 145l-68 69l39 38l67 -67q63 54 150 54q88 0 154 -56l69 69l39 -38l-71 -70q48 -62 48 -144q0 -80 -49 -143l72 -70l-39 -39l-70 70q-66 -54 -153 -54q-84 0 -149 52zM323 206q61 0 101 40t40 100q0 62 -40 103t-101 41
q-60 0 -98 -41t-38 -103q0 -60 38.5 -100t97.5 -40z" />
    <glyph glyph-name="yen" unicode="&#xa5;" horiz-adv-x="655" 
d="M108 281v88h120l-217 341h128l188 -299l187 299h129l-217 -341h121v-88h-165v-74h165v-88h-165v-119h-109v119h-165v88h165v74h-165z" />
    <glyph glyph-name="brokenbar" unicode="&#xa6;" horiz-adv-x="245" 
d="M74 -184v384h97v-384h-97zM74 327v383h97v-383h-97z" />
    <glyph glyph-name="section" unicode="&#xa7;" horiz-adv-x="500" 
d="M240 -194q-118 0 -173 106l77 50q37 -73 98 -73q32 0 54.5 20t22.5 51q0 33 -22 60t-80 55l-12 6t-16 7q-60 21 -93.5 67.5t-33.5 110.5q0 50 24.5 92.5t66.5 65.5l-16 13q-55 54 -55 132q0 67 47.5 108t117.5 41q56 0 98.5 -28t62.5 -77l-77 -44q-31 66 -86 66
q-27 0 -46.5 -18.5t-19.5 -47.5q0 -62 83 -109q15 -10 37 -17q62 -20 100.5 -64t38.5 -113q0 -51 -24.5 -93t-67.5 -69q5 -5 15 -13q54 -49 54 -130q0 -68 -49.5 -111.5t-125.5 -43.5zM250 166q39 0 65.5 29.5t26.5 70.5t-26 67.5t-66 26.5t-66.5 -26.5t-26.5 -67.5
t27 -70.5t66 -29.5z" />
    <glyph glyph-name="dieresis" unicode="&#xa8;" horiz-adv-x="466" 
d="M118 562q-28 0 -48 19.5t-20 47.5t20 48t48 20t48 -20t20 -48t-20 -47.5t-48 -19.5zM348 562q-29 0 -48 19.5t-19 47.5t19 48t48 20q28 0 47.5 -20t19.5 -48t-19.5 -47.5t-47.5 -19.5z" />
    <glyph glyph-name="copyright" unicode="&#xa9;" 
d="M411 171q-79 0 -131.5 52.5t-52.5 131.5t52.5 131.5t131.5 52.5q95 0 148 -80l-60 -41q-31 50 -90 50q-45 0 -74.5 -31t-29.5 -82t29.5 -82t74.5 -31q59 0 90 50l60 -41q-55 -80 -148 -80zM401 72q118 0 198.5 81t80.5 202q0 122 -80.5 202.5t-198.5 80.5t-199 -81
t-81 -202t81 -202t199 -81zM401 -8q-151 0 -257 104.5t-106 258.5t106 258.5t257 104.5t257 -104.5t106 -258.5t-106 -258.5t-257 -104.5z" />
    <glyph glyph-name="ordfeminine" unicode="&#xaa;" horiz-adv-x="360" 
d="M241 410v20q-28 -25 -71 -25q-65 0 -107 45.5t-42 109.5t42 109.5t107 45.5q39 0 71 -25v20h81v-300h-81zM179 481q40 0 62 31v96q-24 31 -62 31q-34 0 -55 -22.5t-21 -56.5t21 -56.5t55 -22.5z" />
    <glyph glyph-name="guillemotleft" unicode="&#xab;" horiz-adv-x="520" 
d="M401 22l-156 228l156 228l75 -51l-121 -177l121 -177zM187 22l-156 228l156 228l75 -51l-121 -177l121 -177z" />
    <glyph glyph-name="logicalnot" unicode="&#xac;" horiz-adv-x="615" 
d="M437 49v184h-348v88h437v-272h-89z" />
    <glyph glyph-name="uni00AD" unicode="&#xad;" horiz-adv-x="345" 
d="M44 222v109h258v-109h-258z" />
    <glyph glyph-name="registered" unicode="&#xae;" 
d="M401 -8q-151 0 -257 104.5t-106 258.5t106 258.5t257 104.5t257 -104.5t106 -258.5t-106 -258.5t-257 -104.5zM401 72q118 0 198.5 81t80.5 202q0 122 -80.5 202.5t-198.5 80.5t-199 -81t-81 -202t81 -202t199 -81zM481 175l-104 141h-24v-141h-74v361h146q50 0 82 -32
t32 -78q0 -80 -80 -104l110 -147h-88zM352 381h65q24 0 36.5 12t12.5 31q0 18 -12.5 30t-36.5 12h-65v-85z" />
    <glyph glyph-name="macron" unicode="&#xaf;" horiz-adv-x="410" 
d="M52 601v76h306v-76h-306z" />
    <glyph glyph-name="degree" unicode="&#xb0;" horiz-adv-x="338" 
d="M169 537q23 0 39 16t16 39t-16 39t-39 16t-39 -16t-16 -39t16 -39t39 -16zM169 470q-51 0 -86.5 35.5t-35.5 86.5t35.5 86.5t86.5 35.5t86.5 -35.5t35.5 -86.5t-35.5 -86.5t-86.5 -35.5z" />
    <glyph glyph-name="plusminus" unicode="&#xb1;" horiz-adv-x="615" 
d="M89 283v88h174v129h89v-129h174v-88h-174v-133h-89v133h-174zM89 0v88h437v-88h-437z" />
    <glyph glyph-name="twosuperior" unicode="&#xb2;" horiz-adv-x="344" 
d="M5 410l139 166q-36 0 -73 36.5t-37 93.5q0 56 40.5 95.5t98.5 39.5q57 0 98 -39.5t41 -95.5q0 -52 -42 -102l-98 -118h139v-76h-306zM173 646q26 0 41.5 17.5t15.5 42.5t-15.5 42t-41.5 17t-41.5 -17t-15.5 -42t15.5 -42.5t41.5 -17.5z" />
    <glyph glyph-name="threesuperior" unicode="&#xb3;" horiz-adv-x="311" 
d="M139 405q-84 0 -128 61l59 52q23 -37 65 -37q32 0 51.5 19t19.5 52q0 32 -19.5 51.5t-52.5 19.5h-42l69 137h-131v76h251l-75 -152q83 -37 83 -132q0 -66 -41.5 -106.5t-108.5 -40.5z" />
    <glyph glyph-name="acute" unicode="&#xb4;" horiz-adv-x="328" 
d="M55 545l85 165h133l-131 -165h-87z" />
    <glyph glyph-name="mu" unicode="&#xb5;" horiz-adv-x="593" 
d="M70 -184v654h110v-654h-110zM413 0v46q-48 -54 -140 -54q-93 0 -148 59t-55 156v293h110v-291q0 -43 31 -77.5t83 -34.5q88 0 119 85v318h110v-500h-110z" />
    <glyph glyph-name="mu" unicode="&#x3bc;" horiz-adv-x="593" 
d="M70 -184v654h110v-654h-110zM413 0v46q-48 -54 -140 -54q-93 0 -148 59t-55 156v293h110v-291q0 -43 31 -77.5t83 -34.5q88 0 119 85v318h110v-500h-110z" />
    <glyph glyph-name="paragraph" unicode="&#xb6;" horiz-adv-x="643" 
d="M363 612v-796h-96v444q-93 0 -159 66t-66 159t66 159t159 66h287v-894h-96v796h-95z" />
    <glyph glyph-name="periodcentered" unicode="&#xb7;" horiz-adv-x="283" 
d="M142 189q-36 0 -61.5 25.5t-25.5 61.5q0 35 25.5 60.5t61.5 25.5t61 -25.5t25 -60.5q0 -36 -25 -61.5t-61 -25.5z" />
    <glyph glyph-name="cedilla" unicode="&#xb8;" horiz-adv-x="267" 
d="M52 -132l58 132h82l-40 -132h-100z" />
    <glyph glyph-name="onesuperior" unicode="&#xb9;" horiz-adv-x="181" 
d="M50 410v350l81 83v-433h-81z" />
    <glyph glyph-name="ordmasculine" unicode="&#xba;" horiz-adv-x="352" 
d="M176 482q32 0 52.5 22t20.5 56t-20.5 56t-52.5 22t-52.5 -22t-20.5 -56t20.5 -56t52.5 -22zM176 405q-66 0 -111 45t-45 110t45 110t111 45t111 -45t45 -110t-45 -110t-111 -45z" />
    <glyph glyph-name="guillemotright" unicode="&#xbb;" horiz-adv-x="520" 
d="M492 250l-156 -228l-75 51l121 177l-121 177l75 51zM278 250l-156 -228l-75 51l121 177l-121 177l75 51z" />
    <glyph glyph-name="onequarter" unicode="&#xbc;" horiz-adv-x="751" 
d="M64 284v350l82 83v-433h-82zM121 0h-90l500 710h90zM596 0v101h-220l302 332v-260h43v-72h-43v-101h-82zM527 173h69v75z" />
    <glyph glyph-name="onehalf" unicode="&#xbd;" horiz-adv-x="798" 
d="M64 284v350l82 83v-433h-82zM121 0h-90l500 710h90zM431 0l139 166q-36 0 -73 36.5t-37 93.5q0 56 40.5 95.5t98.5 39.5q57 0 98 -39.5t41 -95.5q0 -52 -42 -102l-98 -118h139v-76h-306zM599 236q26 0 41.5 17.5t15.5 42.5t-15.5 42t-41.5 17t-41.5 -17t-15.5 -42
t15.5 -42.5t41.5 -17.5z" />
    <glyph glyph-name="threequarters" unicode="&#xbe;" horiz-adv-x="866" 
d="M178 279q-84 0 -128 61l58 52q26 -37 66 -37q32 0 51.5 19t19.5 52q0 32 -19.5 51.5t-52.5 19.5h-42l68 137h-130v76h251l-76 -152q83 -37 83 -132q0 -66 -40.5 -106.5t-108.5 -40.5zM235 0h-90l500 710h90zM710 0v101h-220l302 332v-260h43v-72h-43v-101h-82zM641 173
h69v75z" />
    <glyph glyph-name="questiondown" unicode="&#xbf;" horiz-adv-x="480" 
d="M241 -194q-95 0 -160 63.5t-65 155.5t65 155.5t160 63.5h57v-102h-57q-51 0 -83 -33t-32 -84t32 -84t83 -33q52 0 83.5 33t31.5 84h110q0 -93 -64.5 -156t-160.5 -63zM296 351h-101q-36 27 -36 70q0 36 25.5 61.5t61.5 25.5q35 0 60.5 -25.5t25.5 -61.5q0 -45 -36 -70z
" />
    <glyph glyph-name="Agrave" unicode="&#xc0;" horiz-adv-x="714" 
d="M10 0l347 718l347 -718h-125l-74 158h-297l-74 -158h-124zM357 474l-99 -210h197zM323 768l-118 145h130l75 -145h-87z" />
    <glyph glyph-name="Aacute" unicode="&#xc1;" horiz-adv-x="714" 
d="M10 0l347 718l347 -718h-125l-74 158h-297l-74 -158h-124zM357 474l-99 -210h197zM316 768l74 145h130l-117 -145h-87z" />
    <glyph glyph-name="Acircumflex" unicode="&#xc2;" horiz-adv-x="714" 
d="M10 0l347 718l347 -718h-125l-74 158h-297l-74 -158h-124zM357 474l-99 -210h197zM219 760l-37 73l175 91l174 -91l-37 -73l-137 73z" />
    <glyph glyph-name="Atilde" unicode="&#xc3;" horiz-adv-x="714" 
d="M10 0l347 718l347 -718h-125l-74 158h-297l-74 -158h-124zM357 474l-99 -210h197zM175 777l4 23q8 47 40 75t70 28q31 0 72 -21.5t54 -21.5q20 0 30 9.5t16 33.5h78l-3 -22q-8 -47 -39 -75t-70 -28q-32 0 -73 21.5t-54 21.5q-20 0 -30.5 -10t-15.5 -34h-79z" />
    <glyph glyph-name="Adieresis" unicode="&#xc4;" horiz-adv-x="714" 
d="M10 0l347 718l347 -718h-125l-74 158h-297l-74 -158h-124zM357 474l-99 -210h197zM242 774q-28 0 -48 19.5t-20 48.5q0 28 20.5 48t47.5 20q29 0 48.5 -20t19.5 -48q0 -29 -19.5 -48.5t-48.5 -19.5zM472 774q-28 0 -48 19.5t-20 48.5q0 28 20 48t48 20q29 0 48.5 -20
t19.5 -48q0 -29 -19.5 -48.5t-48.5 -19.5z" />
    <glyph glyph-name="Aring" unicode="&#xc5;" horiz-adv-x="714" 
d="M10 0l347 718l347 -718h-125l-74 158h-297l-74 -158h-124zM357 474l-99 -210h197zM357 807q20 0 33.5 13t13.5 34q0 20 -13.5 34t-33.5 14t-34 -14t-14 -34q0 -21 13.5 -34t34.5 -13zM357 750q-45 0 -76 30t-31 74q0 45 31 74.5t76 29.5t76 -30t31 -74t-31 -74t-76 -30z
" />
    <glyph glyph-name="AE" unicode="&#xc6;" horiz-adv-x="992" 
d="M10 0l289 598l-52 112h392l55 -114h-278l87 -180h228l54 -112h-228l92 -190h278l55 -114h-403l-74 158h-297l-74 -158h-124zM357 474l-99 -210h197z" />
    <glyph glyph-name="Ccedilla" unicode="&#xc7;" horiz-adv-x="681" 
d="M401 -8q-151 0 -257 105t-106 258t106 258t257 105q153 0 251 -103l-75 -82q-70 75 -176 75q-105 0 -175 -73t-70 -180t70 -180t175 -73q106 0 176 75l75 -82q-98 -103 -251 -103zM273 -132l58 132h82l-40 -132h-100z" />
    <glyph glyph-name="Egrave" unicode="&#xc8;" horiz-adv-x="544" 
d="M79 0v710h421v-114h-305v-180h245v-112h-245v-190h305v-114h-421zM276 768l-118 145h130l75 -145h-87z" />
    <glyph glyph-name="Eacute" unicode="&#xc9;" horiz-adv-x="544" 
d="M79 0v710h421v-114h-305v-180h245v-112h-245v-190h305v-114h-421zM216 768l74 145h130l-117 -145h-87z" />
    <glyph glyph-name="Ecircumflex" unicode="&#xca;" horiz-adv-x="544" 
d="M79 0v710h421v-114h-305v-180h245v-112h-245v-190h305v-114h-421zM152 760l-37 73l175 91l174 -91l-37 -73l-137 73z" />
    <glyph glyph-name="Edieresis" unicode="&#xcb;" horiz-adv-x="544" 
d="M79 0v710h421v-114h-305v-180h245v-112h-245v-190h305v-114h-421zM174 774q-28 0 -48 19.5t-20 48.5q0 28 20.5 48t47.5 20q29 0 48.5 -20t19.5 -48q0 -29 -19.5 -48.5t-48.5 -19.5zM404 774q-28 0 -48 19.5t-20 48.5q0 28 20 48t48 20q29 0 48.5 -20t19.5 -48
q0 -29 -19.5 -48.5t-48.5 -19.5z" />
    <glyph glyph-name="Igrave" unicode="&#xcc;" horiz-adv-x="274" 
d="M79 0v710h116v-710h-116zM124 768l-118 145h130l75 -145h-87z" />
    <glyph glyph-name="Iacute" unicode="&#xcd;" horiz-adv-x="274" 
d="M79 0v710h116v-710h-116zM64 768l74 145h130l-117 -145h-87z" />
    <glyph glyph-name="Icircumflex" unicode="&#xce;" horiz-adv-x="274" 
d="M79 0v710h116v-710h-116zM0 760l-37 73l175 91l174 -91l-37 -73l-137 73z" />
    <glyph glyph-name="Idieresis" unicode="&#xcf;" horiz-adv-x="274" 
d="M79 0v710h116v-710h-116zM23 774q-28 0 -48 19.5t-20 48.5q0 28 20.5 48t47.5 20q29 0 48.5 -20t19.5 -48q0 -29 -19.5 -48.5t-48.5 -19.5zM253 774q-28 0 -48 19.5t-20 48.5q0 28 20 48t48 20q29 0 48.5 -20t19.5 -48q0 -29 -19.5 -48.5t-48.5 -19.5z" />
    <glyph glyph-name="Eth" unicode="&#xd0;" horiz-adv-x="738" 
d="M-6 313v108h109v289h225q159 0 265.5 -102t106.5 -253t-106.5 -253t-265.5 -102h-225v313h-109zM219 108h109q113 0 183.5 70t70.5 177t-70.5 177t-183.5 70h-109v-181h130v-108h-130v-205z" />
    <glyph glyph-name="Ntilde" unicode="&#xd1;" horiz-adv-x="759" 
d="M680 -8l-485 461v-453h-116v718l485 -461v453h116v-718zM197 777l4 23q8 47 40 75t70 28q31 0 72 -21.5t54 -21.5q20 0 30 9.5t16 33.5h78l-3 -22q-8 -47 -39 -75t-70 -28q-32 0 -73 21.5t-54 21.5q-20 0 -30.5 -10t-15.5 -34h-79z" />
    <glyph glyph-name="Ograve" unicode="&#xd2;" 
d="M401 102q105 0 175 73t70 180t-70 180t-175 73t-175 -73t-70 -180t70 -180t175 -73zM401 -8q-151 0 -257 105t-106 258t106 258t257 105q152 0 257.5 -105t105.5 -258t-105.5 -258t-257.5 -105zM378 768l-118 145h130l75 -145h-87z" />
    <glyph glyph-name="Oacute" unicode="&#xd3;" 
d="M401 102q105 0 175 73t70 180t-70 180t-175 73t-175 -73t-70 -180t70 -180t175 -73zM401 -8q-151 0 -257 105t-106 258t106 258t257 105q152 0 257.5 -105t105.5 -258t-105.5 -258t-257.5 -105zM337 768l74 145h130l-117 -145h-87z" />
    <glyph glyph-name="Ocircumflex" unicode="&#xd4;" 
d="M401 102q105 0 175 73t70 180t-70 180t-175 73t-175 -73t-70 -180t70 -180t175 -73zM401 -8q-151 0 -257 105t-106 258t106 258t257 105q152 0 257.5 -105t105.5 -258t-105.5 -258t-257.5 -105zM263 760l-37 73l175 91l174 -91l-37 -73l-137 73z" />
    <glyph glyph-name="Otilde" unicode="&#xd5;" 
d="M401 102q105 0 175 73t70 180t-70 180t-175 73t-175 -73t-70 -180t70 -180t175 -73zM401 -8q-151 0 -257 105t-106 258t106 258t257 105q152 0 257.5 -105t105.5 -258t-105.5 -258t-257.5 -105zM219 777l4 23q8 47 40 75t70 28q31 0 72 -21.5t54 -21.5q20 0 30 9.5
t16 33.5h78l-3 -22q-8 -47 -39 -75t-70 -28q-32 0 -73 21.5t-54 21.5q-20 0 -30.5 -10t-15.5 -34h-79z" />
    <glyph glyph-name="Odieresis" unicode="&#xd6;" 
d="M401 102q105 0 175 73t70 180t-70 180t-175 73t-175 -73t-70 -180t70 -180t175 -73zM401 -8q-151 0 -257 105t-106 258t106 258t257 105q152 0 257.5 -105t105.5 -258t-105.5 -258t-257.5 -105zM286 774q-28 0 -48 19.5t-20 48.5q0 28 20.5 48t47.5 20q29 0 48.5 -20
t19.5 -48q0 -29 -19.5 -48.5t-48.5 -19.5zM516 774q-28 0 -48 19.5t-20 48.5q0 28 20 48t48 20q29 0 48.5 -20t19.5 -48q0 -29 -19.5 -48.5t-48.5 -19.5z" />
    <glyph glyph-name="multiply" unicode="&#xd7;" horiz-adv-x="572" 
d="M152 69l-63 62l135 134l-135 135l63 62l134 -135l135 135l62 -62l-135 -135l135 -134l-62 -62l-135 134z" />
    <glyph glyph-name="Oslash" unicode="&#xd8;" 
d="M119 -17l-67 66l68 73q-82 103 -82 233q0 153 106 258t257 105q119 0 211 -66l72 77l68 -65l-71 -76q83 -102 83 -233q0 -153 -105.5 -258t-257.5 -105q-120 0 -212 66zM401 102q105 0 175 73t70 180q0 83 -44 147l-336 -361q58 -39 135 -39zM156 355q0 -82 43 -147
l336 360q-62 40 -134 40q-105 0 -175 -73t-70 -180z" />
    <glyph glyph-name="Ugrave" unicode="&#xd9;" horiz-adv-x="711" 
d="M356 -8q-127 0 -206.5 77t-79.5 207v434h116v-437q0 -82 46.5 -126.5t123.5 -44.5t123 44.5t46 126.5v437h116v-434q0 -130 -79 -207t-206 -77zM331 768l-118 145h130l75 -145h-87z" />
    <glyph glyph-name="Uacute" unicode="&#xda;" horiz-adv-x="711" 
d="M356 -8q-127 0 -206.5 77t-79.5 207v434h116v-437q0 -82 46.5 -126.5t123.5 -44.5t123 44.5t46 126.5v437h116v-434q0 -130 -79 -207t-206 -77zM292 768l74 145h130l-117 -145h-87z" />
    <glyph glyph-name="Ucircumflex" unicode="&#xdb;" horiz-adv-x="711" 
d="M356 -8q-127 0 -206.5 77t-79.5 207v434h116v-437q0 -82 46.5 -126.5t123.5 -44.5t123 44.5t46 126.5v437h116v-434q0 -130 -79 -207t-206 -77zM217 760l-37 73l175 91l174 -91l-37 -73l-137 73z" />
    <glyph glyph-name="Udieresis" unicode="&#xdc;" horiz-adv-x="711" 
d="M356 -8q-127 0 -206.5 77t-79.5 207v434h116v-437q0 -82 46.5 -126.5t123.5 -44.5t123 44.5t46 126.5v437h116v-434q0 -130 -79 -207t-206 -77zM240 774q-28 0 -48 19.5t-20 48.5q0 28 20.5 48t47.5 20q29 0 48.5 -20t19.5 -48q0 -29 -19.5 -48.5t-48.5 -19.5zM470 774
q-28 0 -48 19.5t-20 48.5q0 28 20 48t48 20q29 0 48.5 -20t19.5 -48q0 -29 -19.5 -48.5t-48.5 -19.5z" />
    <glyph glyph-name="Yacute" unicode="&#xdd;" horiz-adv-x="641" 
d="M262 0v299l-261 411h136l183 -293l183 293h137l-262 -411v-299h-116zM268 768l74 145h130l-117 -145h-87z" />
    <glyph glyph-name="Thorn" unicode="&#xde;" horiz-adv-x="556" 
d="M79 0v710h116v-128h92q110 0 179.5 -63.5t69.5 -162.5q0 -100 -69 -163t-180 -63h-92v-130h-116zM195 238h91q63 0 99 32t36 86t-36 85.5t-99 31.5h-91v-235z" />
    <glyph glyph-name="germandbls" unicode="&#xdf;" horiz-adv-x="535" 
d="M65 0v558q0 72 40.5 112t112.5 40h62v-101h-34q-41 0 -56 -17t-15 -57v-35h341l-143 -234q65 -23 101.5 -78.5t36.5 -130.5q0 -105 -72.5 -173t-186.5 -68h-3v109h4q66 0 107 36.5t41 95.5q0 60 -39 98t-111 38h-34l126 209h-168v-402h-110z" />
    <glyph glyph-name="agrave" unicode="&#xe0;" horiz-adv-x="611" 
d="M431 0v36q-55 -44 -134 -44q-111 0 -184 74t-73 184t73 184t184 74q78 0 134 -45v37h110v-500h-110zM298 97q41 0 76.5 18.5t56.5 49.5v170q-21 31 -56.5 49.5t-76.5 18.5q-63 0 -104 -43.5t-41 -109.5t41 -109.5t104 -43.5zM285 545l-132 165h133l84 -165h-85z" />
    <glyph glyph-name="aacute" unicode="&#xe1;" horiz-adv-x="611" 
d="M431 0v36q-55 -44 -134 -44q-111 0 -184 74t-73 184t73 184t184 74q78 0 134 -45v37h110v-500h-110zM298 97q41 0 76.5 18.5t56.5 49.5v170q-21 31 -56.5 49.5t-76.5 18.5q-63 0 -104 -43.5t-41 -109.5t41 -109.5t104 -43.5zM240 545l85 165h133l-131 -165h-87z" />
    <glyph glyph-name="acircumflex" unicode="&#xe2;" horiz-adv-x="611" 
d="M431 0v36q-55 -44 -134 -44q-111 0 -184 74t-73 184t73 184t184 74q78 0 134 -45v37h110v-500h-110zM298 97q41 0 76.5 18.5t56.5 49.5v170q-21 31 -56.5 49.5t-76.5 18.5q-63 0 -104 -43.5t-41 -109.5t41 -109.5t104 -43.5zM187 543l-42 70l173 105l173 -105l-40 -70
l-133 81z" />
    <glyph glyph-name="atilde" unicode="&#xe3;" horiz-adv-x="611" 
d="M431 0v36q-55 -44 -134 -44q-111 0 -184 74t-73 184t73 184t184 74q78 0 134 -45v37h110v-500h-110zM298 97q41 0 76.5 18.5t56.5 49.5v170q-21 31 -56.5 49.5t-76.5 18.5q-63 0 -104 -43.5t-41 -109.5t41 -109.5t104 -43.5zM144 562l4 22q8 47 39 74.5t69 27.5
q32 0 72 -21t54 -21q20 0 30 9.5t16 33.5h77l-3 -22q-8 -46 -38.5 -74t-69.5 -28q-32 0 -73 21t-54 21q-20 0 -30.5 -10t-15.5 -33h-77z" />
    <glyph glyph-name="adieresis" unicode="&#xe4;" horiz-adv-x="611" 
d="M431 0v36q-55 -44 -134 -44q-111 0 -184 74t-73 184t73 184t184 74q78 0 134 -45v37h110v-500h-110zM298 97q41 0 76.5 18.5t56.5 49.5v170q-21 31 -56.5 49.5t-76.5 18.5q-63 0 -104 -43.5t-41 -109.5t41 -109.5t104 -43.5zM206 562q-28 0 -48 19.5t-20 47.5t20 48
t48 20t48 -20t20 -48t-20 -47.5t-48 -19.5zM436 562q-29 0 -48 19.5t-19 47.5t19 48t48 20q28 0 47.5 -20t19.5 -48t-19.5 -47.5t-47.5 -19.5z" />
    <glyph glyph-name="aring" unicode="&#xe5;" horiz-adv-x="611" 
d="M431 0v36q-55 -44 -134 -44q-111 0 -184 74t-73 184t73 184t184 74q78 0 134 -45v37h110v-500h-110zM298 97q41 0 76.5 18.5t56.5 49.5v170q-21 31 -56.5 49.5t-76.5 18.5q-63 0 -104 -43.5t-41 -109.5t41 -109.5t104 -43.5zM298 608q20 0 33.5 13.5t13.5 33.5
t-13.5 33.5t-33.5 13.5t-34 -13.5t-14 -33.5t14 -33.5t34 -13.5zM298 551q-45 0 -76 30t-31 74t31 74t76 30t76 -30t31 -74t-31 -74t-76 -30z" />
    <glyph glyph-name="ae" unicode="&#xe6;" horiz-adv-x="908" 
d="M631 -8q-124 0 -198 88q-82 -88 -203 -88q-91 0 -144.5 45.5t-53.5 125.5q0 71 55 112.5t144 41.5q76 0 139 -33v21q-6 100 -130 100q-74 0 -131 -41l-42 92q82 52 182 52q137 0 186 -86q76 86 194 86q105 0 169 -69t70 -189v-30h-381q8 -54 47.5 -86.5t96.5 -32.5
q77 0 130 57l74 -79q-33 -40 -86.5 -63.5t-117.5 -23.5zM237 92q94 0 133 63v43q-49 36 -127 36q-45 0 -74 -18.5t-29 -54.5q0 -35 28 -52t69 -17zM621 407q-46 0 -81.5 -27.5t-49.5 -74.5h257q-10 50 -42.5 76t-83.5 26z" />
    <glyph glyph-name="ccedilla" unicode="&#xe7;" horiz-adv-x="524" 
d="M298 -8q-111 0 -184.5 74t-73.5 184t73.5 184t184.5 74q115 0 191 -83l-75 -77q-46 53 -116 53q-63 0 -104 -42.5t-41 -108.5t41 -108.5t104 -42.5q70 0 116 53l75 -77q-76 -83 -191 -83zM184 -132l58 132h82l-40 -132h-100z" />
    <glyph glyph-name="egrave" unicode="&#xe8;" horiz-adv-x="574" 
d="M298 -8q-111 0 -184.5 74t-73.5 184t73.5 184t182.5 74q105 0 169 -69t70 -189v-30h-381q8 -54 47.5 -86.5t96.5 -32.5q77 0 130 57l74 -79q-33 -40 -86.5 -63.5t-117.5 -23.5zM288 407q-46 0 -81.5 -27.5t-49.5 -74.5h257q-20 102 -126 102zM276 545l-132 165h133
l84 -165h-85z" />
    <glyph glyph-name="eacute" unicode="&#xe9;" horiz-adv-x="574" 
d="M298 -8q-111 0 -184.5 74t-73.5 184t73.5 184t182.5 74q105 0 169 -69t70 -189v-30h-381q8 -54 47.5 -86.5t96.5 -32.5q77 0 130 57l74 -79q-33 -40 -86.5 -63.5t-117.5 -23.5zM288 407q-46 0 -81.5 -27.5t-49.5 -74.5h257q-20 102 -126 102zM236 545l85 165h133
l-131 -165h-87z" />
    <glyph glyph-name="ecircumflex" unicode="&#xea;" horiz-adv-x="574" 
d="M298 -8q-111 0 -184.5 74t-73.5 184t73.5 184t182.5 74q105 0 169 -69t70 -189v-30h-381q8 -54 47.5 -86.5t96.5 -32.5q77 0 130 57l74 -79q-33 -40 -86.5 -63.5t-117.5 -23.5zM288 407q-46 0 -81.5 -27.5t-49.5 -74.5h257q-20 102 -126 102zM165 543l-42 70l173 105
l173 -105l-40 -70l-133 81z" />
    <glyph glyph-name="edieresis" unicode="&#xeb;" horiz-adv-x="574" 
d="M298 -8q-111 0 -184.5 74t-73.5 184t73.5 184t182.5 74q105 0 169 -69t70 -189v-30h-381q8 -54 47.5 -86.5t96.5 -32.5q77 0 130 57l74 -79q-33 -40 -86.5 -63.5t-117.5 -23.5zM288 407q-46 0 -81.5 -27.5t-49.5 -74.5h257q-20 102 -126 102zM180 562q-28 0 -48 19.5
t-20 47.5t20 48t48 20t48 -20t20 -48t-20 -47.5t-48 -19.5zM410 562q-29 0 -48 19.5t-19 47.5t19 48t48 20q28 0 47.5 -20t19.5 -48t-19.5 -47.5t-47.5 -19.5z" />
    <glyph glyph-name="igrave" unicode="&#xec;" horiz-adv-x="250" 
d="M70 0v500h110v-500h-110zM115 545l-132 165h133l84 -165h-85z" />
    <glyph glyph-name="iacute" unicode="&#xed;" horiz-adv-x="250" 
d="M70 0v500h110v-500h-110zM52 545l85 165h133l-131 -165h-87z" />
    <glyph glyph-name="icircumflex" unicode="&#xee;" horiz-adv-x="250" 
d="M70 0v500h110v-500h-110zM-5 543l-42 70l173 105l173 -105l-40 -70l-133 81z" />
    <glyph glyph-name="idieresis" unicode="&#xef;" horiz-adv-x="250" 
d="M70 0v500h110v-500h-110zM10 562q-28 0 -48 19.5t-20 47.5t20 48t48 20t48 -20t20 -48t-20 -47.5t-48 -19.5zM240 562q-29 0 -48 19.5t-19 47.5t19 48t48 20q28 0 47.5 -20t19.5 -48t-19.5 -47.5t-47.5 -19.5z" />
    <glyph glyph-name="eth" unicode="&#xf0;" horiz-adv-x="598" 
d="M153 553v78h83l-53 79h122l53 -79h117v-78h-65l100 -150q48 -71 48 -153q0 -110 -74 -184t-185 -74t-185 74t-74 184t73.5 184t178.5 74q16 0 28 -3l-32 48h-135zM299 97q63 0 104.5 43.5t41.5 109.5t-41.5 109.5t-104.5 43.5q-64 0 -105 -43.5t-41 -109.5t41 -109.5
t105 -43.5z" />
    <glyph glyph-name="ntilde" unicode="&#xf1;" horiz-adv-x="583" 
d="M70 0v500h110v-47q49 55 140 55q93 0 148 -59t55 -156v-293h-110v291q0 43 -31 77.5t-83 34.5q-90 0 -119 -88v-315h-110zM116 562l4 22q8 47 39 74.5t69 27.5q32 0 72 -21t54 -21q20 0 30 9.5t16 33.5h77l-3 -22q-8 -46 -38.5 -74t-69.5 -28q-32 0 -73 21t-54 21
q-20 0 -30.5 -10t-15.5 -33h-77z" />
    <glyph glyph-name="ograve" unicode="&#xf2;" horiz-adv-x="598" 
d="M299 97q63 0 104.5 43.5t41.5 109.5t-41.5 109.5t-104.5 43.5q-64 0 -105 -43.5t-41 -109.5t41 -109.5t105 -43.5zM299 -8q-111 0 -185 74t-74 184t74 184t185 74t185 -74t74 -184t-74 -184t-185 -74zM287 545l-132 165h133l84 -165h-85z" />
    <glyph glyph-name="oacute" unicode="&#xf3;" horiz-adv-x="598" 
d="M299 97q63 0 104.5 43.5t41.5 109.5t-41.5 109.5t-104.5 43.5q-64 0 -105 -43.5t-41 -109.5t41 -109.5t105 -43.5zM299 -8q-111 0 -185 74t-74 184t74 184t185 74t185 -74t74 -184t-74 -184t-185 -74zM238 545l85 165h133l-131 -165h-87z" />
    <glyph glyph-name="ocircumflex" unicode="&#xf4;" horiz-adv-x="598" 
d="M299 97q63 0 104.5 43.5t41.5 109.5t-41.5 109.5t-104.5 43.5q-64 0 -105 -43.5t-41 -109.5t41 -109.5t105 -43.5zM299 -8q-111 0 -185 74t-74 184t74 184t185 74t185 -74t74 -184t-74 -184t-185 -74zM168 543l-42 70l173 105l173 -105l-40 -70l-133 81z" />
    <glyph glyph-name="otilde" unicode="&#xf5;" horiz-adv-x="598" 
d="M299 97q63 0 104.5 43.5t41.5 109.5t-41.5 109.5t-104.5 43.5q-64 0 -105 -43.5t-41 -109.5t41 -109.5t105 -43.5zM299 -8q-111 0 -185 74t-74 184t74 184t185 74t185 -74t74 -184t-74 -184t-185 -74zM119 562l4 22q8 47 39 74.5t69 27.5q31 0 72 -21t54 -21q20 0 30 9.5
t16 33.5h77l-3 -22q-8 -46 -38.5 -74t-69.5 -28q-32 0 -73 21t-54 21q-20 0 -30.5 -10t-15.5 -33h-77z" />
    <glyph glyph-name="odieresis" unicode="&#xf6;" horiz-adv-x="598" 
d="M299 97q63 0 104.5 43.5t41.5 109.5t-41.5 109.5t-104.5 43.5q-64 0 -105 -43.5t-41 -109.5t41 -109.5t105 -43.5zM299 -8q-111 0 -185 74t-74 184t74 184t185 74t185 -74t74 -184t-74 -184t-185 -74zM184 562q-28 0 -48 19.5t-20 47.5t20 48t48 20t48 -20t20 -48
t-20 -47.5t-48 -19.5zM414 562q-29 0 -48 19.5t-19 47.5t19 48t48 20q28 0 47.5 -20t19.5 -48t-19.5 -47.5t-47.5 -19.5z" />
    <glyph glyph-name="divide" unicode="&#xf7;" horiz-adv-x="615" 
d="M307 46q-29 0 -50 21t-21 50q0 30 21 50.5t50 20.5q30 0 51 -20.5t21 -50.5q0 -29 -21 -50t-51 -21zM89 233v88h437v-88h-437zM307 365q-29 0 -50 21t-21 51q0 29 21 50t50 21q30 0 51 -21t21 -50q0 -30 -21 -51t-51 -21z" />
    <glyph glyph-name="oslash" unicode="&#xf8;" horiz-adv-x="600" 
d="M91 -13l-51 52l52 53q-51 69 -51 158q0 110 74 184t185 74q89 0 156 -50l53 54l51 -51l-53 -53q52 -68 52 -158q0 -110 -74 -184t-185 -74q-88 0 -156 49zM154 250q0 -44 18 -78l207 208q-35 23 -79 23q-64 0 -105 -43.5t-41 -109.5zM300 97q63 0 104.5 43.5t41.5 109.5
q0 42 -19 77l-206 -208q34 -22 79 -22z" />
    <glyph glyph-name="ugrave" unicode="&#xf9;" horiz-adv-x="580" 
d="M400 0v46q-48 -54 -140 -54q-93 0 -148 59t-55 156v293h110v-291q0 -43 31 -77.5t83 -34.5q88 0 119 85v318h110v-500h-110zM260 545l-132 165h133l84 -165h-85z" />
    <glyph glyph-name="uacute" unicode="&#xfa;" horiz-adv-x="580" 
d="M400 0v46q-48 -54 -140 -54q-93 0 -148 59t-55 156v293h110v-291q0 -43 31 -77.5t83 -34.5q88 0 119 85v318h110v-500h-110zM218 545l85 165h133l-131 -165h-87z" />
    <glyph glyph-name="ucircumflex" unicode="&#xfb;" horiz-adv-x="580" 
d="M400 0v46q-48 -54 -140 -54q-93 0 -148 59t-55 156v293h110v-291q0 -43 31 -77.5t83 -34.5q88 0 119 85v318h110v-500h-110zM151 543l-42 70l173 105l173 -105l-40 -70l-133 81z" />
    <glyph glyph-name="udieresis" unicode="&#xfc;" horiz-adv-x="580" 
d="M400 0v46q-48 -54 -140 -54q-93 0 -148 59t-55 156v293h110v-291q0 -43 31 -77.5t83 -34.5q88 0 119 85v318h110v-500h-110zM166 562q-28 0 -48 19.5t-20 47.5t20 48t48 20t48 -20t20 -48t-20 -47.5t-48 -19.5zM396 562q-29 0 -48 19.5t-19 47.5t19 48t48 20
q28 0 47.5 -20t19.5 -48t-19.5 -47.5t-47.5 -19.5z" />
    <glyph glyph-name="yacute" unicode="&#xfd;" horiz-adv-x="509" 
d="M107 -184l90 210l-197 474h118l136 -345l137 345h118l-286 -684h-116zM201 545l85 165h133l-131 -165h-87z" />
    <glyph glyph-name="thorn" unicode="&#xfe;" horiz-adv-x="611" 
d="M70 -184v894h110v-247q56 45 134 45q111 0 184 -74t73 -184t-73 -184t-184 -74q-81 0 -134 44v-220h-110zM313 403q-41 0 -76.5 -18.5t-56.5 -49.5v-170q21 -31 56.5 -49.5t76.5 -18.5q63 0 104 43.5t41 109.5t-41 109.5t-104 43.5z" />
    <glyph glyph-name="ydieresis" unicode="&#xff;" horiz-adv-x="509" 
d="M107 -184l90 210l-197 474h118l136 -345l137 345h118l-286 -684h-116zM138 562q-28 0 -48 19.5t-20 47.5t20 48t48 20t48 -20t20 -48t-20 -47.5t-48 -19.5zM368 562q-29 0 -48 19.5t-19 47.5t19 48t48 20q28 0 47.5 -20t19.5 -48t-19.5 -47.5t-47.5 -19.5z" />
    <glyph glyph-name="Amacron" unicode="&#x100;" horiz-adv-x="714" 
d="M10 0l347 718l347 -718h-125l-74 158h-297l-74 -158h-124zM357 474l-99 -210h197zM204 799v76h306v-76h-306z" />
    <glyph glyph-name="amacron" unicode="&#x101;" horiz-adv-x="611" 
d="M431 0v36q-55 -44 -134 -44q-111 0 -184 74t-73 184t73 184t184 74q78 0 134 -45v37h110v-500h-110zM298 97q41 0 76.5 18.5t56.5 49.5v170q-21 31 -56.5 49.5t-76.5 18.5q-63 0 -104 -43.5t-41 -109.5t41 -109.5t104 -43.5zM167 601v76h306v-76h-306z" />
    <glyph glyph-name="Abreve" unicode="&#x102;" horiz-adv-x="714" 
d="M10 0l347 718l347 -718h-125l-74 158h-297l-74 -158h-124zM357 474l-99 -210h197zM356 763q-71 0 -117.5 44.5t-48.5 110.5h71q2 -37 28.5 -61.5t67.5 -24.5t67.5 25t27.5 61h72q-2 -66 -48.5 -110.5t-119.5 -44.5z" />
    <glyph glyph-name="abreve" unicode="&#x103;" horiz-adv-x="611" 
d="M431 0v36q-55 -44 -134 -44q-111 0 -184 74t-73 184t73 184t184 74q78 0 134 -45v37h110v-500h-110zM298 97q41 0 76.5 18.5t56.5 49.5v170q-21 31 -56.5 49.5t-76.5 18.5q-63 0 -104 -43.5t-41 -109.5t41 -109.5t104 -43.5zM308 556q-71 0 -117.5 44.5t-48.5 109.5h71
q2 -37 28.5 -61.5t67.5 -24.5t67.5 25t27.5 61h72q-2 -65 -48.5 -109.5t-119.5 -44.5z" />
    <glyph glyph-name="Aogonek" unicode="&#x104;" horiz-adv-x="714" 
d="M630 -189q-48 0 -79.5 27t-31.5 71q0 56 64 91h-4l-74 158h-297l-74 -158h-124l347 718l347 -718h-2q-77 -36 -77 -72q0 -17 11.5 -27.5t31.5 -10.5q18 0 36 9v-69q-34 -19 -74 -19zM357 474l-99 -210h197z" />
    <glyph glyph-name="aogonek" unicode="&#x105;" horiz-adv-x="612" 
d="M473 -182q-44 0 -75 26t-31 69q0 52 64 87v36q-55 -44 -134 -44q-111 0 -184 74t-73 184t73 184t184 74q78 0 134 -45v37h110v-500q-72 -32 -72 -68q0 -15 11 -25t31 -10q15 0 31 9v-69q-24 -19 -69 -19zM298 97q41 0 76.5 18.5t56.5 49.5v170q-21 31 -56.5 49.5
t-76.5 18.5q-63 0 -104 -43.5t-41 -109.5t41 -109.5t104 -43.5z" />
    <glyph glyph-name="Cacute" unicode="&#x106;" horiz-adv-x="681" 
d="M401 -8q-151 0 -257 105t-106 258t106 258t257 105q153 0 251 -103l-75 -82q-70 75 -176 75q-105 0 -175 -73t-70 -180t70 -180t175 -73q106 0 176 75l75 -82q-98 -103 -251 -103zM329 768l74 145h130l-117 -145h-87z" />
    <glyph glyph-name="cacute" unicode="&#x107;" horiz-adv-x="524" 
d="M298 -8q-111 0 -184.5 74t-73.5 184t73.5 184t184.5 74q115 0 191 -83l-75 -77q-46 53 -116 53q-63 0 -104 -42.5t-41 -108.5t41 -108.5t104 -42.5q70 0 116 53l75 -77q-76 -83 -191 -83zM238 545l85 165h133l-131 -165h-87z" />
    <glyph glyph-name="Ccircumflex" unicode="&#x108;" horiz-adv-x="681" 
d="M401 -8q-151 0 -257 105t-106 258t106 258t257 105q153 0 251 -103l-75 -82q-70 75 -176 75q-105 0 -175 -73t-70 -180t70 -180t175 -73q106 0 176 75l75 -82q-98 -103 -251 -103zM264 760l-37 73l175 91l174 -91l-37 -73l-137 73z" />
    <glyph glyph-name="ccircumflex" unicode="&#x109;" horiz-adv-x="524" 
d="M298 -8q-111 0 -184.5 74t-73.5 184t73.5 184t184.5 74q115 0 191 -83l-75 -77q-46 53 -116 53q-63 0 -104 -42.5t-41 -108.5t41 -108.5t104 -42.5q70 0 116 53l75 -77q-76 -83 -191 -83zM168 543l-42 70l173 105l173 -105l-40 -70l-133 81z" />
    <glyph glyph-name="Cdotaccent" unicode="&#x10a;" horiz-adv-x="681" 
d="M401 -8q-151 0 -257 105t-106 258t106 258t257 105q153 0 251 -103l-75 -82q-70 75 -176 75q-105 0 -175 -73t-70 -180t70 -180t175 -73q106 0 176 75l75 -82q-98 -103 -251 -103zM401 770q-29 0 -50.5 21t-21.5 51t21.5 51t50.5 21q30 0 51 -21t21 -51t-21 -51t-51 -21z
" />
    <glyph glyph-name="cdotaccent" unicode="&#x10b;" horiz-adv-x="524" 
d="M298 -8q-111 0 -184.5 74t-73.5 184t73.5 184t184.5 74q115 0 191 -83l-75 -77q-46 53 -116 53q-63 0 -104 -42.5t-41 -108.5t41 -108.5t104 -42.5q70 0 116 53l75 -77q-76 -83 -191 -83zM297 558q-29 0 -50 20.5t-21 50.5t21 50.5t50 20.5q30 0 51 -20.5t21 -50.5
t-21 -50.5t-51 -20.5z" />
    <glyph glyph-name="Ccaron" unicode="&#x10c;" horiz-adv-x="681" 
d="M401 -8q-151 0 -257 105t-106 258t106 258t257 105q153 0 251 -103l-75 -82q-70 75 -176 75q-105 0 -175 -73t-70 -180t70 -180t175 -73q106 0 176 75l75 -82q-98 -103 -251 -103zM401 759l-174 92l37 72l137 -73l138 73l37 -73z" />
    <glyph glyph-name="ccaron" unicode="&#x10d;" horiz-adv-x="524" 
d="M298 -8q-111 0 -184.5 74t-73.5 184t73.5 184t184.5 74q115 0 191 -83l-75 -77q-46 53 -116 53q-63 0 -104 -42.5t-41 -108.5t41 -108.5t104 -42.5q70 0 116 53l75 -77q-76 -83 -191 -83zM472 658l-173 -105l-173 105l42 70l131 -81l133 81z" />
    <glyph glyph-name="Dcaron" unicode="&#x10e;" horiz-adv-x="714" 
d="M195 108h109q113 0 183.5 70t70.5 177t-70.5 177t-183.5 70h-109v-494zM79 0v710h225q159 0 265.5 -102t106.5 -253t-106.5 -253t-265.5 -102h-225zM307 759l-174 92l37 72l137 -73l138 73l37 -73z" />
    <glyph glyph-name="dcaron" unicode="&#x10f;" horiz-adv-x="611" 
d="M431 0v36q-55 -44 -134 -44q-111 0 -184 74t-73 184t73 184t184 74q78 0 134 -45v247h110v-710h-110zM298 97q41 0 76.5 18.5t56.5 49.5v170q-21 31 -56.5 49.5t-76.5 18.5q-63 0 -104 -43.5t-41 -109.5t41 -109.5t104 -43.5zM586 547l23 163h109l-57 -163h-75z" />
    <glyph glyph-name="Dcroat" unicode="&#x110;" horiz-adv-x="738" 
d="M-6 313v108h109v289h225q159 0 265.5 -102t106.5 -253t-106.5 -253t-265.5 -102h-225v313h-109zM219 108h109q113 0 183.5 70t70.5 177t-70.5 177t-183.5 70h-109v-181h130v-108h-130v-205z" />
    <glyph glyph-name="dcroat" unicode="&#x111;" horiz-adv-x="611" 
d="M275 577v73h156v60h110v-60h66v-73h-66v-577h-110v36q-55 -44 -134 -44q-111 0 -184 74t-73 184t73 184t184 74q78 0 134 -45v114h-156zM298 97q41 0 76.5 18.5t56.5 49.5v170q-21 31 -56.5 49.5t-76.5 18.5q-63 0 -104 -43.5t-41 -109.5t41 -109.5t104 -43.5z" />
    <glyph glyph-name="Emacron" unicode="&#x112;" horiz-adv-x="544" 
d="M79 0v710h421v-114h-305v-180h245v-112h-245v-190h305v-114h-421zM136 799v76h306v-76h-306z" />
    <glyph glyph-name="emacron" unicode="&#x113;" horiz-adv-x="574" 
d="M298 -8q-111 0 -184.5 74t-73.5 184t73.5 184t182.5 74q105 0 169 -69t70 -189v-30h-381q8 -54 47.5 -86.5t96.5 -32.5q77 0 130 57l74 -79q-33 -40 -86.5 -63.5t-117.5 -23.5zM288 407q-46 0 -81.5 -27.5t-49.5 -74.5h257q-20 102 -126 102zM144 601v76h306v-76h-306z
" />
    <glyph glyph-name="Ebreve" unicode="&#x114;" horiz-adv-x="544" 
d="M79 0v710h421v-114h-305v-180h245v-112h-245v-190h305v-114h-421zM288 763q-71 0 -117.5 44.5t-48.5 110.5h71q2 -37 28.5 -61.5t67.5 -24.5t67.5 25t27.5 61h72q-2 -66 -48.5 -110.5t-119.5 -44.5z" />
    <glyph glyph-name="ebreve" unicode="&#x115;" horiz-adv-x="574" 
d="M298 -8q-111 0 -184.5 74t-73.5 184t73.5 184t182.5 74q105 0 169 -69t70 -189v-30h-381q8 -54 47.5 -86.5t96.5 -32.5q77 0 130 57l74 -79q-33 -40 -86.5 -63.5t-117.5 -23.5zM288 407q-46 0 -81.5 -27.5t-49.5 -74.5h257q-20 102 -126 102zM296 556q-71 0 -117.5 44.5
t-48.5 109.5h71q2 -37 28.5 -61.5t67.5 -24.5t67.5 25t27.5 61h72q-2 -65 -48.5 -109.5t-119.5 -44.5z" />
    <glyph glyph-name="Edotaccent" unicode="&#x116;" horiz-adv-x="544" 
d="M79 0v710h421v-114h-305v-180h245v-112h-245v-190h305v-114h-421zM290 770q-29 0 -50.5 21t-21.5 51t21.5 51t50.5 21q30 0 51 -21t21 -51t-21 -51t-51 -21z" />
    <glyph glyph-name="edotaccent" unicode="&#x117;" horiz-adv-x="574" 
d="M298 -8q-111 0 -184.5 74t-73.5 184t73.5 184t182.5 74q105 0 169 -69t70 -189v-30h-381q8 -54 47.5 -86.5t96.5 -32.5q77 0 130 57l74 -79q-33 -40 -86.5 -63.5t-117.5 -23.5zM288 407q-46 0 -81.5 -27.5t-49.5 -74.5h257q-20 102 -126 102zM295 558q-29 0 -50 20.5
t-21 50.5t21 50.5t50 20.5q30 0 51 -20.5t21 -50.5t-21 -50.5t-51 -20.5z" />
    <glyph glyph-name="Eogonek" unicode="&#x118;" horiz-adv-x="544" 
d="M79 0v710h421v-114h-305v-180h245v-112h-245v-190h305v-114h-421zM426 -189q-48 0 -79.5 27t-31.5 71q0 56 64 91h119q-77 -36 -77 -72q0 -17 11.5 -27.5t31.5 -10.5q18 0 36 9v-69q-34 -19 -74 -19z" />
    <glyph glyph-name="eogonek" unicode="&#x119;" horiz-adv-x="574" 
d="M298 -8q-111 0 -184.5 74t-73.5 184t73.5 184t182.5 74q105 0 169 -69t70 -189v-30h-381q8 -54 47.5 -86.5t96.5 -32.5q77 0 130 57l74 -79q-33 -40 -86.5 -63.5t-117.5 -23.5zM288 407q-46 0 -81.5 -27.5t-49.5 -74.5h257q-20 102 -126 102zM299 -182q-44 0 -75 26
t-31 69q0 52 64 87h110q-72 -32 -72 -68q0 -15 11 -25t31 -10q15 0 31 9v-69q-24 -19 -69 -19z" />
    <glyph glyph-name="Ecaron" unicode="&#x11a;" horiz-adv-x="544" 
d="M79 0v710h421v-114h-305v-180h245v-112h-245v-190h305v-114h-421zM289 759l-174 92l37 72l137 -73l138 73l37 -73z" />
    <glyph glyph-name="ecaron" unicode="&#x11b;" horiz-adv-x="574" 
d="M298 -8q-111 0 -184.5 74t-73.5 184t73.5 184t182.5 74q105 0 169 -69t70 -189v-30h-381q8 -54 47.5 -86.5t96.5 -32.5q77 0 130 57l74 -79q-33 -40 -86.5 -63.5t-117.5 -23.5zM288 407q-46 0 -81.5 -27.5t-49.5 -74.5h257q-20 102 -126 102zM469 658l-173 -105l-173 105
l42 70l131 -81l133 81z" />
    <glyph glyph-name="Gcircumflex" unicode="&#x11c;" horiz-adv-x="730" 
d="M401 -8q-151 0 -257 105t-106 258t106 258t257 105q161 0 259 -103l-75 -82q-70 75 -184 75q-105 0 -175 -73t-70 -180t70 -180t175 -73q84 0 145 38v164h-195l51 112h260v-333q-107 -91 -261 -91zM263 760l-37 73l175 91l174 -91l-37 -73l-137 73z" />
    <glyph glyph-name="gcircumflex" unicode="&#x11d;" horiz-adv-x="603" 
d="M289 -194q-124 0 -215 60l58 96q71 -51 157 -51q64 0 106 24.5t42 80.5q0 29 -11 51q-59 -47 -137 -47q-110 0 -179.5 69t-69.5 175t69.5 175t179.5 69q77 0 133 -45v37h110v-399q20 -47 20 -99q0 -99 -77 -147.5t-186 -48.5zM290 125q88 0 132 67v144q-44 67 -132 67
q-59 0 -98 -39t-39 -100t39 -100t98 -39zM165 543l-42 70l173 105l173 -105l-40 -70l-133 81z" />
    <glyph glyph-name="Gbreve" unicode="&#x11e;" horiz-adv-x="730" 
d="M401 -8q-151 0 -257 105t-106 258t106 258t257 105q161 0 259 -103l-75 -82q-70 75 -184 75q-105 0 -175 -73t-70 -180t70 -180t175 -73q84 0 145 38v164h-195l51 112h260v-333q-107 -91 -261 -91zM400 763q-71 0 -117.5 44.5t-48.5 110.5h71q2 -37 28.5 -61.5
t67.5 -24.5t67.5 25t27.5 61h72q-2 -66 -48.5 -110.5t-119.5 -44.5z" />
    <glyph glyph-name="gbreve" unicode="&#x11f;" horiz-adv-x="603" 
d="M289 -194q-124 0 -215 60l58 96q71 -51 157 -51q64 0 106 24.5t42 80.5q0 29 -11 51q-59 -47 -137 -47q-110 0 -179.5 69t-69.5 175t69.5 175t179.5 69q77 0 133 -45v37h110v-399q20 -47 20 -99q0 -99 -77 -147.5t-186 -48.5zM290 125q88 0 132 67v144q-44 67 -132 67
q-59 0 -98 -39t-39 -100t39 -100t98 -39zM295 556q-71 0 -117.5 44.5t-48.5 109.5h71q2 -37 28.5 -61.5t67.5 -24.5t67.5 25t27.5 61h72q-2 -65 -48.5 -109.5t-119.5 -44.5z" />
    <glyph glyph-name="Gdotaccent" unicode="&#x120;" horiz-adv-x="730" 
d="M401 -8q-151 0 -257 105t-106 258t106 258t257 105q161 0 259 -103l-75 -82q-70 75 -184 75q-105 0 -175 -73t-70 -180t70 -180t175 -73q84 0 145 38v164h-195l51 112h260v-333q-107 -91 -261 -91zM401 770q-29 0 -50.5 21t-21.5 51t21.5 51t50.5 21q30 0 51 -21t21 -51
t-21 -51t-51 -21z" />
    <glyph glyph-name="gdotaccent" unicode="&#x121;" horiz-adv-x="603" 
d="M289 -194q-124 0 -215 60l58 96q71 -51 157 -51q64 0 106 24.5t42 80.5q0 29 -11 51q-59 -47 -137 -47q-110 0 -179.5 69t-69.5 175t69.5 175t179.5 69q77 0 133 -45v37h110v-399q20 -47 20 -99q0 -99 -77 -147.5t-186 -48.5zM290 125q88 0 132 67v144q-44 67 -132 67
q-59 0 -98 -39t-39 -100t39 -100t98 -39zM296 558q-29 0 -50 20.5t-21 50.5t21 50.5t50 20.5q30 0 51 -20.5t21 -50.5t-21 -50.5t-51 -20.5z" />
    <glyph glyph-name="uni0122" unicode="&#x122;" horiz-adv-x="730" 
d="M401 -8q-151 0 -257 105t-106 258t106 258t257 105q161 0 259 -103l-75 -82q-70 75 -184 75q-105 0 -175 -73t-70 -180t70 -180t175 -73q84 0 145 38v164h-195l51 112h260v-333q-107 -91 -261 -91zM285 -243l59 193h114l-100 -193h-73z" />
    <glyph glyph-name="uni0123" unicode="&#x123;" horiz-adv-x="603" 
d="M289 -194q-124 0 -215 60l58 96q71 -51 157 -51q64 0 106 24.5t42 80.5q0 29 -11 51q-59 -47 -137 -47q-110 0 -179.5 69t-69.5 175t69.5 175t179.5 69q77 0 133 -45v37h110v-399q20 -47 20 -99q0 -99 -77 -147.5t-186 -48.5zM290 125q88 0 132 67v144q-44 67 -132 67
q-59 0 -98 -39t-39 -100t39 -100t98 -39zM406 737l-59 -193h-114l100 193h73z" />
    <glyph glyph-name="Hcircumflex" unicode="&#x124;" horiz-adv-x="742" 
d="M79 0v710h116v-294h352v294h116v-710h-116v304h-352v-304h-116zM233 760l-37 73l175 91l174 -91l-37 -73l-137 73z" />
    <glyph glyph-name="hcircumflex" unicode="&#x125;" horiz-adv-x="583" 
d="M70 0v710h110v-257q49 55 140 55q93 0 148 -59t55 -156v-293h-110v291q0 43 -31 77.5t-83 34.5q-90 0 -119 -88v-315h-110zM159 760l-37 73l175 91l174 -91l-37 -73l-137 73z" />
    <glyph glyph-name="Hbar" unicode="&#x126;" horiz-adv-x="742" 
d="M14 516v94h65v100h116v-100h352v100h116v-100h65v-94h-65v-516h-116v304h-352v-304h-116v516h-65zM195 416h352v100h-352v-100z" />
    <glyph glyph-name="hbar" unicode="&#x127;" horiz-adv-x="583" 
d="M-7 577v73h77v60h110v-60h145v-73h-145v-124q49 55 140 55q93 0 148 -59t55 -156v-293h-110v291q0 43 -31 77.5t-83 34.5q-90 0 -119 -88v-315h-110v577h-77z" />
    <glyph glyph-name="Itilde" unicode="&#x128;" horiz-adv-x="274" 
d="M79 0v710h116v-710h-116zM-44 777l4 23q8 47 40 75t70 28q32 0 72 -21.5t54 -21.5q20 0 30 9.5t16 33.5h78l-3 -22q-8 -47 -39 -75t-70 -28q-32 0 -73 21.5t-54 21.5q-20 0 -30.5 -10t-15.5 -34h-79z" />
    <glyph glyph-name="itilde" unicode="&#x129;" horiz-adv-x="250" 
d="M70 0v500h110v-500h-110zM-54 562l4 22q8 47 39 74.5t69 27.5q32 0 72.5 -21t53.5 -21q20 0 30 9.5t16 33.5h77l-3 -22q-8 -46 -38.5 -74t-69.5 -28q-32 0 -73 21t-54 21q-20 0 -30.5 -10t-15.5 -33h-77z" />
    <glyph glyph-name="Imacron" unicode="&#x12a;" horiz-adv-x="274" 
d="M79 0v710h116v-710h-116zM-15 799v76h306v-76h-306z" />
    <glyph glyph-name="imacron" unicode="&#x12b;" horiz-adv-x="250" 
d="M70 0v500h110v-500h-110zM-27 601v76h306v-76h-306z" />
    <glyph glyph-name="Ibreve" unicode="&#x12c;" horiz-adv-x="274" 
d="M79 0v710h116v-710h-116zM137 763q-71 0 -117.5 44.5t-48.5 110.5h71q2 -37 28.5 -61.5t67.5 -24.5t67.5 25t27.5 61h72q-2 -66 -48.5 -110.5t-119.5 -44.5z" />
    <glyph glyph-name="ibreve" unicode="&#x12d;" horiz-adv-x="250" 
d="M70 0v500h110v-500h-110zM125 556q-71 0 -117.5 44.5t-48.5 109.5h71q2 -37 28.5 -61.5t67.5 -24.5t67.5 25t27.5 61h72q-2 -65 -48.5 -109.5t-119.5 -44.5z" />
    <glyph glyph-name="Iogonek" unicode="&#x12e;" horiz-adv-x="274" 
d="M125 -189q-48 0 -79.5 27t-31.5 71q0 56 65 91v710h116v-710q-75 -35 -75 -72q0 -17 11.5 -27.5t31.5 -10.5q18 0 36 9v-69q-34 -19 -74 -19z" />
    <glyph glyph-name="iogonek" unicode="&#x12f;" horiz-adv-x="250" 
d="M180 597h-110q-18 21 -18 48q0 30 21.5 51.5t51.5 21.5t51.5 -21.5t21.5 -51.5q0 -27 -18 -48zM70 0v500h110v-500h-110zM113 -182q-44 0 -75 26t-31 69q0 52 64 87h110q-72 -32 -72 -68q0 -15 11 -25t31 -10q15 0 31 9v-69q-24 -19 -69 -19z" />
    <glyph glyph-name="Idotaccent" unicode="&#x130;" horiz-adv-x="274" 
d="M79 0v710h116v-710h-116zM137 770q-29 0 -50.5 21t-21.5 51t21.5 51t50.5 21q30 0 51 -21t21 -51t-21 -51t-51 -21z" />
    <glyph glyph-name="dotlessi" unicode="&#x131;" horiz-adv-x="250" 
d="M70 0v500h110v-500h-110z" />
    <glyph glyph-name="Jcircumflex" unicode="&#x134;" horiz-adv-x="530" 
d="M234 -8q-92 0 -155 56.5t-63 160.5h117q0 -52 28.5 -79t72.5 -28q44 0 73 27.5t29 79.5v501h116v-503q0 -103 -63 -159t-155 -56zM256 760l-37 73l175 91l174 -91l-37 -73l-137 73z" />
    <glyph glyph-name="jcircumflex" unicode="&#x135;" horiz-adv-x="250" 
d="M-35 -184v104h30q39 0 57 15.5t18 52.5v512h110v-518q0 -88 -44.5 -127t-135.5 -39h-35zM-4 543l-42 70l173 105l173 -105l-40 -70l-133 81z" />
    <glyph glyph-name="uni0136" unicode="&#x136;" horiz-adv-x="662" 
d="M79 0v710h116v-357l299 357h138l-301 -359l331 -351h-150l-317 335v-335h-116zM234 -243l59 193h114l-100 -193h-73z" />
    <glyph glyph-name="uni0137" unicode="&#x137;" horiz-adv-x="535" 
d="M70 0v710h110v-436l200 226h130l-208 -237l233 -263h-135l-220 249v-249h-110zM182 -243l59 193h114l-100 -193h-73z" />
    <glyph glyph-name="Lacute" unicode="&#x139;" horiz-adv-x="505" 
d="M79 0v710h116v-595h299v-115h-415zM94 768l74 145h130l-117 -145h-87z" />
    <glyph glyph-name="lacute" unicode="&#x13a;" horiz-adv-x="250" 
d="M70 0v710h110v-710h-110zM74 768l74 145h130l-117 -145h-87z" />
    <glyph glyph-name="uni013B" unicode="&#x13b;" horiz-adv-x="505" 
d="M79 0v710h116v-595h299v-115h-415zM170 -243l59 193h114l-100 -193h-73z" />
    <glyph glyph-name="uni013C" unicode="&#x13c;" horiz-adv-x="250" 
d="M70 0v710h110v-710h-110zM10 -243l59 193h114l-100 -193h-73z" />
    <glyph glyph-name="Lcaron" unicode="&#x13d;" horiz-adv-x="505" 
d="M79 0v710h116v-595h299v-115h-415zM277 547l23 163h109l-57 -163h-75z" />
    <glyph glyph-name="lcaron" unicode="&#x13e;" horiz-adv-x="250" 
d="M70 0v710h110v-710h-110zM225 547l23 163h109l-57 -163h-75z" />
    <glyph glyph-name="Ldot" unicode="&#x13f;" horiz-adv-x="505" 
d="M79 0v710h116v-595h299v-115h-415zM390 343q-29 0 -50 20.5t-21 50.5t21 50.5t50 20.5q30 0 51 -20.5t21 -50.5t-21 -50.5t-51 -20.5z" />
    <glyph glyph-name="ldot" unicode="&#x140;" horiz-adv-x="371" 
d="M310 285q-29 0 -50 20.5t-21 50.5t21 50.5t50 20.5q30 0 51 -20.5t21 -50.5t-21 -50.5t-51 -20.5zM70 0v710h110v-710h-110z" />
    <glyph glyph-name="Lslash" unicode="&#x141;" horiz-adv-x="536" 
d="M33 193l-50 86l127 79v352h116v-279l144 90l51 -87l-195 -121v-198h299v-115h-415v241z" />
    <glyph glyph-name="lslash" unicode="&#x142;" horiz-adv-x="340" 
d="M37 238l-40 68l118 72v332h110v-265l79 49l40 -67l-119 -74v-353h-110v286z" />
    <glyph glyph-name="Nacute" unicode="&#x143;" horiz-adv-x="759" 
d="M680 -8l-485 461v-453h-116v718l485 -461v453h116v-718zM307 768l74 145h130l-117 -145h-87z" />
    <glyph glyph-name="nacute" unicode="&#x144;" horiz-adv-x="583" 
d="M70 0v500h110v-47q49 55 140 55q93 0 148 -59t55 -156v-293h-110v291q0 43 -31 77.5t-83 34.5q-90 0 -119 -88v-315h-110zM224 545l85 165h133l-131 -165h-87z" />
    <glyph glyph-name="uni0145" unicode="&#x145;" horiz-adv-x="759" 
d="M680 -8l-485 461v-453h-116v718l485 -461v453h116v-718zM293 -243l59 193h114l-100 -193h-73z" />
    <glyph glyph-name="uni0146" unicode="&#x146;" horiz-adv-x="583" 
d="M70 0v500h110v-47q49 55 140 55q93 0 148 -59t55 -156v-293h-110v291q0 43 -31 77.5t-83 34.5q-90 0 -119 -88v-315h-110zM180 -243l59 193h114l-100 -193h-73z" />
    <glyph glyph-name="Ncaron" unicode="&#x147;" horiz-adv-x="759" 
d="M680 -8l-485 461v-453h-116v718l485 -461v453h116v-718zM379 759l-174 92l37 72l137 -73l138 73l37 -73z" />
    <glyph glyph-name="ncaron" unicode="&#x148;" horiz-adv-x="583" 
d="M70 0v500h110v-47q49 55 140 55q93 0 148 -59t55 -156v-293h-110v291q0 43 -31 77.5t-83 34.5q-90 0 -119 -88v-315h-110zM469 658l-173 -105l-173 105l42 70l131 -81l133 81z" />
    <glyph glyph-name="Eng" unicode="&#x14a;" horiz-adv-x="759" 
d="M462 -184v104h21q81 0 81 81v101l-369 351v-453h-116v718l485 -461v453h116v-749q0 -68 -39 -106.5t-107 -38.5h-72z" />
    <glyph glyph-name="eng" unicode="&#x14b;" horiz-adv-x="583" 
d="M70 0v500h110v-47q49 55 140 55q93 0 148 -59t55 -156v-311q0 -77 -45 -121.5t-121 -44.5h-49v104h34q71 0 71 71v300q0 43 -31 77.5t-83 34.5q-90 0 -119 -88v-315h-110z" />
    <glyph glyph-name="Omacron" unicode="&#x14c;" 
d="M401 102q105 0 175 73t70 180t-70 180t-175 73t-175 -73t-70 -180t70 -180t175 -73zM401 -8q-151 0 -257 105t-106 258t106 258t257 105q152 0 257.5 -105t105.5 -258t-105.5 -258t-257.5 -105zM248 799v76h306v-76h-306z" />
    <glyph glyph-name="omacron" unicode="&#x14d;" horiz-adv-x="598" 
d="M299 97q63 0 104.5 43.5t41.5 109.5t-41.5 109.5t-104.5 43.5q-64 0 -105 -43.5t-41 -109.5t41 -109.5t105 -43.5zM299 -8q-111 0 -185 74t-74 184t74 184t185 74t185 -74t74 -184t-74 -184t-185 -74zM146 601v76h306v-76h-306z" />
    <glyph glyph-name="Obreve" unicode="&#x14e;" 
d="M401 102q105 0 175 73t70 180t-70 180t-175 73t-175 -73t-70 -180t70 -180t175 -73zM401 -8q-151 0 -257 105t-106 258t106 258t257 105q152 0 257.5 -105t105.5 -258t-105.5 -258t-257.5 -105zM400 763q-71 0 -117.5 44.5t-48.5 110.5h71q2 -37 28.5 -61.5t67.5 -24.5
t67.5 25t27.5 61h72q-2 -66 -48.5 -110.5t-119.5 -44.5z" />
    <glyph glyph-name="obreve" unicode="&#x14f;" horiz-adv-x="598" 
d="M299 97q63 0 104.5 43.5t41.5 109.5t-41.5 109.5t-104.5 43.5q-64 0 -105 -43.5t-41 -109.5t41 -109.5t105 -43.5zM299 -8q-111 0 -185 74t-74 184t74 184t185 74t185 -74t74 -184t-74 -184t-185 -74zM298 556q-71 0 -117.5 44.5t-48.5 109.5h71q2 -37 28.5 -61.5
t67.5 -24.5t67.5 25t27.5 61h72q-2 -65 -48.5 -109.5t-119.5 -44.5z" />
    <glyph glyph-name="Ohungarumlaut" unicode="&#x150;" 
d="M401 102q105 0 175 73t70 180t-70 180t-175 73t-175 -73t-70 -180t70 -180t175 -73zM401 -8q-151 0 -257 105t-106 258t106 258t257 105q152 0 257.5 -105t105.5 -258t-105.5 -258t-257.5 -105zM244 768l74 145h121l-117 -145h-78zM444 768l75 145h120l-117 -145h-78z
" />
    <glyph glyph-name="ohungarumlaut" unicode="&#x151;" horiz-adv-x="598" 
d="M299 97q63 0 104.5 43.5t41.5 109.5t-41.5 109.5t-104.5 43.5q-64 0 -105 -43.5t-41 -109.5t41 -109.5t105 -43.5zM299 -8q-111 0 -185 74t-74 184t74 184t185 74t185 -74t74 -184t-74 -184t-185 -74zM165 545l85 165h117l-132 -165h-70zM343 545l85 165h116l-131 -165
h-70z" />
    <glyph glyph-name="OE" unicode="&#x152;" horiz-adv-x="1046" 
d="M401 -8q-151 0 -257 105t-106 258t106 258t257 105q94 0 178 -46v38h422v-114h-312v-18q54 -72 70 -162h205v-112h-204q-12 -94 -71 -173v-17h313v-114h-423v37q-82 -45 -178 -45zM401 102q105 0 175 73t70 180t-70 180t-175 73t-175 -73t-70 -180t70 -180t175 -73z" />
    <glyph glyph-name="oe" unicode="&#x153;" horiz-adv-x="980" 
d="M299 -8q-111 0 -185 74t-74 184t74 184t185 74q128 0 203 -94q75 94 200 94q105 0 169 -69t70 -189v-30h-382q8 -54 48 -86.5t97 -32.5q77 0 130 57l74 -79q-33 -40 -86.5 -63.5t-117.5 -23.5q-127 0 -202 94q-75 -94 -203 -94zM299 97q64 0 105.5 43.5t41.5 109.5
t-41.5 109.5t-105.5 43.5t-105 -43.5t-41 -109.5t41 -109.5t105 -43.5zM563 305h257q-20 102 -126 102q-46 0 -82 -27.5t-49 -74.5z" />
    <glyph glyph-name="Racute" unicode="&#x154;" horiz-adv-x="622" 
d="M476 0l-214 302h-67v-302h-116v710h230q99 0 162.5 -57t63.5 -147q0 -69 -39 -120.5t-107 -72.5l226 -313h-139zM195 403h103q59 0 89 26.5t30 72.5q0 47 -30 74t-89 27h-103v-200zM216 768l74 145h130l-117 -145h-87z" />
    <glyph glyph-name="racute" unicode="&#x155;" horiz-adv-x="367" 
d="M135 545l85 165h133l-131 -165h-87zM70 0v500h110v-49q47 56 129 56q19 0 36 -3v-115q-20 7 -55 7q-78 0 -110 -60v-336h-110z" />
    <glyph glyph-name="uni0156" unicode="&#x156;" horiz-adv-x="622" 
d="M476 0l-214 302h-67v-302h-116v710h230q99 0 162.5 -57t63.5 -147q0 -69 -39 -120.5t-107 -72.5l226 -313h-139zM195 403h103q59 0 89 26.5t30 72.5q0 47 -30 74t-89 27h-103v-200zM221 -243l59 193h114l-100 -193h-73z" />
    <glyph glyph-name="uni0157" unicode="&#x157;" horiz-adv-x="367" 
d="M70 0v500h110v-49q47 56 129 56q19 0 36 -3v-115q-20 7 -55 7q-78 0 -110 -60v-336h-110zM12 -243l59 193h114l-100 -193h-73z" />
    <glyph glyph-name="Rcaron" unicode="&#x158;" horiz-adv-x="622" 
d="M476 0l-214 302h-67v-302h-116v710h230q99 0 162.5 -57t63.5 -147q0 -69 -39 -120.5t-107 -72.5l226 -313h-139zM195 403h103q59 0 89 26.5t30 72.5q0 47 -30 74t-89 27h-103v-200zM277 759l-174 92l37 72l137 -73l138 73l37 -73z" />
    <glyph glyph-name="rcaron" unicode="&#x159;" horiz-adv-x="367" 
d="M70 0v500h110v-49q47 56 129 56q19 0 36 -3v-115q-20 7 -55 7q-78 0 -110 -60v-336h-110zM381 658l-173 -105l-173 105l42 70l131 -81l133 81z" />
    <glyph glyph-name="Sacute" unicode="&#x15a;" horiz-adv-x="518" 
d="M259 -8q-79 0 -142 32.5t-97 88.5l88 74q27 -37 66.5 -61t83.5 -24q52 0 80.5 22t28.5 60q0 39 -24 65t-79 50l-56 24q-160 70 -160 207q0 83 63 135.5t148 52.5q125 0 199 -90l-80 -83q-28 34 -55.5 48.5t-64.5 14.5q-38 0 -66 -21t-28 -56t24 -60.5t79 -48.5l55 -25
q163 -72 163 -203q0 -90 -62 -146t-164 -56zM211 768l74 145h130l-117 -145h-87z" />
    <glyph glyph-name="sacute" unicode="&#x15b;" horiz-adv-x="416" 
d="M206 -8q-127 0 -186 102l84 60q37 -64 102 -64q29 0 46.5 13t17.5 33q0 21 -15.5 35.5t-51.5 27.5l-35 14q-122 47 -122 154q0 61 45.5 101t115.5 40q105 0 156 -87l-81 -56q-25 45 -73 45q-23 0 -39 -11t-16 -29q0 -20 14 -33.5t50 -27.5l36 -13q66 -26 98.5 -62
t32.5 -93q0 -66 -49.5 -107.5t-129.5 -41.5zM160 545l85 165h133l-131 -165h-87z" />
    <glyph glyph-name="Scircumflex" unicode="&#x15c;" horiz-adv-x="518" 
d="M259 -8q-79 0 -142 32.5t-97 88.5l88 74q27 -37 66.5 -61t83.5 -24q52 0 80.5 22t28.5 60q0 39 -24 65t-79 50l-56 24q-160 70 -160 207q0 83 63 135.5t148 52.5q125 0 199 -90l-80 -83q-28 34 -55.5 48.5t-64.5 14.5q-38 0 -66 -21t-28 -56t24 -60.5t79 -48.5l55 -25
q163 -72 163 -203q0 -90 -62 -146t-164 -56zM122 760l-37 73l175 91l174 -91l-37 -73l-137 73z" />
    <glyph glyph-name="scircumflex" unicode="&#x15d;" horiz-adv-x="416" 
d="M205 -8q-127 0 -186 102l84 60q37 -64 102 -64q29 0 46.5 13t17.5 33q0 21 -15.5 35.5t-51.5 27.5l-35 14q-122 47 -122 154q0 61 45.5 101t115.5 40q105 0 156 -87l-81 -56q-26 45 -73 45q-23 0 -39 -11t-16 -29q0 -20 14 -33.5t50 -27.5l36 -13q66 -26 98.5 -62
t32.5 -93q0 -66 -49.5 -107.5t-129.5 -41.5zM77 543l-42 70l173 105l173 -105l-40 -70l-133 81z" />
    <glyph glyph-name="Scedilla" unicode="&#x15e;" horiz-adv-x="518" 
d="M259 -8q-79 0 -142 32.5t-97 88.5l88 74q27 -37 66.5 -61t83.5 -24q52 0 80.5 22t28.5 60q0 39 -24 65t-79 50l-56 24q-160 70 -160 207q0 83 63 135.5t148 52.5q125 0 199 -90l-80 -83q-28 34 -55.5 48.5t-64.5 14.5q-38 0 -66 -21t-28 -56t24 -60.5t79 -48.5l55 -25
q163 -72 163 -203q0 -90 -62 -146t-164 -56zM172 -132l58 132h82l-40 -132h-100z" />
    <glyph glyph-name="scedilla" unicode="&#x15f;" horiz-adv-x="416" 
d="M205 -8q-127 0 -186 102l84 60q37 -64 102 -64q29 0 46.5 13t17.5 33q0 21 -15.5 35.5t-51.5 27.5l-35 14q-122 47 -122 154q0 61 45.5 101t115.5 40q105 0 156 -87l-81 -56q-26 45 -73 45q-23 0 -39 -11t-16 -29q0 -20 14 -33.5t50 -27.5l36 -13q66 -26 98.5 -62
t32.5 -93q0 -66 -49.5 -107.5t-129.5 -41.5zM101 -132l58 132h82l-40 -132h-100z" />
    <glyph glyph-name="Scaron" unicode="&#x160;" horiz-adv-x="518" 
d="M259 -8q-79 0 -142 32.5t-97 88.5l88 74q27 -37 66.5 -61t83.5 -24q52 0 80.5 22t28.5 60q0 39 -24 65t-79 50l-56 24q-160 70 -160 207q0 83 63 135.5t148 52.5q125 0 199 -90l-80 -83q-28 34 -55.5 48.5t-64.5 14.5q-38 0 -66 -21t-28 -56t24 -60.5t79 -48.5l55 -25
q163 -72 163 -203q0 -90 -62 -146t-164 -56zM260 759l-174 92l37 72l137 -73l138 73l37 -73z" />
    <glyph glyph-name="scaron" unicode="&#x161;" horiz-adv-x="416" 
d="M205 -8q-127 0 -186 102l84 60q37 -64 102 -64q29 0 46.5 13t17.5 33q0 21 -15.5 35.5t-51.5 27.5l-35 14q-122 47 -122 154q0 61 45.5 101t115.5 40q105 0 156 -87l-81 -56q-26 45 -73 45q-23 0 -39 -11t-16 -29q0 -20 14 -33.5t50 -27.5l36 -13q66 -26 98.5 -62
t32.5 -93q0 -66 -49.5 -107.5t-129.5 -41.5zM381 658l-173 -105l-173 105l42 70l131 -81l133 81z" />
    <glyph glyph-name="uni0162" unicode="&#x162;" horiz-adv-x="523" 
d="M203 0v596h-183v114h483v-114h-184v-596h-116zM145 -243l59 193h114l-100 -193h-73z" />
    <glyph glyph-name="uni0163" unicode="&#x163;" horiz-adv-x="385" 
d="M21 402l-24 98h97v96l110 54v-150h152l-24 -98h-128v-227q0 -40 15 -57t56 -17h69v-101h-97q-72 0 -112.5 40t-40.5 112v250h-73zM107 -243l59 193h114l-100 -193h-73z" />
    <glyph glyph-name="Tcaron" unicode="&#x164;" horiz-adv-x="523" 
d="M203 0v596h-183v114h483v-114h-184v-596h-116zM261 759l-174 92l37 72l137 -73l138 73l37 -73z" />
    <glyph glyph-name="tcaron" unicode="&#x165;" horiz-adv-x="385" 
d="M21 402l-24 98h97v96l110 54v-150h152l-24 -98h-128v-227q0 -40 15 -57t56 -17h69v-101h-97q-72 0 -112.5 40t-40.5 112v250h-73zM261 547l23 163h109l-57 -163h-75z" />
    <glyph glyph-name="Tbar" unicode="&#x166;" horiz-adv-x="523" 
d="M51 329v94h152v173h-183v114h483v-114h-184v-173h152v-94h-152v-329h-116v329h-152z" />
    <glyph glyph-name="tbar" unicode="&#x167;" horiz-adv-x="385" 
d="M21 402l-24 98h97v96l110 54v-150h152l-24 -98h-128v-74h123v-83h-123v-70q0 -40 15 -57t56 -17h69v-101h-97q-72 0 -112.5 40t-40.5 112v93h-87v83h87v74h-73z" />
    <glyph glyph-name="Utilde" unicode="&#x168;" horiz-adv-x="711" 
d="M356 -8q-127 0 -206.5 77t-79.5 207v434h116v-437q0 -82 46.5 -126.5t123.5 -44.5t123 44.5t46 126.5v437h116v-434q0 -130 -79 -207t-206 -77zM173 777l4 23q8 47 40 75t70 28q31 0 72 -21.5t54 -21.5q20 0 30 9.5t16 33.5h78l-3 -22q-8 -47 -39 -75t-70 -28
q-32 0 -73 21.5t-54 21.5q-20 0 -30.5 -10t-15.5 -34h-79z" />
    <glyph glyph-name="utilde" unicode="&#x169;" horiz-adv-x="580" 
d="M400 0v46q-48 -54 -140 -54q-93 0 -148 59t-55 156v293h110v-291q0 -43 31 -77.5t83 -34.5q88 0 119 85v318h110v-500h-110zM113 562l4 22q8 47 39 74.5t69 27.5q31 0 72 -21t54 -21q20 0 30 9.5t16 33.5h77l-3 -22q-8 -46 -38.5 -74t-69.5 -28q-32 0 -73 21t-54 21
q-20 0 -30.5 -10t-15.5 -33h-77z" />
    <glyph glyph-name="Umacron" unicode="&#x16a;" horiz-adv-x="711" 
d="M356 -8q-127 0 -206.5 77t-79.5 207v434h116v-437q0 -82 46.5 -126.5t123.5 -44.5t123 44.5t46 126.5v437h116v-434q0 -130 -79 -207t-206 -77zM202 799v76h306v-76h-306z" />
    <glyph glyph-name="umacron" unicode="&#x16b;" horiz-adv-x="580" 
d="M400 0v46q-48 -54 -140 -54q-93 0 -148 59t-55 156v293h110v-291q0 -43 31 -77.5t83 -34.5q88 0 119 85v318h110v-500h-110zM130 601v76h306v-76h-306z" />
    <glyph glyph-name="Ubreve" unicode="&#x16c;" horiz-adv-x="711" 
d="M356 -8q-127 0 -206.5 77t-79.5 207v434h116v-437q0 -82 46.5 -126.5t123.5 -44.5t123 44.5t46 126.5v437h116v-434q0 -130 -79 -207t-206 -77zM354 763q-71 0 -117.5 44.5t-48.5 110.5h71q2 -37 28.5 -61.5t67.5 -24.5t67.5 25t27.5 61h72q-2 -66 -48.5 -110.5
t-119.5 -44.5z" />
    <glyph glyph-name="ubreve" unicode="&#x16d;" horiz-adv-x="580" 
d="M400 0v46q-48 -54 -140 -54q-93 0 -148 59t-55 156v293h110v-291q0 -43 31 -77.5t83 -34.5q88 0 119 85v318h110v-500h-110zM282 556q-71 0 -117.5 44.5t-48.5 109.5h71q2 -37 28.5 -61.5t67.5 -24.5t67.5 25t27.5 61h72q-2 -65 -48.5 -109.5t-119.5 -44.5z" />
    <glyph glyph-name="Uring" unicode="&#x16e;" horiz-adv-x="711" 
d="M356 -8q-127 0 -206.5 77t-79.5 207v434h116v-437q0 -82 46.5 -126.5t123.5 -44.5t123 44.5t46 126.5v437h116v-434q0 -130 -79 -207t-206 -77zM355 807q20 0 33.5 13t13.5 34q0 20 -13.5 34t-33.5 14t-34 -14t-14 -34q0 -21 13.5 -34t34.5 -13zM355 750q-45 0 -76 30
t-31 74q0 45 31 74.5t76 29.5t76 -30t31 -74t-31 -74t-76 -30z" />
    <glyph glyph-name="uring" unicode="&#x16f;" horiz-adv-x="580" 
d="M400 0v46q-48 -54 -140 -54q-93 0 -148 59t-55 156v293h110v-291q0 -43 31 -77.5t83 -34.5q88 0 119 85v318h110v-500h-110zM282 608q20 0 33.5 13.5t13.5 33.5t-13.5 33.5t-33.5 13.5t-34 -13.5t-14 -33.5t14 -33.5t34 -13.5zM282 551q-45 0 -76 30t-31 74t31 74t76 30
t76 -30t31 -74t-31 -74t-76 -30z" />
    <glyph glyph-name="Uhungarumlaut" unicode="&#x170;" horiz-adv-x="711" 
d="M356 -8q-127 0 -206.5 77t-79.5 207v434h116v-437q0 -82 46.5 -126.5t123.5 -44.5t123 44.5t46 126.5v437h116v-434q0 -130 -79 -207t-206 -77zM208 768l74 145h121l-117 -145h-78zM408 768l75 145h120l-117 -145h-78z" />
    <glyph glyph-name="uhungarumlaut" unicode="&#x171;" horiz-adv-x="580" 
d="M400 0v46q-48 -54 -140 -54q-93 0 -148 59t-55 156v293h110v-291q0 -43 31 -77.5t83 -34.5q88 0 119 85v318h110v-500h-110zM144 545l85 165h117l-132 -165h-70zM322 545l85 165h116l-131 -165h-70z" />
    <glyph glyph-name="Uogonek" unicode="&#x172;" horiz-adv-x="711" 
d="M374 -189q-48 0 -79.5 27t-31.5 71q0 52 54 85q-112 12 -179.5 87.5t-67.5 194.5v434h116v-437q0 -82 46.5 -126.5t123.5 -44.5t123 44.5t46 126.5v437h116v-434q0 -111 -59.5 -185t-158.5 -92q-54 -32 -54 -71q0 -17 11.5 -27.5t31.5 -10.5q18 0 36 9v-69
q-34 -19 -74 -19z" />
    <glyph glyph-name="uogonek" unicode="&#x173;" horiz-adv-x="581" 
d="M400 0v46q-48 -54 -140 -54q-93 0 -148 59t-55 156v293h110v-291q0 -43 31 -77.5t83 -34.5q88 0 119 85v318h110v-500h-110zM442 -182q-44 0 -75 26t-31 69q0 52 64 87h110q-72 -32 -72 -68q0 -15 11 -25t31 -10q15 0 31 9v-69q-24 -19 -69 -19z" />
    <glyph glyph-name="Wcircumflex" unicode="&#x174;" horiz-adv-x="893" 
d="M255 -8l-244 718h119l140 -409l176 417l176 -417l140 409h120l-245 -718l-191 460zM309 760l-37 73l175 91l174 -91l-37 -73l-137 73z" />
    <glyph glyph-name="wcircumflex" unicode="&#x175;" horiz-adv-x="723" 
d="M171 0l-158 500h115l99 -327l135 335l134 -335l99 327h115l-158 -500h-86l-104 260l-105 -260h-86zM230 543l-42 70l173 105l173 -105l-40 -70l-133 81z" />
    <glyph glyph-name="Ycircumflex" unicode="&#x176;" horiz-adv-x="641" 
d="M262 0v299l-261 411h136l183 -293l183 293h137l-262 -411v-299h-116zM183 760l-37 73l175 91l174 -91l-37 -73l-137 73z" />
    <glyph glyph-name="ycircumflex" unicode="&#x177;" horiz-adv-x="509" 
d="M107 -184l90 210l-197 474h118l136 -345l137 345h118l-286 -684h-116zM123 543l-42 70l173 105l173 -105l-40 -70l-133 81z" />
    <glyph glyph-name="Ydieresis" unicode="&#x178;" horiz-adv-x="641" 
d="M262 0v299l-261 411h136l183 -293l183 293h137l-262 -411v-299h-116zM205 774q-28 0 -48 19.5t-20 48.5q0 28 20.5 48t47.5 20q29 0 48.5 -20t19.5 -48q0 -29 -19.5 -48.5t-48.5 -19.5zM435 774q-28 0 -48 19.5t-20 48.5q0 28 20 48t48 20q29 0 48.5 -20t19.5 -48
q0 -29 -19.5 -48.5t-48.5 -19.5z" />
    <glyph glyph-name="Zacute" unicode="&#x179;" horiz-adv-x="613" 
d="M17 0l371 596h-329v114h528l-371 -596h364v-114h-563zM250 768l74 145h130l-117 -145h-87z" />
    <glyph glyph-name="zacute" unicode="&#x17a;" horiz-adv-x="507" 
d="M19 0l272 402h-240v98h430l-272 -402h258v-98h-448zM192 545l85 165h133l-131 -165h-87z" />
    <glyph glyph-name="Zdotaccent" unicode="&#x17b;" horiz-adv-x="613" 
d="M17 0l371 596h-329v114h528l-371 -596h364v-114h-563zM323 770q-29 0 -50.5 21t-21.5 51t21.5 51t50.5 21q30 0 51 -21t21 -51t-21 -51t-51 -21z" />
    <glyph glyph-name="zdotaccent" unicode="&#x17c;" horiz-adv-x="507" 
d="M19 0l272 402h-240v98h430l-272 -402h258v-98h-448zM266 558q-29 0 -50 20.5t-21 50.5t21 50.5t50 20.5q30 0 51 -20.5t21 -50.5t-21 -50.5t-51 -20.5z" />
    <glyph glyph-name="Zcaron" unicode="&#x17d;" horiz-adv-x="613" 
d="M17 0l371 596h-329v114h528l-371 -596h364v-114h-563zM323 759l-174 92l37 72l137 -73l138 73l37 -73z" />
    <glyph glyph-name="zcaron" unicode="&#x17e;" horiz-adv-x="507" 
d="M19 0l272 402h-240v98h430l-272 -402h258v-98h-448zM440 658l-173 -105l-173 105l42 70l131 -81l133 81z" />
    <glyph glyph-name="uni0218" unicode="&#x218;" horiz-adv-x="518" 
d="M259 -8q-79 0 -142 32.5t-97 88.5l88 74q27 -37 66.5 -61t83.5 -24q52 0 80.5 22t28.5 60q0 39 -24 65t-79 50l-56 24q-160 70 -160 207q0 83 63 135.5t148 52.5q125 0 199 -90l-80 -83q-28 34 -55.5 48.5t-64.5 14.5q-38 0 -66 -21t-28 -56t24 -60.5t79 -48.5l55 -25
q163 -72 163 -203q0 -90 -62 -146t-164 -56zM144 -243l59 193h114l-100 -193h-73z" />
    <glyph glyph-name="uni0219" unicode="&#x219;" horiz-adv-x="416" 
d="M205 -8q-127 0 -186 102l84 60q37 -64 102 -64q29 0 46.5 13t17.5 33q0 21 -15.5 35.5t-51.5 27.5l-35 14q-122 47 -122 154q0 61 45.5 101t115.5 40q105 0 156 -87l-81 -56q-26 45 -73 45q-23 0 -39 -11t-16 -29q0 -20 14 -33.5t50 -27.5l36 -13q66 -26 98.5 -62
t32.5 -93q0 -66 -49.5 -107.5t-129.5 -41.5zM85 -243l59 193h114l-100 -193h-73z" />
    <glyph glyph-name="uni021A" unicode="&#x21a;" horiz-adv-x="523" 
d="M203 0v596h-183v114h483v-114h-184v-596h-116zM145 -243l59 193h114l-100 -193h-73z" />
    <glyph glyph-name="uni021B" unicode="&#x21b;" horiz-adv-x="385" 
d="M21 402l-24 98h97v96l110 54v-150h152l-24 -98h-128v-227q0 -40 15 -57t56 -17h69v-101h-97q-72 0 -112.5 40t-40.5 112v250h-73zM107 -243l59 193h114l-100 -193h-73z" />
    <glyph glyph-name="uni0232" unicode="&#x232;" horiz-adv-x="641" 
d="M262 0v299l-261 411h136l183 -293l183 293h137l-262 -411v-299h-116zM167 799v76h306v-76h-306z" />
    <glyph glyph-name="uni0233" unicode="&#x233;" horiz-adv-x="509" 
d="M107 -184l90 210l-197 474h118l136 -345l137 345h118l-286 -684h-116zM101 601v76h306v-76h-306z" />
    <glyph glyph-name="uni0237" unicode="&#x237;" horiz-adv-x="250" 
d="M-35 -184v104h30q39 0 57 15.5t18 52.5v512h110v-518q0 -88 -44.5 -127t-135.5 -39h-35z" />
    <glyph glyph-name="circumflex" unicode="&#x2c6;" horiz-adv-x="435" 
d="M85 543l-42 70l173 105l173 -105l-40 -70l-133 81z" />
    <glyph glyph-name="caron" unicode="&#x2c7;" horiz-adv-x="442" 
d="M390 658l-173 -105l-173 105l42 70l131 -81l133 81z" />
    <glyph glyph-name="breve" unicode="&#x2d8;" horiz-adv-x="419" 
d="M209 556q-71 0 -117.5 44.5t-48.5 109.5h71q2 -37 28.5 -61.5t67.5 -24.5t67.5 25t27.5 61h72q-2 -65 -48.5 -109.5t-119.5 -44.5z" />
    <glyph glyph-name="dotaccent" unicode="&#x2d9;" horiz-adv-x="229" 
d="M114 558q-29 0 -50 20.5t-21 50.5t21 50.5t50 20.5q30 0 51 -20.5t21 -50.5t-21 -50.5t-51 -20.5z" />
    <glyph glyph-name="ring" unicode="&#x2da;" horiz-adv-x="303" 
d="M153 608q20 0 33.5 13.5t13.5 33.5t-13.5 33.5t-33.5 13.5t-34 -13.5t-14 -33.5t14 -33.5t34 -13.5zM153 551q-45 0 -76 30t-31 74t31 74t76 30t76 -30t31 -74t-31 -74t-76 -30z" />
    <glyph glyph-name="ogonek" unicode="&#x2db;" horiz-adv-x="279" 
d="M157 -182q-44 0 -75 26t-31 69q0 52 64 87h110q-72 -32 -72 -68q0 -15 11 -25t31 -10q15 0 31 9v-69q-24 -19 -69 -19z" />
    <glyph glyph-name="tilde" unicode="&#x2dc;" horiz-adv-x="474" 
d="M56 562l4 22q8 47 39 74.5t69 27.5q32 0 72 -21t54 -21q20 0 30 9.5t16 33.5h77l-3 -22q-8 -46 -38.5 -74t-69.5 -28q-32 0 -73 21t-54 21q-20 0 -30.5 -10t-15.5 -33h-77z" />
    <glyph glyph-name="hungarumlaut" unicode="&#x2dd;" horiz-adv-x="484" 
d="M55 545l85 165h117l-132 -165h-70zM233 545l85 165h116l-131 -165h-70z" />
    <glyph glyph-name="uni032C" unicode="&#x32c;" horiz-adv-x="457" 
d="M407 -72l-173 -113l-173 113l39 67l134 -90l133 90z" />
    <glyph glyph-name="uni0394" unicode="&#x394;" horiz-adv-x="812" 
d="M200 111h410l-204 378zM10 0l396 718l396 -718h-792z" />
    <glyph glyph-name="uni0394" unicode="&#x2206;" horiz-adv-x="812" 
d="M200 111h410l-204 378zM10 0l396 718l396 -718h-792z" />
    <glyph glyph-name="uni03A9" unicode="&#x3a9;" horiz-adv-x="842" 
d="M59 0v107h110q-51 42 -81 109t-30 139q0 153 105 258t258 105q151 0 257 -105.5t106 -257.5q0 -72 -30.5 -139t-81.5 -109h110v-107h-289v112q78 24 126 90t48 153q0 106 -70.5 179.5t-175.5 73.5q-107 0 -177.5 -73.5t-70.5 -179.5q0 -86 48.5 -152.5t125.5 -90.5v-112
h-288z" />
    <glyph glyph-name="uni03A9" unicode="&#x2126;" horiz-adv-x="842" 
d="M59 0v107h110q-51 42 -81 109t-30 139q0 153 105 258t258 105q151 0 257 -105.5t106 -257.5q0 -72 -30.5 -139t-81.5 -109h110v-107h-289v112q78 24 126 90t48 153q0 106 -70.5 179.5t-175.5 73.5q-107 0 -177.5 -73.5t-70.5 -179.5q0 -86 48.5 -152.5t125.5 -90.5v-112
h-288z" />
    <glyph glyph-name="pi" unicode="&#x3c0;" horiz-adv-x="662" 
d="M442 0v402h-222v-402h-110v402h-72v98h586v-98h-73v-402h-109z" />
    <glyph glyph-name="uni0401" unicode="&#x401;" horiz-adv-x="560" 
d="M85 0v710h421v-114h-305v-180h245v-112h-245v-190h305v-114h-421zM180 774q-28 0 -48 19.5t-20 48.5q0 28 20.5 48t47.5 20q29 0 48.5 -20t19.5 -48q0 -29 -19.5 -48.5t-48.5 -19.5zM410 774q-28 0 -48 19.5t-20 48.5q0 28 20 48t48 20q29 0 48.5 -20t19.5 -48
q0 -29 -19.5 -48.5t-48.5 -19.5z" />
    <glyph glyph-name="uni0402" unicode="&#x402;" horiz-adv-x="743" 
d="M504 597h-192v-187q86 34 180 34q95 0 158 -59.5t63 -168.5v-20q0 -133 -79 -209.5t-197 -76.5h-13v104h11q67 0 113 43.5t46 133.5v10q0 63 -34 97t-95 34q-72 0 -153 -33v-299h-116v597h-176v113h484v-113z" />
    <glyph glyph-name="uni0403" unicode="&#x403;" horiz-adv-x="495" 
d="M470 597h-269v-597h-116v710h385v-113zM234 768l74 145h130l-117 -145h-87z" />
    <glyph glyph-name="uni0404" unicode="&#x404;" horiz-adv-x="695" 
d="M585 181l78 -80q-103 -109 -255 -109q-151 0 -257 105.5t-106 257.5t106 257.5t257 105.5q152 0 255 -109l-78 -80q-71 78 -177 78q-91 0 -155.5 -52.5t-82.5 -138.5h327v-112h-327q16 -87 82.5 -144t155.5 -57q106 0 177 78z" />
    <glyph glyph-name="uni0405" unicode="&#x405;" horiz-adv-x="519" 
d="M259 -8q-79 0 -142 32.5t-97 88.5l88 74q27 -37 66.5 -61t83.5 -24q52 0 80.5 22t28.5 60q0 39 -24 65t-79 50l-56 24q-160 70 -160 207q0 83 63 135.5t148 52.5q125 0 199 -90l-80 -83q-28 34 -55.5 48.5t-64.5 14.5q-38 0 -66 -21t-28 -56t24 -60.5t79 -48.5l55 -25
q163 -72 163 -203q0 -90 -62 -146t-164 -56z" />
    <glyph glyph-name="uni0406" unicode="&#x406;" horiz-adv-x="286" 
d="M85 0v710h116v-710h-116z" />
    <glyph glyph-name="uni0407" unicode="&#x407;" horiz-adv-x="286" 
d="M40 904q26 0 44 -17.5t18 -42.5q0 -26 -18 -44t-44 -18q-24 0 -42.5 18t-18.5 44q0 24 18.5 42t42.5 18zM245 904q26 0 44 -17.5t18 -42.5q0 -26 -18 -44t-44 -18q-25 0 -43 18t-18 44q0 25 18 42.5t43 17.5zM85 0v710h116v-710h-116z" />
    <glyph glyph-name="uni0408" unicode="&#x408;" horiz-adv-x="509" 
d="M234 -8q-92 0 -155 56.5t-63 160.5h117q0 -52 28.5 -79t72.5 -28q44 0 73 27.5t29 79.5v501h116v-503q0 -103 -63 -159t-155 -56z" />
    <glyph glyph-name="uni0409" unicode="&#x409;" horiz-adv-x="983" 
d="M495 440h206q110 0 178.5 -61t68.5 -159q0 -99 -68.5 -159.5t-178.5 -60.5h-119l-225 477l-224 -477h-123l348 727zM546 333l107 -225h47q64 0 99 29t35 83t-35.5 83.5t-98.5 29.5h-154z" />
    <glyph glyph-name="uni040A" unicode="&#x40a;" horiz-adv-x="993" 
d="M618 416h92q112 0 180 -56.5t68 -144.5q0 -96 -68.5 -155.5t-179.5 -59.5h-208v304h-301v-304h-116v710h116v-294h301v294h116v-294zM618 304v-196h91q134 0 134 105q0 91 -134 91h-91z" />
    <glyph glyph-name="uni040B" unicode="&#x40b;" horiz-adv-x="770" 
d="M197 0v597h-177v113h484v-113h-191v-186q88 32 189 32q99 0 161 -60.5t62 -153.5v-229h-116v208q-1 58 -33 91t-89 33q-91 0 -174 -33v-299h-116z" />
    <glyph glyph-name="uni040C" unicode="&#x40c;" horiz-adv-x="668" 
d="M85 0v710h116v-357l299 357h138l-301 -359l331 -351h-150l-317 335v-335h-116zM287 768l74 145h130l-117 -145h-87z" />
    <glyph glyph-name="uni040E" unicode="&#x40e;" horiz-adv-x="651" 
d="M305 0h-131l90 181l-274 529h133l206 -398l198 398h134zM392 914h91q-2 -79 -47.5 -121t-120.5 -42t-120.5 42t-47.5 121h91q2 -88 77 -88t77 88z" />
    <glyph glyph-name="uni040F" unicode="&#x40f;" horiz-adv-x="724" 
d="M639 0h-221v-140h-112v140h-221v710h116v-598h322v598h116v-710z" />
    <glyph glyph-name="uni0410" unicode="&#x410;" horiz-adv-x="714" 
d="M10 0l347 718l347 -718h-125l-74 158h-297l-74 -158h-124zM357 474l-99 -210h197z" />
    <glyph glyph-name="uni0411" unicode="&#x411;" horiz-adv-x="626" 
d="M528 597h-327v-170h148q106 0 174 -60.5t68 -154.5q0 -96 -72 -154t-183 -58h-251v710h443v-113zM201 320v-211h145q61 0 96 28t35 76t-35.5 77.5t-95.5 29.5h-145z" />
    <glyph glyph-name="uni0412" unicode="&#x412;" horiz-adv-x="631" 
d="M85 0v710h251q94 0 151.5 -56.5t57.5 -137.5q0 -90 -66 -138q114 -48 114 -174q0 -92 -66 -148t-170 -56h-272zM201 108h156q58 0 88.5 27.5t30.5 73.5t-30.5 74.5t-88.5 28.5h-156v-204zM201 411h120q52 0 79.5 26.5t27.5 69.5q0 41 -27.5 68.5t-79.5 27.5h-120v-192z
" />
    <glyph glyph-name="uni0413" unicode="&#x413;" horiz-adv-x="495" 
d="M470 597h-269v-597h-116v710h385v-113z" />
    <glyph glyph-name="uni0414" unicode="&#x414;" horiz-adv-x="774" 
d="M676 112h83v-260h-113v148h-518v-148h-113v260h82l289 606zM216 112h339l-169 362z" />
    <glyph glyph-name="uni0415" unicode="&#x415;" horiz-adv-x="560" 
d="M85 0v710h421v-114h-305v-180h245v-112h-245v-190h305v-114h-421z" />
    <glyph glyph-name="uni0416" unicode="&#x416;" horiz-adv-x="1040" 
d="M462 335l-317 -335h-150l331 351l-301 359h138l299 -357v357h116v-357l299 357h138l-301 -359l331 -351h-150l-317 335v-335h-116v335z" />
    <glyph glyph-name="uni0417" unicode="&#x417;" horiz-adv-x="537" 
d="M122 548l-74 76q88 94 213 94q102 0 158 -56t56 -138q0 -96 -87 -152q111 -46 111 -167q0 -99 -71.5 -156t-174.5 -57q-154 0 -233 118l86 72q53 -81 152 -81q59 0 92.5 31.5t33.5 80.5q0 47 -33.5 75.5t-93.5 28.5h-74v99h72q48 0 77 26.5t29 68.5q0 43 -30 70.5
t-82 27.5q-66 0 -127 -61z" />
    <glyph glyph-name="uni0418" unicode="&#x418;" horiz-adv-x="771" 
d="M570 453l-485 -461v718h116v-453l485 461v-718h-116v453z" />
    <glyph glyph-name="uni0419" unicode="&#x419;" horiz-adv-x="771" 
d="M479 914h91q-2 -79 -47.5 -121t-120.5 -42t-120.5 42t-47.5 121h91q2 -88 77 -88t77 88zM570 453l-485 -461v718h116v-453l485 461v-718h-116v453z" />
    <glyph glyph-name="uni041A" unicode="&#x41a;" horiz-adv-x="668" 
d="M85 0v710h116v-357l299 357h138l-301 -359l331 -351h-150l-317 335v-335h-116z" />
    <glyph glyph-name="uni041B" unicode="&#x41b;" horiz-adv-x="714" 
d="M579 0l-222 474l-223 -474h-124l347 718l347 -718h-125z" />
    <glyph glyph-name="uni041C" unicode="&#x41c;" horiz-adv-x="868" 
d="M85 0v718l349 -372l349 372v-718h-116v436l-233 -252l-233 252v-436h-116z" />
    <glyph glyph-name="uni041D" unicode="&#x41d;" horiz-adv-x="754" 
d="M85 0v710h116v-294h352v294h116v-710h-116v304h-352v-304h-116z" />
    <glyph glyph-name="uni041E" unicode="&#x41e;" horiz-adv-x="816" 
d="M408 102q105 0 175 73t70 180t-70 180t-175 73t-175 -73t-70 -180t70 -180t175 -73zM408 -8q-151 0 -257 105t-106 258t106 258t257 105q152 0 257.5 -105t105.5 -258t-105.5 -258t-257.5 -105z" />
    <glyph glyph-name="uni041F" unicode="&#x41f;" horiz-adv-x="730" 
d="M645 0h-116v598h-328v-598h-116v710h560v-710z" />
    <glyph glyph-name="uni0420" unicode="&#x420;" horiz-adv-x="580" 
d="M85 0v710h212q110 0 179 -63t69 -163t-69 -163t-179 -63h-96v-258h-116zM201 366h91q63 0 99 32t36 86t-36 86t-99 32h-91v-236z" />
    <glyph glyph-name="uni0421" unicode="&#x421;" horiz-adv-x="691" 
d="M408 -8q-151 0 -257 105t-106 258t106 258t257 105q153 0 251 -103l-75 -82q-70 75 -176 75q-105 0 -175 -73t-70 -180t70 -180t175 -73q106 0 176 75l75 -82q-98 -103 -251 -103z" />
    <glyph glyph-name="uni0422" unicode="&#x422;" horiz-adv-x="523" 
d="M203 0v596h-183v114h483v-114h-184v-596h-116z" />
    <glyph glyph-name="uni0423" unicode="&#x423;" horiz-adv-x="651" 
d="M305 0h-131l90 181l-274 529h133l206 -398l198 398h134z" />
    <glyph glyph-name="uni0424" unicode="&#x424;" horiz-adv-x="906" 
d="M395 752h116v-65h16q150 0 243.5 -87.5t93.5 -222.5q0 -134 -93.5 -220.5t-243.5 -86.5h-16v-78h-116v78h-16q-150 0 -243.5 86.5t-93.5 220.5q0 135 93.5 222.5t243.5 87.5h16v65zM395 178v400h-17q-106 0 -162.5 -54.5t-56.5 -146.5q0 -90 57 -144.5t162 -54.5h17z
M528 578h-17v-400h17q105 0 162 54.5t57 144.5q0 92 -56.5 146.5t-162.5 54.5z" />
    <glyph glyph-name="uni0425" unicode="&#x425;" horiz-adv-x="672" 
d="M14 0l244 360l-230 350h134l174 -263l174 263h134l-229 -350l243 -360h-133l-188 276l-188 -276h-135z" />
    <glyph glyph-name="uni0426" unicode="&#x426;" horiz-adv-x="755" 
d="M630 112h80v-260h-113v148h-512v710h116v-598h313v599h116v-599z" />
    <glyph glyph-name="uni0427" unicode="&#x427;" horiz-adv-x="681" 
d="M596 0h-116v293q-94 -35 -189 -35q-108 0 -177 60.5t-69 153.5v238h116v-216q0 -124 149 -124q92 0 170 34v306h116v-710z" />
    <glyph glyph-name="uni0428" unicode="&#x428;" horiz-adv-x="972" 
d="M887 0h-802v710h116v-598h227v598h116v-598h227v598h116v-710z" />
    <glyph glyph-name="uni0429" unicode="&#x429;" horiz-adv-x="1011" 
d="M887 112h79v-260h-113v148h-768v710h116v-598h227v598h116v-598h227v598h116v-598z" />
    <glyph glyph-name="uni042A" unicode="&#x42a;" horiz-adv-x="715" 
d="M319 440h114q110 0 178.5 -61t68.5 -159q0 -99 -68.5 -159.5t-178.5 -60.5h-230v597h-183v113h299v-270zM319 333v-225h113q64 0 99 29t35 83t-35.5 83.5t-98.5 29.5h-113z" />
    <glyph glyph-name="uni042B" unicode="&#x42b;" horiz-adv-x="865" 
d="M201 440h115q110 0 178.5 -61t68.5 -159q0 -99 -68.5 -159.5t-178.5 -60.5h-231v710h116v-270zM201 333v-225h113q64 0 99.5 29t35.5 83t-35.5 83.5t-99.5 29.5h-113zM664 0v710h116v-710h-116z" />
    <glyph glyph-name="uni042C" unicode="&#x42c;" horiz-adv-x="598" 
d="M201 440h115q110 0 178.5 -61t68.5 -159q0 -99 -68.5 -159.5t-178.5 -60.5h-231v710h116v-270zM201 333v-225h113q64 0 99.5 29t35.5 83t-35.5 83.5t-99.5 29.5h-113z" />
    <glyph glyph-name="uni042D" unicode="&#x42d;" horiz-adv-x="689" 
d="M105 529l-78 80q102 110 254 110t257.5 -105t105.5 -258t-105.5 -258t-257.5 -105q-153 0 -254 109l78 80q71 -78 176 -78q90 0 155.5 56t83.5 144h-315v112h315q-18 86 -83 138.5t-156 52.5q-105 0 -176 -78z" />
    <glyph glyph-name="uni042E" unicode="&#x42e;" horiz-adv-x="1093" 
d="M201 416h125q22 131 123 216.5t236 85.5q152 0 257.5 -105t105.5 -258t-105.5 -258t-257.5 -105q-138 0 -239.5 88.5t-119.5 223.5h-125v-304h-116v710h116v-294zM685 607q-105 0 -175.5 -73t-70.5 -179t70.5 -179t175.5 -73q104 0 174.5 73t70.5 179t-70.5 179
t-174.5 73z" />
    <glyph glyph-name="uni042F" unicode="&#x42f;" horiz-adv-x="634" 
d="M549 0h-116v258h-87l-180 -258h-136l194 276q-42 17 -73 45q-69 63 -69 163t69 163t179 63h219v-710zM433 366v236h-98q-63 0 -99 -32t-36 -86t36 -86t99 -32h98z" />
    <glyph glyph-name="uni0430" unicode="&#x430;" horiz-adv-x="623" 
d="M435 0v36q-55 -44 -134 -44q-111 0 -184 74t-73 184t73 184t184 74q78 0 134 -45v37h110v-500h-110zM302 97q41 0 76.5 18.5t56.5 49.5v170q-21 31 -56.5 49.5t-76.5 18.5q-63 0 -104 -43.5t-41 -109.5t41 -109.5t104 -43.5z" />
    <glyph glyph-name="uni0431" unicode="&#x431;" horiz-adv-x="602" 
d="M302 393q-67 0 -107 -41.5t-40 -102.5q0 -69 40.5 -112.5t106.5 -43.5q65 0 105.5 43.5t40.5 112.5q0 61 -40.5 102.5t-105.5 41.5zM509 636l-171 -41q-94 -22 -133.5 -66.5t-53.5 -114.5q62 76 167 76q108 0 174 -70t66 -170q0 -109 -73 -183.5t-183 -74.5
q-118 0 -187.5 79t-69.5 207v41q0 308 272 374l192 46v-103z" />
    <glyph glyph-name="uni0432" unicode="&#x432;" horiz-adv-x="514" 
d="M79 0v500h200q94 0 138 -38.5t44 -103.5q0 -64 -38 -92q70 -33 70 -118q0 -64 -47 -106t-142 -42h-225zM308 215h-119v-119h119q75 2 75 59q0 60 -75 60zM285 404h-96v-109h96q66 2 66 54q0 55 -66 55z" />
    <glyph glyph-name="uni0433" unicode="&#x433;" horiz-adv-x="416" 
d="M389 402h-202v-402h-109v500h311v-98z" />
    <glyph glyph-name="uni0434" unicode="&#x434;" horiz-adv-x="618" 
d="M533 98h70v-221h-98v123h-392v-123h-98v221h70l224 410zM208 98h202l-100 190z" />
    <glyph glyph-name="uni0435" unicode="&#x435;" horiz-adv-x="583" 
d="M302 -8q-111 0 -184.5 74t-73.5 184t73.5 184t182.5 74q105 0 169 -69t70 -189v-30h-381q8 -54 47.5 -86.5t96.5 -32.5q77 0 130 57l74 -79q-33 -40 -86.5 -63.5t-117.5 -23.5zM292 407q-46 0 -81.5 -27.5t-49.5 -74.5h257q-20 102 -126 102z" />
    <glyph glyph-name="uni0436" unicode="&#x436;" horiz-adv-x="818" 
d="M354 234l-215 -234h-134l229 248l-203 252h125l198 -249v249h110v-249l198 249h125l-203 -252l229 -248h-134l-215 234v-234h-110v234z" />
    <glyph glyph-name="uni0437" unicode="&#x437;" horiz-adv-x="440" 
d="M111 362l-71 55q70 91 185 91q79 0 128.5 -42.5t49.5 -102.5q0 -62 -56 -102q35 -17 53.5 -49.5t18.5 -69.5q0 -60 -49 -105t-149 -45q-134 0 -201 102l81 55q42 -64 119 -64q43 0 65 18.5t22 47.5q0 30 -22 47.5t-63 17.5h-72v84h67q32 0 55.5 15t23.5 45q0 57 -77 57
q-74 0 -108 -55z" />
    <glyph glyph-name="uni0438" unicode="&#x438;" horiz-adv-x="616" 
d="M538 0h-109v294l-351 -302v508h109v-298l351 306v-508z" />
    <glyph glyph-name="uni0439" unicode="&#x439;" horiz-adv-x="616" 
d="M538 0h-109v294l-351 -302v508h109v-298l351 306v-508zM412 710h85q-3 -80 -48 -121.5t-120 -41.5t-120.5 42t-47.5 121h85q1 -47 23.5 -71t59.5 -24t59 24t24 71z" />
    <glyph glyph-name="uni043A" unicode="&#x43a;" horiz-adv-x="543" 
d="M79 0v500h110v-249l198 249h125l-203 -252l229 -248h-134l-215 234v-234h-110z" />
    <glyph glyph-name="uni043B" unicode="&#x43b;" horiz-adv-x="556" 
d="M551 0h-121l-152 288l-156 -288h-119l274 508z" />
    <glyph glyph-name="uni043C" unicode="&#x43c;" horiz-adv-x="756" 
d="M678 0h-109v310l-191 -318l-191 318v-310h-109v500h109l191 -321l191 321h109v-500z" />
    <glyph glyph-name="uni043D" unicode="&#x43d;" horiz-adv-x="612" 
d="M534 0h-109v204h-238v-204h-109v500h109v-198h238v198h109v-500z" />
    <glyph glyph-name="uni043E" unicode="&#x43e;" horiz-adv-x="606" 
d="M303 97q63 0 104.5 43.5t41.5 109.5t-41.5 109.5t-104.5 43.5q-64 0 -105 -43.5t-41 -109.5t41 -109.5t105 -43.5zM303 -8q-111 0 -185 74t-74 184t74 184t185 74t185 -74t74 -184t-74 -184t-185 -74z" />
    <glyph glyph-name="uni043F" unicode="&#x43f;" horiz-adv-x="601" 
d="M523 0h-109v402h-227v-402h-109v500h445v-500z" />
    <glyph glyph-name="uni0440" unicode="&#x440;" horiz-adv-x="623" 
d="M187 500v-43q57 51 142 51q108 0 179 -75t71 -183t-71 -183t-179 -75q-85 0 -142 51v-227h-109v684h109zM187 340v-180q45 -66 131 -66q65 0 107 44.5t42 111.5t-42 111.5t-107 44.5q-86 0 -131 -66z" />
    <glyph glyph-name="uni0441" unicode="&#x441;" horiz-adv-x="529" 
d="M302 -8q-111 0 -184.5 74t-73.5 184t73.5 184t184.5 74q115 0 191 -83l-75 -77q-46 53 -116 53q-63 0 -104 -42.5t-41 -108.5t41 -108.5t104 -42.5q70 0 116 53l75 -77q-76 -83 -191 -83z" />
    <glyph glyph-name="uni0442" unicode="&#x442;" horiz-adv-x="443" 
d="M415 402h-143v-402h-109v402h-135v98h387v-98z" />
    <glyph glyph-name="uni0443" unicode="&#x443;" horiz-adv-x="511" 
d="M107 -184l90 210l-197 474h118l136 -345l137 345h118l-286 -684h-116z" />
    <glyph glyph-name="uni0444" unicode="&#x444;" horiz-adv-x="759" 
d="M434 508h18q119 0 191 -74.5t72 -183.5t-72 -183.5t-191 -74.5h-18v-176h-108v176h-18q-119 0 -191.5 75t-72.5 183t72.5 183t191.5 75h18v202h108v-202zM326 408h-18q-69 0 -111 -46t-42 -112t42 -112t111 -46h18v316zM434 408v-316h18q69 0 111 46t42 112t-42 112
t-111 46h-18z" />
    <glyph glyph-name="uni0445" unicode="&#x445;" horiz-adv-x="542" 
d="M13 0l189 253l-179 247h127l121 -166l121 166h127l-179 -247l189 -253h-128l-130 178l-130 -178h-128z" />
    <glyph glyph-name="uni0446" unicode="&#x446;" horiz-adv-x="631" 
d="M520 98h81v-223h-98v125h-425v500h109v-402h223v402h110v-402z" />
    <glyph glyph-name="uni0447" unicode="&#x447;" horiz-adv-x="554" 
d="M367 0v190q-64 -27 -130 -27q-85 0 -138.5 47.5t-53.5 136.5v153h110v-133q0 -102 105 -102q56 0 107 29v206h109v-500h-109z" />
    <glyph glyph-name="uni0448" unicode="&#x448;" horiz-adv-x="814" 
d="M736 0h-658v500h109v-402h165v402h109v-402h166v402h109v-500z" />
    <glyph glyph-name="uni0449" unicode="&#x449;" horiz-adv-x="838" 
d="M736 98h72v-223h-98v125h-632v500h109v-402h165v402h109v-402h166v402h109v-402z" />
    <glyph glyph-name="uni044A" unicode="&#x44a;" horiz-adv-x="589" 
d="M270 330h97q95 0 141 -47.5t46 -115.5t-46.5 -117.5t-140.5 -49.5h-206v403h-133v97h242v-170zM270 241v-144h94q86 0 86 71q0 35 -21.5 54t-61.5 19h-97z" />
    <glyph glyph-name="uni044B" unicode="&#x44b;" horiz-adv-x="699" 
d="M187 241v-144h77q87 0 87 71t-83 73h-81zM187 330h80q94 0 141 -48t47 -115q0 -68 -47 -117.5t-141 -49.5h-189v500h109v-170zM529 0v500h110v-500h-110z" />
    <glyph glyph-name="uni044C" unicode="&#x44c;" horiz-adv-x="507" 
d="M187 330h97q94 0 141 -48t47 -115q0 -68 -47 -117.5t-141 -49.5h-206v500h109v-170zM187 241v-144h94q87 0 87 71q0 35 -21.5 54t-61.5 19h-98z" />
    <glyph glyph-name="uni044D" unicode="&#x44d;" horiz-adv-x="537" 
d="M112 346l-78 69q75 93 201 93q110 0 184 -74.5t74 -183.5t-74 -183.5t-184 -74.5q-126 0 -201 93l78 69q47 -59 123 -59q53 0 91.5 32t49.5 84h-190v89h187q-15 47 -51.5 76t-86.5 29q-76 0 -123 -59z" />
    <glyph glyph-name="uni044E" unicode="&#x44e;" horiz-adv-x="847" 
d="M187 301h102q18 91 88 149t167 58q110 0 184.5 -74.5t74.5 -183.5t-74.5 -183.5t-184.5 -74.5q-98 0 -169 60t-87 152h-101v-204h-109v500h109v-199zM544 405q-66 0 -107 -44t-41 -111t41 -111t107 -44q65 0 106 44t41 111t-41 111t-106 44z" />
    <glyph glyph-name="uni044F" unicode="&#x44f;" horiz-adv-x="524" 
d="M446 0h-109v175h-57l-137 -175h-129l148 187q-103 41 -103 153q0 74 47.5 117t139.5 43h200v-500zM337 409h-91q-83 0 -83 -73q0 -70 83 -70h91v143z" />
    <glyph glyph-name="uni0451" unicode="&#x451;" horiz-adv-x="583" 
d="M302 -8q-111 0 -184.5 74t-73.5 184t73.5 184t182.5 74q105 0 169 -69t70 -189v-30h-381q8 -54 47.5 -86.5t96.5 -32.5q77 0 130 57l74 -79q-33 -40 -86.5 -63.5t-117.5 -23.5zM292 407q-46 0 -81.5 -27.5t-49.5 -74.5h257q-20 102 -126 102zM184 562q-28 0 -48 19.5
t-20 47.5t20 48t48 20t48 -20t20 -48t-20 -47.5t-48 -19.5zM414 562q-29 0 -48 19.5t-19 47.5t19 48t48 20q28 0 47.5 -20t19.5 -48t-19.5 -47.5t-47.5 -19.5z" />
    <glyph glyph-name="uni0452" unicode="&#x452;" horiz-adv-x="594" 
d="M215 598h193v-98h-193v-154q50 58 146 58q91 0 144.5 -64.5t53.5 -158.5v-30q0 -147 -68.5 -241t-169.5 -94h-25v103h16q66 0 101.5 63.5t35.5 159.5v21q0 62 -30 101.5t-84 39.5q-82 0 -120 -79v-225h-109v500h-96v98h96v112h109v-112z" />
    <glyph glyph-name="uni0453" unicode="&#x453;" horiz-adv-x="416" 
d="M389 402h-202v-402h-109v500h311v-98zM181 545l85 165h133l-131 -165h-87z" />
    <glyph glyph-name="uni0454" unicode="&#x454;" horiz-adv-x="524" 
d="M425 154l78 -69q-73 -93 -201 -93q-109 0 -183.5 75t-74.5 183t74.5 183t183.5 75q128 0 201 -93l-78 -69q-47 59 -123 59q-50 0 -87 -28t-51 -77h200v-89h-203q11 -52 49.5 -84t91.5 -32q76 0 123 59z" />
    <glyph glyph-name="uni0455" unicode="&#x455;" horiz-adv-x="418" 
d="M205 -8q-127 0 -186 102l84 60q37 -64 102 -64q29 0 46.5 13t17.5 33q0 21 -15.5 35.5t-51.5 27.5l-35 14q-122 47 -122 154q0 61 45.5 101t115.5 40q105 0 156 -87l-81 -56q-26 45 -73 45q-23 0 -39 -11t-16 -29q0 -20 14 -33.5t50 -27.5l36 -13q66 -26 98.5 -62
t32.5 -93q0 -66 -49.5 -107.5t-129.5 -41.5z" />
    <glyph glyph-name="uni0456" unicode="&#x456;" horiz-adv-x="250" 
d="M180 597h-110q-18 21 -18 48q0 30 21.5 51.5t51.5 21.5t51.5 -21.5t21.5 -51.5q0 -27 -18 -48zM70 0v500h110v-500h-110z" />
    <glyph glyph-name="uni0457" unicode="&#x457;" horiz-adv-x="250" 
d="M27 690q26 0 43.5 -17t17.5 -42q0 -26 -17.5 -43t-43.5 -17q-25 0 -42.5 17t-17.5 43q0 24 18 41.5t42 17.5zM223 690q26 0 43 -17t17 -42q0 -26 -17 -43t-43 -17q-25 0 -42.5 17t-17.5 43q0 25 17.5 42t42.5 17zM70 0v500h110v-500h-110z" />
    <glyph glyph-name="uni0458" unicode="&#x458;" horiz-adv-x="244" 
d="M180 597h-110q-18 21 -18 48q0 30 21.5 51.5t51.5 21.5t51.5 -21.5t21.5 -51.5q0 -27 -18 -48zM-35 -184v104h30q39 0 57 15.5t18 52.5v512h110v-518q0 -88 -44.5 -127t-135.5 -39h-35z" />
    <glyph glyph-name="uni0459" unicode="&#x459;" horiz-adv-x="767" 
d="M367 330h178q95 0 141 -47.5t46 -115.5t-46 -117.5t-140 -49.5h-121l-152 289l-156 -289h-119l274 508zM416 241l77 -144h49q86 0 86 71t-83 73h-129z" />
    <glyph glyph-name="uni045A" unicode="&#x45a;" horiz-adv-x="808" 
d="M505 330h81q95 0 141 -47.5t46 -115.5t-46.5 -117.5t-140.5 -49.5h-190v204h-209v-204h-109v500h109v-199h209v199h109v-170zM505 241v-144h78q86 0 86 71q0 35 -21.5 54t-61.5 19h-81z" />
    <glyph glyph-name="uni045B" unicode="&#x45b;" horiz-adv-x="609" 
d="M215 598h193v-98h-193v-154q50 58 141 58q93 0 147.5 -58t54.5 -155v-191h-109v173q0 61 -29 96t-85 35q-82 0 -120 -79v-225h-109v500h-96v98h96v112h109v-112z" />
    <glyph glyph-name="uni045C" unicode="&#x45c;" horiz-adv-x="543" 
d="M79 0v500h110v-249l198 249h125l-203 -252l229 -248h-134l-215 234v-234h-110zM223 545l85 165h133l-131 -165h-87z" />
    <glyph glyph-name="uni045E" unicode="&#x45e;" horiz-adv-x="511" 
d="M338 710h85q-3 -80 -48 -121.5t-120 -41.5t-120.5 42t-47.5 121h85q1 -47 23.5 -71t59.5 -24t59 24t24 71zM107 -184l90 210l-197 474h118l136 -345l137 345h118l-286 -684h-116z" />
    <glyph glyph-name="uni045F" unicode="&#x45f;" horiz-adv-x="601" 
d="M523 0h-172v-125h-98v125h-175v500h109v-402h227v402h109v-500z" />
    <glyph glyph-name="uni0462" unicode="&#x462;" horiz-adv-x="622" 
d="M234 630h194v-114h-194v-90h114q111 0 175 -58.5t64 -155.5q0 -93 -65 -152.5t-174 -59.5h-230v516h-105v114h105v80h116v-80zM234 323v-217h108q63 0 97 27.5t34 81.5q0 108 -131 108h-108z" />
    <glyph glyph-name="uni0463" unicode="&#x463;" horiz-adv-x="545" 
d="M215 500h193v-98h-193v-77h104q97 0 144 -45t47 -112q0 -70 -47 -119t-144 -49h-213v402h-96v98h96v210h109v-210zM215 240v-149h104q90 0 90 78q0 37 -21.5 53.5t-67.5 17.5h-105z" />
    <glyph glyph-name="uni0472" unicode="&#x472;" horiz-adv-x="816" 
d="M408 718q152 0 257.5 -105t105.5 -258t-105.5 -258t-257.5 -105q-151 0 -257 105.5t-106 257.5t106 257.5t257 105.5zM408 607q-93 0 -160 -59.5t-79 -150.5q63 31 129 31q44 0 116 -21.5t117 -21.5q67 0 116 26q-18 87 -83 141.5t-156 54.5zM284 333q-63 0 -114 -39
q21 -85 85 -138t153 -53q94 0 161 59.5t81 151.5q-64 -23 -118 -23q-49 0 -131 21t-117 21z" />
    <glyph glyph-name="uni0473" unicode="&#x473;" horiz-adv-x="607" 
d="M304 508q110 0 184.5 -74.5t74.5 -183.5t-74.5 -183.5t-184.5 -74.5t-185 75t-75 183t75 183t185 75zM162 295h283q-12 50 -50 80t-91 30t-91 -30t-51 -80zM448 219h-289q9 -55 48.5 -89.5t96.5 -34.5t96.5 34.5t47.5 89.5z" />
    <glyph glyph-name="uni0474" unicode="&#x474;" horiz-adv-x="665" 
d="M331 247l152 354q24 59 63.5 84t98.5 25v-116q-42 0 -62 -42l-252 -570l-330 728h128z" />
    <glyph glyph-name="uni0475" unicode="&#x475;" horiz-adv-x="540" 
d="M273 204l95 199q24 54 56.5 75.5t90.5 21.5v-103q-37 0 -59 -45l-184 -360l-274 508h125z" />
    <glyph glyph-name="uni0490" unicode="&#x490;" horiz-adv-x="495" 
d="M470 597h-269v-597h-116v710h272v137h113v-250z" />
    <glyph glyph-name="uni0491" unicode="&#x491;" horiz-adv-x="416" 
d="M389 402h-202v-402h-109v500h213v125h98v-223z" />
    <glyph glyph-name="uni0492" unicode="&#x492;" horiz-adv-x="504" 
d="M486 597h-268v-189h172v-113h-172v-295h-116v295h-91v113h91v302h384v-113z" />
    <glyph glyph-name="uni0493" unicode="&#x493;" horiz-adv-x="438" 
d="M411 402h-202v-97h121v-98h-121v-207h-110v207h-84v98h84v195h312v-98z" />
    <glyph glyph-name="uni0496" unicode="&#x496;" horiz-adv-x="1066" 
d="M716 350l223 -238h102v-260h-110v148h-39l-314 339v-339h-116v339l-313 -339h-149l324 350l-294 360h138l294 -360v360h116v-360l294 360h138z" />
    <glyph glyph-name="uni0497" unicode="&#x497;" horiz-adv-x="829" 
d="M814 -125h-98v125h-37l-215 234v-234h-110v234l-215 -234h-134l229 248l-203 252h125l198 -249v249h110v-249l198 249h125l-203 -252l139 -150h91v-223z" />
    <glyph glyph-name="uni049A" unicode="&#x49a;" horiz-adv-x="695" 
d="M670 -148h-110v148h-42l-317 344v-344h-116v710h116v-366l299 366h138l-293 -359l220 -239h105v-260z" />
    <glyph glyph-name="uni049B" unicode="&#x49b;" horiz-adv-x="549" 
d="M534 -125h-98v125h-32l-215 234v-234h-110v500h110v-249l198 249h125l-203 -252l139 -150h86v-223z" />
    <glyph glyph-name="uni04A2" unicode="&#x4a2;" horiz-adv-x="796" 
d="M670 112h81v-260h-110v148h-87v304h-353v-304h-116v710h116v-294h353v294h116v-598z" />
    <glyph glyph-name="uni04A3" unicode="&#x4a3;" horiz-adv-x="642" 
d="M534 98h78v-223h-98v125h-90v204h-237v-204h-109v500h109v-199h237v199h110v-402z" />
    <glyph glyph-name="uni04AE" unicode="&#x4ae;" horiz-adv-x="641" 
d="M262 0v299l-261 411h136l183 -293l183 293h137l-262 -411v-299h-116z" />
    <glyph glyph-name="uni04AF" unicode="&#x4af;" horiz-adv-x="548" 
d="M218 -181v181l-219 500h124l150 -352l148 352h126l-219 -500v-181h-110z" />
    <glyph glyph-name="uni04B0" unicode="&#x4b0;" horiz-adv-x="641" 
d="M379 300v-21h121v-113h-121v-166h-117v166h-121v113h121v21l-261 410h135l184 -294l184 294h136z" />
    <glyph glyph-name="uni04B1" unicode="&#x4b1;" horiz-adv-x="546" 
d="M110 0h108l-219 500h124l150 -352l148 352h126l-219 -500h108v-98h-108v-83h-110v83h-108v98z" />
    <glyph glyph-name="uni04B2" unicode="&#x4b2;" horiz-adv-x="710" 
d="M414 360l169 -248h102v-260h-110v148h-51l-188 277l-188 -277h-135l245 360l-231 350h134l174 -263l174 263h134z" />
    <glyph glyph-name="uni04B3" unicode="&#x4b3;" horiz-adv-x="583" 
d="M340 254l117 -156h102v-223h-98v125h-59l-131 178l-131 -178h-127l189 253l-180 247h127l122 -169l123 169h126z" />
    <glyph glyph-name="uni04B6" unicode="&#x4b6;" horiz-adv-x="706" 
d="M567 112h94v-260h-110v148h-100v258h-184q-97 0 -154.5 59.5t-57.5 154.5v238h116v-215q0 -54 27.5 -89.5t81.5 -35.5h171v340h116v-598z" />
    <glyph glyph-name="uni04B7" unicode="&#x4b7;" horiz-adv-x="578" 
d="M450 0h-83v190q-64 -27 -130 -27q-85 0 -138.5 47.5t-53.5 136.5v153h110v-133q0 -102 105 -102q56 0 107 29v206h109v-402h72v-223h-98v125z" />
    <glyph glyph-name="uni04BA" unicode="&#x4ba;" horiz-adv-x="652" 
d="M56 710h116v-293q94 35 189 35q108 0 177 -60.5t69 -153.5v-238h-116v216q0 124 -149 124q-92 0 -170 -34v-306h-116v710z" />
    <glyph glyph-name="uni04BB" unicode="&#x4bb;" horiz-adv-x="586" 
d="M78 0v710h110v-257q49 55 140 55q93 0 148 -59t55 -156v-293h-110v291q0 43 -31 77.5t-83 34.5q-90 0 -119 -88v-315h-110z" />
    <glyph glyph-name="uni04C0" unicode="&#x4c0;" horiz-adv-x="286" 
d="M85 0v710h116v-710h-116z" />
    <glyph glyph-name="uni04CF" unicode="&#x4cf;" horiz-adv-x="266" 
d="M78 0v710h110v-710h-110z" />
    <glyph glyph-name="uni04D8" unicode="&#x4d8;" horiz-adv-x="796" 
d="M212 529l-78 80q102 110 264 110q146 0 249.5 -105.5t103.5 -257.5q0 -154 -101 -258.5t-252 -104.5q-160 0 -256.5 111.5t-96.5 293.5h583q-16 94 -79 151.5t-151 57.5q-115 0 -186 -78zM624 299h-454q15 -87 75.5 -141t152.5 -54q88 0 148.5 54t77.5 141z" />
    <glyph glyph-name="uni04D9" unicode="&#x4d9;" horiz-adv-x="585" 
d="M283 508q111 0 184.5 -74t73.5 -184t-71.5 -184t-180.5 -74q-105 0 -171 69.5t-72 188.5v30h381q-8 54 -47.5 86.5t-96.5 32.5q-77 0 -130 -57l-74 79q33 40 86.5 63.5t117.5 23.5zM297 93q45 0 79 27t48 75h-257q10 -50 44 -76t86 -26z" />
    <glyph glyph-name="uni04E2" unicode="&#x4e2;" horiz-adv-x="771" 
d="M570 453l-485 -461v718h116v-453l485 461v-718h-116v453zM264 799v76h306v-76h-306z" />
    <glyph glyph-name="uni04E3" unicode="&#x4e3;" horiz-adv-x="616" 
d="M538 0h-109v294l-351 -302v508h109v-298l351 306v-508zM180 601v76h306v-76h-306z" />
    <glyph glyph-name="uni04E8" unicode="&#x4e8;" horiz-adv-x="816" 
d="M408 718q152 0 257.5 -105t105.5 -258t-105.5 -258t-257.5 -105q-151 0 -257 105.5t-106 257.5t106 257.5t257 105.5zM170 414h477q-18 84 -84 138.5t-155 54.5t-154.5 -54t-83.5 -139zM649 307h-481q16 -89 82 -146.5t158 -57.5t158.5 57.5t82.5 146.5z" />
    <glyph glyph-name="uni04E9" unicode="&#x4e9;" horiz-adv-x="607" 
d="M304 508q110 0 184.5 -74.5t74.5 -183.5t-74.5 -183.5t-184.5 -74.5t-185 75t-75 183t75 183t185 75zM162 295h283q-12 50 -50 80t-91 30t-91 -30t-51 -80zM448 219h-289q9 -55 48.5 -89.5t96.5 -34.5t96.5 34.5t47.5 89.5z" />
    <glyph glyph-name="uni04EE" unicode="&#x4ee;" horiz-adv-x="651" 
d="M305 0h-131l90 181l-274 529h133l206 -398l198 398h134zM181 799v76h306v-76h-306z" />
    <glyph glyph-name="uni04EF" unicode="&#x4ef;" horiz-adv-x="511" 
d="M107 -184l90 210l-197 474h118l136 -345l137 345h118l-286 -684h-116zM108 601v76h306v-76h-306z" />
    <glyph glyph-name="Wgrave" unicode="&#x1e80;" horiz-adv-x="893" 
d="M255 -8l-244 718h119l140 -409l176 417l176 -417l140 409h120l-245 -718l-191 460zM405 768l-118 145h130l75 -145h-87z" />
    <glyph glyph-name="wgrave" unicode="&#x1e81;" horiz-adv-x="723" 
d="M171 0l-158 500h115l99 -327l135 335l134 -335l99 327h115l-158 -500h-86l-104 260l-105 -260h-86zM319 545l-132 165h133l84 -165h-85z" />
    <glyph glyph-name="Wacute" unicode="&#x1e82;" horiz-adv-x="893" 
d="M255 -8l-244 718h119l140 -409l176 417l176 -417l140 409h120l-245 -718l-191 460zM404 768l74 145h130l-117 -145h-87z" />
    <glyph glyph-name="wacute" unicode="&#x1e83;" horiz-adv-x="723" 
d="M171 0l-158 500h115l99 -327l135 335l134 -335l99 327h115l-158 -500h-86l-104 260l-105 -260h-86zM317 545l85 165h133l-131 -165h-87z" />
    <glyph glyph-name="Wdieresis" unicode="&#x1e84;" horiz-adv-x="893" 
d="M255 -8l-244 718h119l140 -409l176 417l176 -417l140 409h120l-245 -718l-191 460zM331 774q-28 0 -48 19.5t-20 48.5q0 28 20.5 48t47.5 20q29 0 48.5 -20t19.5 -48q0 -29 -19.5 -48.5t-48.5 -19.5zM561 774q-28 0 -48 19.5t-20 48.5q0 28 20 48t48 20q29 0 48.5 -20
t19.5 -48q0 -29 -19.5 -48.5t-48.5 -19.5z" />
    <glyph glyph-name="wdieresis" unicode="&#x1e85;" horiz-adv-x="723" 
d="M171 0l-158 500h115l99 -327l135 335l134 -335l99 327h115l-158 -500h-86l-104 260l-105 -260h-86zM247 562q-28 0 -48 19.5t-20 47.5t20 48t48 20t48 -20t20 -48t-20 -47.5t-48 -19.5zM477 562q-29 0 -48 19.5t-19 47.5t19 48t48 20q28 0 47.5 -20t19.5 -48t-19.5 -47.5
t-47.5 -19.5z" />
    <glyph glyph-name="uni1ECA" unicode="&#x1eca;" horiz-adv-x="274" 
d="M79 0v710h116v-710h-116zM135 -194q-29 0 -50 20.5t-21 50.5t21 50.5t50 20.5q30 0 51 -20.5t21 -50.5t-21 -50.5t-51 -20.5z" />
    <glyph glyph-name="uni1ECB" unicode="&#x1ecb;" horiz-adv-x="250" 
d="M180 597h-110q-18 21 -18 48q0 30 21.5 51.5t51.5 21.5t51.5 -21.5t21.5 -51.5q0 -27 -18 -48zM70 0v500h110v-500h-110zM125 -194q-29 0 -50 20.5t-21 50.5t21 50.5t50 20.5q30 0 51 -20.5t21 -50.5t-21 -50.5t-51 -20.5z" />
    <glyph glyph-name="uni1ECC" unicode="&#x1ecc;" 
d="M401 102q105 0 175 73t70 180t-70 180t-175 73t-175 -73t-70 -180t70 -180t175 -73zM401 -8q-151 0 -257 105t-106 258t106 258t257 105q152 0 257.5 -105t105.5 -258t-105.5 -258t-257.5 -105zM400 -194q-29 0 -50 20.5t-21 50.5t21 50.5t50 20.5q30 0 51 -20.5
t21 -50.5t-21 -50.5t-51 -20.5z" />
    <glyph glyph-name="uni1ECD" unicode="&#x1ecd;" horiz-adv-x="598" 
d="M299 97q63 0 104.5 43.5t41.5 109.5t-41.5 109.5t-104.5 43.5q-64 0 -105 -43.5t-41 -109.5t41 -109.5t105 -43.5zM299 -8q-111 0 -185 74t-74 184t74 184t185 74t185 -74t74 -184t-74 -184t-185 -74zM298 -194q-29 0 -50 20.5t-21 50.5t21 50.5t50 20.5q30 0 51 -20.5
t21 -50.5t-21 -50.5t-51 -20.5z" />
    <glyph glyph-name="uni1EE4" unicode="&#x1ee4;" horiz-adv-x="711" 
d="M356 -8q-127 0 -206.5 77t-79.5 207v434h116v-437q0 -82 46.5 -126.5t123.5 -44.5t123 44.5t46 126.5v437h116v-434q0 -130 -79 -207t-206 -77zM355 -194q-29 0 -50 20.5t-21 50.5t21 50.5t50 20.5q30 0 51 -20.5t21 -50.5t-21 -50.5t-51 -20.5z" />
    <glyph glyph-name="uni1EE5" unicode="&#x1ee5;" horiz-adv-x="580" 
d="M400 0v46q-48 -54 -140 -54q-93 0 -148 59t-55 156v293h110v-291q0 -43 31 -77.5t83 -34.5q88 0 119 85v318h110v-500h-110zM282 -194q-29 0 -50 20.5t-21 50.5t21 50.5t50 20.5q30 0 51 -20.5t21 -50.5t-21 -50.5t-51 -20.5z" />
    <glyph glyph-name="Ygrave" unicode="&#x1ef2;" horiz-adv-x="641" 
d="M262 0v299l-261 411h136l183 -293l183 293h137l-262 -411v-299h-116zM286 768l-118 145h130l75 -145h-87z" />
    <glyph glyph-name="ygrave" unicode="&#x1ef3;" horiz-adv-x="509" 
d="M107 -184l90 210l-197 474h118l136 -345l137 345h118l-286 -684h-116zM242 545l-132 165h133l84 -165h-85z" />
    <glyph glyph-name="endash" unicode="&#x2013;" horiz-adv-x="541" 
d="M44 224v105h453v-105h-453z" />
    <glyph glyph-name="emdash" unicode="&#x2014;" horiz-adv-x="841" 
d="M44 224v105h753v-105h-753z" />
    <glyph glyph-name="quoteleft" unicode="&#x2018;" horiz-adv-x="271" 
d="M192 710l-44 -146h58v-141h-141v141l59 146h68z" />
    <glyph glyph-name="quoteright" unicode="&#x2019;" horiz-adv-x="271" 
d="M79 423l44 146h-58v141h141v-141l-59 -146h-68z" />
    <glyph glyph-name="quotesinglbase" unicode="&#x201a;" horiz-adv-x="271" 
d="M79 -146l44 146h-58v141h141v-141l-59 -146h-68z" />
    <glyph glyph-name="quotedblleft" unicode="&#x201c;" horiz-adv-x="477" 
d="M192 710l-44 -146h58v-141h-141v141l59 146h68zM398 710l-44 -146h58v-141h-141v141l59 146h68z" />
    <glyph glyph-name="quotedblright" unicode="&#x201d;" horiz-adv-x="477" 
d="M79 423l44 146h-58v141h141v-141l-59 -146h-68zM285 423l44 146h-58v141h141v-141l-59 -146h-68z" />
    <glyph glyph-name="quotedblbase" unicode="&#x201e;" horiz-adv-x="477" 
d="M79 -146l44 146h-58v141h141v-141l-59 -146h-68zM285 -146l44 146h-58v141h141v-141l-59 -146h-68z" />
    <glyph glyph-name="dagger" unicode="&#x2020;" horiz-adv-x="558" 
d="M231 -98v513h-179v85h179v210h96v-210h179v-85h-179v-513h-96z" />
    <glyph glyph-name="daggerdbl" unicode="&#x2021;" horiz-adv-x="558" 
d="M52 112v85h179v218h-179v85h179v210h96v-210h179v-85h-179v-218h179v-85h-179v-210h-96v210h-179z" />
    <glyph glyph-name="bullet" unicode="&#x2022;" horiz-adv-x="400" 
d="M200 166q-57 0 -96.5 39.5t-39.5 96.5t39.5 96.5t96.5 39.5t96.5 -39.5t39.5 -96.5t-39.5 -96.5t-96.5 -39.5z" />
    <glyph glyph-name="ellipsis" unicode="&#x2026;" horiz-adv-x="717" 
d="M121 -8q-36 0 -61.5 25.5t-25.5 61.5q0 35 25.5 60.5t61.5 25.5t61 -25.5t25 -60.5q0 -36 -25 -61.5t-61 -25.5zM359 -8q-36 0 -61.5 25.5t-25.5 61.5q0 35 25.5 60.5t61.5 25.5t61 -25.5t25 -60.5q0 -36 -25 -61.5t-61 -25.5zM598 -8q-36 0 -61.5 25.5t-25.5 61.5
q0 35 25.5 60.5t61.5 25.5t61 -25.5t25 -60.5q0 -36 -25 -61.5t-61 -25.5z" />
    <glyph glyph-name="perthousand" unicode="&#x2030;" horiz-adv-x="742" 
d="M212 69q27 0 44.5 18t17.5 44q0 27 -17.5 45.5t-44.5 18.5t-44.5 -18.5t-17.5 -45.5q0 -26 17.5 -44t44.5 -18zM212 -5q-58 0 -99 39.5t-41 96.5q0 59 41 99t99 40t99 -40t41 -99q0 -57 -41 -96.5t-99 -39.5zM212 515q27 0 44.5 18t17.5 45q0 26 -17.5 44t-44.5 18
t-44.5 -18t-17.5 -44q0 -27 17.5 -45t44.5 -18zM212 440q-58 0 -99 40t-41 98q0 57 41 97t99 40t99 -40t41 -97q0 -58 -41 -98t-99 -40zM67 310v88h608v-88h-608zM524 69q28 0 45.5 17.5t17.5 44.5t-18 45.5t-45 18.5t-44 -18.5t-17 -45.5t17 -44.5t44 -17.5zM524 -5
q-58 0 -98.5 39.5t-40.5 96.5q0 59 40 99t99 40q58 0 99 -40t41 -99q0 -57 -41 -96.5t-99 -39.5z" />
    <glyph glyph-name="guilsinglleft" unicode="&#x2039;" horiz-adv-x="306" 
d="M187 22l-156 228l156 228l75 -51l-121 -177l121 -177z" />
    <glyph glyph-name="guilsinglright" unicode="&#x203a;" horiz-adv-x="306" 
d="M278 250l-156 -228l-75 51l121 177l-121 177l75 51z" />
    <glyph glyph-name="fraction" unicode="&#x2044;" horiz-adv-x="180" 
d="M-115 0h-90l500 710h90z" />
    <glyph glyph-name="uni2070" unicode="&#x2070;" horiz-adv-x="484" 
d="M242 481q59 0 98 41t39 101t-39 101t-98 41t-98 -41t-39 -101t39 -101t98 -41zM242 405q-91 0 -155 63.5t-64 154.5t64 154.5t155 63.5q90 0 154.5 -64t64.5 -154t-64.5 -154t-154.5 -64z" />
    <glyph glyph-name="uni2074" unicode="&#x2074;" horiz-adv-x="353" 
d="M212 410v101h-220l302 332v-260h43v-72h-43v-101h-82zM144 583h68v75z" />
    <glyph glyph-name="uni2075" unicode="&#x2075;" horiz-adv-x="327" 
d="M158 405q-87 0 -129 61l60 54q23 -39 65 -39q29 0 47.5 19t18.5 47t-18 47t-49 19q-40 0 -57 -35l-53 22v236h228v-76h-146v-76q12 4 33 4q66 0 105 -39t39 -102q0 -64 -39 -103t-105 -39z" />
    <glyph glyph-name="uni2076" unicode="&#x2076;" horiz-adv-x="320" 
d="M159 481q30 0 47.5 19t17.5 46t-17.5 46t-47.5 19q-29 0 -47 -19t-18 -46t18 -46t47 -19zM159 405q-63 0 -105 40.5t-42 100.5q0 37 27 82l116 208h90l-84 -150q62 0 103.5 -40t41.5 -100t-42 -100.5t-105 -40.5z" />
    <glyph glyph-name="uni2077" unicode="&#x2077;" horiz-adv-x="310" 
d="M27 410l162 350h-169v76h291l-195 -426h-89z" />
    <glyph glyph-name="uni2078" unicode="&#x2078;" horiz-adv-x="342" 
d="M171 405q-63 0 -105.5 40.5t-42.5 100.5q0 72 59 109q-26 29 -26 70q0 48 33.5 82t81.5 34t81.5 -34t33.5 -82q0 -41 -26 -70q59 -39 59 -109q0 -60 -42.5 -100.5t-105.5 -40.5zM171 481q29 0 47.5 19t18.5 46t-18.5 45.5t-47.5 18.5t-47 -18.5t-18 -45.5t18 -46t47 -19z
M171 686q18 0 28 10.5t10 28.5t-10 29t-28 11t-28 -11t-10 -29t10 -28.5t28 -10.5z" />
    <glyph glyph-name="uni2079" unicode="&#x2079;" horiz-adv-x="320" 
d="M160 635q29 0 47 19t18 46t-18 46t-47 19q-30 0 -47.5 -19t-17.5 -46t17.5 -46t47.5 -19zM74 410l84 150q-62 0 -103.5 40t-41.5 100t42 100.5t105 40.5t105 -40.5t42 -100.5q0 -37 -27 -82l-116 -208h-90z" />
    <glyph glyph-name="uni207A" unicode="&#x207a;" horiz-adv-x="321" 
d="M29 587v62h100v99h63v-99h99v-62h-99v-100h-63v100h-100z" />
    <glyph glyph-name="uni207B" unicode="&#x207b;" horiz-adv-x="321" 
d="M29 587v62h262v-62h-262z" />
    <glyph glyph-name="uni207C" unicode="&#x207c;" horiz-adv-x="322" 
d="M29 524v63h263v-63h-263zM29 649v63h263v-63h-263z" />
    <glyph glyph-name="uni207D" unicode="&#x207d;" horiz-adv-x="164" 
d="M99 308q-66 123 -66 278t66 278l60 -27q-57 -132 -57 -251t57 -251z" />
    <glyph glyph-name="uni207E" unicode="&#x207e;" horiz-adv-x="164" 
d="M66 308l-61 27q57 128 57 251t-57 251l61 27q65 -124 65 -278t-65 -278z" />
    <glyph glyph-name="uni207F" unicode="&#x207f;" horiz-adv-x="355" 
d="M38 410v300h81v-22q27 27 75 27q60 0 93.5 -36.5t33.5 -97.5v-171h-81v160q0 30 -15.5 49.5t-44.5 19.5q-39 0 -61 -34v-195h-81z" />
    <glyph glyph-name="uni2080" unicode="&#x2080;" horiz-adv-x="484" 
d="M242 -43q59 0 98 41t39 101t-39 101t-98 41t-98 -41t-39 -101t39 -101t98 -41zM242 -119q-91 0 -155 63.5t-64 154.5t64 154.5t155 63.5q90 0 154.5 -64t64.5 -154t-64.5 -154t-154.5 -64z" />
    <glyph glyph-name="uni2081" unicode="&#x2081;" horiz-adv-x="181" 
d="M50 -114v350l81 83v-433h-81z" />
    <glyph glyph-name="uni2082" unicode="&#x2082;" horiz-adv-x="344" 
d="M5 -114l139 166q-36 0 -73 36.5t-37 93.5q0 56 40.5 95.5t98.5 39.5q57 0 98 -39.5t41 -95.5q0 -52 -42 -102l-98 -118h139v-76h-306zM173 122q26 0 41.5 17.5t15.5 42.5t-15.5 42t-41.5 17t-41.5 -17t-15.5 -42t15.5 -42.5t41.5 -17.5z" />
    <glyph glyph-name="uni2083" unicode="&#x2083;" horiz-adv-x="311" 
d="M139 -119q-84 0 -128 61l59 52q23 -37 65 -37q32 0 51.5 19t19.5 52q0 32 -19.5 51.5t-52.5 19.5h-42l69 137h-131v76h251l-75 -152q83 -37 83 -132q0 -66 -41.5 -106.5t-108.5 -40.5z" />
    <glyph glyph-name="uni2084" unicode="&#x2084;" horiz-adv-x="353" 
d="M212 -114v101h-220l302 332v-260h43v-72h-43v-101h-82zM144 59h68v75z" />
    <glyph glyph-name="uni2085" unicode="&#x2085;" horiz-adv-x="327" 
d="M158 -119q-87 0 -129 61l60 54q23 -39 65 -39q29 0 47.5 19t18.5 47t-18 47t-49 19q-40 0 -57 -35l-53 22v236h228v-76h-146v-76q12 4 33 4q66 0 105 -39t39 -102q0 -64 -39 -103t-105 -39z" />
    <glyph glyph-name="uni2086" unicode="&#x2086;" horiz-adv-x="320" 
d="M159 -43q30 0 47.5 19t17.5 46t-17.5 46t-47.5 19q-29 0 -47 -19t-18 -46t18 -46t47 -19zM159 -119q-63 0 -105 40.5t-42 100.5q0 37 27 82l116 208h90l-84 -150q62 0 103.5 -40t41.5 -100t-42 -100.5t-105 -40.5z" />
    <glyph glyph-name="uni2087" unicode="&#x2087;" horiz-adv-x="310" 
d="M27 -114l162 350h-169v76h291l-195 -426h-89z" />
    <glyph glyph-name="uni2088" unicode="&#x2088;" horiz-adv-x="342" 
d="M171 -119q-63 0 -105.5 40.5t-42.5 100.5q0 72 59 109q-26 29 -26 70q0 48 33.5 82t81.5 34t81.5 -34t33.5 -82q0 -41 -26 -70q59 -39 59 -109q0 -60 -42.5 -100.5t-105.5 -40.5zM171 -43q29 0 47.5 19t18.5 46t-18.5 45.5t-47.5 18.5t-47 -18.5t-18 -45.5t18 -46t47 -19
zM171 162q18 0 28 10.5t10 28.5t-10 29t-28 11t-28 -11t-10 -29t10 -28.5t28 -10.5z" />
    <glyph glyph-name="uni2089" unicode="&#x2089;" horiz-adv-x="320" 
d="M160 111q29 0 47 19t18 46t-18 46t-47 19q-30 0 -47.5 -19t-17.5 -46t17.5 -46t47.5 -19zM74 -114l84 150q-62 0 -103.5 40t-41.5 100t42 100.5t105 40.5t105 -40.5t42 -100.5q0 -37 -27 -82l-116 -208h-90z" />
    <glyph glyph-name="uni208D" unicode="&#x208d;" horiz-adv-x="164" 
d="M99 -216q-66 123 -66 278t66 278l60 -27q-57 -132 -57 -251t57 -251z" />
    <glyph glyph-name="uni208E" unicode="&#x208e;" horiz-adv-x="164" 
d="M66 -216l-61 27q57 128 57 251t-57 251l61 27q65 -124 65 -278t-65 -278z" />
    <glyph glyph-name="Euro" unicode="&#x20ac;" horiz-adv-x="711" 
d="M14 397l26 62h85q32 115 127.5 187t218.5 72q121 0 213 -66l-39 -100q-73 64 -174 64q-79 0 -141 -42.5t-90 -114.5h363l-26 -62h-353q-3 -21 -3 -42q0 -32 2 -41h318l-26 -62h-276q28 -73 90 -115.5t142 -42.5q77 0 147 44v-115q-69 -31 -147 -31q-124 0 -218.5 72
t-127.5 188h-111l26 62h73q-2 9 -2 41t2 42h-99z" />
    <glyph glyph-name="uni20B4" unicode="&#x20b4;" horiz-adv-x="623" 
d="M320 -8q-104 0 -166 49t-62 131q0 29 11 57l4 8h-42v88h493v-88h-319q-17 -26 -17 -59q0 -76 102 -76q95 0 157 85l88 -74q-36 -55 -102.5 -88t-146.5 -33zM65 389v88h324q19 22 19 54q0 36 -26 56.5t-66 20.5q-72 0 -125 -63l-80 83q73 90 205 90q87 0 149.5 -47.5
t62.5 -129.5q0 -19 -7 -39q-6 -18 -10 -25h47v-88h-493z" />
    <glyph glyph-name="uni20B8" unicode="&#x20b8;" horiz-adv-x="523" 
d="M203 0v470h-183v88h483v-88h-184v-470h-116zM20 622v88h483v-88h-483z" />
    <glyph glyph-name="uni20BD" unicode="&#x20bd;" horiz-adv-x="569" 
d="M220 366h71q63 0 99 32t36 86t-36 86t-99 32h-71v-236zM411 118h-191v-118h-116v118h-69v98h69v42h-69v108h69v344h192q110 0 179 -63t69 -163t-69 -163t-179 -63h-76v-42h191v-98z" />
    <glyph glyph-name="uni2113" unicode="&#x2113;" horiz-adv-x="501" 
d="M288 -8q-163 0 -163 170l-55 -46l-57 80l112 87v208q0 227 160 227q156 0 156 -172q0 -140 -186 -275l-21 -18v-67q3 -51 17 -73.5t48 -22.5q40 0 88 38l44 -75q-68 -61 -143 -61zM234 523v-155l7 6q99 78 99 169q0 36 -14 60.5t-41 24.5q-51 0 -51 -105z" />
    <glyph glyph-name="uni2116" unicode="&#x2116;" horiz-adv-x="1118" 
d="M1056 245h-292v95h292v-95zM910 482q32 0 52.5 22t20.5 56t-20.5 56t-52.5 22t-52.5 -22t-20.5 -56t20.5 -56t52.5 -22zM910 405q-66 0 -111 45t-45 110t45 110t111 45t111 -45t45 -110t-45 -110t-111 -45zM680 -8l-485 461v-453h-116v718l485 -461v453h116v-718z" />
    <glyph glyph-name="uni2117" unicode="&#x2117;" 
d="M295 174v362h141q52 0 85.5 -37.5t33.5 -85.5q0 -49 -33.5 -85.5t-85.5 -36.5h-67v-117h-74zM368 361h60q25 -1 39.5 15.5t14.5 37.5q0 19 -14.5 35.5t-39.5 16.5h-60v-105zM401 72q118 0 198.5 81t80.5 202q0 122 -80.5 202.5t-198.5 80.5t-199 -81t-81 -202t81 -202
t199 -81zM401 -8q-151 0 -257 104.5t-106 258.5t106 258.5t257 104.5t257 -104.5t106 -258.5t-106 -258.5t-257 -104.5z" />
    <glyph glyph-name="trademark" unicode="&#x2122;" horiz-adv-x="816" 
d="M370 334v388l187 -190l187 190v-388h-76v210l-111 -112l-111 112v-210h-76zM137 334v302h-95v74h268v-74h-96v-302h-77z" />
    <glyph glyph-name="estimated" unicode="&#x212e;" horiz-adv-x="574" 
d="M294 -8q-114 0 -184 74.5t-70 185.5q0 112 72 184t178 72q113 0 178.5 -72.5t65.5 -180.5h-382v-194q22 -22 63 -36.5t87 -14.5q66 0 119 35t76 98h24q-23 -67 -82 -109t-145 -42zM152 440v-167h270v167q-50 50 -133 50q-80 0 -137 -50z" />
    <glyph glyph-name="onethird" unicode="&#x2153;" horiz-adv-x="766" 
d="M64 284v350l82 83v-433h-82zM121 0h-90l500 710h90zM594 -5q-84 0 -128 61l58 52q26 -37 66 -37q32 0 51.5 19t19.5 52q0 32 -19.5 51.5t-52.5 19.5h-42l68 137h-130v76h251l-76 -152q83 -37 83 -132q0 -66 -40.5 -106.5t-108.5 -40.5z" />
    <glyph glyph-name="twothirds" unicode="&#x2154;" horiz-adv-x="912" 
d="M15 284l139 166q-36 0 -73 36.5t-37 93.5q0 56 40.5 95.5t98.5 39.5q57 0 98 -39.5t41 -95.5q0 -52 -42 -102l-98 -118h139v-76h-306zM183 520q26 0 41.5 17.5t15.5 42.5t-15.5 42t-41.5 17t-41.5 -17t-15.5 -42t15.5 -42.5t41.5 -17.5zM267 0h-90l500 710h90zM740 -5
q-84 0 -128 61l58 52q26 -37 66 -37q32 0 51.5 19t19.5 52q0 32 -19.5 51.5t-52.5 19.5h-42l68 137h-130v76h251l-76 -152q83 -37 83 -132q0 -66 -40.5 -106.5t-108.5 -40.5z" />
    <glyph glyph-name="uni2155" unicode="&#x2155;" horiz-adv-x="784" 
d="M64 284v350l82 83v-433h-82zM121 0h-90l500 710h90zM600 -5q-87 0 -129 61l60 54q23 -39 64 -39q30 0 48 19t18 47q0 27 -18 46.5t-48 19.5q-40 0 -57 -35l-53 22v236h228v-76h-147v-76q13 4 34 4q66 0 105 -39t39 -102q0 -64 -39.5 -103t-104.5 -39z" />
    <glyph glyph-name="uni2156" unicode="&#x2156;" horiz-adv-x="930" 
d="M15 284l139 166q-36 0 -73 36.5t-37 93.5q0 56 40.5 95.5t98.5 39.5q57 0 98 -39.5t41 -95.5q0 -52 -42 -102l-98 -118h139v-76h-306zM183 520q26 0 41.5 17.5t15.5 42.5t-15.5 42t-41.5 17t-41.5 -17t-15.5 -42t15.5 -42.5t41.5 -17.5zM267 0h-90l500 710h90zM746 -5
q-87 0 -129 61l60 54q23 -39 64 -39q30 0 48 19t18 47q0 27 -18 46.5t-48 19.5q-40 0 -57 -35l-53 22v236h228v-76h-147v-76q13 4 34 4q66 0 105 -39t39 -102q0 -64 -39.5 -103t-104.5 -39z" />
    <glyph glyph-name="uni2157" unicode="&#x2157;" horiz-adv-x="899" 
d="M178 279q-84 0 -128 61l58 52q26 -37 66 -37q32 0 51.5 19t19.5 52q0 32 -19.5 51.5t-52.5 19.5h-42l68 137h-130v76h251l-76 -152q83 -37 83 -132q0 -66 -40.5 -106.5t-108.5 -40.5zM235 0h-90l500 710h90zM714 -5q-87 0 -129 61l60 54q23 -39 64 -39q30 0 48 19t18 47
q0 27 -18 46.5t-48 19.5q-40 0 -57 -35l-53 22v236h228v-76h-147v-76q13 4 34 4q66 0 105 -39t39 -102q0 -64 -39.5 -103t-104.5 -39z" />
    <glyph glyph-name="uni2158" unicode="&#x2158;" horiz-adv-x="883" 
d="M180 284v101h-220l302 332v-260h43v-72h-43v-101h-82zM111 457h69v75zM220 0h-90l500 710h90zM699 -5q-87 0 -129 61l60 54q23 -39 64 -39q30 0 48 19t18 47q0 27 -18 46.5t-48 19.5q-40 0 -57 -35l-53 22v236h228v-76h-147v-76q13 4 34 4q66 0 105 -39t39 -102
q0 -64 -39.5 -103t-104.5 -39z" />
    <glyph glyph-name="uni2159" unicode="&#x2159;" horiz-adv-x="752" 
d="M64 284v350l82 83v-433h-82zM121 0h-90l500 710h90zM584 -5q-63 0 -105 40.5t-42 100.5q0 37 27 82l116 208h90l-84 -150q62 0 103.5 -40t41.5 -100t-42 -100.5t-105 -40.5zM584 71q30 0 47.5 19t17.5 46t-17.5 46t-47.5 19q-29 0 -47 -19t-18 -46t18 -46t47 -19z" />
    <glyph glyph-name="uni215A" unicode="&#x215a;" horiz-adv-x="884" 
d="M184 279q-87 0 -129 61l60 54q23 -39 64 -39q30 0 48 19t18 47q0 27 -18 46.5t-48 19.5q-40 0 -57 -35l-53 22v236h228v-76h-147v-76q13 4 34 4q66 0 105 -39t39 -102q0 -64 -39.5 -103t-104.5 -39zM253 0h-90l500 710h90zM716 -5q-63 0 -105 40.5t-42 100.5q0 37 27 82
l116 208h90l-84 -150q62 0 103.5 -40t41.5 -100t-42 -100.5t-105 -40.5zM716 71q30 0 47.5 19t17.5 46t-17.5 46t-47.5 19q-29 0 -47 -19t-18 -46t18 -46t47 -19z" />
    <glyph glyph-name="oneeighth" unicode="&#x215b;" horiz-adv-x="758" 
d="M64 284v350l82 83v-433h-82zM121 0h-90l500 710h90zM587 -5q-63 0 -105.5 40.5t-42.5 100.5q0 72 59 109q-26 29 -26 70q0 48 33.5 82t81.5 34t81.5 -34t33.5 -82q0 -41 -26 -70q59 -39 59 -109q0 -60 -42.5 -100.5t-105.5 -40.5zM587 71q29 0 47.5 19t18.5 46
t-18.5 45.5t-47.5 18.5t-47 -18.5t-18 -45.5t18 -46t47 -19zM587 276q18 0 28 10.5t10 28.5t-10 29t-28 11t-28 -11t-10 -29t10 -28.5t28 -10.5z" />
    <glyph glyph-name="threeeighths" unicode="&#x215c;" horiz-adv-x="872" 
d="M178 279q-84 0 -128 61l58 52q26 -37 66 -37q32 0 51.5 19t19.5 52q0 32 -19.5 51.5t-52.5 19.5h-42l68 137h-130v76h251l-76 -152q83 -37 83 -132q0 -66 -40.5 -106.5t-108.5 -40.5zM235 0h-90l500 710h90zM701 -5q-63 0 -105.5 40.5t-42.5 100.5q0 72 59 109
q-26 29 -26 70q0 48 33.5 82t81.5 34t81.5 -34t33.5 -82q0 -41 -26 -70q59 -39 59 -109q0 -60 -42.5 -100.5t-105.5 -40.5zM701 71q29 0 47.5 19t18.5 46t-18.5 45.5t-47.5 18.5t-47 -18.5t-18 -45.5t18 -46t47 -19zM701 276q18 0 28 10.5t10 28.5t-10 29t-28 11t-28 -11
t-10 -29t10 -28.5t28 -10.5z" />
    <glyph glyph-name="fiveeighths" unicode="&#x215d;" horiz-adv-x="890" 
d="M184 279q-87 0 -129 61l60 54q23 -39 64 -39q30 0 48 19t18 47q0 27 -18 46.5t-48 19.5q-40 0 -57 -35l-53 22v236h228v-76h-147v-76q13 4 34 4q66 0 105 -39t39 -102q0 -64 -39.5 -103t-104.5 -39zM253 0h-90l500 710h90zM719 -5q-63 0 -105.5 40.5t-42.5 100.5
q0 72 59 109q-26 29 -26 70q0 48 33.5 82t81.5 34t81.5 -34t33.5 -82q0 -41 -26 -70q59 -39 59 -109q0 -60 -42.5 -100.5t-105.5 -40.5zM719 71q29 0 47.5 19t18.5 46t-18.5 45.5t-47.5 18.5t-47 -18.5t-18 -45.5t18 -46t47 -19zM719 276q18 0 28 10.5t10 28.5t-10 29
t-28 11t-28 -11t-10 -29t10 -28.5t28 -10.5z" />
    <glyph glyph-name="seveneighths" unicode="&#x215e;" horiz-adv-x="803" 
d="M27 284l162 350h-169v76h291l-195 -426h-89zM166 0h-90l500 710h90zM632 -5q-63 0 -105.5 40.5t-42.5 100.5q0 72 59 109q-26 29 -26 70q0 48 33.5 82t81.5 34t81.5 -34t33.5 -82q0 -41 -26 -70q59 -39 59 -109q0 -60 -42.5 -100.5t-105.5 -40.5zM632 71q29 0 47.5 19
t18.5 46t-18.5 45.5t-47.5 18.5t-47 -18.5t-18 -45.5t18 -46t47 -19zM632 276q18 0 28 10.5t10 28.5t-10 29t-28 11t-28 -11t-10 -29t10 -28.5t28 -10.5z" />
    <glyph glyph-name="uni215F" unicode="&#x215f;" horiz-adv-x="416" 
d="M64 284v350l82 83v-433h-82zM121 0h-90l500 710h90z" />
    <glyph glyph-name="arrowleft" unicode="&#x2190;" horiz-adv-x="800" 
d="M346 -57l-306 306l306 306l61 -63l-199 -199h552v-88h-552l199 -199z" />
    <glyph glyph-name="arrowup" unicode="&#x2191;" horiz-adv-x="800" 
d="M356 0v552l-199 -199l-63 61l306 306l306 -306l-63 -61l-199 199v-552h-88z" />
    <glyph glyph-name="arrowright" unicode="&#x2192;" horiz-adv-x="800" 
d="M454 -57l-61 63l199 199h-552v88h552l-199 199l61 63l306 -306z" />
    <glyph glyph-name="arrowdown" unicode="&#x2193;" horiz-adv-x="800" 
d="M706 296l-306 -306l-306 306l63 61l199 -199v552h88v-552l199 199z" />
    <glyph glyph-name="uni2196" unicode="&#x2196;" horiz-adv-x="800" 
d="M700 67l-63 -62l-418 417v-283h-87v433h433v-88h-284z" />
    <glyph glyph-name="uni2197" unicode="&#x2197;" horiz-adv-x="800" 
d="M163 5l-63 62l419 417h-284v88h433v-433h-87v283z" />
    <glyph glyph-name="uni2198" unicode="&#x2198;" horiz-adv-x="800" 
d="M668 0h-433v88h284l-419 417l63 62l418 -417v283h87v-433z" />
    <glyph glyph-name="uni2199" unicode="&#x2199;" horiz-adv-x="800" 
d="M133 0v433h87v-283l418 417l63 -62l-419 -417h284v-88h-433z" />
    <glyph glyph-name="uni219E" unicode="&#x219e;" horiz-adv-x="800" 
d="M598 -29l-262 262h-142l199 -199l-61 -63l-306 306l306 306l61 -63l-199 -199h142l262 262l61 -63l-199 -199h286v-88h-286l199 -199z" />
    <glyph glyph-name="uni219F" unicode="&#x219f;" horiz-adv-x="800" 
d="M157 87l-63 61l262 262v142l-199 -199l-63 61l306 306l306 -306l-63 -61l-199 199v-142l262 -262l-63 -61l-199 199v-286h-88v286z" />
    <glyph glyph-name="uni21A0" unicode="&#x21a0;" horiz-adv-x="800" 
d="M450 233l-262 -262l-61 63l199 199h-286v88h286l-199 199l61 63l262 -262h142l-199 199l61 63l306 -306l-306 -306l-61 63l199 199h-142z" />
    <glyph glyph-name="uni21A1" unicode="&#x21a1;" horiz-adv-x="800" 
d="M706 296l-306 -306l-306 306l63 61l199 -199v142l-262 262l63 61l199 -199v286h88v-286l199 199l63 -61l-262 -262v-142l199 199z" />
    <glyph glyph-name="uni21A2" unicode="&#x21a2;" horiz-adv-x="800" 
d="M812 6l-61 -63l-262 262h-319l199 -199l-61 -63l-306 306l306 306l61 -63l-199 -199h319l262 262l61 -63l-244 -243z" />
    <glyph glyph-name="uni21A3" unicode="&#x21a3;" horiz-adv-x="800" 
d="M64 -57l-61 63l244 243l-244 243l61 63l262 -262h319l-199 199l61 63l306 -306l-306 -306l-61 63l199 199h-319z" />
    <glyph glyph-name="uni21A4" unicode="&#x21a4;" horiz-adv-x="800" 
d="M640 -1v206h-464l199 -199l-61 -63l-306 306l306 306l61 -63l-199 -199h464v206h88v-500h-88z" />
    <glyph glyph-name="uni21A5" unicode="&#x21a5;" horiz-adv-x="800" 
d="M150 0v88h206v464l-199 -199l-63 61l306 306l306 -306l-63 -61l-199 199v-464h206v-88h-500z" />
    <glyph glyph-name="uni21A6" unicode="&#x21a6;" horiz-adv-x="800" 
d="M161 0h-88v500h88v-206h464l-199 199l61 63l306 -306l-306 -306l-61 63l199 199h-464v-206z" />
    <glyph glyph-name="uni21A7" unicode="&#x21a7;" horiz-adv-x="800" 
d="M356 622h-206v88h500v-88h-206v-464l199 199l63 -61l-306 -306l-306 306l63 61l199 -199v464z" />
    <glyph glyph-name="uni21B0" unicode="&#x21b0;" horiz-adv-x="800" 
d="M744 -184h-88v389h-464l199 -199l-61 -63l-306 306l306 306l61 -63l-199 -199h552v-477z" />
    <glyph glyph-name="uni21B1" unicode="&#x21b1;" horiz-adv-x="800" 
d="M56 -184v477h552l-199 199l61 63l306 -306l-306 -306l-61 63l199 199h-464v-389h-88z" />
    <glyph glyph-name="uni21B2" unicode="&#x21b2;" horiz-adv-x="800" 
d="M329 -57l-306 306l306 306l61 -63l-199 -199h464v389h88v-477h-552l199 -199z" />
    <glyph glyph-name="uni21B3" unicode="&#x21b3;" horiz-adv-x="800" 
d="M776 249l-306 -306l-61 63l199 199h-552v477h88v-389h464l-199 199l61 63z" />
    <glyph glyph-name="partialdiff" unicode="&#x2202;" horiz-adv-x="580" 
d="M289 -8q-105 0 -177 72t-72 177q0 101 70 174.5t173 73.5q91 0 140 -54q-27 90 -98 137t-175 47h-9v95h8q97 0 173 -34t123 -92.5t71 -133t24 -160.5q0 -135 -64 -218.5t-187 -83.5zM289 83q68 0 110.5 45.5t42.5 112.5t-42.5 112.5t-110.5 45.5q-67 0 -110.5 -46
t-43.5 -112t43.5 -112t110.5 -46z" />
    <glyph glyph-name="product" unicode="&#x220f;" horiz-adv-x="632" 
d="M89 -184v894h454v-894h-89v806h-275v-806h-90z" />
    <glyph glyph-name="summation" unicode="&#x2211;" horiz-adv-x="570" 
d="M52 -184v83l246 364l-246 364v83h461v-88h-345l242 -359l-242 -359h345v-88h-461z" />
    <glyph glyph-name="minus" unicode="&#x2212;" horiz-adv-x="615" 
d="M89 233v88h437v-88h-437z" />
    <glyph glyph-name="radical" unicode="&#x221a;" horiz-adv-x="668" 
d="M274 -18l-142 249h-90v88h141l73 -135l233 622h157v-88h-93z" />
    <glyph glyph-name="infinity" unicode="&#x221e;" horiz-adv-x="777" 
d="M516 113q-77 0 -127 56q-50 -56 -128 -56q-72 0 -122 50t-50 120t50 120t122 50q78 0 128 -56q50 56 127 56q72 0 122 -50t50 -120t-50 -120t-122 -50zM261 199q38 0 61 24t23 60q0 35 -23.5 59.5t-60.5 24.5t-60 -24.5t-23 -59.5q0 -36 23 -60t60 -24zM516 199
q37 0 60 24t23 60q0 35 -23 59.5t-60 24.5t-60 -24.5t-23 -59.5q0 -36 23 -60t60 -24z" />
    <glyph glyph-name="integral" unicode="&#x222b;" horiz-adv-x="404" 
d="M51 -189v88h33q44 0 58 14t14 57v590q0 81 38 117.5t129 36.5h30v-88h-35q-43 0 -57 -14t-14 -57v-590q0 -82 -37.5 -118t-128.5 -36h-30z" />
    <glyph glyph-name="approxequal" unicode="&#x2248;" horiz-adv-x="597" 
d="M89 106v108l108 73l198 -76l113 74v-103l-109 -76l-198 76zM89 293v108l108 73l198 -76l113 74v-103l-109 -76l-198 76z" />
    <glyph glyph-name="notequal" unicode="&#x2260;" horiz-adv-x="620" 
d="M89 339v88h278l84 115l69 -50l-47 -65h58v-88h-122l-89 -124h211v-88h-275l-86 -120l-69 51l50 69h-62v88h125l90 124h-215z" />
    <glyph glyph-name="lessequal" unicode="&#x2264;" horiz-adv-x="633" 
d="M527 128l-455 209l455 211v-98l-245 -113l245 -112v-97zM72 0v88h455v-88h-455z" />
    <glyph glyph-name="greaterequal" unicode="&#x2265;" horiz-adv-x="633" 
d="M106 128v97l244 112l-244 113v98l455 -211zM106 0v88h455v-88h-455z" />
    <glyph glyph-name="filledbox" unicode="&#x25a0;" horiz-adv-x="640" 
d="M70 0v500h500v-500h-500z" />
    <glyph glyph-name="H22073" unicode="&#x25a1;" horiz-adv-x="640" 
d="M70 0v500h500v-500h-500zM180 391v-282h280v282h-280z" />
    <glyph glyph-name="H18551" unicode="&#x25ab;" horiz-adv-x="640" 
d="M69 0v500h500v-500h-500zM179 391v-282h280v282h-280z" />
    <glyph glyph-name="uni25B3" unicode="&#x25b3;" horiz-adv-x="790" 
d="M189 111h410l-204 378zM-1 0l396 718l396 -718h-792z" />
    <glyph glyph-name="uni25B5" unicode="&#x25b5;" horiz-adv-x="563" 
d="M162 96h239l-120 221zM-3 0l284 512l285 -512h-569z" />
    <glyph glyph-name="uni25BD" unicode="&#x25bd;" horiz-adv-x="790" 
d="M395 -8l-396 718h792zM395 221l204 378h-410z" />
    <glyph glyph-name="uni25BF" unicode="&#x25bf;" horiz-adv-x="563" 
d="M281 183l120 221h-239zM281 -12l-284 512h569z" />
    <glyph glyph-name="lozenge" unicode="&#x25ca;" horiz-adv-x="672" 
d="M336 134l172 221l-172 221l-172 -221zM336 -8l-284 363l284 364l284 -364z" />
    <glyph glyph-name="circle" unicode="&#x25cb;" horiz-adv-x="591" 
d="M295 100q64 0 106 43.5t42 106.5t-42 106.5t-106 43.5q-63 0 -105 -43.5t-42 -106.5t42 -106.5t105 -43.5zM295 -8q-109 0 -183.5 75.5t-74.5 182.5t74.5 182.5t183.5 75.5t184 -75.5t75 -182.5t-75 -182.5t-184 -75.5z" />
    <glyph glyph-name="H18533" unicode="&#x25cf;" horiz-adv-x="591" 
d="M296 -8q-109 0 -184 75.5t-75 182.5t75 182.5t184 75.5q108 0 183 -76t75 -182t-75 -182t-183 -76z" />
    <glyph glyph-name="uni25EF" unicode="&#x25ef;" 
d="M401 108q103 0 174 71.5t71 175.5t-71 175.5t-174 71.5q-105 0 -175 -71t-70 -176t70 -176t175 -71zM401 -8q-152 0 -257.5 105t-105.5 258t105.5 258t257.5 105t257.5 -105t105.5 -258t-105.5 -258t-257.5 -105z" />
    <glyph glyph-name="uni25FB" unicode="&#x25fb;" horiz-adv-x="866" 
d="M195 116h476v478h-476v-478zM78 0v710h710v-710h-710z" />
    <glyph glyph-name="uniF6D1" unicode="&#xf6d1;" horiz-adv-x="460" 
d="M307 914h91q-2 -79 -47.5 -121t-120.5 -42t-120.5 42t-47.5 121h91q2 -88 77 -88t77 88z" />
    <glyph glyph-name="uniF6D4" unicode="&#xf6d4;" horiz-adv-x="460" 
d="M313 710h85q-3 -80 -48 -121.5t-120 -41.5t-120.5 42t-47.5 121h85q1 -47 23.5 -71t59.5 -24t59 24t24 71z" />
    <glyph glyph-name="fi" unicode="&#xfb01;" horiz-adv-x="609" 
d="M20 402v98h79q-34 37 -34 86q0 54 39 89t102 35h132v-98h-102q-31 0 -48.5 -14t-17.5 -40q0 -25 15.5 -40.5t37.5 -17.5h115v-98h-130v-402h-110v402h-78zM539 597h-110q-18 21 -18 48q0 30 21.5 51.5t51.5 21.5t51.5 -21.5t21.5 -51.5q0 -27 -18 -48zM429 0v500h110
v-500h-110z" />
    <glyph glyph-name="fl" unicode="&#xfb02;" horiz-adv-x="609" 
d="M20 402v98h79q-34 37 -34 86q0 54 39 89t102 35h132v-98h-102q-31 0 -48.5 -14t-17.5 -40q0 -25 15.5 -40.5t37.5 -17.5h115v-98h-130v-402h-110v402h-78zM429 0v710h110v-710h-110z" />
    <glyph glyph-name="_001" horiz-adv-x="0" 
 />
    <glyph glyph-name="_002" horiz-adv-x="0" 
 />
    <glyph glyph-name="uni0432.locl" horiz-adv-x="563" 
d="M299 -4h-12q-105 0 -159.5 57.5t-54.5 155.5v296q0 99 52 156t155 57q97 0 148 -52.5t51 -129.5q0 -97 -66 -145q49 -20 77.5 -67t28.5 -110q0 -105 -55 -161.5t-165 -56.5zM280 98h24q49 0 77.5 28t28.5 81q0 54 -28.5 91.5t-92.5 37.5h-107v-143q0 -46 27 -70.5
t71 -24.5zM182 434h95q45 0 73 28.5t28 65.5t-24 62.5t-74 25.5q-44 0 -71 -24.5t-27 -70.5v-87z" />
    <glyph glyph-name="uni0433.locl" horiz-adv-x="418" 
d="M213 -8q-80 0 -129.5 41.5t-49.5 107.5q0 57 32.5 93t98.5 62l36 13q36 14 50 27.5t14 33.5q0 18 -16 29t-39 11q-48 0 -73 -45l-81 56q51 87 156 87q70 0 115.5 -40t45.5 -101q0 -107 -122 -154l-35 -14q-36 -13 -51.5 -27.5t-15.5 -35.5q0 -20 17.5 -33t46.5 -13
q65 0 102 64l84 -60q-59 -102 -186 -102z" />
    <glyph glyph-name="g001" horiz-adv-x="603" 
d="M289 -194q-124 0 -215 60l58 96q71 -51 157 -51q64 0 106 24.5t42 80.5q0 29 -11 51q-59 -47 -137 -47q-110 0 -179.5 69t-69.5 175t69.5 175t179.5 69q77 0 133 -45v37h110v-399q20 -47 20 -99q0 -99 -77 -147.5t-186 -48.5zM290 125q88 0 132 67v144q-44 67 -132 67
q-59 0 -98 -39t-39 -100t39 -100t98 -39z" />
    <glyph glyph-name="uni0437.locl" horiz-adv-x="441" 
d="M-25 -82l90 72q52 -79 135 -79q47 0 77 31.5t30 70.5q0 46 -30 79.5t-91 33.5h-65v98h63q42 0 71.5 28.5t29.5 67.5q0 35 -24.5 59t-62.5 24q-75 0 -119 -62l-79 66q27 43 81 72t117 29q89 0 140.5 -52.5t51.5 -126.5q0 -105 -73 -150q103 -50 103 -173q0 -86 -57 -143
t-157 -57q-156 0 -231 112z" />
    <glyph glyph-name="u002" horiz-adv-x="580" 
d="M400 0v46q-48 -54 -140 -54q-93 0 -148 59t-55 156v293h110v-291q0 -43 31 -77.5t83 -34.5q88 0 119 85v318h110v-500h-110z" />
    <glyph glyph-name="uni0439.locl" horiz-adv-x="580" 
d="M400 0v46q-48 -54 -140 -54q-93 0 -148 59t-55 156v293h110v-291q0 -43 31 -77.5t83 -34.5q88 0 119 85v318h110v-500h-110zM366 710h85q-3 -80 -48 -121.5t-120 -41.5t-120.5 42t-47.5 121h85q1 -47 23.5 -71t59.5 -24t59 24t24 71z" />
    <glyph glyph-name="n003" horiz-adv-x="583" 
d="M70 0v500h110v-47q49 55 140 55q93 0 148 -59t55 -156v-293h-110v291q0 43 -31 77.5t-83 34.5q-90 0 -119 -88v-315h-110z" />
    <glyph glyph-name="m004" horiz-adv-x="883" 
d="M713 0v291q0 45 -26.5 78.5t-76.5 33.5q-78 0 -109 -87q1 -8 1 -23v-293h-110v291q0 44 -27 78t-77 34q-78 0 -108 -85v-318h-110v500h110v-47q49 55 129 55q103 0 156 -77q61 77 165 77q92 0 142.5 -58.5t50.5 -156.5v-293h-110z" />
    <glyph glyph-name="uni0446.locl" horiz-adv-x="621" 
d="M510 500v-369q0 -33 30 -33h51v-223h-98v125q-16 0 -40 15t-35 39q-26 -29 -69 -45.5t-89 -16.5q-93 0 -148 59t-55 156v293h110v-291q0 -43 31 -77.5t83 -34.5q88 0 119 85v318h110z" />
    <glyph glyph-name="uni0448.locl" horiz-adv-x="883" 
d="M170 500v-291q0 -45 26.5 -78.5t76.5 -33.5q78 0 109 87q-1 8 -1 23v293h110v-291q0 -44 27 -78t77 -34q78 0 108 85v318h110v-500h-110v47q-49 -55 -129 -55q-103 0 -156 77q-61 -77 -165 -77q-92 0 -142.5 58.5t-50.5 156.5v293h110z" />
    <glyph glyph-name="uni0449.locl" horiz-adv-x="924" 
d="M729 41q-41 -49 -145 -49q-112 0 -166 77q-61 -77 -165 -77q-92 0 -142.5 58.5t-50.5 156.5v293h110v-291q0 -45 26.5 -78.5t76.5 -33.5q79 0 109 87q-1 3 -1 11v305h110v-291q0 -44 27 -78t77 -34q78 0 108 85v318h110v-369q0 -33 30 -33h51v-223h-98v125q-14 1 -34 12
t-33 29z" />
    <glyph glyph-name="uni044E.locl" horiz-adv-x="847" 
d="M187 301h102q18 91 88 149t167 58q110 0 184.5 -74.5t74.5 -183.5t-74.5 -183.5t-184.5 -74.5q-98 0 -169 60t-87 152h-101v-204h-109v710h109v-409zM544 405q-66 0 -107 -44t-41 -111t41 -111t107 -44q65 0 106 44t41 111t-41 111t-106 44z" />
    <glyph glyph-name="uni044C.locl" horiz-adv-x="502" 
d="M279 -8h-18q-95 0 -141.5 49.5t-46.5 117.5v341h109v-170h97q96 0 142 -48.5t46 -118.5q0 -71 -46 -121t-142 -50zM264 89h12q87 0 87 75q0 77 -83 77h-98v-81q0 -71 82 -71z" />
    <glyph glyph-name="uni044A.locl" horiz-adv-x="590" 
d="M352 89h12q87 0 87 75q0 77 -83 77h-98v-81q0 -71 82 -71zM161 403h-133v97h242v-170h97q96 0 142 -48.5t46 -118.5q0 -71 -46 -121t-142 -50h-18q-95 0 -141.5 49.5t-46.5 117.5v244z" />
    <glyph glyph-name="uni0431.locl" horiz-adv-x="600" 
d="M260 490h40q112 0 184 -68t72 -172q0 -109 -73 -183.5t-183 -74.5t-183 74.5t-73 183.5q0 85 51 149q23 27 50 46q-29 14 -45 40q-24 36 -24 86q0 59 47.5 99t139.5 40h235l-24 -98h-214q-77 0 -77 -61t77 -61zM300 393q-67 0 -107 -41.5t-40 -102.5q0 -69 40.5 -112.5
t106.5 -43.5q65 0 105.5 43.5t40.5 112.5q0 61 -40.5 102.5t-105.5 41.5z" />
    <glyph glyph-name="_511" horiz-adv-x="596" 
d="M298 -8q-106 0 -182 76t-76 182t76 182t182 76l-60 -151h88l-52 -137l188 194h-117l33 81q78 -26 128 -93.5t50 -151.5q0 -106 -76 -182t-182 -76z" />
    <glyph glyph-name="_534" horiz-adv-x="229" 
d="M114 -194q-29 0 -50 20.5t-21 50.5t21 50.5t50 20.5q30 0 51 -20.5t21 -50.5t-21 -50.5t-51 -20.5z" />
    <glyph glyph-name="_536" horiz-adv-x="283" 
d="M54 -243l59 193h114l-100 -193h-73z" />
    <glyph glyph-name="_541" horiz-adv-x="500" 
d="M208 547l23 163h109l-57 -163h-75z" />
    <glyph glyph-name="zero.zero" horiz-adv-x="815" 
d="M407 -8q-151 0 -257.5 105.5t-106.5 257.5t106.5 257.5t257.5 105.5q153 0 259 -105t106 -258t-106 -258t-259 -105zM407 94q110 0 182 75t72 186q0 23 -3 42l-475 -168q31 -62 90.5 -98.5t133.5 -36.5zM154 355q0 -14 2 -38l473 169q-33 60 -91 95t-131 35
q-109 0 -181 -75.5t-72 -185.5z" />
    <glyph glyph-name="one.onum" horiz-adv-x="269" 
d="M80 0v443l109 110v-553h-109z" />
    <glyph glyph-name="two.onum" horiz-adv-x="492" 
d="M8 0l215 202q-59 3 -106.5 47.5t-47.5 119.5t53.5 127t131.5 52q80 0 133 -52t53 -127q0 -96 -107 -192l-85 -80h188v-97h-428zM254 290q35 0 57.5 23t22.5 56t-22.5 55.5t-57.5 22.5t-57.5 -22.5t-22.5 -55.5t22.5 -56t57.5 -23z" />
    <glyph glyph-name="three.onum" horiz-adv-x="490" 
d="M210 -142q-66 0 -118.5 27t-81.5 65l74 73q51 -63 122 -63q63 0 101 37.5t38 99.5q0 60 -38.5 96.5t-104.5 33.5h-34l109 215h-236v98h393l-118 -235q65 -28 102.5 -81.5t37.5 -126.5q0 -109 -66.5 -174t-179.5 -65z" />
    <glyph glyph-name="four.onum" horiz-adv-x="576" 
d="M369 -134v159h-387l492 523v-429h89v-94h-89v-159h-105zM204 119h165v175z" />
    <glyph glyph-name="five.onum" horiz-adv-x="520" 
d="M247 -142q-65 0 -120 29t-82 67l74 73q57 -67 122 -67q58 0 92.5 36.5t34.5 88.5q0 54 -34.5 90.5t-94.5 36.5q-65 0 -101 -48l-66 34v342h358v-98h-253v-143q29 14 76 14q102 0 163.5 -64t61.5 -164q0 -99 -62.5 -163t-168.5 -64z" />
    <glyph glyph-name="six.onum" horiz-adv-x="511" 
d="M256 -8q-96 0 -161.5 65t-65.5 158q0 56 32 115l182 344h122l-127 -238q10 2 27 2q86 0 151.5 -64.5t65.5 -158.5q0 -92 -66 -157.5t-160 -65.5zM256 94q49 0 82 36t33 85q0 50 -33 86.5t-82 36.5q-50 0 -83 -36.5t-33 -86.5q0 -49 33 -85t83 -36z" />
    <glyph glyph-name="seven.onum" horiz-adv-x="499" 
d="M70 -134l265 576h-307v98h469l-309 -674h-118z" />
    <glyph glyph-name="eight.onum" horiz-adv-x="561" 
d="M280 -8q-98 0 -165 63t-67 156q0 110 93 167q-50 47 -50 120q0 78 54 131t135 53t135.5 -53t54.5 -131q0 -73 -50 -120q92 -57 92 -167q0 -93 -67 -156t-165 -63zM280 94q54 0 88 32.5t34 84.5q0 51 -34.5 83.5t-87.5 32.5q-54 0 -87.5 -32.5t-33.5 -83.5
q0 -52 33.5 -84.5t87.5 -32.5zM273 415h7h7q34 2 55.5 25t21.5 58q0 38 -23.5 60t-60.5 22q-36 0 -59.5 -22.5t-23.5 -59.5q0 -35 21 -58t55 -25z" />
    <glyph glyph-name="nine.onum" horiz-adv-x="511" 
d="M256 548q96 0 161.5 -65t65.5 -158q0 -56 -32 -115l-182 -344h-122l127 238q-10 -2 -27 -2q-86 0 -151.5 64.5t-65.5 158.5q0 92 66 157.5t160 65.5zM256 446q-49 0 -82 -36t-33 -85q0 -50 33 -86.5t82 -36.5q50 0 83 36.5t33 86.5q0 49 -33 85t-83 36z" />
    <glyph glyph-name="zero.onum" horiz-adv-x="640" 
d="M320 94q76 0 122.5 50t46.5 126t-46.5 126t-122.5 50q-75 0 -122 -50t-47 -126t47 -126t122 -50zM320 -8q-118 0 -199 81.5t-81 196.5t81 196.5t199 81.5t199 -81.5t81 -196.5t-81 -196.5t-199 -81.5z" />
    <glyph glyph-name="zero.onum_zero" horiz-adv-x="640" 
d="M320 -8q-118 0 -199 81.5t-81 196.5t81 196.5t199 81.5t199 -81.5t81 -196.5t-81 -196.5t-199 -81.5zM320 94q76 0 122.5 50t46.5 126q0 10 -1 17l-314 -110q46 -83 146 -83zM151 270v-17l314 112q-46 81 -145 81q-75 0 -122 -50t-47 -126z" />
    <glyph glyph-name="one.tnum" horiz-adv-x="590" 
d="M110 0v103h138v504h-87v103h195v-607h138v-103h-384z" />
    <glyph glyph-name="two005" horiz-adv-x="590" 
d="M44 0l252 287q-93 0 -153 62.5t-60 149.5q0 93 64.5 156t160.5 63q95 0 160 -63.5t65 -155.5q0 -109 -89 -207l-166 -189h254v-103h-488zM308 382q51 0 83 33t32 84t-32 84t-83 33q-52 0 -83.5 -33t-31.5 -84q0 -52 31 -84.5t84 -32.5z" />
    <glyph glyph-name="three006" horiz-adv-x="590" 
d="M274 -8q-64 0 -119.5 27t-88.5 75l81 68q42 -68 123 -68q60 0 99 36.5t39 98.5q-1 62 -39 100t-103 38h-67l130 239h-233v104h400l-140 -258q77 -23 120 -81.5t43 -141.5q0 -106 -67.5 -171.5t-177.5 -65.5z" />
    <glyph glyph-name="four007" horiz-adv-x="590" 
d="M376 0v183h-396l505 535v-432h83v-103h-83v-183h-109zM214 286h162v171z" />
    <glyph glyph-name="five008" horiz-adv-x="590" 
d="M280 -8q-65 0 -122.5 27.5t-89.5 74.5l82 70q18 -31 51.5 -50.5t74.5 -19.5q59 0 95.5 37t36.5 94q0 58 -36.5 96t-97.5 38q-68 0 -105 -56l-72 32v375h369v-103h-259v-162q33 16 72 16q110 0 175.5 -66t65.5 -170q0 -103 -66.5 -168t-173.5 -65z" />
    <glyph glyph-name="six009" horiz-adv-x="590" 
d="M295 -8q-102 0 -170.5 67t-68.5 165q0 58 43 133l204 353h122l-150 -258q15 3 30 3q90 0 159.5 -66t69.5 -165q0 -98 -68.5 -165t-170.5 -67zM295 94q57 0 92.5 37.5t35.5 92.5q0 54 -35.5 92t-92.5 38q-56 0 -92 -38.5t-36 -91.5q0 -55 35.5 -92.5t92.5 -37.5z" />
    <glyph glyph-name="seven010" horiz-adv-x="590" 
d="M91 0l286 607h-309v103h474l-333 -710h-118z" />
    <glyph glyph-name="eight011" horiz-adv-x="590" 
d="M295 -8q-102 0 -171.5 66t-69.5 163q0 125 108 188q-52 49 -52 124q0 78 53.5 131.5t131.5 53.5q79 0 133 -53.5t54 -131.5q0 -75 -53 -125q108 -63 108 -187q0 -97 -69.5 -163t-172.5 -66zM295 94q58 0 94.5 36.5t36.5 90.5t-36.5 91t-94.5 37q-56 0 -92.5 -37
t-36.5 -91q0 -53 36.5 -90t92.5 -37zM295 450q36 0 59 23.5t23 59.5t-23 59.5t-59 23.5t-58 -23.5t-22 -59.5t22 -59.5t58 -23.5z" />
    <glyph glyph-name="six012" horiz-adv-x="590" 
d="M295 718q102 0 170.5 -67t68.5 -165q0 -58 -43 -133l-204 -353h-122l150 258q-15 -3 -30 -3q-90 0 -159.5 66t-69.5 165q0 98 68.5 165t170.5 67zM295 616q-57 0 -92.5 -37.5t-35.5 -92.5q0 -54 35.5 -92t92.5 -38q56 0 92 38.5t36 91.5q0 55 -35.5 92.5t-92.5 37.5z" />
    <glyph glyph-name="zero.tnum" horiz-adv-x="590" 
d="M295 94q76 0 122.5 50t46.5 126t-46.5 126t-122.5 50q-75 0 -122 -50t-47 -126t47 -126t122 -50zM295 -8q-118 0 -199 81.5t-81 196.5t81 196.5t199 81.5t199 -81.5t81 -196.5t-81 -196.5t-199 -81.5z" />
    <glyph glyph-name="zero.tnum_zero" horiz-adv-x="590" 
d="M295 -8q-118 0 -199 81.5t-81 196.5t81 196.5t199 81.5t199 -81.5t81 -196.5t-81 -196.5t-199 -81.5zM295 94q76 0 122.5 50t46.5 126q0 10 -1 17l-314 -110q46 -83 146 -83zM126 270v-17l314 112q-46 81 -145 81q-75 0 -122 -50t-47 -126z" />
    <glyph glyph-name="one.case" horiz-adv-x="312" 
d="M98 0v602l116 116v-718h-116z" />
    <glyph glyph-name="two.case" horiz-adv-x="587" 
d="M30 0l247 284q-79 0 -142.5 60t-63.5 154q0 92 65.5 156t161.5 64q95 0 160.5 -64t65.5 -156q0 -100 -92 -199l-163 -191h254v-108h-493zM298 385q50 0 80 32t30 81t-30.5 81t-79.5 32q-50 0 -80.5 -32.5t-30.5 -80.5q0 -50 30.5 -81.5t80.5 -31.5z" />
    <glyph glyph-name="three.case" horiz-adv-x="537" 
d="M243 -8q-65 0 -120.5 27t-88.5 75l84 72q41 -67 120 -67q59 0 96.5 35.5t37.5 95.5q-1 61 -38 97.5t-99 36.5h-68l127 238h-230v108h404l-137 -257q75 -23 116.5 -82t41.5 -141q0 -107 -68 -172.5t-178 -65.5z" />
    <glyph glyph-name="four.case" horiz-adv-x="607" 
d="M382 0v180h-393l508 538v-429h81v-109h-81v-180h-115zM235 289h147v155z" />
    <glyph glyph-name="five.case" horiz-adv-x="561" 
d="M268 -8q-66 0 -123 27t-89 75l85 74q43 -69 122 -69q57 0 92.5 36.5t35.5 90.5q0 55 -35 91.5t-94 36.5q-69 0 -103 -56l-76 33v379h372v-108h-256v-154q37 14 68 14q110 0 175.5 -66t65.5 -170t-66.5 -169t-173.5 -65z" />
    <glyph glyph-name="six.case" horiz-adv-x="552" 
d="M275 -8q-102 0 -171 67t-69 166q0 58 43 133l202 352h128l-147 -256q16 2 26 2q92 0 160.5 -66.5t68.5 -164.5q0 -99 -69.5 -166t-171.5 -67zM275 99q56 0 90 36.5t34 89.5q0 52 -34.5 88.5t-89.5 36.5t-89 -36.5t-34 -88.5q0 -53 33.5 -89.5t89.5 -36.5z" />
    <glyph glyph-name="seven.case" horiz-adv-x="530" 
d="M60 0l283 602h-303v108h476l-331 -710h-125z" />
    <glyph glyph-name="eight.case" horiz-adv-x="593" 
d="M296 -8q-103 0 -172.5 66t-69.5 164q0 122 105 186q-50 48 -50 123q0 78 54 132.5t133 54.5t133.5 -54.5t54.5 -132.5q0 -74 -51 -123q106 -64 106 -186q0 -98 -69.5 -164t-173.5 -66zM296 99q56 0 91 35.5t35 87.5t-35 88t-91 36q-55 0 -90 -36t-35 -88q0 -51 35 -87
t90 -36zM296 452q35 0 56.5 22.5t21.5 56.5t-21.5 57t-56.5 23t-56 -23t-21 -57t21 -56.5t56 -22.5z" />
    <glyph glyph-name="nine.case" horiz-adv-x="552" 
d="M143 0l147 256q-16 -2 -26 -2q-92 0 -160.5 66.5t-68.5 164.5q0 99 69.5 166t171.5 67t171 -67t69 -166q0 -58 -43 -133l-202 -352h-128zM276 360q55 0 89 36.5t34 88.5q0 53 -33.5 89.5t-89.5 36.5t-90 -36.5t-34 -89.5q0 -52 34.5 -88.5t89.5 -36.5z" />
    <glyph glyph-name="zero.case" horiz-adv-x="833" 
d="M416 99q107 0 177.5 74t70.5 182t-70.5 182t-177.5 74t-177.5 -74t-70.5 -182t70.5 -182t177.5 -74zM416 -8q-151 0 -257.5 105.5t-106.5 257.5t106.5 257.5t257.5 105.5q153 0 259 -105t106 -258t-106 -258t-259 -105z" />
    <glyph glyph-name="zero.case_zero" horiz-adv-x="833" 
d="M416 -8q-151 0 -257.5 105.5t-106.5 257.5t106.5 257.5t257.5 105.5q153 0 259 -105t106 -258t-106 -258t-259 -105zM416 99q107 0 177.5 74t70.5 182q0 21 -3 40l-464 -164q31 -61 88 -96.5t131 -35.5zM168 355q0 -28 2 -36l462 165q-33 59 -89.5 93t-126.5 34
q-107 0 -177.5 -74t-70.5 -182z" />
    <glyph glyph-name="a.sups" horiz-adv-x="360" 
d="M241 410v20q-28 -25 -71 -25q-65 0 -107 45.5t-42 109.5t42 109.5t107 45.5q39 0 71 -25v20h81v-300h-81zM179 481q40 0 62 31v96q-24 31 -62 31q-34 0 -55 -22.5t-21 -56.5t21 -56.5t55 -22.5z" />
    <glyph glyph-name="b.sups" horiz-adv-x="360" 
d="M38 410v426h81v-146q32 25 72 25q64 0 106 -45.5t42 -109.5t-42 -109.5t-106 -45.5q-44 0 -72 25v-20h-81zM181 639q-38 0 -62 -31v-96q22 -31 62 -31q34 0 55 22.5t21 56.5t-21 56.5t-55 22.5z" />
    <glyph glyph-name="c.sups" horiz-adv-x="314" 
d="M176 405q-66 0 -111 45t-45 110t45 110t111 45q80 0 125 -63l-62 -49q-23 35 -63 35q-32 0 -52.5 -22t-20.5 -56t20.5 -56t52.5 -22q40 0 63 35l62 -49q-45 -63 -125 -63z" />
    <glyph glyph-name="d.sups" horiz-adv-x="360" 
d="M241 410v20q-28 -25 -71 -25q-65 0 -107 45.5t-42 109.5t42 109.5t107 45.5q39 0 71 -25v146h81v-426h-81zM179 481q40 0 62 31v96q-24 31 -62 31q-34 0 -55 -22.5t-21 -56.5t21 -56.5t55 -22.5z" />
    <glyph glyph-name="e.sups" horiz-adv-x="338" 
d="M174 405q-64 0 -109 44t-45 111t43.5 111t111.5 44q61 0 101.5 -39.5t42.5 -109.5q0 -3 -0.5 -11t-0.5 -12h-218q4 -29 25 -45t49 -16q46 0 69 36l62 -48q-45 -65 -131 -65zM169 647q-23 0 -42.5 -13t-25.5 -39h135q-10 52 -67 52z" />
    <glyph glyph-name="f.sups" horiz-adv-x="216" 
d="M10 638v72h45q-19 20 -19 50q0 33 22.5 54.5t60.5 21.5h88v-72h-60q-33 0 -33 -26q0 -12 8 -20t19 -8h66v-72h-73v-228h-82v228h-42z" />
    <glyph glyph-name="g.sups" horiz-adv-x="354" 
d="M171 294q-81 0 -133 34l39 72q39 -31 90 -31q76 0 76 54q0 18 -7 27q-32 -25 -73 -25q-65 0 -104.5 42t-39.5 103q0 60 39.5 102.5t104.5 42.5q43 0 71 -25v20h82v-241q12 -28 12 -59q0 -59 -45.5 -87.5t-111.5 -28.5zM171 500q39 0 63 31v78q-22 30 -63 30
q-31 0 -50.5 -20t-19.5 -49q0 -30 19 -50t51 -20z" />
    <glyph glyph-name="h.sups" horiz-adv-x="355" 
d="M38 410v426h81v-148q27 27 75 27q60 0 93.5 -36.5t33.5 -97.5v-171h-81v160q0 30 -15.5 49.5t-44.5 19.5q-39 0 -61 -34v-195h-81z" />
    <glyph glyph-name="i.sups" horiz-adv-x="158" 
d="M117 758h-77q-11 14 -11 33q0 20 14.5 35t35.5 15t35.5 -15t14.5 -35q0 -19 -12 -33zM38 410v300h82v-300h-82z" />
    <glyph glyph-name="j.sups" horiz-adv-x="159" 
d="M-24 300v77h16q24 0 35.5 8t11.5 29v296h82v-304q0 -106 -124 -106h-21zM119 758h-78q-11 14 -11 33q0 20 14.5 35t35.5 15t35.5 -15t14.5 -35q0 -19 -11 -33z" />
    <glyph glyph-name="k.sups" horiz-adv-x="331" 
d="M38 410v426h81v-264l106 138h95l-110 -142l125 -158h-97l-119 149v-149h-81z" />
    <glyph glyph-name="l.sups" horiz-adv-x="158" 
d="M38 410v426h82v-426h-82z" />
    <glyph glyph-name="m.sups" horiz-adv-x="532" 
d="M417 410v160q0 69 -53 69q-36 0 -57 -34q2 -16 2 -24v-171h-81v160q0 69 -53 69q-37 0 -56 -33v-196h-81v300h81v-22q29 27 72 27q56 0 88 -40q38 40 97 40q60 0 91.5 -37.5t31.5 -96.5v-171h-82z" />
    <glyph glyph-name="o.sups" horiz-adv-x="352" 
d="M176 482q32 0 52.5 22t20.5 56t-20.5 56t-52.5 22t-52.5 -22t-20.5 -56t20.5 -56t52.5 -22zM176 405q-66 0 -111 45t-45 110t45 110t111 45t111 -45t45 -110t-45 -110t-111 -45z" />
    <glyph glyph-name="p.sups" horiz-adv-x="360" 
d="M38 300v410h81v-20q32 25 72 25q64 0 106 -45.5t42 -109.5t-42 -109.5t-106 -45.5q-44 0 -72 25v-130h-81zM181 639q-38 0 -62 -31v-96q22 -31 62 -31q34 0 55 22.5t21 56.5t-21 56.5t-55 22.5z" />
    <glyph glyph-name="q.sups" horiz-adv-x="360" 
d="M241 300v130q-28 -25 -71 -25q-65 0 -107 45.5t-42 109.5t42 109.5t107 45.5q39 0 71 -25v20h81v-410h-81zM179 481q40 0 62 31v96q-24 31 -62 31q-34 0 -55 -22.5t-21 -56.5t21 -56.5t55 -22.5z" />
    <glyph glyph-name="r.sups" horiz-adv-x="230" 
d="M38 410v300h81v-28q27 33 72 33q17 0 28 -4v-85q-18 8 -41 8q-41 0 -59 -27v-197h-81z" />
    <glyph glyph-name="s.sups" horiz-adv-x="249" 
d="M124 405q-79 0 -118 63l63 43q20 -38 57 -38q29 0 29 19q0 11 -8 16.5t-31 14.5l-17 7q-77 30 -77 95q0 39 28.5 64.5t71.5 25.5q63 0 95 -49l-51 -45q-16 27 -43 27q-26 0 -26 -18q0 -9 8 -15t31 -15l16 -6q42 -16 61 -38.5t19 -57.5q0 -43 -30 -68t-78 -25z" />
    <glyph glyph-name="t.sups" horiz-adv-x="241" 
d="M12 638l-17 72h58v50l82 41v-91h89l-16 -72h-73v-115q0 -21 8.5 -29.5t29.5 -8.5h46v-75h-74q-43 0 -67.5 24.5t-24.5 67.5v136h-41z" />
    <glyph glyph-name="u.sups" horiz-adv-x="354" 
d="M235 410v23q-29 -28 -76 -28q-59 0 -92.5 36.5t-33.5 97.5v171h82v-160q0 -31 15 -50t43 -19q44 0 62 36v193h82v-300h-82z" />
    <glyph glyph-name="v.sups" horiz-adv-x="330" 
d="M165 405l-171 305h94l77 -148l77 148h94z" />
    <glyph glyph-name="w.sups" horiz-adv-x="436" 
d="M98 410l-95 300h85l54 -180l76 185l76 -185l54 180h86l-96 -300h-62l-58 137l-58 -137h-62z" />
    <glyph glyph-name="x.sups" horiz-adv-x="329" 
d="M2 410l110 151l-105 149h95l63 -92l62 92h94l-104 -149l110 -151h-95l-68 96l-68 -96h-94z" />
    <glyph glyph-name="y.sups" horiz-adv-x="309" 
d="M66 300l45 116l-113 294h87l70 -196l69 196h87l-159 -410h-86z" />
    <glyph glyph-name="z.sups" horiz-adv-x="306" 
d="M9 410l148 229h-130v71h267l-147 -229h138v-71h-276z" />
    <glyph glyph-name="uni2070.zero" horiz-adv-x="484" 
d="M242 405q-91 0 -155 63.5t-64 154.5t64 154.5t155 63.5q90 0 154.5 -64t64.5 -154t-64.5 -154t-154.5 -64zM242 481q59 0 98 41t39 101q0 1 -0.5 4t-0.5 5l-251 -89q38 -62 115 -62zM105 623v-9l251 89q-40 62 -114 62q-59 0 -98 -41t-39 -101z" />
    <glyph glyph-name="period.sups" horiz-adv-x="188" 
d="M94 405q-25 0 -42.5 17.5t-17.5 42.5t17.5 42.5t42.5 17.5t42.5 -17.5t17.5 -42.5t-17.5 -42.5t-42.5 -17.5z" />
    <glyph glyph-name="hyphen.sups" horiz-adv-x="217" 
d="M26 579v78h165v-78h-165z" />
    <glyph glyph-name="comma.sups" horiz-adv-x="176" 
d="M51 319l27 91h-39v97h98v-97l-38 -91h-48z" />
    <glyph glyph-name="a.subs" horiz-adv-x="360" 
d="M241 -114v20q-28 -25 -71 -25q-65 0 -107 45.5t-42 109.5t42 109.5t107 45.5q39 0 71 -25v20h81v-300h-81zM179 -43q40 0 62 31v96q-24 31 -62 31q-34 0 -55 -22.5t-21 -56.5t21 -56.5t55 -22.5z" />
    <glyph glyph-name="b.subs" horiz-adv-x="360" 
d="M38 -114v426h81v-146q32 25 72 25q64 0 106 -45.5t42 -109.5t-42 -109.5t-106 -45.5q-44 0 -72 25v-20h-81zM181 115q-38 0 -62 -31v-96q22 -31 62 -31q34 0 55 22.5t21 56.5t-21 56.5t-55 22.5z" />
    <glyph glyph-name="c.subs" horiz-adv-x="314" 
d="M176 -119q-66 0 -111 45t-45 110t45 110t111 45q80 0 125 -63l-62 -49q-23 35 -63 35q-32 0 -52.5 -22t-20.5 -56t20.5 -56t52.5 -22q40 0 63 35l62 -49q-45 -63 -125 -63z" />
    <glyph glyph-name="d.subs" horiz-adv-x="360" 
d="M241 -114v20q-28 -25 -71 -25q-65 0 -107 45.5t-42 109.5t42 109.5t107 45.5q39 0 71 -25v146h81v-426h-81zM179 -43q40 0 62 31v96q-24 31 -62 31q-34 0 -55 -22.5t-21 -56.5t21 -56.5t55 -22.5z" />
    <glyph glyph-name="e.subs" horiz-adv-x="338" 
d="M174 -119q-64 0 -109 44t-45 111t43.5 111t111.5 44q61 0 101.5 -39.5t42.5 -109.5q0 -3 -0.5 -11t-0.5 -12h-218q4 -29 25 -45t49 -16q46 0 69 36l62 -48q-45 -65 -131 -65zM169 123q-23 0 -42.5 -13t-25.5 -39h135q-10 52 -67 52z" />
    <glyph glyph-name="f.subs" horiz-adv-x="216" 
d="M10 114v72h45q-19 20 -19 50q0 33 22.5 54.5t60.5 21.5h88v-72h-60q-33 0 -33 -26q0 -12 8 -20t19 -8h66v-72h-73v-228h-82v228h-42z" />
    <glyph glyph-name="g.subs" horiz-adv-x="354" 
d="M171 -230q-81 0 -133 34l39 72q39 -31 90 -31q76 0 76 54q0 18 -7 27q-32 -25 -73 -25q-65 0 -104.5 42t-39.5 103q0 60 39.5 102.5t104.5 42.5q43 0 71 -25v20h82v-241q12 -28 12 -59q0 -59 -45.5 -87.5t-111.5 -28.5zM171 -24q39 0 63 31v78q-22 30 -63 30
q-31 0 -50.5 -20t-19.5 -49q0 -30 19 -50t51 -20z" />
    <glyph glyph-name="h.subs" horiz-adv-x="355" 
d="M38 -114v426h81v-148q27 27 75 27q60 0 93.5 -36.5t33.5 -97.5v-171h-81v160q0 30 -15.5 49.5t-44.5 19.5q-39 0 -61 -34v-195h-81z" />
    <glyph glyph-name="i.subs" horiz-adv-x="158" 
d="M117 234h-77q-11 14 -11 33q0 20 14.5 35t35.5 15t35.5 -15t14.5 -35q0 -19 -12 -33zM38 -114v300h82v-300h-82z" />
    <glyph glyph-name="j.subs" horiz-adv-x="159" 
d="M-24 -224v77h16q24 0 35.5 8t11.5 29v296h82v-304q0 -106 -124 -106h-21zM119 234h-78q-11 14 -11 33q0 20 14.5 35t35.5 15t35.5 -15t14.5 -35q0 -19 -11 -33z" />
    <glyph glyph-name="k.subs" horiz-adv-x="331" 
d="M38 -114v426h81v-264l106 138h95l-110 -142l125 -158h-97l-119 149v-149h-81z" />
    <glyph glyph-name="l.subs" horiz-adv-x="158" 
d="M38 -114v426h82v-426h-82z" />
    <glyph glyph-name="m.subs" horiz-adv-x="532" 
d="M417 -114v160q0 69 -53 69q-36 0 -57 -34q2 -16 2 -24v-171h-81v160q0 69 -53 69q-37 0 -56 -33v-196h-81v300h81v-22q29 27 72 27q56 0 88 -40q38 40 97 40q60 0 91.5 -37.5t31.5 -96.5v-171h-82z" />
    <glyph glyph-name="uni207F013" horiz-adv-x="355" 
d="M38 -114v300h81v-22q27 27 75 27q60 0 93.5 -36.5t33.5 -97.5v-171h-81v160q0 30 -15.5 49.5t-44.5 19.5q-39 0 -61 -34v-195h-81z" />
    <glyph glyph-name="o.subs" horiz-adv-x="352" 
d="M176 -42q32 0 52.5 22t20.5 56t-20.5 56t-52.5 22t-52.5 -22t-20.5 -56t20.5 -56t52.5 -22zM176 -119q-66 0 -111 45t-45 110t45 110t111 45t111 -45t45 -110t-45 -110t-111 -45z" />
    <glyph glyph-name="p.subs" horiz-adv-x="360" 
d="M38 -224v410h81v-20q32 25 72 25q64 0 106 -45.5t42 -109.5t-42 -109.5t-106 -45.5q-44 0 -72 25v-130h-81zM181 115q-38 0 -62 -31v-96q22 -31 62 -31q34 0 55 22.5t21 56.5t-21 56.5t-55 22.5z" />
    <glyph glyph-name="q.subs" horiz-adv-x="360" 
d="M241 -224v130q-28 -25 -71 -25q-65 0 -107 45.5t-42 109.5t42 109.5t107 45.5q39 0 71 -25v20h81v-410h-81zM179 -43q40 0 62 31v96q-24 31 -62 31q-34 0 -55 -22.5t-21 -56.5t21 -56.5t55 -22.5z" />
    <glyph glyph-name="r.subs" horiz-adv-x="230" 
d="M38 -114v300h81v-28q27 33 72 33q17 0 28 -4v-85q-18 8 -41 8q-41 0 -59 -27v-197h-81z" />
    <glyph glyph-name="s.subs" horiz-adv-x="249" 
d="M124 -119q-79 0 -118 63l63 43q20 -38 57 -38q29 0 29 19q0 11 -8 16.5t-31 14.5l-17 7q-77 30 -77 95q0 39 28.5 64.5t71.5 25.5q63 0 95 -49l-51 -45q-16 27 -43 27q-26 0 -26 -18q0 -9 8 -15t31 -15l16 -6q42 -16 61 -38.5t19 -57.5q0 -43 -30 -68t-78 -25z" />
    <glyph glyph-name="t.subs" horiz-adv-x="241" 
d="M12 114l-17 72h58v50l82 41v-91h89l-16 -72h-73v-115q0 -21 8.5 -29.5t29.5 -8.5h46v-75h-74q-43 0 -67.5 24.5t-24.5 67.5v136h-41z" />
    <glyph glyph-name="u.subs" horiz-adv-x="354" 
d="M235 -114v23q-29 -28 -76 -28q-59 0 -92.5 36.5t-33.5 97.5v171h82v-160q0 -31 15 -50t43 -19q44 0 62 36v193h82v-300h-82z" />
    <glyph glyph-name="v.subs" horiz-adv-x="330" 
d="M165 -119l-171 305h94l77 -148l77 148h94z" />
    <glyph glyph-name="w.subs" horiz-adv-x="436" 
d="M98 -114l-95 300h85l54 -180l76 185l76 -185l54 180h86l-96 -300h-62l-58 137l-58 -137h-62z" />
    <glyph glyph-name="x.subs" horiz-adv-x="329" 
d="M2 -114l110 151l-105 149h95l63 -92l62 92h94l-104 -149l110 -151h-95l-68 96l-68 -96h-94z" />
    <glyph glyph-name="y.subs" horiz-adv-x="309" 
d="M66 -224l45 116l-113 294h87l70 -196l69 196h87l-159 -410h-86z" />
    <glyph glyph-name="z.subs" horiz-adv-x="306" 
d="M9 -114l148 229h-130v71h267l-147 -229h138v-71h-276z" />
    <glyph glyph-name="uni2080.zero" horiz-adv-x="484" 
d="M242 -119q-91 0 -155 63.5t-64 154.5t64 154.5t155 63.5q90 0 154.5 -64t64.5 -154t-64.5 -154t-154.5 -64zM242 -43q59 0 98 41t39 101q0 1 -0.5 4t-0.5 5l-251 -89q38 -62 115 -62zM105 99v-9l251 89q-40 62 -114 62q-59 0 -98 -41t-39 -101z" />
    <glyph glyph-name="period.subs" horiz-adv-x="188" 
d="M94 -119q-25 0 -42.5 17.5t-17.5 42.5t17.5 42.5t42.5 17.5t42.5 -17.5t17.5 -42.5t-17.5 -42.5t-42.5 -17.5z" />
    <glyph glyph-name="hyphen.subs" horiz-adv-x="217" 
d="M26 55v78h165v-78h-165z" />
    <glyph glyph-name="comma.subs" horiz-adv-x="176" 
d="M51 -205l27 91h-39v97h98v-97l-38 -91h-48z" />
    <glyph glyph-name="uni207C014" horiz-adv-x="322" 
d="M29 0v63h263v-63h-263zM29 125v63h263v-63h-263z" />
    <glyph glyph-name="uni207A015" horiz-adv-x="321" 
d="M29 63v62h100v99h63v-99h99v-62h-99v-100h-63v100h-100z" />
    <glyph glyph-name="uni207B016" horiz-adv-x="321" 
d="M29 63v62h262v-62h-262z" />
    <glyph glyph-name="one.frac" horiz-adv-x="236" 
d="M64 284v350l82 83v-433h-82z" />
    <glyph glyph-name="two.frac" horiz-adv-x="382" 
d="M15 284l139 166q-36 0 -73 36.5t-37 93.5q0 56 40.5 95.5t98.5 39.5q57 0 98 -39.5t41 -95.5q0 -52 -42 -102l-98 -118h139v-76h-306zM183 520q26 0 41.5 17.5t15.5 42.5t-15.5 42t-41.5 17t-41.5 -17t-15.5 -42t15.5 -42.5t41.5 -17.5z" />
    <glyph glyph-name="three.frac" horiz-adv-x="350" 
d="M178 279q-84 0 -128 61l58 52q26 -37 66 -37q32 0 51.5 19t19.5 52q0 32 -19.5 51.5t-52.5 19.5h-42l68 137h-130v76h251l-76 -152q83 -37 83 -132q0 -66 -40.5 -106.5t-108.5 -40.5z" />
    <glyph glyph-name="four.frac" horiz-adv-x="335" 
d="M180 284v101h-220l302 332v-260h43v-72h-43v-101h-82zM111 457h69v75z" />
    <glyph glyph-name="five.frac" horiz-adv-x="368" 
d="M184 279q-87 0 -129 61l60 54q23 -39 64 -39q30 0 48 19t18 47q0 27 -18 46.5t-48 19.5q-40 0 -57 -35l-53 22v236h228v-76h-147v-76q13 4 34 4q66 0 105 -39t39 -102q0 -64 -39.5 -103t-104.5 -39z" />
    <glyph glyph-name="six.frac" horiz-adv-x="336" 
d="M168 279q-63 0 -105 40.5t-42 100.5q0 37 27 82l116 208h90l-84 -150q62 0 103.5 -40t41.5 -100t-42 -100.5t-105 -40.5zM168 355q30 0 47.5 19t17.5 46t-17.5 46t-47.5 19q-29 0 -47 -19t-18 -46t18 -46t47 -19z" />
    <glyph glyph-name="seven.frac" horiz-adv-x="281" 
d="M27 284l162 350h-169v76h291l-195 -426h-89z" />
    <glyph glyph-name="eight.frac" horiz-adv-x="342" 
d="M171 279q-63 0 -105.5 40.5t-42.5 100.5q0 72 59 109q-26 29 -26 70q0 48 33.5 82t81.5 34t81.5 -34t33.5 -82q0 -41 -26 -70q59 -39 59 -109q0 -60 -42.5 -100.5t-105.5 -40.5zM171 355q29 0 47.5 19t18.5 46t-18.5 45.5t-47.5 18.5t-47 -18.5t-18 -45.5t18 -46t47 -19z
M171 560q18 0 28 10.5t10 28.5t-10 29t-28 11t-28 -11t-10 -29t10 -28.5t28 -10.5z" />
    <glyph glyph-name="nine.frac" horiz-adv-x="336" 
d="M82 284l84 150q-62 0 -103.5 40t-41.5 100t42 100.5t105 40.5t105 -40.5t42 -100.5q0 -37 -27 -82l-116 -208h-90zM168 509q29 0 47 19t18 46t-18 46t-47 19q-30 0 -47.5 -19t-17.5 -46t17.5 -46t47.5 -19z" />
    <glyph glyph-name="zero.frac" horiz-adv-x="505" 
d="M252 355q59 0 98 41t39 101t-39 101t-98 41t-98 -41t-39 -101t39 -101t98 -41zM252 279q-90 0 -154.5 64t-64.5 154t64.5 154t154.5 64t155 -64t65 -154t-65 -154t-155 -64z" />
    <glyph glyph-name="zero.frac_zero" horiz-adv-x="504" 
d="M252 279q-91 0 -155 63.5t-64 154.5t64 154.5t155 63.5q90 0 154.5 -64t64.5 -154t-64.5 -154t-154.5 -64zM252 355q59 0 98 41t39 101q0 1 -0.5 4t-0.5 5l-251 -89q38 -62 115 -62zM115 497v-9l251 89q-40 62 -114 62q-59 0 -98 -41t-39 -101z" />
    <glyph glyph-name="one.dnom" horiz-adv-x="236" 
d="M64 0v350l82 83v-433h-82z" />
    <glyph glyph-name="two.dnom" horiz-adv-x="382" 
d="M15 0l139 166q-36 0 -73 36.5t-37 93.5q0 56 40.5 95.5t98.5 39.5q57 0 98 -39.5t41 -95.5q0 -52 -42 -102l-98 -118h139v-76h-306zM183 236q26 0 41.5 17.5t15.5 42.5t-15.5 42t-41.5 17t-41.5 -17t-15.5 -42t15.5 -42.5t41.5 -17.5z" />
    <glyph glyph-name="three.dnom" horiz-adv-x="350" 
d="M178 -5q-84 0 -128 61l58 52q26 -37 66 -37q32 0 51.5 19t19.5 52q0 32 -19.5 51.5t-52.5 19.5h-42l68 137h-130v76h251l-76 -152q83 -37 83 -132q0 -66 -40.5 -106.5t-108.5 -40.5z" />
    <glyph glyph-name="four.dnom" horiz-adv-x="335" 
d="M180 0v101h-220l302 332v-260h43v-72h-43v-101h-82zM111 173h69v75z" />
    <glyph glyph-name="five.dnom" horiz-adv-x="368" 
d="M184 -5q-87 0 -129 61l60 54q23 -39 64 -39q30 0 48 19t18 47q0 27 -18 46.5t-48 19.5q-40 0 -57 -35l-53 22v236h228v-76h-147v-76q13 4 34 4q66 0 105 -39t39 -102q0 -64 -39.5 -103t-104.5 -39z" />
    <glyph glyph-name="six.dnom" horiz-adv-x="336" 
d="M168 -5q-63 0 -105 40.5t-42 100.5q0 37 27 82l116 208h90l-84 -150q62 0 103.5 -40t41.5 -100t-42 -100.5t-105 -40.5zM168 71q30 0 47.5 19t17.5 46t-17.5 46t-47.5 19q-29 0 -47 -19t-18 -46t18 -46t47 -19z" />
    <glyph glyph-name="seven.dnom" horiz-adv-x="281" 
d="M27 0l162 350h-169v76h291l-195 -426h-89z" />
    <glyph glyph-name="eight.dnom" horiz-adv-x="342" 
d="M171 -5q-63 0 -105.5 40.5t-42.5 100.5q0 72 59 109q-26 29 -26 70q0 48 33.5 82t81.5 34t81.5 -34t33.5 -82q0 -41 -26 -70q59 -39 59 -109q0 -60 -42.5 -100.5t-105.5 -40.5zM171 71q29 0 47.5 19t18.5 46t-18.5 45.5t-47.5 18.5t-47 -18.5t-18 -45.5t18 -46t47 -19z
M171 276q18 0 28 10.5t10 28.5t-10 29t-28 11t-28 -11t-10 -29t10 -28.5t28 -10.5z" />
    <glyph glyph-name="nine.dnom" horiz-adv-x="336" 
d="M82 0l84 150q-62 0 -103.5 40t-41.5 100t42 100.5t105 40.5t105 -40.5t42 -100.5q0 -37 -27 -82l-116 -208h-90zM168 225q29 0 47 19t18 46t-18 46t-47 19q-30 0 -47.5 -19t-17.5 -46t17.5 -46t47.5 -19z" />
    <glyph glyph-name="zero.dnom" horiz-adv-x="505" 
d="M252 71q59 0 98 41t39 101t-39 101t-98 41t-98 -41t-39 -101t39 -101t98 -41zM252 -5q-90 0 -154.5 64t-64.5 154t64.5 154t154.5 64t155 -64t65 -154t-65 -154t-155 -64z" />
    <glyph glyph-name="zero.dnom_zero" horiz-adv-x="504" 
d="M252 -5q-91 0 -155 63.5t-64 154.5t64 154.5t155 63.5q90 0 154.5 -64t64.5 -154t-64.5 -154t-154.5 -64zM252 71q59 0 98 41t39 101q0 1 -0.5 4t-0.5 5l-251 -89q38 -62 115 -62zM115 213v-9l251 89q-40 62 -114 62q-59 0 -98 -41t-39 -101z" />
    <glyph glyph-name="ampersand.case" horiz-adv-x="640" 
d="M259 -8q-96 0 -161 65.5t-65 159.5t65 159.5t161 65.5h8l-141 268h390v-114h-199l314 -596h-131l-55 107q-54 -115 -186 -115zM259 101q48 0 80 32.5t32 83.5q0 50 -32 83t-80 33q-49 0 -81 -33t-32 -83q0 -51 32 -83.5t81 -32.5z" />
    <glyph glyph-name="hyphen.case" horiz-adv-x="364" 
d="M53 298v109h258v-109h-258z" />
    <glyph glyph-name="endash.case" horiz-adv-x="559" 
d="M53 300v105h453v-105h-453z" />
    <glyph glyph-name="emdash.case" horiz-adv-x="859" 
d="M806 300h-753v105h753v-105z" />
    <glyph glyph-name="question.case" horiz-adv-x="498" 
d="M191 280v106h57q50 0 81 32t31 81t-31 81t-81 32t-81 -32t-31 -81h-113q0 93 64.5 156t160.5 63q95 0 160 -63.5t65 -155.5t-65 -155.5t-160 -63.5h-57zM243 -8q-35 0 -60.5 25.5t-25.5 61.5q0 45 36 70h101q36 -27 36 -70q0 -36 -25.5 -61.5t-61.5 -25.5z" />
    <glyph glyph-name="questiondown.case" horiz-adv-x="498" 
d="M250 -8q-95 0 -160 63.5t-65 155.5t65 155.5t160 63.5h57v-106h-57q-50 0 -81 -32t-31 -81t31 -81t81 -32t81 32t31 81h113q0 -93 -64.5 -156t-160.5 -63zM305 561h-101q-36 27 -36 70q0 36 25.5 61.5t61.5 25.5q35 0 60.5 -25.5t25.5 -61.5q0 -45 -36 -70z" />
    <glyph glyph-name="exclam.case" horiz-adv-x="317" 
d="M122 233l-22 192v285h117v-285l-21 -192h-74zM158 -8q-35 0 -60.5 25.5t-25.5 61.5q0 45 36 70h101q36 -27 36 -70q0 -36 -25.5 -61.5t-61.5 -25.5z" />
    <glyph glyph-name="exclamdown.case" horiz-adv-x="317" 
d="M195 478l22 -192v-285h-117v285l21 192h74zM159 719q35 0 60.5 -25.5t25.5 -61.5q0 -45 -36 -70h-101q-36 27 -36 70q0 36 25.5 61.5t61.5 25.5z" />
    <glyph glyph-name="guilsinglleft.case" horiz-adv-x="324" 
d="M196 82l-156 228l156 228l75 -51l-121 -177l121 -177z" />
    <glyph glyph-name="guilsinglright.case" horiz-adv-x="324" 
d="M284 310l-156 -228l-75 51l121 177l-121 177l75 51z" />
    <glyph glyph-name="guillemotleft.case" horiz-adv-x="539" 
d="M411 82l-156 228l156 228l75 -51l-121 -177l121 -177zM196 82l-156 228l156 228l75 -51l-121 -177l121 -177z" />
    <glyph glyph-name="guillemotright.case" horiz-adv-x="539" 
d="M499 310l-156 -228l-75 51l121 177l-121 177l75 51zM284 310l-156 -228l-75 51l121 177l-121 177l75 51z" />
    <glyph glyph-name="parenleft.case" horiz-adv-x="272" 
d="M173 -9q-110 180 -110 364q0 181 110 365l80 -37q-49 -92 -71 -168t-22 -160t21.5 -159.5t70.5 -167.5z" />
    <glyph glyph-name="parenright.case" horiz-adv-x="272" 
d="M99 -9l-79 37q49 92 70.5 167.5t21.5 159.5t-22 160t-71 168l80 37q110 -184 110 -365q0 -184 -110 -364z" />
    <glyph glyph-name="bracketleft.case" horiz-adv-x="298" 
d="M74 0v710h203v-85h-107v-540h107v-85h-203z" />
    <glyph glyph-name="bracketright.case" horiz-adv-x="298" 
d="M224 710v-710h-203v85h107v540h-107v85h203z" />
    <glyph glyph-name="braceleft.case" horiz-adv-x="321" 
d="M237 0q-135 0 -135 143v105q0 33 -12 49t-44 16h-13v84h13q32 0 44 16t12 49v105q0 143 132 143h65v-85h-42q-34 0 -46 -14.5t-12 -51.5v-98q0 -84 -57 -106q57 -23 57 -106v-98q0 -37 12 -51.5t46 -14.5h42v-85h-62z" />
    <glyph glyph-name="braceright.case" horiz-adv-x="321" 
d="M84 0h-62v85h42q34 0 46 14.5t12 51.5v98q0 83 57 106q-57 22 -57 106v98q0 37 -12 51.5t-46 14.5h-42v85h65q132 0 132 -143v-105q0 -33 12 -49t44 -16h13v-84h-13q-32 0 -44 -16t-12 -49v-105q0 -143 -135 -143z" />
    <glyph glyph-name="bar.case" horiz-adv-x="263" 
d="M83 0v710h97v-710h-97z" />
    <glyph glyph-name="brokenbar.case" horiz-adv-x="263" 
d="M83 0v292h97v-292h-97zM83 419v291h97v-291h-97z" />
    <glyph glyph-name="periodcentered.case" horiz-adv-x="301" 
d="M151 266q-36 0 -61.5 25.5t-25.5 61.5q0 35 25.5 60.5t61.5 25.5t61 -25.5t25 -60.5q0 -36 -25 -61.5t-61 -25.5z" />
    <glyph glyph-name="plus017" horiz-adv-x="633" 
d="M98 308v88h174v170h89v-170h174v-88h-174v-174h-89v174h-174z" />
    <glyph glyph-name="minus018" horiz-adv-x="633" 
d="M98 308v88h437v-88h-437z" />
    <glyph glyph-name="divide019" horiz-adv-x="633" 
d="M316 121q-29 0 -50 21t-21 50q0 30 21 50.5t50 20.5q30 0 51 -20.5t21 -50.5q0 -29 -21 -50t-51 -21zM98 308v88h437v-88h-437zM316 440q-29 0 -50 21t-21 51q0 29 21 50t50 21q30 0 51 -21t21 -50q0 -30 -21 -51t-51 -21z" />
    <glyph glyph-name="multiply020" horiz-adv-x="590" 
d="M161 162l-63 62l135 134l-135 135l63 62l134 -135l135 135l62 -62l-135 -135l135 -134l-62 -62l-135 134z" />
    <glyph glyph-name="equal021" horiz-adv-x="638" 
d="M98 205v88h442v-88h-442zM98 417v88h442v-88h-442z" />
    <glyph glyph-name="plusminus022" horiz-adv-x="633" 
d="M98 365v88h174v129h89v-129h174v-88h-174v-133h-89v133h-174zM98 82v88h437v-88h-437z" />
    <glyph glyph-name="less023" horiz-adv-x="481" 
d="M345 70l-289 282l289 282l64 -65l-224 -217l224 -218z" />
    <glyph glyph-name="greater024" horiz-adv-x="481" 
d="M136 70l-64 64l224 218l-224 217l64 65l289 -282z" />
    <glyph glyph-name="lessequal025" horiz-adv-x="651" 
d="M536 211l-455 209l455 211v-98l-245 -113l245 -112v-97zM81 83v88h455v-88h-455z" />
    <glyph glyph-name="greaterequal026" horiz-adv-x="651" 
d="M115 206v97l244 112l-244 113v98l455 -211zM115 78v88h455v-88h-455z" />
    <glyph glyph-name="notequal027" horiz-adv-x="638" 
d="M98 417v88h278l84 115l69 -50l-47 -65h58v-88h-122l-89 -124h211v-88h-275l-86 -120l-69 51l50 69h-62v88h125l90 124h-215z" />
    <glyph glyph-name="acute.case" horiz-adv-x="319" 
d="M64 768l74 145h130l-117 -145h-87z" />
    <glyph glyph-name="breve.case" horiz-adv-x="419" 
d="M209 763q-71 0 -117.5 44.5t-48.5 110.5h71q2 -37 28.5 -61.5t67.5 -24.5t67.5 25t27.5 61h72q-2 -66 -48.5 -110.5t-119.5 -44.5z" />
    <glyph glyph-name="caron.case" horiz-adv-x="436" 
d="M218 759l-174 92l37 72l137 -73l138 73l37 -73z" />
    <glyph glyph-name="cedilla.case" horiz-adv-x="267" 
d="M52 -132l58 132h82l-40 -132h-100z" />
    <glyph glyph-name="circumflex.case" horiz-adv-x="435" 
d="M80 760l-37 73l175 91l174 -91l-37 -73l-137 73z" />
    <glyph glyph-name="dieresis.case" horiz-adv-x="468" 
d="M140 774q-28 0 -48 19.5t-20 48.5q0 28 20.5 48t47.5 20q29 0 48.5 -20t19.5 -48q0 -29 -19.5 -48.5t-48.5 -19.5zM370 774q-28 0 -48 19.5t-20 48.5q0 28 20 48t48 20q29 0 48.5 -20t19.5 -48q0 -29 -19.5 -48.5t-48.5 -19.5z" />
    <glyph glyph-name="dotaccent.case" horiz-adv-x="230" 
d="M115 770q-29 0 -50.5 21t-21.5 51t21.5 51t50.5 21q30 0 51 -21t21 -51t-21 -51t-51 -21z" />
    <glyph glyph-name="grave.case" horiz-adv-x="319" 
d="M169 768l-118 145h130l75 -145h-87z" />
    <glyph glyph-name="hungarumlaut.case" horiz-adv-x="508" 
d="M64 768l74 145h121l-117 -145h-78zM264 768l75 145h120l-117 -145h-78z" />
    <glyph glyph-name="macron.case" horiz-adv-x="410" 
d="M52 799v76h306v-76h-306z" />
    <glyph glyph-name="ogonek.case" horiz-adv-x="288" 
d="M162 -189q-48 0 -79.5 27t-31.5 71q0 56 64 91h119q-77 -36 -77 -72q0 -17 11.5 -27.5t31.5 -10.5q18 0 36 9v-69q-34 -19 -74 -19z" />
    <glyph glyph-name="ring.case" horiz-adv-x="303" 
d="M153 807q20 0 33.5 13t13.5 34q0 20 -13.5 34t-33.5 14t-34 -14t-14 -34q0 -21 13.5 -34t34.5 -13zM153 750q-45 0 -76 30t-31 74q0 45 31 74.5t76 29.5t76 -30t31 -74t-31 -74t-76 -30z" />
    <glyph glyph-name="tilde.case" horiz-adv-x="474" 
d="M54 777l4 23q8 47 40 75t70 28q32 0 72 -21.5t54 -21.5q20 0 30 9.5t16 33.5h78l-3 -22q-8 -47 -39 -75t-70 -28q-32 0 -73 21.5t-54 21.5q-20 0 -30.5 -10t-15.5 -34h-79z" />
    <glyph glyph-name="A.salt" horiz-adv-x="641" 
d="M79 0v710h483v-710h-116v242h-251v-242h-116zM195 596v-242h251v242h-251z" />
    <glyph glyph-name="B.salt" horiz-adv-x="733" 
d="M78 0v710h409v-210h176v-500h-585zM194 388v-274h353v274h-353zM194 596v-96h176v96h-176z" />
    <glyph glyph-name="C.salt" horiz-adv-x="591" 
d="M79 0v710h468v-114h-352v-482h352v-114h-468z" />
    <glyph glyph-name="G.salt" horiz-adv-x="737" 
d="M371 304v112h292v-416h-584v710h526v-114h-410v-482h352v190h-176z" />
    <glyph glyph-name="J.salt" horiz-adv-x="398" 
d="M20 0v115h183v595h116v-710h-299z" />
    <glyph glyph-name="O.salt" horiz-adv-x="868" 
d="M195 114h478v482h-478v-482zM79 0v710h710v-710h-710z" />
    <glyph glyph-name="P.salt" horiz-adv-x="621" 
d="M79 0v710h483v-468h-367v-242h-116zM195 596v-242h251v242h-251z" />
    <glyph glyph-name="Q.salt" horiz-adv-x="868" 
d="M79 0v710h710v-710h-299v-184h-113v184h-298zM195 114h182v188h113v-188h183v482h-478v-482z" />
    <glyph glyph-name="S.salt" horiz-adv-x="586" 
d="M74 388v322h438v-114h-321v-96h321v-500h-438v114h322v274h-322z" />
    <glyph glyph-name="U.salt" horiz-adv-x="728" 
d="M79 -1v711h116v-596h338v596h116v-711h-570z" />
    <glyph glyph-name="Y.salt" horiz-adv-x="689" 
d="M59 304v406h117v-294h337v294h117v-406h-227v-304h-117v304h-227z" />
    <glyph glyph-name="b.salt" horiz-adv-x="637" 
d="M70 0v710h110v-210h387v-500h-497zM180 393v-286h277v286h-277z" />
    <glyph glyph-name="c.salt" horiz-adv-x="468" 
d="M70 0v500h343v-107h-233v-286h233v-107h-343z" />
    <glyph glyph-name="d.salt" horiz-adv-x="637" 
d="M70 0v500h387v210h110v-710h-497zM180 393v-286h277v286h-277z" />
    <glyph glyph-name="f.salt" horiz-adv-x="359" 
d="M20 402v98h78v210h240v-98h-130v-112h130v-98h-130v-402h-110v402h-78z" />
    <glyph glyph-name="h.salt" horiz-adv-x="594" 
d="M414 0v393h-234v-393h-110v710h110v-210h344v-500h-110z" />
    <glyph glyph-name="i.salt" horiz-adv-x="250" 
d="M70 0v500h110v-500h-110zM70 597v113h110v-113h-110z" />
    <glyph glyph-name="j.salt" horiz-adv-x="250" 
d="M-35 -184v104h105v580h110v-684h-215zM70 597v113h110v-113h-110z" />
    <glyph glyph-name="k.salt" horiz-adv-x="582" 
d="M412 0v209h-232v-209h-110v710h110v-394h144v184h110v-184h88v-316h-110z" />
    <glyph glyph-name="m.salt" horiz-adv-x="893" 
d="M392 0v393h-212v-393h-110v500h753v-500h-109v393h-212v-393h-110z" />
    <glyph glyph-name="n.salt" horiz-adv-x="594" 
d="M414 0v393h-234v-393h-110v500h454v-500h-110z" />
    <glyph glyph-name="o.salt" horiz-adv-x="640" 
d="M70 0v500h500v-500h-500zM180 393v-286h280v286h-280z" />
    <glyph glyph-name="p.salt" horiz-adv-x="637" 
d="M70 -184v684h497v-500h-387v-184h-110zM180 393v-286h277v286h-277z" />
    <glyph glyph-name="q.salt" horiz-adv-x="637" 
d="M70 0v500h497v-684h-110v184h-387zM180 393v-286h277v286h-277z" />
    <glyph glyph-name="r.salt" horiz-adv-x="367" 
d="M70 0v500h275v-107h-165v-393h-110z" />
    <glyph glyph-name="s.salt" horiz-adv-x="527" 
d="M67 196v304h393v-107h-284v-89h282v-304h-391v107h282v89h-282z" />
    <glyph glyph-name="t.salt" horiz-adv-x="385" 
d="M8 402v98h86v123h110v-123h140v-98h-140v-301h140v-101h-250v402h-86z" />
    <glyph glyph-name="u.salt" horiz-adv-x="593" 
d="M70 0v500h110v-393h233v393h110v-500h-453z" />
    <glyph glyph-name="y.salt" horiz-adv-x="591" 
d="M48 196v304h109v-196h254v196h110v-684h-110v380h-363z" />
    <glyph glyph-name="A.ss02" horiz-adv-x="719" 
d="M10 0l343 710h287v-710h-116v158h-317l-74 -158h-123zM415 596l-156 -332h265v332h-109z" />
    <glyph glyph-name="E.ss02" horiz-adv-x="503" 
d="M246 0q-86 0 -147 61t-61 147q0 88 65 151q-65 60 -65 148q0 84 60 143.5t143 59.5h218v-114h-216q-37 0 -62.5 -26.5t-25.5 -63.5t25.5 -63.5t63.5 -26.5h155v-112h-150q-39 0 -67 -28t-28 -67t28 -67t67 -28h210v-114h-213z" />
    <glyph glyph-name="K.ss02" horiz-adv-x="667" 
d="M79 0v710h116v-356l299 356h140l-301 -356h140l189 -354h-132l-128 240h-207v-240h-116z" />
    <glyph glyph-name="N.ss02" horiz-adv-x="759" 
d="M564 0v145l-369 321v-466h-116v718l485 -423v415h116v-710h-116z" />
    <glyph glyph-name="Q.ss02" 
d="M344 -184v180q-132 21 -219 121t-87 238q0 153 106 258t257 105q152 0 257.5 -105t105.5 -258q0 -138 -87 -238.5t-220 -120.5v-180h-113zM457 413v-305q84 18 136.5 86.5t52.5 160.5q0 107 -70 180t-175 73q-88 0 -154.5 -54.5t-84.5 -140.5h295zM344 299h-182
q14 -72 63 -123.5t119 -67.5v191z" />
    <glyph glyph-name="W.ss02" horiz-adv-x="933" 
d="M331 -8l-329 718h123l211 -468l75 166l-138 302h112l81 -180l82 180h112l-139 -302l76 -166l211 468h123l-329 -718l-136 295z" />
    <glyph glyph-name="X.ss02" horiz-adv-x="667" 
d="M515 0l-219 313l-157 -313h-125l208 419l-202 291h138l211 -303l151 303h126l-203 -409l210 -301h-138z" />
    <glyph glyph-name="Y.ss02" horiz-adv-x="722" 
d="M59 305v405h117v-294h226l183 294h136l-260 -411v-299h-117v305h-285z" />
    <glyph glyph-name="a.ss02" horiz-adv-x="544" 
d="M219 -8q-93 0 -143.5 49t-50.5 120q0 73 55.5 117.5t147.5 44.5q76 0 137 -28v107h-279v98h388v-500h-109v45q-59 -53 -146 -53zM233 92q90 0 132 59v49q-51 31 -122 31q-49 0 -78 -18.5t-29 -51.5q0 -34 27.5 -51.5t69.5 -17.5z" />
    <glyph glyph-name="g.ss02" horiz-adv-x="603" 
d="M104 -184v106h318v142q-57 -44 -133 -44q-110 0 -179.5 69t-69.5 175t69.5 175t179.5 69q77 0 133 -45v37h110v-684h-428zM290 125q88 0 132 67v144q-44 67 -132 67q-59 0 -98 -39t-39 -100t39 -100t98 -39z" />
    <glyph glyph-name="k.ss02" horiz-adv-x="555" 
d="M420 0l-160 168h-80v-168h-110v710h110v-210h254v-107h-254v-118h131l244 -275h-135z" />
    <glyph glyph-name="m.ss02" horiz-adv-x="883" 
d="M713 0v291q0 45 -26.5 78.5t-76.5 33.5q-79 0 -109 -89q1 -9 1 -29v-285h-110v283q0 44 -27 78t-77 34h-108v-395h-110v500h239q102 0 153 -73q60 81 168 81q92 0 142.5 -58.5t50.5 -156.5v-293h-110z" />
    <glyph glyph-name="w.ss02" horiz-adv-x="859" 
d="M238 0l-185 282v218h109v-187l136 -206h76v393h109v-393h77l136 206v187h110v-218l-186 -282h-382z" />
    <glyph glyph-name="b.ss03" horiz-adv-x="523" 
d="M70 0v500h200q94 0 138 -38.5t44 -103.5q0 -64 -38 -92q70 -33 70 -118q0 -64 -47 -106t-142 -42h-225zM299 215h-119v-119h119q75 2 75 59q0 60 -75 60zM276 404h-96v-109h96q66 2 66 54q0 55 -66 55z" />
    <glyph glyph-name="d.ss03" horiz-adv-x="547" 
d="M69 0v500h189q115 0 183.5 -72t68.5 -178t-68.5 -178t-183.5 -72h-189zM254 395h-75v-290h75q67 0 106.5 41.5t39.5 103.5t-39.5 103.5t-106.5 41.5z" />
    <glyph glyph-name="f.ss03" horiz-adv-x="439" 
d="M69 0v500h334v-98h-224v-118h199v-98h-199v-186h-110z" />
    <glyph glyph-name="g.ss03" horiz-adv-x="560" 
d="M294 -8q-107 0 -182 76t-75 182q0 107 75 182.5t184 75.5q66 0 119 -26t84 -61l-81 -66q-50 51 -122 51q-65 0 -106.5 -44.5t-41.5 -111.5q0 -66 41.5 -111t104.5 -45q60 0 106 27v86h-117l42 98h185v-235q-80 -78 -216 -78z" />
    <glyph glyph-name="h.ss03" horiz-adv-x="591" 
d="M410 0v207h-230v-207h-111v500h111v-196h230v196h111v-500h-111z" />
    <glyph glyph-name="i.ss03" horiz-adv-x="249" 
d="M69 0v500h110v-500h-110z" />
    <glyph glyph-name="j.ss03" horiz-adv-x="468" 
d="M219 -8q-89 0 -139 50t-50 148h109q0 -97 80 -97t80 97v310h109v-310q0 -98 -50 -148t-139 -50z" />
    <glyph glyph-name="k.ss03" horiz-adv-x="528" 
d="M69 0v500h110v-249l198 249h125l-203 -252l229 -248h-134l-215 234v-234h-110z" />
    <glyph glyph-name="l.ss03" horiz-adv-x="442" 
d="M69 0v500h110v-402h224v-98h-334z" />
    <glyph glyph-name="p.ss03" horiz-adv-x="483" 
d="M69 0v500h196q94 0 141 -50t47 -117q0 -68 -47 -118t-141 -50h-86v-165h-110zM257 404h-78v-143h78q85 0 85 72q0 71 -85 71z" />
    <glyph glyph-name="q.ss03" horiz-adv-x="597" 
d="M514 -9l-63 51q-67 -50 -154 -50q-110 0 -185 75.5t-75 182.5t75 182.5t185 75.5q109 0 184 -75.5t75 -182.5q0 -78 -42 -142l57 -46zM297 94q39 0 70 16l-66 54l58 69l70 -57q16 33 16 74q0 67 -41.5 111.5t-106.5 44.5t-107 -44.5t-42 -111.5t42 -111.5t107 -44.5z" />
    <glyph glyph-name="t.ss03" horiz-adv-x="440" 
d="M15 402v98h410v-98h-149v-402h-112v402h-149z" />
    <glyph glyph-name="y.ss03" horiz-adv-x="491" 
d="M190 0v198l-189 302h124l121 -206l120 206h124l-189 -302v-198h-111z" />
    <glyph glyph-name="A.ss04" horiz-adv-x="714" 
d="M10 0l347 718l347 -718h-125l-222 474l-223 -474h-124zM357 -8q-34 0 -58 23.5t-24 57.5t24 58t58 24q33 0 57 -24t24 -58t-24 -57.5t-57 -23.5z" />
    <glyph glyph-name="E.ss04" horiz-adv-x="544" 
d="M79 0v710h421v-114h-305v-482h305v-114h-421zM348 274q-34 0 -58 23.5t-24 57.5t24 57.5t58 23.5t57.5 -23.5t23.5 -57.5t-23.5 -57.5t-57.5 -23.5z" />
    <glyph glyph-name="F.ss04" horiz-adv-x="514" 
d="M79 0v710h412v-114h-296v-596h-116zM344 279q-34 0 -58 23.5t-24 57.5t24 57.5t58 23.5t57.5 -23.5t23.5 -57.5t-23.5 -57.5t-57.5 -23.5z" />
    <glyph glyph-name="G.ss04" horiz-adv-x="730" 
d="M401 -8q-151 0 -257 105t-106 258t106 258t257 105q161 0 259 -103l-75 -82q-70 75 -184 75q-105 0 -175 -73t-70 -180t70 -180t175 -73q84 0 145 38v276h116v-333q-107 -91 -261 -91zM401 274q-33 0 -57 23.5t-24 57.5t24 57.5t57 23.5q34 0 58 -23.5t24 -57.5
t-24 -57.5t-58 -23.5z" />
    <glyph glyph-name="H.ss04" horiz-adv-x="743" 
d="M79 0v710h116v-710h-116zM371 279q-34 0 -57.5 23.5t-23.5 57.5t23.5 57.5t57.5 23.5t58 -23.5t24 -57.5t-24 -57.5t-58 -23.5zM547 0v710h117v-710h-117z" />
    <glyph glyph-name="K.ss04" horiz-adv-x="662" 
d="M512 0l-317 336v-336h-116v710h116v-357h134l333 -353h-150zM500 555q-34 0 -58 24t-24 58t24 57.5t58 23.5q33 0 57 -23.5t24 -57.5t-24 -58t-57 -24z" />
    <glyph glyph-name="O.ss04" 
d="M401 274q-34 0 -57.5 23.5t-23.5 57.5t23.5 57.5t57.5 23.5t57.5 -23.5t23.5 -57.5t-23.5 -57.5t-57.5 -23.5zM401 102q105 0 175 73t70 180t-70 180t-175 73t-175 -73t-70 -180t70 -180t175 -73zM401 -8q-151 0 -257 105t-106 258t106 258t257 105q152 0 257.5 -105
t105.5 -258t-105.5 -258t-257.5 -105z" />
    <glyph glyph-name="Q.ss04" 
d="M752 -8l-111 90q-102 -89 -240 -89q-151 0 -257 105t-106 258t106 258t257 105q152 0 257.5 -105t105.5 -258q0 -106 -54 -192l111 -90zM401 103q105 0 175 73t70 180t-70 180t-175 73t-175 -73t-70 -180t70 -180t175 -73zM401 275q-34 0 -57.5 23.5t-23.5 57.5
t23.5 57.5t57.5 23.5t57.5 -23.5t23.5 -57.5t-23.5 -57.5t-57.5 -23.5z" />
    <glyph glyph-name="Y.ss04" horiz-adv-x="641" 
d="M262 299l-261 411h136l183 -293l183 293h137l-261 -411h-117zM320 -8q-33 0 -57.5 24t-24.5 57q0 34 24.5 58t57.5 24q34 0 57.5 -24t23.5 -58t-23.5 -57.5t-57.5 -23.5z" />
    <glyph glyph-name="A.ss05" horiz-adv-x="714" 
d="M357 0v115h168l-168 359l-223 -474h-124l347 718l347 -718h-347z" />
    <glyph glyph-name="E.ss05" horiz-adv-x="533" 
d="M14 0l236 355l-236 355h480v-114h-274l162 -241l-162 -241h274v-114h-480z" />
    <glyph glyph-name="F.ss05" horiz-adv-x="522" 
d="M97 0v416h140l-196 294h468v-114h-262l197 -292h-231v-304h-116z" />
    <glyph glyph-name="R.ss05" horiz-adv-x="613" 
d="M79 0v709h18v1h508l-219 -371l218 -339h-131l-216 337l153 259h-215v-596h-116z" />
    <glyph glyph-name="S.ss05" horiz-adv-x="544" 
d="M163 0l180 304h-337l238 406h129l-173 -294h338l-246 -416h-129z" />
    <glyph glyph-name="T.ss05" horiz-adv-x="603" 
d="M283 0v359l-284 351h584v-114h-348l164 -203v-393h-116z" />
    <glyph glyph-name="X.ss05" horiz-adv-x="757" 
d="M14 0l278 348l-267 362h706l-266 -361l278 -349h-143l-222 278l-221 -278h-143zM248 596l130 -176l130 176h-260z" />
    <glyph glyph-name="h.ss05" horiz-adv-x="593" 
d="M70 0v710h110v-527l233 317h110v-500h-110v317l-233 -317h-110z" />
    <glyph glyph-name="m.ss05" horiz-adv-x="893" 
d="M70 0v500h110v-310l212 310h110v-309l211 309h110v-500h-110v310l-211 -309v-1h-110v310l-212 -310h-110z" />
    <glyph glyph-name="n.ss05" horiz-adv-x="593" 
d="M70 0v500h110v-317l233 317h110v-500h-110v317l-233 -317h-110z" />
    <glyph glyph-name="r.ss05" horiz-adv-x="314" 
d="M176 337v-337h-109v398l192 110l50 -93z" />
    <glyph glyph-name="s.ss05" horiz-adv-x="515" 
d="M157 0l155 201h-317l233 299h131l-156 -200h317l-232 -300h-131z" />
    <glyph glyph-name="b.ss06" horiz-adv-x="641" 
d="M70 0v710h110v-317l107 107h284v-500h-501zM462 393h-282v-286h282v286z" />
    <glyph glyph-name="d.ss06" horiz-adv-x="641" 
d="M70 0v500h391v210h110v-710h-110v393h-281v-286h281l-107 -107h-284z" />
    <glyph glyph-name="f.ss06" horiz-adv-x="359" 
d="M0 402l98 98v210h240v-98h-130v-112h130v-98h-130v-402h-110v402h-98z" />
    <glyph glyph-name="h.ss06" horiz-adv-x="593" 
d="M180 393v-393h-110v710h110v-317l107 107h236v-500h-110v393h-233z" />
    <glyph glyph-name="j.ss06" horiz-adv-x="250" 
d="M-34 -184l104 104v580h110v-684h-214zM70 597v113h110v-113h-110z" />
    <glyph glyph-name="l.ss06" horiz-adv-x="250" 
d="M70 0v608l110 110v-718h-110z" />
    <glyph glyph-name="m.ss06" horiz-adv-x="893" 
d="M181 393l107 107h214v-500h-110v393h-211zM713 0v393h-211l107 107h214v-500h-110zM70 0v500h110v-500h-110z" />
    <glyph glyph-name="n.ss06" horiz-adv-x="593" 
d="M180 393v-393h-110v500h110v-107l107 107h236v-500h-110v393h-233z" />
    <glyph glyph-name="p.ss06" horiz-adv-x="641" 
d="M70 -184v684h110v-107l107 107h284v-500h-391v-184h-110zM461 393h-281v-286h281v286z" />
    <glyph glyph-name="q.ss06" horiz-adv-x="641" 
d="M461 -184v577h-281v-286h281l-107 -107h-284v500h501v-684h-110z" />
    <glyph glyph-name="r.ss06" horiz-adv-x="367" 
d="M180 393v-393h-110v500h110v-107l107 107h58v-107h-165z" />
    <glyph glyph-name="t.ss06" horiz-adv-x="403" 
d="M112 0v402h-134l246 248l-1 -150h139v-98h-139l-1 -301h140v-101h-250z" />
    <glyph glyph-name="u.ss06" horiz-adv-x="593" 
d="M70 0v500h110v-393h233l-107 -107h-236zM413 0v500h110v-500h-110z" />
    <glyph glyph-name="B.ss07" horiz-adv-x="562" 
d="M79 0v108h214q58 0 88.5 27.5t30.5 73.5t-30.5 74.5t-88.5 28.5h-214v99h178q52 0 79.5 26.5t27.5 69.5q0 41 -27.5 68.5t-79.5 27.5h-178v107h193q94 0 151.5 -56.5t57.5 -137.5q0 -90 -66 -138q114 -48 114 -174q0 -92 -66 -148t-170 -56h-214z" />
    <glyph glyph-name="D.ss07" horiz-adv-x="656" 
d="M79 0v108h168q113 0 183 70t70 177t-70 177t-183 70h-168v108h168q159 0 265 -102t106 -253t-106 -253t-265 -102h-168z" />
    <glyph glyph-name="E.ss07" horiz-adv-x="543" 
d="M79 0v114h420v-114h-420zM79 304v112h360v-112h-360zM79 596v114h420v-114h-420z" />
    <glyph glyph-name="F.ss07" horiz-adv-x="514" 
d="M79 304v112h347v-112h-347zM79 596v114h412v-114h-412z" />
    <glyph glyph-name="H.ss07" horiz-adv-x="684" 
d="M489 0v304h-410v112h410v294h116v-710h-116z" />
    <glyph glyph-name="K.ss07" horiz-adv-x="554" 
d="M404 0l-325 344l307 366h138l-301 -359l331 -351h-150z" />
    <glyph glyph-name="P.ss07" horiz-adv-x="501" 
d="M79 258v108h149q63 0 99 32t36 86t-36 86t-99 32h-149v107l154 1q110 0 179 -62.5t69 -163.5q0 -100 -69 -163t-179 -63h-154z" />
    <glyph glyph-name="R.ss07" horiz-adv-x="564" 
d="M418 0l-214 302h-125v101h161q59 0 89 26.5t30 72.5q0 47 -30 74t-89 27h-161v107h172q99 0 162.5 -57t63.5 -147q0 -69 -39 -120.5t-107 -72.5l226 -313h-139z" />
    <glyph glyph-name="T.ss07" horiz-adv-x="523" 
d="M20 596v114h483v-114h-483z" />
    <glyph glyph-name="Y.ss07" horiz-adv-x="641" 
d="M262 299l-261 411h136l183 -293l183 293h137l-261 -411h-117z" />
    <glyph glyph-name="A.ss08" horiz-adv-x="714" 
d="M115 -176v176h-37v-76q0 -11 -5 -15.5t-9.5 0t-4.5 15.5v76h-49l347 718l347 -718h-125l-74 158h-297l-74 -158v-176q0 -11 -4.5 -15.5t-9.5 0t-5 15.5zM357 474l-99 -210h197z" />
    <glyph glyph-name="C.ss08" horiz-adv-x="681" 
d="M401 -8q-3 0 -7 0.5t-6 0.5v-169q0 -11 -5 -15.5t-9.5 0t-4.5 15.5v169q-23 3 -27 4v-53q0 -11 -5 -15.5t-9.5 0t-4.5 15.5v56q-125 26 -205 124t-80 231q0 153 106 258t257 105q153 0 251 -103l-75 -82q-70 75 -176 75h-13v-506h13q106 0 176 75l75 -82
q-86 -90 -214 -101v-147q0 -11 -5 -15.5t-9.5 0t-4.5 15.5v146q-7 -1 -18 -1zM156 355q0 -86 46 -151.5t121 -89.5v482q-75 -24 -121 -90t-46 -151zM342 601v-493q4 -2 27 -4v502q-18 -2 -27 -5z" />
    <glyph glyph-name="D.ss08" horiz-adv-x="714" 
d="M79 -105v815h225q159 0 265.5 -102t106.5 -253t-106.5 -253t-265.5 -102h-167v-176q0 -11 -4.5 -15.5t-9.5 0t-5 15.5v176h-20v-105q0 -11 -5 -15.5t-9.5 0t-4.5 15.5zM195 108h109q113 0 183.5 70t70.5 177t-70.5 177t-183.5 70h-109v-494z" />
    <glyph glyph-name="E.ss08" horiz-adv-x="544" 
d="M441 -112v112h-19v-176q0 -11 -5 -15.5t-9.5 0t-4.5 15.5v176h-324v710h421v-114h-305v-180h245v-112h-245v-190h305v-254q0 -11 -5 -15.5t-9.5 0t-4.5 15.5v140h-21v-112q0 -11 -5 -15.5t-9.5 0t-4.5 15.5z" />
    <glyph glyph-name="G.ss08" horiz-adv-x="730" 
d="M388 264v40h-37l51 112h260v-333q-90 -78 -225 -89v-170q0 -11 -4.5 -15.5t-9.5 0t-5 15.5v169q-4 0 -9.5 -0.5t-7.5 -0.5q-151 0 -257 105t-106 258t106 258t257 105q161 0 259 -103l-75 -82q-70 75 -184 75q-105 0 -175 -73t-70 -180t70 -180t175 -73h17v202h-11v-40
q0 -11 -4.5 -15.5t-9.5 0t-5 15.5zM449 240v64h-12v-200q63 6 109 36v164h-78v-64q0 -11 -5 -15.5t-9.5 0t-4.5 15.5z" />
    <glyph glyph-name="H.ss08" horiz-adv-x="742" 
d="M304 260v44h-109v-438q0 -11 -4.5 -15.5t-9.5 0t-5 15.5v134h-23v-80q0 -11 -4.5 -15.5t-9.5 0t-5 15.5v80h-55v710h116v-294h352v294h116v-710h-116v304h-174v-480q0 -11 -4.5 -15.5t-9.5 0t-5 15.5v480h-31v-44q0 -11 -4.5 -15.5t-9.5 0t-5 15.5z" />
    <glyph glyph-name="M.ss08" horiz-adv-x="856" 
d="M448 -176v381l-11 -12v-239q0 -11 -4.5 -15.5t-9.5 0t-5 15.5v241l-15 16v-13q0 -11 -4.5 -15.5t-9.5 0t-5 15.5v33l-189 205v-436h-116v718l349 -372l349 372v-718h-116v436l-194 -210v-402q0 -11 -4.5 -15.5t-9.5 0t-5 15.5z" />
    <glyph glyph-name="N.ss08" horiz-adv-x="759" 
d="M661 -119v129l-30 28v-214q0 -11 -4.5 -15.5t-9.5 0t-5 15.5v232l-417 397v-453h-116v718l485 -461v453h116v-829q0 -11 -5 -15.5t-9.5 0t-4.5 15.5z" />
    <glyph glyph-name="O.ss08" 
d="M401 -8q-77 0 -148 30v-123q0 -11 -4.5 -15.5t-9.5 0t-5 15.5v132q-89 45 -142.5 131.5t-53.5 192.5q0 153 106 258t257 105q152 0 257.5 -105t105.5 -258q0 -96 -43.5 -176t-119.5 -129v-82q0 -11 -4.5 -15.5t-9.5 0t-5 15.5v71q-16 -10 -29 -15v-200q0 -11 -4.5 -15.5
t-9.5 0t-5 15.5v192q-61 -24 -133 -24zM401 102q105 0 175 73t70 180t-70 180t-175 73t-175 -73t-70 -180t70 -180t175 -73z" />
    <glyph glyph-name="Q.ss08" 
d="M696 -95v132l-54 44q-102 -89 -241 -89q-151 0 -257 105t-106 258t106 258t257 105q152 0 257.5 -105t105.5 -258q0 -101 -53 -191l110 -90l-65 -77v-173q0 -11 -5 -15.5t-9.5 0t-4.5 15.5v180l-22 18v-117q0 -11 -4.5 -15.5t-9.5 0t-5 15.5zM401 102q87 0 152 52
l-101 83l69 82l99 -81q26 57 26 117q0 107 -70 180t-175 73t-175 -73t-70 -180t70 -180t175 -73z" />
    <glyph glyph-name="R.ss08" horiz-adv-x="622" 
d="M122 -36v36h-24v-176q0 -11 -5 -15.5t-9.5 0t-4.5 15.5v886h230q99 0 162.5 -57t63.5 -147q0 -69 -39 -120.5t-107 -72.5l226 -313h-139l-214 302h-67v-302h-54v-36q0 -11 -4.5 -15.5t-9.5 0t-5 15.5zM195 403h103q59 0 89 26.5t30 72.5q0 47 -30 74t-89 27h-103v-200z
" />
    <glyph glyph-name="S.ss08" horiz-adv-x="518" 
d="M259 -8q-79 0 -137 30v-198q0 -11 -5 -15.5t-9.5 0t-4.5 15.5v208q-53 32 -83 81l83 70v209q-55 55 -55 138t63 135.5t148 52.5q125 0 199 -90l-80 -83q-28 34 -55.5 48.5t-64.5 14.5q-38 0 -66 -21t-28 -56t24 -60.5t79 -48.5l55 -25q163 -72 163 -203q0 -100 -72 -155
v-75q0 -11 -4.5 -15.5t-9.5 0t-5 15.5v62l-24 -12v-100q0 -11 -5 -15.5t-9.5 0t-4.5 15.5v92q-44 -14 -92 -14zM264 299l-56 24q-50 22 -86 51v-205q60 -67 136 -67q52 0 80.5 22t28.5 60q0 39 -24 65t-79 50z" />
    <glyph glyph-name="U.ss08" horiz-adv-x="711" 
d="M356 -8q-35 0 -65 6v-174q0 -11 -4.5 -15.5t-9.5 0t-5 15.5v178l-24 7q0 -11 -5 -15t-9.5 0.5t-4.5 15.5v6q-75 33 -117 100t-42 160v434h116v-437q0 -82 46.5 -126.5t123.5 -44.5t123 44.5t46 126.5v437h116v-434q0 -131 -80 -208v-94q0 -11 -4.5 -15.5t-9.5 0t-5 15.5
v78q-75 -60 -186 -60z" />
    <glyph glyph-name="a.ss08" horiz-adv-x="611" 
d="M431 -74v110q-55 -44 -134 -44q-111 0 -184 74t-73 184t73 184t184 74q78 0 134 -45v37h110v-500h-51v-176q0 -11 -5 -15.5t-9.5 0t-4.5 15.5v176h-21v-74q0 -11 -5 -15.5t-9.5 0t-4.5 15.5zM298 97q41 0 76.5 18.5t56.5 49.5v170q-21 31 -56.5 49.5t-76.5 18.5
q-63 0 -104 -43.5t-41 -109.5t41 -109.5t104 -43.5z" />
    <glyph glyph-name="b.ss08" horiz-adv-x="611" 
d="M291 -72v65q-67 6 -111 43v-212q0 -11 -5 -15.5t-9.5 0t-4.5 15.5v176h-15v-112q0 -11 -5 -15.5t-9.5 0t-4.5 15.5v112h-57v710h110v-247q56 45 134 45q111 0 184 -74t73 -184t-73 -184t-184 -74h-4v-64q0 -11 -5 -15.5t-9.5 0t-4.5 15.5zM313 403q-41 0 -76.5 -18.5
t-56.5 -49.5v-170q21 -31 56.5 -49.5t76.5 -18.5q63 0 104 43.5t41 109.5t-41 109.5t-104 43.5z" />
    <glyph glyph-name="c.ss08" horiz-adv-x="524" 
d="M298 -8h-3v-167q0 -11 -4.5 -15.5t-9.5 0t-5 15.5v168q-103 8 -169.5 80t-66.5 177q0 110 73.5 184t184.5 74q115 0 191 -83l-75 -77q-46 53 -116 53q-63 0 -104 -42.5t-41 -108.5t41 -108.5t104 -42.5q70 0 116 53l75 -77q-55 -61 -134 -77v-107q0 -11 -4.5 -15.5
t-9.5 0t-5 15.5v104q-3 -1 -10 -1v-16q0 -11 -5 -15.5t-9.5 0t-4.5 15.5v14h-9z" />
    <glyph glyph-name="e.ss08" horiz-adv-x="574" 
d="M298 -8q-26 0 -46 4v-103q0 -11 -5 -15.5t-9.5 0t-4.5 15.5v107l-12.5 3t-12.5 4v-51q0 -11 -5 -15.5t-9.5 0t-4.5 15.5v58q-69 30 -109 93t-40 143q0 110 73.5 184t182.5 74q105 0 169 -69t70 -189v-30h-171v-107q38 15 64 45l74 -79q-53 -61 -138 -80v-175
q0 -11 -5 -15.5t-9.5 0t-4.5 15.5v172q-20 -4 -47 -4zM309 185v35h-155q8 -54 47.5 -86.5t96.5 -32.5q24 0 47 6v113h-17v-35q0 -11 -5 -15.5t-9.5 0t-4.5 15.5zM288 407q-46 0 -81.5 -27.5t-49.5 -74.5h152v101q-7 1 -21 1zM328 305h86q-17 80 -86 97v-97z" />
    <glyph glyph-name="f.ss08" horiz-adv-x="359" 
d="M319 555v57h-21v-112h40v-98h-40v-578q0 -11 -5 -15.5t-9.5 0t-4.5 15.5v578h-71v-402h-110v402h-78v98h79q-34 37 -34 86q0 54 39 89t102 35h132v-155q0 -11 -5 -15.5t-9.5 0t-4.5 15.5zM170 558q0 -25 15.5 -40.5t37.5 -17.5h56v112h-43q-31 0 -48.5 -14t-17.5 -40z
" />
    <glyph glyph-name="g.ss08" horiz-adv-x="603" 
d="M290 125q23 0 38 4v270q-15 4 -38 4q-11 0 -14 -1v-24q0 -11 -5 -15.5t-9.5 0t-4.5 15.5v21q-47 -12 -75.5 -47.5t-28.5 -87.5q0 -61 39 -100t98 -39zM422 192v144q-26 40 -75 57v-259q47 16 75 58zM437 16q0 29 -11 51q-34 -28 -79 -40v-74q0 -11 -4.5 -15.5t-9.5 0
t-5 15.5v70q-20 -3 -39 -3q-110 0 -179.5 69t-69.5 175t69.5 175t179.5 69q77 0 133 -45v37h110v-399q20 -47 20 -99q0 -99 -77 -147.5t-186 -48.5q-124 0 -215 60l58 96q71 -51 157 -51q64 0 106 24.5t42 80.5z" />
    <glyph glyph-name="i.ss08" horiz-adv-x="250" 
d="M147 -84v84h-31v-176q0 -11 -5 -15.5t-9.5 0t-4.5 15.5v176h-27v500h77v97h-11v-22q0 -11 -4.5 -15.5t-9.5 0t-5 15.5v22h-15v-48q0 -11 -5 -15.5t-9.5 0t-4.5 15.5v48h-13q-18 21 -18 48q0 30 21.5 51.5t51.5 21.5t51.5 -21.5t21.5 -51.5q0 -27 -18 -48h-14v-97h14v-500
h-14v-84q0 -11 -5 -15.5t-9.5 0t-4.5 15.5z" />
    <glyph glyph-name="k.ss08" horiz-adv-x="535" 
d="M161 -124v124h-21v-176q0 -11 -5 -15.5t-9.5 0t-4.5 15.5v176h-51v710h110v-436l200 226h130l-208 -237l233 -263h-135l-220 249v-373q0 -11 -5 -15.5t-9.5 0t-4.5 15.5z" />
    <glyph glyph-name="n.ss08" horiz-adv-x="583" 
d="M504 -74v74h-91v291q0 43 -31 77.5t-83 34.5q-90 0 -119 -88v-491q0 -11 -5 -15.5t-9.5 0t-4.5 15.5v176h-21v-74q0 -11 -5 -15.5t-9.5 0t-4.5 15.5v74h-51v500h110v-47q49 55 140 55q93 0 148 -59t55 -156v-367q0 -11 -4.5 -15.5t-9.5 0t-5 15.5z" />
    </font>
</defs>
</svg>
