<svg width="23" height="23" viewBox="0 0 23 23" fill="none" xmlns="http://www.w3.org/2000/svg">
<circle cx="11.237" cy="11.237" r="11.237" fill="#FF5959"/>
<path d="M11.4 13.1582C11.582 13.1582 11.736 13.0182 11.736 12.8362V6.5362C11.736 6.3542 11.582 6.2002 11.4 6.2002H10.546C10.364 6.2002 10.224 6.3542 10.224 6.5362V12.8362C10.224 13.0182 10.364 13.1582 10.546 13.1582H11.4ZM10.994 16.1122C11.582 16.1122 11.988 15.7202 11.988 15.1322C11.988 14.5442 11.582 14.1382 10.994 14.1382C10.406 14.1382 10 14.5442 10 15.1322C10 15.7202 10.406 16.1122 10.994 16.1122Z" fill="white"/>
</svg>
